<svg xmlns="http://www.w3.org/2000/svg" viewBox="0 0 500 500"><g id="freepik--background-simple--inject-18"><path d="M158.23,268.7c74.15,50.3,130.61,119.38,209,62.71,93.55-67.64,50-171.09-50.27-218.72C262.78,87,170.26,96.52,116.12,115.05c-42.57,14.57-73.34,52.65-61.54,94.6C67.73,256.36,121.55,243.82,158.23,268.7Z" style="fill:#407BFF"></path><path d="M158.23,268.7c74.15,50.3,130.61,119.38,209,62.71,93.55-67.64,50-171.09-50.27-218.72C262.78,87,170.26,96.52,116.12,115.05c-42.57,14.57-73.34,52.65-61.54,94.6C67.73,256.36,121.55,243.82,158.23,268.7Z" style="fill:#fff;opacity:0.9"></path></g><g id="freepik--Shadow--inject-18"><ellipse id="freepik--path--inject-18" cx="250" cy="416.24" rx="193.89" ry="11.32" style="fill:#f5f5f5"></ellipse></g><g id="freepik--Character--inject-18"><path d="M203.41,347.12a2.23,2.23,0,0,1-2.23-2.23V290l-12.93-78.21H173.1a2.23,2.23,0,0,1,0-4.45h17a2.23,2.23,0,0,1,2.2,1.86l13.27,80.25a2.19,2.19,0,0,1,0,.36v55.06A2.23,2.23,0,0,1,203.41,347.12Z" style="fill:#263238"></path><path d="M181.36,209.59H131.31A6.36,6.36,0,0,0,125,217l10.56,63.85a10.74,10.74,0,0,0,10.6,9h50.06a6.36,6.36,0,0,0,6.27-7.4L192,218.58A10.74,10.74,0,0,0,181.36,209.59Z" style="fill:#407BFF"></path><path d="M209.52,288.18c24,0,43.52,25.94,43.52,57.82s-19.53,57.83-43.52,57.83S166,377.89,166,346s19.52-57.82,43.52-57.82m0-2.22c-25.26,0-45.74,26.88-45.74,60s20.48,60.05,45.74,60.05,45.74-26.88,45.74-60.05-20.48-60-45.74-60Z" style="fill:#e0e0e0"></path><path d="M203.41,291.93c10,0,19.5,5.31,26.84,14.94,7.89,10.35,12.23,24.25,12.23,39.13s-4.34,28.79-12.23,39.14c-7.34,9.63-16.87,14.94-26.84,14.94s-19.51-5.31-26.85-14.94c-7.88-10.35-12.23-24.25-12.23-39.14s4.35-28.78,12.23-39.13c7.34-9.63,16.87-14.94,26.85-14.94m0-8.89c-26.49,0-48,28.19-48,63s21.48,63,48,63,48-28.19,48-63-21.47-63-48-63Z" style="fill:#263238"></path><path d="M273.1,383.14c2.69,0,5.71,4.1,5.71,9.58s-3,9.58-5.71,9.58-5.71-4.1-5.71-9.58,3-9.58,5.71-9.58m0-6.67c-6.84,0-12.38,7.28-12.38,16.25S266.26,409,273.1,409s12.37-7.28,12.37-16.25-5.54-16.25-12.37-16.25Z" style="fill:#263238"></path><path d="M197.17,346c0-4.52,2.79-8.18,6.24-8.18s6.23,3.66,6.23,8.18-2.79,8.19-6.23,8.19S197.17,350.52,197.17,346Z" style="fill:#263238"></path><path d="M273.1,317.24H203.41a2.23,2.23,0,1,1,0-4.45H273.1a2.23,2.23,0,0,1,0,4.45Z" style="fill:#263238"></path><path d="M273.1,394.94a2.22,2.22,0,0,1-2.23-2.22V299.31a32.78,32.78,0,0,0-32.74-32.75H199.19a2.22,2.22,0,1,1,0-4.44h38.94a37.23,37.23,0,0,1,37.19,37.19v93.41A2.22,2.22,0,0,1,273.1,394.94Z" style="fill:#263238"></path><path d="M328.27,382.49a3.31,3.31,0,0,1-2.44-1.07l-29-31.11a17.65,17.65,0,0,0-12.88-5.6H273.1a3.34,3.34,0,1,1,0-6.67H284a24.35,24.35,0,0,1,17.76,7.73l29,31.11a3.34,3.34,0,0,1-2.44,5.61Z" style="fill:#263238"></path><path d="M328.38,384.4l-57.46.24c-3.21,0-8.05-2.31-10.74-5.15l-17.44-18.41c-2.7-2.85-2.27-5.19.94-5.2l57.46-.24c3.22,0,8.05,2.31,10.75,5.15l17.43,18.41C332,382.05,331.59,384.39,328.38,384.4Z" style="fill:#407BFF"></path><path d="M328.38,384.4l-57.46.24c-3.21,0-8.05-2.31-10.74-5.15l-17.44-18.41c-2.7-2.85-2.27-5.19.94-5.2l57.46-.24c3.22,0,8.05,2.31,10.75,5.15l17.43,18.41C332,382.05,331.59,384.39,328.38,384.4Z" style="fill:#fff;opacity:0.5"></path><path d="M279.21,315H142.56a5.82,5.82,0,0,1-5.82-5.82v-5.82H279.21A5.83,5.83,0,0,1,285,309.2h0A5.83,5.83,0,0,1,279.21,315Z" style="fill:#407BFF"></path><path d="M169.2,143.06c1.48,8.8-14.4,24.32-6,34.43,7,8.44,20.12-2.25,20.12-2.25s10.91,17.22,30.89,5.34c10.61-6.3-.7-19.74,4.55-30s7.13-22.76-6.61-24.35c-5.06-9.55-29.54-9.47-28.84-.22C170.69,127.06,167.62,133.66,169.2,143.06Z" style="fill:#263238"></path><path d="M213.87,179.45a.47.47,0,0,1-.43-.28.47.47,0,0,1,.25-.62c7.23-3,6.29-8.42,5.2-14.66-.78-4.49-1.59-9.13.4-13.56,3.54-7.88,4.19-14.71,1.77-18.73-1.66-2.76-4.76-4.31-9.2-4.6a.47.47,0,0,1,.06-.93c4.77.31,8.11,2,9.94,5,3.54,5.88.44,14.81-1.72,19.61-1.87,4.16-1.08,8.66-.32,13,1.11,6.35,2.16,12.36-5.76,15.69A.58.58,0,0,1,213.87,179.45Z" style="fill:#263238"></path><path d="M340.8,373.25c-9.29,4.09-18,1.59-22.93,3.72-4.19,1.82-4.9,2.93-8.41,4-2.92.93-3.75-1.89-3.94-5.39-.09-1.76.24-5.58-.81-8.19l10.76-8.85c3.76,1.92,18.3,10.37,23.59,9.34C344.12,366.91,344.26,371.72,340.8,373.25Z" style="fill:#407BFF"></path><path d="M254.15,303.38C257.77,334.86,304,367,304,367c4.36-1.41,11.45-5.33,12.52-7.67C301.8,340.93,295,326.55,285,293.77a19.28,19.28,0,0,0-13.9-13.11c-12-2.89-25.2-7.88-42.18-11.11-21-1.67-42.66,4.13-42.66,4.13s-12.86,29.7,7.88,29.7h60" style="fill:#407BFF"></path><g style="opacity:0.4"><path d="M254.15,303.38C257.77,334.86,304,367,304,367c4.36-1.41,11.45-5.33,12.52-7.67C301.8,340.93,295,326.55,285,293.77a19.28,19.28,0,0,0-13.9-13.11c-12-2.89-25.2-7.88-42.18-11.11-21-1.67-42.66,4.13-42.66,4.13s-12.86,29.7,7.88,29.7h60"></path></g><path d="M310.65,350c1.56,1.73,4.32,4.71,6.65,6.8a2,2,0,0,1,.72,2.46c-3.62,5.12-11.7,9.24-14.32,10.48a1.77,1.77,0,0,1-1.84-.56l-6.5-6.12c-.89-.84-1.14-2.07-.52-2.57l13.62-11.11C309,349,309.94,349.24,310.65,350Z" style="fill:#263238"></path><path d="M318.29,387.73c-9.81,2.65-18.07-1.14-23.23.22-4.42,1.17-5.29,2.16-8.92,2.71-3,.47-3.43-2.44-3.08-5.93.17-1.75,1.07-5.47.43-8.21l12-7.13c3.42,2.46,16.52,13,21.92,12.79C322.52,382,321.94,386.75,318.29,387.73Z" style="fill:#407BFF"></path><path d="M236.14,303.38c3.62,31.48,46.7,72.61,46.7,72.61,4.52-.73,12.13-3.54,13.54-5.69C284.61,349.9,277,326.55,267,293.77a19.3,19.3,0,0,0-13.9-13.11c-12-2.89-25.2-7.88-42.19-11.11-21-1.67-42.66,4.13-42.66,4.13s-12.85,29.7,7.89,29.7h60" style="fill:#407BFF"></path><g style="opacity:0.30000000000000004"><path d="M236.14,303.38c3.62,31.48,46.7,72.61,46.7,72.61,4.52-.73,12.13-3.54,13.54-5.69C284.61,349.9,277,326.55,267,293.77a19.3,19.3,0,0,0-13.9-13.11c-12-2.89-25.2-7.88-42.19-11.11-21-1.67-42.66,4.13-42.66,4.13s-12.85,29.7,7.89,29.7h60"></path></g><path d="M292,360.22c1.29,1.95,3.57,5.31,5.55,7.72a2.05,2.05,0,0,1,.34,2.55c-4.35,4.52-12.95,7.37-15.73,8.2a1.78,1.78,0,0,1-1.74-.84l-5.5-7c-.75-1-.82-2.21-.13-2.61l15.14-8.93C290.5,358.94,291.4,359.34,292,360.22Z" style="fill:#263238"></path><path d="M219.6,197.49l.17.89.25,1.15c.18.78.38,1.58.59,2.39.45,1.6.92,3.23,1.47,4.84a84.51,84.51,0,0,0,3.9,9.49c.74,1.55,1.55,3.07,2.4,4.56s1.74,3,2.67,4.44a90.49,90.49,0,0,0,6.2,8.34l-5-2.47a15.21,15.21,0,0,0,3.37.1,41,41,0,0,0,4.31-.52c3-.51,6.13-1.2,9.26-2s6.32-1.71,9.51-2.64l9.55-2.89.1,0a4.35,4.35,0,0,1,3.68,7.77c-3,2-5.94,3.74-9,5.44s-6.22,3.24-9.48,4.69c-1.62.73-3.28,1.4-5,2.05s-3.42,1.28-5.23,1.8a54.21,54.21,0,0,1-5.68,1.4,28.5,28.5,0,0,1-6.78.5,6.94,6.94,0,0,1-4.59-2l-.45-.45a86.34,86.34,0,0,1-8.3-9.5,82.61,82.61,0,0,1-6.82-10.68,80.12,80.12,0,0,1-5.15-11.63c-.7-2-1.35-4.06-1.87-6.16-.27-1.06-.52-2.11-.74-3.21l-.3-1.67-.13-.88-.14-1.08a8.68,8.68,0,0,1,17.12-2.78Z" style="fill:#ce7a63"></path><path d="M219.6,197.49l.17.89.25,1.15c.18.78.38,1.58.59,2.39.45,1.6.92,3.23,1.47,4.84a84.51,84.51,0,0,0,3.9,9.49c.74,1.55,1.55,3.07,2.4,4.56s1.74,3,2.67,4.44a90.49,90.49,0,0,0,6.2,8.34l-5-2.47a15.21,15.21,0,0,0,3.37.1,41,41,0,0,0,4.31-.52c3-.51,6.13-1.2,9.26-2s6.32-1.71,9.51-2.64l9.55-2.89.1,0a4.35,4.35,0,0,1,3.68,7.77c-3,2-5.94,3.74-9,5.44s-6.22,3.24-9.48,4.69c-1.62.73-3.28,1.4-5,2.05s-3.42,1.28-5.23,1.8a54.21,54.21,0,0,1-5.68,1.4,28.5,28.5,0,0,1-6.78.5,6.94,6.94,0,0,1-4.59-2l-.45-.45a86.34,86.34,0,0,1-8.3-9.5,82.61,82.61,0,0,1-6.82-10.68,80.12,80.12,0,0,1-5.15-11.63c-.7-2-1.35-4.06-1.87-6.16-.27-1.06-.52-2.11-.74-3.21l-.3-1.67-.13-.88-.14-1.08a8.68,8.68,0,0,1,17.12-2.78Z" style="opacity:0.1"></path><path d="M207.57,183.77c11.69,1.94,16.56,10.94,20.39,30.84-4.76,6.2-22,9.61-22,9.61S197.56,194.53,207.57,183.77Z" style="fill:#407BFF"></path><path d="M207.57,183.77c11.69,1.94,16.56,10.94,20.39,30.84-4.76,6.2-22,9.61-22,9.61S197.56,194.53,207.57,183.77Z" style="fill:#fff;opacity:0.5"></path><path d="M223.68,204.91c.55,5.62,1.55,9.85,1.69,23.34.34,11.41.32,22.65-.05,41.41l-57.25,3.92c.05-16.21-3.09-34.46-15.85-70-3-8.25,1.8-16.7,10.23-18.14,2.25-.39,4.64-.74,7.1-1,9.57-1.12,17.42-2,26-1.78,2.85.06,5.8.22,8.63.42C214.38,183.72,222.67,194.84,223.68,204.91Z" style="fill:#407BFF"></path><path d="M223.68,204.91c.55,5.62,1.55,9.85,1.69,23.34.34,11.41.32,22.65-.05,41.41l-57.25,3.92c.05-16.21-3.09-34.46-15.85-70-3-8.25,1.8-16.7,10.23-18.14,2.25-.39,4.64-.74,7.1-1,9.57-1.12,17.42-2,26-1.78,2.85.06,5.8.22,8.63.42C214.38,183.72,222.67,194.84,223.68,204.91Z" style="fill:#fff;opacity:0.6000000000000001"></path><path d="M178.43,156c.28,7.92-1,22.74-5.58,28.17,0,0,7.15-1.58,23.13,6.86,4-6.68.57-8.48.57-8.48-8.79-1.44-8.2-5.35-5.83-10.9Z" style="fill:#ce7a63"></path><path d="M193.12,189.62c-4.86,1.74-6.13,8.16-6.45,12a2.07,2.07,0,0,1-3.07,1.65c-5.73-3.23-14.44-10.73-15.75-18.88A55.6,55.6,0,0,0,172.5,181S189.67,186.65,193.12,189.62Z" style="fill:#fff"></path><path d="M197.26,188.62s3.65,2.76,6.52,9.56a1,1,0,0,0,1.81-.24c1.76-13.41-6.67-15.71-6.67-15.71a7.11,7.11,0,0,0-5.06-.38A5.94,5.94,0,0,1,197.26,188.62Z" style="fill:#fff"></path><path d="M183.78,164l7,8.89a21.6,21.6,0,0,0-1.31,3.85c-3-1.15-6.63-5.53-6.45-8.85A11.09,11.09,0,0,1,183.78,164Z" style="opacity:0.2"></path><path d="M181.76,139.72c-3.67,11.49-5.46,16.26-2.2,24.48,4.89,12.35,19.34,15,26.26,5,6.22-9,11.17-26.28,2.27-35.52S185.42,128.23,181.76,139.72Z" style="fill:#ce7a63"></path><path d="M185,128.56c-1.42,13.72,24.85,4.8,29.52,13C216.71,134.15,200.94,120.45,185,128.56Z" style="fill:#263238"></path><path d="M179.27,148.6c9.3,0,15.79-7.09,13.34-14.37-1.9-5.62-9-6.39-13.64-3.27S179.27,148.6,179.27,148.6Z" style="fill:#263238;opacity:0.7000000000000001"></path><path d="M197.14,151.21c-.31,1-.06,1.94.54,2.17s1.33-.36,1.63-1.33.06-1.94-.54-2.17S197.44,150.24,197.14,151.21Z" style="fill:#263238"></path><path d="M209,155.39c-.3,1-.06,1.94.54,2.17s1.33-.36,1.63-1.33.06-1.94-.54-2.17S209.26,154.42,209,155.39Z" style="fill:#263238"></path><path d="M210.31,154l2.42.19S211,155.57,210.31,154Z" style="fill:#263238"></path><path d="M204.73,156.13a29.74,29.74,0,0,0,1.35,7.45c-1.58.72-3.47-.63-3.47-.63Z" style="fill:#ba4d3c"></path><path d="M197.23,165.84a9.65,9.65,0,0,0,1.47.78.26.26,0,0,0,.36-.16.32.32,0,0,0-.17-.4,8.41,8.41,0,0,1-4.82-5.46.29.29,0,0,0-.34-.24.29.29,0,0,0-.21.35A8.83,8.83,0,0,0,197.23,165.84Z" style="fill:#263238"></path><path d="M196.05,151.13H196l-16-5.66a.23.23,0,0,1-.15-.29.24.24,0,0,1,.3-.15l16,5.66a.24.24,0,0,1,.15.3A.25.25,0,0,1,196.05,151.13Z" style="fill:#fff"></path><path d="M198.72,158.37h-.21a3.84,3.84,0,0,1-3.12-1.62,4.81,4.81,0,0,1-.35-4.31c1.05-3.07,4.28-5.47,7.2-5.34a3.84,3.84,0,0,1,3.12,1.62,4.82,4.82,0,0,1,.35,4.3A8,8,0,0,1,198.72,158.37Zm3.3-10.81a7.55,7.55,0,0,0-6.54,5,4.35,4.35,0,0,0,.29,3.88,3.38,3.38,0,0,0,2.76,1.42c2.72.11,5.75-2.14,6.74-5l.22.08-.22-.08A4.37,4.37,0,0,0,205,149a3.41,3.41,0,0,0-2.75-1.42Z" style="fill:#fff"></path><path d="M210.35,162.68h-.22a3.81,3.81,0,0,1-3.12-1.62,4.79,4.79,0,0,1-.35-4.3c1.05-3.07,4.28-5.49,7.2-5.35A3.81,3.81,0,0,1,217,153a4.84,4.84,0,0,1,.35,4.31l-.22-.08.22.08C216.3,160.32,213.2,162.68,210.35,162.68Zm3.29-10.82a7.55,7.55,0,0,0-6.54,5,4.37,4.37,0,0,0,.29,3.88,3.38,3.38,0,0,0,2.76,1.42c2.73.11,5.75-2.14,6.74-5a4.37,4.37,0,0,0-.29-3.88,3.41,3.41,0,0,0-2.76-1.42Z" style="fill:#fff"></path><path d="M207.83,155.21a.24.24,0,0,1-.23-.18c-.2-.79-1.92-.84-2.56-.79a.22.22,0,0,1-.25-.21.23.23,0,0,1,.21-.25c.28,0,2.71-.18,3.06,1.14a.24.24,0,0,1-.17.28Z" style="fill:#fff"></path><path d="M174.12,148.63a9.7,9.7,0,0,0,3.29,6.62c2.52,2.1,5.1-.15,5.5-3.49.36-3-.51-7.72-3.57-8.5S173.88,145.38,174.12,148.63Z" style="fill:#ce7a63"></path><path d="M198,144.42a.52.52,0,0,0,.44,0,4.35,4.35,0,0,1,4.1.31.55.55,0,0,0,.79-.13.65.65,0,0,0-.16-.85,5.37,5.37,0,0,0-5.17-.46.59.59,0,0,0-.3.78A.65.65,0,0,0,198,144.42Z" style="fill:#263238"></path><path d="M214.44,151.41a.57.57,0,0,0,.42.08.58.58,0,0,0,.43-.71,6.17,6.17,0,0,0-3.28-4.41.53.53,0,0,0-.72.33.63.63,0,0,0,.34.79,5,5,0,0,1,2.55,3.52A.71.71,0,0,0,214.44,151.41Z" style="fill:#263238"></path><path d="M198.49,149.83l2.41.19S199.2,151.39,198.49,149.83Z" style="fill:#263238"></path><path d="M282,218.42l-3.55-1.18a4.36,4.36,0,0,0-3.94.6l-5.32,3.87a8.12,8.12,0,0,0-3.35,6.65l0,1.63c5.75,2.37,13.71.7,13.71.7l2.33-.23a3.62,3.62,0,0,0,3.36-3.9L284.9,222A4.18,4.18,0,0,0,282,218.42Z" style="fill:#ce7a63"></path><path d="M282,218.42l-3.55-1.18a4.36,4.36,0,0,0-3.94.6l-5.32,3.87a8.12,8.12,0,0,0-3.35,6.65l0,1.63c5.75,2.37,13.71.7,13.71.7l2.33-.23a3.62,3.62,0,0,0,3.36-3.9L284.9,222A4.18,4.18,0,0,0,282,218.42Z" style="opacity:0.1"></path><path d="M229,230.85l-4.08-1.29a5,5,0,0,0-4.5.76l-6,4.52a9.34,9.34,0,0,0-3.71,7.67l0,1.86c6.63,2.62,15.71.56,15.71.56l2.65-.3a4.14,4.14,0,0,0,3.78-4.52l-.52-5.27A4.78,4.78,0,0,0,229,230.85Z" style="fill:#ce7a63"></path><path d="M167.59,210.75l.56,2.34.63,2.48c.44,1.66.88,3.33,1.36,5,.94,3.32,2,6.6,3.1,9.85l.85,2.43.9,2.39c.61,1.59,1.24,3.18,1.9,4.73,1.33,3.11,2.8,6.1,4.37,9l-5.51-3.61a5.59,5.59,0,0,0,1.3.13,6.54,6.54,0,0,0,1,0,10.64,10.64,0,0,0,1.09-.07,40.18,40.18,0,0,0,4.85-.75c1.69-.36,3.42-.76,5.17-1.2s3.5-1,5.26-1.46c3.54-1,7.09-2.15,10.65-3.31l10.68-3.54.08,0a4.34,4.34,0,0,1,3.76,7.73c-3.31,2.2-6.63,4.15-10.06,6s-6.91,3.66-10.5,5.33a106.91,106.91,0,0,1-11.26,4.49,58.21,58.21,0,0,1-6.3,1.68c-.55.12-1.14.22-1.74.31s-1.22.16-1.87.22a22.38,22.38,0,0,1-4.39,0,7.12,7.12,0,0,1-5.19-3.12l-.32-.49a98.53,98.53,0,0,1-6.05-10.24,112.43,112.43,0,0,1-4.8-10.65c-1.43-3.59-2.67-7.25-3.79-10.93-.53-1.85-1.07-3.7-1.52-5.59-.23-.93-.46-1.88-.67-2.83s-.39-1.87-.6-3a8.69,8.69,0,0,1,17-3.66Z" style="fill:#ce7a63"></path><path d="M157.91,187c-10.25,6-11.61,16.1-8.14,36.07,6.65,4.11,24,1.2,24,1.2S171.09,193.54,157.91,187Z" style="fill:#407BFF"></path><path d="M157.91,187c-10.25,6-11.61,16.1-8.14,36.07,6.65,4.11,24,1.2,24,1.2S171.09,193.54,157.91,187Z" style="fill:#fff;opacity:0.6000000000000001"></path><path d="M136.74,347.12a2.22,2.22,0,0,1-2.22-2.23V290l-12.94-78.21H106.43a2.23,2.23,0,0,1,0-4.45h17a2.22,2.22,0,0,1,2.19,1.86l13.27,80.25a2.19,2.19,0,0,1,0,.36v55.06A2.22,2.22,0,0,1,136.74,347.12Z" style="fill:#263238"></path><path d="M136.74,291.93c10,0,19.51,5.31,26.84,14.94,7.89,10.35,12.23,24.25,12.23,39.13s-4.34,28.79-12.23,39.14c-7.33,9.63-16.87,14.94-26.84,14.94s-19.51-5.31-26.84-14.94C102,374.79,97.67,360.89,97.67,346s4.34-28.78,12.23-39.13c7.33-9.63,16.87-14.94,26.84-14.94m0-8.89c-26.49,0-48,28.19-48,63s21.47,63,48,63,48-28.19,48-63-21.47-63-48-63Z" style="fill:#263238"></path><path d="M206.43,383.14c2.7,0,5.71,4.1,5.71,9.58s-3,9.58-5.71,9.58-5.71-4.1-5.71-9.58,3-9.58,5.71-9.58m0-6.67c-6.83,0-12.38,7.28-12.38,16.25S199.6,409,206.43,409s12.38-7.28,12.38-16.25-5.54-16.25-12.38-16.25Z" style="fill:#263238"></path><ellipse cx="136.74" cy="346" rx="6.23" ry="8.18" style="fill:#263238"></ellipse><path d="M131.74,288.18c24,0,43.52,25.94,43.52,57.82s-19.52,57.83-43.52,57.83S88.22,377.89,88.22,346s19.52-57.82,43.52-57.82m0-2.22C106.48,286,86,312.84,86,346s20.48,60.05,45.74,60.05,45.74-26.88,45.74-60.05S157,286,131.74,286Z" style="fill:#e0e0e0"></path><path d="M206.43,317.24H136.74a2.23,2.23,0,0,1,0-4.45h69.69a2.23,2.23,0,0,1,0,4.45Z" style="fill:#263238"></path><path d="M206.43,394.94a2.21,2.21,0,0,1-2.22-2.22V299.31a32.79,32.79,0,0,0-32.75-32.75H132.52a2.22,2.22,0,0,1,0-4.44h38.94a37.23,37.23,0,0,1,37.19,37.19v93.41A2.21,2.21,0,0,1,206.43,394.94Z" style="fill:#263238"></path><path d="M261.6,382.49a3.32,3.32,0,0,1-2.44-1.07l-29-31.11a17.68,17.68,0,0,0-12.88-5.6H206.43a3.34,3.34,0,0,1,0-6.67h10.88a24.37,24.37,0,0,1,17.76,7.73l29,31.11a3.34,3.34,0,0,1-2.44,5.61Z" style="fill:#263238"></path></g><g id="freepik--Table--inject-18"><rect x="53.66" y="327.5" width="168.97" height="8.52" transform="translate(469.9 193.61) rotate(90)" style="fill:#407BFF"></rect><rect x="53.66" y="327.5" width="168.97" height="8.52" transform="translate(469.9 193.61) rotate(90)" style="opacity:0.2"></rect><rect x="275.88" y="327.5" width="168.97" height="8.52" transform="translate(692.12 -28.61) rotate(90)" style="fill:#407BFF"></rect><rect x="275.88" y="327.5" width="168.97" height="8.52" transform="translate(692.12 -28.61) rotate(90)" style="opacity:0.2"></rect><rect x="122.78" y="243.01" width="275.18" height="8.52" style="fill:#407BFF"></rect><rect x="75.89" y="327.5" width="168.97" height="8.52" transform="translate(492.12 171.39) rotate(90)" style="fill:#407BFF"></rect><rect x="122.78" y="243.01" width="52.48" height="8.52" style="opacity:0.2"></rect><rect x="160.37" y="261.78" width="219.75" height="3.64" style="fill:#407BFF"></rect><rect x="389.35" y="326.89" width="1" height="7.56" style="fill:#407BFF"></rect><rect x="389.35" y="290.17" width="1" height="27.95" style="fill:#407BFF"></rect><rect x="298.1" y="327.5" width="168.97" height="8.52" transform="translate(714.34 -50.83) rotate(90)" style="fill:#407BFF"></rect><path d="M232.57,228.66H333.33a5,5,0,0,1,5,5V243a0,0,0,0,1,0,0H227.61a0,0,0,0,1,0,0v-9.4A5,5,0,0,1,232.57,228.66Z" style="fill:#407BFF"></path><path d="M232.57,228.66H333.33a5,5,0,0,1,5,5V243a0,0,0,0,1,0,0H227.61a0,0,0,0,1,0,0v-9.4A5,5,0,0,1,232.57,228.66Z" style="fill:#fff;opacity:0.5"></path><path d="M240.27,197.4h7.64a0,0,0,0,1,0,0v14.68a3.23,3.23,0,0,1-3.23,3.23H243.5a3.23,3.23,0,0,1-3.23-3.23V197.4A0,0,0,0,1,240.27,197.4Z" style="fill:#e0e0e0"></path><path d="M244.09,225.75h0a.59.59,0,0,1-.59-.59V214.3h1.18v10.86A.59.59,0,0,1,244.09,225.75Z" style="fill:#e0e0e0"></path><path d="M252.2,156.35h0a.58.58,0,0,1,.59.58v14.62h-1.18V156.93A.59.59,0,0,1,252.2,156.35Z" style="fill:#e0e0e0"></path><path d="M237.53,175.5v24a4,4,0,0,0,3.95,3.95h7a4,4,0,0,0,2.79-1.16l4.45-4.45a4.72,4.72,0,0,1,4.36-1.27l31.1,6.89a4.71,4.71,0,0,1,3.64,5.36l-3.2,19.82h39.94V175.5a4,4,0,0,0-3.95-3.95H241.48A4,4,0,0,0,237.53,175.5Z" style="fill:#407BFF"></path><path d="M327.56,171.55v57.11h3.95V175.5A4,4,0,0,0,327.56,171.55Z" style="opacity:0.1"></path><path d="M237.53,175.5v24a4,4,0,0,0,3.95,3.95V171.55A4,4,0,0,0,237.53,175.5Z" style="opacity:0.1"></path><circle cx="310.07" cy="212.5" r="8.74" style="fill:#fff;opacity:0.5"></circle><circle cx="310.07" cy="212.5" r="3.69" style="fill:#fff;opacity:0.5"></circle><path d="M264.06,197.25a6.22,6.22,0,1,1-6.22-6.22A6.22,6.22,0,0,1,264.06,197.25Z" style="fill:#407BFF"></path><path d="M264.06,197.25a6.22,6.22,0,1,1-6.22-6.22A6.22,6.22,0,0,1,264.06,197.25Z" style="fill:#fff;opacity:0.5"></path><path d="M260.46,197.25a2.62,2.62,0,1,1-2.62-2.62A2.62,2.62,0,0,1,260.46,197.25Z" style="fill:#fff;opacity:0.5"></path><path d="M331.51,208.07h0V177.82h.23a2.86,2.86,0,0,1,2.86,3l-.84,19.06.59,5A2.87,2.87,0,0,1,331.51,208.07Z" style="fill:#263238"></path><rect x="249.18" y="158.34" width="6.04" height="12.14" rx="1.85" style="fill:#407BFF"></rect><path d="M303.36,166.07h0a.59.59,0,0,1,.59.59v4.89h-1.18v-4.89A.59.59,0,0,1,303.36,166.07Z" style="fill:#e0e0e0"></path><rect x="300.34" y="167.55" width="6.04" height="2.93" rx="0.66" style="fill:#263238"></rect><path d="M319.75,245.61c-2.59-7.29-15.8-2.6-19.51-9.78s-14.44-7.17-14.44-7.17c-5-1.64-47.14-1.76-49.18,0,0,0,10.75,0,14.45,7.17s16.91,2.49,19.5,9.78,3.83,42-1.35,48.51c12.22,2.1,40.85-2.71,51.48,0C326.38,282,322.34,252.89,319.75,245.61Z" style="fill:#263238"></path><g style="opacity:0.30000000000000004"><path d="M286.9,232.33h0c-.67-.06-1.08-.06-1.08-.06a.28.28,0,1,1,0-.56s.43,0,1.13.07a.28.28,0,0,1,.25.3A.27.27,0,0,1,286.9,232.33Z" style="fill:#fff"></path><path d="M319.37,287.37h-.05a.28.28,0,0,1-.22-.33c.13-.69.24-1.42.35-2.17a.29.29,0,0,1,.31-.24.28.28,0,0,1,.24.31c-.11.77-.22,1.51-.36,2.21A.27.27,0,0,1,319.37,287.37ZM320,283h0a.28.28,0,0,1-.25-.3c.07-.72.12-1.45.16-2.2a.29.29,0,0,1,.3-.26.28.28,0,0,1,.26.29c0,.76-.1,1.5-.17,2.22A.26.26,0,0,1,320,283Zm.26-4.42h0a.27.27,0,0,1-.27-.28c0-.73,0-1.47,0-2.21a.29.29,0,0,1,.28-.28h0a.28.28,0,0,1,.28.28c0,.75,0,1.49,0,2.22A.27.27,0,0,1,320.23,278.56Zm0-4.43a.28.28,0,0,1-.28-.27c0-.73,0-1.47-.06-2.21a.28.28,0,0,1,.26-.29.26.26,0,0,1,.29.27q0,1.11.06,2.22a.27.27,0,0,1-.27.28Zm-.17-4.43a.28.28,0,0,1-.28-.26c0-.74-.09-1.47-.14-2.2a.27.27,0,0,1,.26-.3.27.27,0,0,1,.29.26c.06.73.11,1.47.15,2.21a.27.27,0,0,1-.26.29Zm-.32-4.41a.28.28,0,0,1-.28-.26l-.21-2.2a.26.26,0,0,1,.24-.3.27.27,0,0,1,.31.24c.08.73.15,1.47.21,2.21a.26.26,0,0,1-.25.3Zm-.47-4.41a.26.26,0,0,1-.27-.25c-.09-.74-.19-1.47-.29-2.19a.28.28,0,0,1,.24-.31.27.27,0,0,1,.31.24c.1.71.2,1.45.29,2.2a.28.28,0,0,1-.24.31Zm-.6-4.39a.28.28,0,0,1-.28-.24c-.11-.75-.24-1.48-.36-2.18a.28.28,0,0,1,.23-.32.29.29,0,0,1,.32.23q.18,1.05.36,2.19a.28.28,0,0,1-.23.32Zm-.78-4.36a.29.29,0,0,1-.27-.23c-.15-.77-.31-1.49-.47-2.15a.29.29,0,0,1,.21-.34.28.28,0,0,1,.33.21c.16.66.32,1.39.48,2.17a.28.28,0,0,1-.22.33Zm-1-4.31a.29.29,0,0,1-.26-.2c-.09-.29-.18-.56-.26-.8a2.14,2.14,0,0,0-.7-1,.28.28,0,1,1,.35-.43,2.65,2.65,0,0,1,.87,1.2c.09.25.18.53.27.83a.29.29,0,0,1-.18.35Zm-3.05-2.8h-.08c-.56-.16-1.24-.31-2.13-.47a.29.29,0,0,1-.23-.32.29.29,0,0,1,.33-.23c.9.16,1.6.32,2.18.48a.28.28,0,0,1,.2.34A.29.29,0,0,1,313.82,245Zm-4.35-.83h0c-.71-.11-1.45-.23-2.19-.37a.27.27,0,0,1-.23-.32.28.28,0,0,1,.33-.22c.74.14,1.47.25,2.17.36a.29.29,0,0,1,.24.32A.28.28,0,0,1,309.47,244.19Zm-4.34-.85h-.08a19.72,19.72,0,0,1-2.13-.7.3.3,0,0,1-.16-.37.28.28,0,0,1,.37-.15,18,18,0,0,0,2.07.68.27.27,0,0,1,.19.34A.28.28,0,0,1,305.13,243.34ZM301,241.66a.23.23,0,0,1-.14,0,10.89,10.89,0,0,1-1.81-1.37.29.29,0,0,1,0-.4.28.28,0,0,1,.39,0,10.82,10.82,0,0,0,1.72,1.31.28.28,0,0,1,.09.38A.27.27,0,0,1,301,241.66Zm-3.18-3a.27.27,0,0,1-.23-.12,11.37,11.37,0,0,1-.6-1,6.52,6.52,0,0,0-.53-.87.27.27,0,0,1,.06-.38.28.28,0,0,1,.39.06,9,9,0,0,1,.58.93,9.1,9.1,0,0,0,.56,1,.28.28,0,0,1-.07.39A.29.29,0,0,1,297.86,238.63Zm-2.68-3.47a.27.27,0,0,1-.17-.06,10.29,10.29,0,0,0-1.83-1.13.28.28,0,0,1,.24-.5,10.69,10.69,0,0,1,1.93,1.19.28.28,0,0,1,0,.39A.29.29,0,0,1,295.18,235.16Zm-3.94-2h-.08a18.76,18.76,0,0,0-2.12-.53.28.28,0,1,1,.11-.55,22.38,22.38,0,0,1,2.18.55.29.29,0,0,1,.18.35A.28.28,0,0,1,291.24,233.18Z" style="fill:#fff"></path><path d="M318.58,290.62h0l-1.1-.13a.26.26,0,0,1-.24-.3.27.27,0,0,1,.3-.25l.87.1.24-.83a.27.27,0,1,1,.53.14c-.09.37-.2.73-.3,1.07A.29.29,0,0,1,318.58,290.62Z" style="fill:#fff"></path><path d="M277.68,291.61h-.29a.27.27,0,0,1-.27-.28c0-.15.12-.24.28-.27h.28l1.94,0a.28.28,0,0,1,.28.27.29.29,0,0,1-.27.29Zm4.17-.07a.28.28,0,0,1-.28-.27.28.28,0,0,1,.27-.28l2.23-.08a.27.27,0,0,1,.29.26.28.28,0,0,1-.27.29l-2.23.08Zm4.46-.18a.28.28,0,0,1,0-.56l2.23-.11a.28.28,0,0,1,0,.55l-2.23.12Zm4.45-.24a.28.28,0,0,1-.28-.26.29.29,0,0,1,.26-.3l2.23-.13a.28.28,0,0,1,.29.26.27.27,0,0,1-.26.29l-2.22.14Zm4.45-.27a.27.27,0,0,1-.27-.26.28.28,0,0,1,.26-.3l2.22-.13a.27.27,0,0,1,.3.26.29.29,0,0,1-.27.3l-2.22.13Zm4.45-.26a.28.28,0,0,1,0-.55l2.23-.12a.27.27,0,0,1,.29.26.28.28,0,0,1-.27.3l-2.22.11Zm4.46-.22a.28.28,0,0,1-.28-.26.27.27,0,0,1,.27-.29l2.23-.08a.26.26,0,0,1,.28.26.27.27,0,0,1-.27.29l-2.22.08Zm11.14-.05h0c-.7,0-1.44-.06-2.22-.08a.27.27,0,0,1-.27-.29.28.28,0,0,1,.28-.27c.79,0,1.53.05,2.24.09a.28.28,0,0,1,0,.55Zm-6.69-.09a.28.28,0,0,1,0-.55c.76,0,1.51,0,2.23,0a.28.28,0,1,1,0,.55l-2.22,0Z" style="fill:#fff"></path><path d="M275.15,291.58h0l-1.11,0a.3.3,0,0,1-.22-.12.29.29,0,0,1,0-.24c.1-.34.19-.69.28-1.06a.28.28,0,0,1,.34-.2.26.26,0,0,1,.2.33c-.06.26-.13.5-.19.75l.75,0a.28.28,0,0,1,0,.56Z" style="fill:#fff"></path><path d="M274.79,288.31h-.05a.28.28,0,0,1-.22-.33c.13-.69.25-1.41.36-2.15a.28.28,0,0,1,.32-.24.29.29,0,0,1,.23.32c-.11.75-.23,1.48-.37,2.18A.27.27,0,0,1,274.79,288.31Zm.66-4.35h0a.27.27,0,0,1-.24-.31c.08-.71.16-1.44.23-2.18a.28.28,0,1,1,.55,0c-.07.75-.14,1.48-.23,2.2A.27.27,0,0,1,275.45,284Zm.4-4.38h0a.28.28,0,0,1-.26-.3c.05-.72.1-1.45.14-2.19a.27.27,0,0,1,.29-.26.28.28,0,0,1,.26.29c0,.74-.08,1.48-.13,2.2A.28.28,0,0,1,275.85,279.58Zm.23-4.39h0a.28.28,0,0,1-.27-.29l.06-2.19a.27.27,0,0,1,.28-.28.28.28,0,0,1,.27.29c0,.73,0,1.47-.06,2.2A.27.27,0,0,1,276.08,275.19Zm.08-4.4h0a.29.29,0,0,1-.28-.28v-.77c0-.48,0-.95,0-1.43a.28.28,0,0,1,.27-.28.3.3,0,0,1,.29.28v2.2A.29.29,0,0,1,276.16,270.79Zm0-4.4a.27.27,0,0,1-.27-.28c0-.73,0-1.46-.07-2.19a.29.29,0,0,1,.27-.29.31.31,0,0,1,.29.27c0,.73.05,1.46.06,2.2a.29.29,0,0,1-.27.29ZM276,262a.28.28,0,0,1-.28-.27q0-1.11-.12-2.19a.29.29,0,0,1,.26-.3.28.28,0,0,1,.3.26c0,.73.08,1.46.12,2.21a.28.28,0,0,1-.27.29Zm-.27-4.4a.27.27,0,0,1-.28-.25q-.09-1.12-.18-2.19a.27.27,0,0,1,.25-.3.27.27,0,0,1,.3.25c.06.71.13,1.44.18,2.19a.27.27,0,0,1-.25.3Zm-.41-4.38A.28.28,0,0,1,275,253c-.08-.76-.17-1.49-.27-2.18a.3.3,0,0,1,.24-.32.29.29,0,0,1,.31.24q.15,1,.27,2.19a.27.27,0,0,1-.24.31Zm-.61-4.36a.27.27,0,0,1-.27-.23c-.14-.79-.28-1.51-.43-2.14a.28.28,0,1,1,.55-.13c.14.65.29,1.38.43,2.18a.29.29,0,0,1-.23.32Zm-1-4.27a.27.27,0,0,1-.26-.18,9.13,9.13,0,0,0-1-1.89.28.28,0,1,1,.46-.31,10,10,0,0,1,1,2,.28.28,0,0,1-.17.36ZM271.18,241a.31.31,0,0,1-.18-.07,9.77,9.77,0,0,0-1.76-1.21.26.26,0,0,1-.11-.37.27.27,0,0,1,.37-.12,9.7,9.7,0,0,1,1.86,1.28.27.27,0,0,1,0,.39A.28.28,0,0,1,271.18,241Zm-3.83-2.11-.09,0a19.91,19.91,0,0,0-2.09-.58A.29.29,0,0,1,265,238a.29.29,0,0,1,.34-.2,19.14,19.14,0,0,1,2.14.6.28.28,0,0,1-.09.54Zm-4.28-1h0l-1.45-.23-.72-.11a.29.29,0,0,1-.24-.32.28.28,0,0,1,.32-.23l.73.11,1.45.23a.28.28,0,0,1-.05.56Zm-4.34-.74h-.05a15.89,15.89,0,0,1-2.16-.58.28.28,0,1,1,.19-.53,15.09,15.09,0,0,0,2.08.56.28.28,0,0,1,.22.33A.29.29,0,0,1,258.73,237.14Zm-4-1.65a.27.27,0,0,1-.19-.08,3.41,3.41,0,0,1-.75-1q-.24-.47-.51-.9a.28.28,0,0,1,.09-.38.29.29,0,0,1,.39.09c.18.3.36.61.53.94a2.94,2.94,0,0,0,.63.83.28.28,0,0,1-.19.48Z" style="fill:#fff"></path><path d="M252.19,231.88a.28.28,0,0,1-.21-.1c-.24-.27-.49-.54-.74-.79a.28.28,0,0,1,0-.39.29.29,0,0,1,.4,0c.26.27.52.54.77.83a.27.27,0,0,1-.21.46Z" style="fill:#fff"></path></g><polygon points="386.36 240.79 348.95 240.79 346.73 243.01 388.58 243.01 386.36 240.79" style="fill:#263238"></polygon><rect x="353.4" y="239.23" width="11.23" height="1.56" style="fill:#407BFF"></rect><rect x="353.4" y="229.04" width="11.23" height="1.56" style="fill:#407BFF"></rect><rect x="354.35" y="230.6" width="9.33" height="8.63" style="fill:#407BFF"></rect><rect x="354.35" y="230.6" width="9.33" height="8.63" style="fill:#fff;opacity:0.6000000000000001"></rect><rect x="370.68" y="239.23" width="11.23" height="1.56" style="fill:#407BFF"></rect><rect x="370.68" y="229.04" width="11.23" height="1.56" style="fill:#407BFF"></rect><rect x="371.63" y="230.6" width="9.33" height="8.63" style="fill:#407BFF"></rect><rect x="371.63" y="230.6" width="9.33" height="8.63" style="opacity:0.6000000000000001"></rect></g></svg>