<svg xmlns="http://www.w3.org/2000/svg" viewBox="0 0 500 500"><g id="freepik--background-complete--inject-2"><g><g><g><path d="M443.92039,330.1975h-180.7461c-3.2324,0-5.86229-2.6298-5.86229-5.8623V61.0618c0-3.2324,2.62989-5.8618,5.86229-5.8618h180.7461c3.2324,0,5.8623,2.6294,5.8623,5.8618V324.3352c0,3.2325-2.6299,5.8623-5.8623,5.8623ZM263.17429,55.45c-3.0947,0-5.61229,2.5176-5.61229,5.6118V324.3352c0,3.0948,2.51759,5.6123,5.61229,5.6123h180.7461c3.0947,0,5.6123-2.5175,5.6123-5.6123V61.0618c0-3.0942-2.5176-5.6118-5.6123-5.6118h-180.7461Z" style="fill:#e0e0e0;"></path><path d="M235.49269,330.1975H54.7461c-3.2324,0-5.8618-2.6298-5.8618-5.8623V61.0618c0-3.2324,2.6294-5.8618,5.8618-5.8618H235.49269c3.2324,0,5.86231,2.6294,5.86231,5.8618V324.3352c0,3.2325-2.62991,5.8623-5.86231,5.8623ZM54.7461,55.45c-3.0942,0-5.6118,2.5176-5.6118,5.6118V324.3352c0,3.0948,2.5176,5.6123,5.6118,5.6123H235.49269c3.0947,0,5.61231-2.5175,5.61231-5.6123V61.0618c0-3.0942-2.51761-5.6118-5.61231-5.6118H54.7461Z" style="fill:#e0e0e0;"></path></g><rect x="0" y="391.2669" width="500" height=".25" style="fill:#e0e0e0;"></rect></g><rect x="51.6724" y="405.5314" width="16.06" height=".25" style="fill:#e0e0e0;"></rect><rect x="170.3524" y="402.8214" width="53.53" height=".25" style="fill:#e0e0e0;"></rect><rect x="68.7324" y="414.8214" width="36.25" height=".25" style="fill:#e0e0e0;"></rect><rect x="378.35239" y="402.6914" width="43.19" height=".25" style="fill:#e0e0e0;"></rect><rect x="430.45239" y="402.6914" width="6.33" height=".25" style="fill:#e0e0e0;"></rect><rect x="316.21239" y="408.9214" width="53.89" height=".25" style="fill:#e0e0e0;"></rect></g><g><g><path d="M408.87059,205.6672c.0108,2.9857-.4224,5.9564-1.2855,8.8147-.8707,2.8642-2.1476,5.5889-3.7916,8.0908-.0417,.0656-.1288,.085-.1944,.0432-.0656-.0417-.085-.1288-.0432-.1944h0c1.7245-2.4285,3.0518-5.1158,3.932-7.9612,.8955-2.846,1.3615-5.8096,1.3827-8.7931Z" style="fill:#e0e0e0;"></path><path d="M401.04979,226.105c-2.021,2.2392-4.3485,4.1812-6.9134,5.7684-.1909,.1163-.44,.0559-.5563-.135-.1164-.1909-.0559-.44,.135-.5563h0c2.5997-1.4258,4.9613-3.2481,6.9998-5.4011,.084-.0824,.2185-.0824,.3025,0,.0973,.069,.1202,.2039,.0511,.3012-.0057,.008-.0119,.0157-.0187,.0228Z" style="fill:#e0e0e0;"></path><path d="M376.70159,236.3023c-1.5352-.0769-3.06259-.2682-4.5693-.5725-.528-.1044-.8714-.617-.767-1.145s.6171-.8714,1.145-.767h.054c1.4011,.3575,2.8276,.6067,4.2669,.7454,.4773,.0358,.8352,.4517,.7994,.929-.0358,.4772-.4517,.8351-.929,.7993v.0108Z" style="fill:#e0e0e0;"></path><path d="M363.44729,232.5756c-2.7395-1.491-5.2318-3.3967-7.3887-5.6496-2.175-2.2589-3.996-4.8338-5.4011-7.6372-.3818-.7636-.0723-1.6922,.6913-2.074,.7637-.3818,1.69221-.0723,2.074,.6914h0c1.1969,2.573,2.7696,4.9539,4.6666,7.0646,1.9069,2.124,4.10761,3.9646,6.5353,5.4659,.5787,.3341,.777,1.0741,.4429,1.6528-.334,.5787-1.074,.7769-1.6527,.4428l.0324,.0433Z" style="fill:#e0e0e0;"></path><path d="M348.92909,214.9248c-.9402-2.9964-1.4245-6.1172-1.4367-9.2576,0-.8948,.7255-1.6203,1.6203-1.6203,.8949,0,1.6204,.7255,1.6204,1.6203h0c-.0148,2.8246,.393,5.6355,1.2098,8.3394,.2566,.8292-.2077,1.7094-1.037,1.966-.8292,.2565-1.7095-.2078-1.966-1.0371h0l-.0108-.0107Z" style="fill:#e0e0e0;"></path><path d="M353.06639,187.984c.8995-1.2779,1.8925-2.4874,2.97061-3.6187,.55229-.5529,1.44829-.5534,2.00119-.001,.524,.5234,.5557,1.3623,.07281,1.9238-.94861,1.0559-1.81521,2.1826-2.59251,3.3703-.5048,.6503-1.4413,.7683-2.0917,.2635-.5787-.4492-.7453-1.2524-.39279-1.8947l.03239-.0432Z" style="fill:#e0e0e0;"></path><path d="M363.37169,178.7157c4.07931-2.2303,8.6107-3.5081,13.25431-3.7375h2.29l2.29009,.1404c.417,.0231,.7362,.3799,.7131,.7969l-.0001,.0025c-.0335,.3999-.3657,.7087-.767,.7129h-2.2144c-.7238,0-1.4475,.0648-2.1605,.1404-1.4388,.1476-2.8649,.4003-4.2669,.7562-2.78429,.7163-5.4459,1.845-7.8964,3.3487h0c-.5615,.351-1.3013,.1803-1.6522-.3813l-.0113-.0184c-.35339-.5671-.18-1.3133,.3871-1.6666l.0126-.0077,.0216-.0865Z" style="fill:#e0e0e0;"></path><path d="M385.75389,175.8747c2.9478,.7425,5.7666,1.9261,8.3609,3.5108,.1909,.1243,.2483,.378,.1296,.5725-.1122,.1855-.3518,.2478-.5401,.1404-2.5772-1.402-5.3527-2.4037-8.23129-2.9706-.35681-.0291-.62241-.342-.59331-.6987,.0292-.3568,.342-.6224,.6988-.5933,.04851,.004,.09651,.0134,.143,.0281l.0324,.0108Z" style="fill:#e0e0e0;"></path><path d="M405.96479,192.6182c.6461,1.3463,1.1878,2.7403,1.6203,4.1696v.0648c0,.0108,0,0,0,0-.4485-1.4193-1.0047-2.8024-1.6635-4.1372-.02-.0294-.02-.0679,0-.0972,.0237-.0269,.0646-.0294,.0915-.0058l.0057,.0058h-.054Z" style="fill:#e0e0e0;"></path><path d="M359.93659,168.2268c1.804,2.9598,3.4675,5.9844,5.131,9.009,1.6636,3.0246,3.2407,6.0709,4.83941,9.1387,1.59879,3.0678,3.11109,6.1573,4.66659,9.2359l4.4937,9.3115h-2.9274l4.4938-9.3115c1.5555-3.0786,3.0462-6.1789,4.6557-9.2359s3.2407-6.1141,4.8394-9.1495c1.5988-3.0354,3.3379-6.0384,5.1419-8.9982-1.1451,3.2406-2.4305,6.4813-3.6944,9.722-1.2639,3.2406-2.6249,6.3841-3.9968,9.5491-1.3719,3.1651-2.787,6.3085-4.1697,9.4627l-4.32079,9.3872-1.45841,3.165-1.469-3.165-4.3209-9.3872c-1.3935-3.1542-2.841-6.2868-4.16969-9.4627-1.32861-3.1758-2.68971-6.3517-3.99681-9.5491-1.3071-3.1975-2.5818-6.4598-3.7376-9.722Z" style="fill:#e0e0e0;"></path><path d="M416.30249,219.3212c-3.3487-.7885-6.6433-1.7391-9.9488-2.6573s-6.5785-1.9552-9.8516-2.9922c-3.27309-1.037-6.4813-2.1605-9.722-3.1759l-9.722-3.3703,2.1604-1.4475c-.1836,3.2407-.3132,6.3842-.5293,9.5816-.216,3.1974-.4213,6.3841-.7021,9.5708-.2808,3.1866-.5725,6.3733-.8966,9.5599-.324,3.1867-.7129,6.3625-1.199,9.5384-.1944-3.2407-.27-6.4057-.3457-9.614-.0756-3.2082-.06479-6.4057,0-9.6031,.0648-3.1975,.0864-6.395,.1513-9.5924,.0648-3.1975,.2268-6.3841,.3348-9.5816l.0649-2.1604,2.074,.7453,9.668,3.4891c3.2407,1.2207,6.4165,2.3981,9.60321,3.6728,3.18659,1.2746,6.36249,2.5493,9.52749,3.878,3.1651,1.3287,6.276,2.6681,9.333,4.1588Z" style="fill:#e0e0e0;"></path><path d="M345.69929,230.1451c2.4413-2.3225,4.969-4.537,7.49671-6.7514,2.52769-2.2145,5.09869-4.3209,7.69119-6.4813,2.5925-2.1605,5.2067-4.2453,7.81-6.3518,2.6033-2.1064,5.2823-4.1372,7.918-6.2112l.4645,2.8086-9.722-3.3811c-3.24069-1.1991-6.4813-2.3225-9.668-3.5648-3.18669-1.2422-6.4165-2.4845-9.6032-3.77-3.1866-1.2854-6.3192-2.6573-9.5599-4.094,3.3703,.7562,6.69741,1.6635,10.02441,2.5601,3.32709,.8966,6.62179,1.8688,9.90569,2.8626s6.5569,2.0416,9.8408,3.0678l9.7868,3.2407,2.9058,.9614-2.4413,1.8472c-2.679,2.02-5.3363,4.0724-8.0369,6.06-2.7005,1.9876-5.4011,3.9968-8.14489,5.9196-2.74371,1.9228-5.48751,3.8672-8.26361,5.7684-2.7762,1.9012-5.5308,3.716-8.4041,5.5092Z" style="fill:#e0e0e0;"></path><path d="M416.30249,193.6228c-3.111,1.3611-6.2761,2.5709-9.4411,3.7916l-4.7098,1.7715-4.7854,1.696c-3.1974,1.1018-6.4021,2.182-9.6139,3.2406-3.2407,1.0046-6.42729,2.0849-9.722,3.0355l.8966-2.3657c1.5123,2.5061,3.0678,5.0014,4.52611,7.5615,1.45829,2.5601,2.97059,5.0663,4.39649,7.6264s2.8518,5.1526,4.23451,7.7344c1.38269,2.5817,2.73289,5.2174,3.99679,7.8856-1.8256-2.3225-3.5539-4.7098-5.2715-7.0971-1.7175-2.3873-3.3919-4.7962-5.023-7.2483s-3.2407-4.8826-4.861-7.3455c-1.62029-2.4629-3.15429-4.9474-4.7206-7.4211l-1.0802-1.7284,1.9768-.6481c3.24071-1.0802,6.4813-1.966,9.722-2.9598,3.24071-.9938,6.4813-1.8688,9.722-2.7654l4.9042-1.2962,4.9258-1.2423c3.3379-.8101,6.6866-1.5987,9.9272-2.2252Z" style="fill:#e0e0e0;"></path></g><g><path d="M144.465,280.1996c-1.546,2.0548-3.39,3.8675-5.471,5.378-2.0941,1.5058-4.3901,2.7086-6.8202,3.5729-.0637,.0154-.1294-.0156-.1582-.0744-.0195-.064,.0127-.1324,.0745-.1582h0c2.451-.7666,4.7654-1.9159,6.8574-3.4054,2.0958-1.4836,3.9559-3.2747,5.5175-5.3129Z" style="fill:#e0e0e0;"></path><path d="M128.4334,290.1461c-2.5505,.4852-5.1572,.6043-7.7413,.3536-.1902-.0444-.3084-.2345-.264-.4247,.0369-.1579,.1763-.2704,.3384-.2732h0c2.5123,.3954,5.0709,.3954,7.5832,0,.0988-.0122,.191,.052,.214,.1489,.0083,.0878-.0461,.1694-.1303,.1954Z" style="fill:#e0e0e0;"></path><path d="M106.4283,284.4424c-1.0005-.8576-1.9337-1.7908-2.7913-2.7913-.3087-.3444-.2796-.8739,.0648-1.1825l.0096-.0085c.35-.3067,.8819-.2734,1.191,.0744h0c.7747,.9733,1.6206,1.8876,2.5308,2.7356,.3083,.2723,.3375,.7431,.0651,1.0514-.2723,.3083-.7431,.3375-1.0514,.0651l-.0186,.0558Z" style="fill:#e0e0e0;"></path><path d="M99.2918,274.9798c-1.1076-2.4478-1.8265-5.0533-2.1308-7.7227-.3011-2.6827-.2008-5.3953,.2978-8.0484,.1625-.7166,.8753-1.1658,1.5919-1.0033,.6763,.1535,1.1214,.8006,1.0226,1.4871v.0465c-.5237,2.3876-.6868,4.8402-.4838,7.2761,.1966,2.4509,.745,4.8606,1.6283,7.1552,.1926,.5424-.091,1.1381-.6334,1.3307-.498,.1768-1.0496-.0472-1.2833-.5212h-.0093Z" style="fill:#e0e0e0;"></path><path d="M98.5381,255.3101c.9146-2.55,2.2102-4.9467,3.8428-7.1086,.4612-.6176,1.3358-.7443,1.9533-.2831,.6176,.4612,.7444,1.3358,.2831,1.9534l-.0034,.0045h0c-1.4887,1.9286-2.6776,4.0711-3.5264,6.3549-.2569,.7015-1.0338,1.0618-1.7353,.8048-.7014-.2569-1.0617-1.0338-.8048-1.7352h0l-.0093,.0093Z" style="fill:#e0e0e0;"></path><path d="M115.4164,238.99c1.2851-.403,2.5972-.714,3.9265-.9304,.6662-.0969,1.2848,.3646,1.3816,1.0308,.093,.6397-.3295,1.2407-.9629,1.3698-1.2001,.2216-2.3819,.5327-3.5357,.9304-.6654,.2338-1.3944-.1161-1.6283-.7816-.2338-.6654,.1161-1.3944,.7816-1.6283l.0372,.0093Z" style="fill:#e0e0e0;"></path><path d="M127.3448,238.041c2.6375,.3996,5.2,1.1932,7.6017,2.354,1.1932,.5759,2.341,1.2415,3.4334,1.9912,.5459,.3722,1.0762,.763,1.5911,1.1724l1.498,1.2933c.255,.2537,.2561,.6661,.0024,.9211-.2188,.2199-.5625,.255-.8212,.0838h-.0465l-1.4794-1.1538c-.5118-.3536-1.0235-.7071-1.5632-1.0328-1.0597-.65-2.167-1.2192-3.3124-1.7027-2.2825-.9726-4.6971-1.5998-7.1644-1.8609h0c-.5806-.0099-1.0433-.4886-1.0334-1.0692,.0099-.5806,.4886-1.0432,1.0692-1.0333,.0598,.001,.1194,.0071,.1782,.0183l.0465,.0186Z" style="fill:#e0e0e0;"></path><path d="M144.1487,247.7177c1.6328,2.0557,2.947,4.3454,3.8986,6.7922,.0639,.1823-.0261,.3826-.2047,.4559-.1773,.0714-.3793-.011-.456-.1861-1.0329-2.3039-2.4102-4.4373-4.0846-6.327-.2128-.2171-.2128-.5645,0-.7816,.225-.2032,.5721-.1855,.7753,.0395l.0062,.007,.0652,.0001Z" style="fill:#e0e0e0;"></path><path d="M149.2755,269.76c-.2676,1.2645-.6252,2.5082-1.0701,3.7218m-.0558,0v-.0465c.431-1.2135,.77-2.4576,1.0142-3.7218,.0091-.0324,.0413-.0526,.0744-.0466,.0338,.0087,.057,.0397,.0559,.0745l-1.1445,3.7404Z" style="fill:#e0e0e0;"></path><path d="M130.4432,229.0343c-.3164,2.9681-.7537,5.9083-1.1817,8.8485s-.9304,5.8711-1.4515,8.7928c-.521,2.9216-1.0793,5.8432-1.619,8.7648l-1.7771,8.7183-2.0005-1.5539,7.9274-4.0381c2.6704-1.2934,5.3222-2.6425,8.0112-3.8986s5.378-2.5215,8.0856-3.7218c2.7076-1.2003,5.4431-2.4098,8.2251-3.4985-2.4936,1.6376-5.043,3.1728-7.5924,4.7081-2.5495,1.5352-5.1175,3.0146-7.7134,4.4661-2.596,1.4515-5.1919,2.8751-7.7972,4.308l-7.8623,4.1684-2.6331,1.4236,.6513-2.9402,1.926-8.6904c.6885-2.8937,1.3305-5.7874,2.0749-8.6625,.7444-2.875,1.4701-5.7594,2.2424-8.6252s1.5631-5.7037,2.4843-8.5694Z" style="fill:#e0e0e0;"></path><path d="M142.4646,293.4771c-1.8609-2.2889-3.6567-4.6523-5.4432-7.0156-1.7864-2.3633-3.4891-4.7639-5.1919-7.1737-1.7027-2.4099-3.3589-4.857-5.043-7.2762l-4.8941-7.3784,2.2237,.1303c-1.7864,2.0935-3.5357,4.2149-5.3501,6.2898-1.8143,2.0749-3.6101,4.1591-5.471,6.1968-1.8609,2.0377-3.7218,4.0754-5.5827,6.0851-1.8609,2.0098-3.8055,3.9917-5.7967,5.9177,1.5353-2.3076,3.1542-4.5406,4.7732-6.7737s3.2938-4.4289,4.9872-6.5969c1.6934-2.1679,3.3962-4.3359,5.1082-6.5131s3.4799-4.2708,5.2198-6.4015l1.2003-1.4701,1.0235,1.6004,4.8104,7.4436c1.5538,2.5122,3.1542,4.9965,4.6522,7.5273s3.0333,5.0709,4.5127,7.6204c1.4794,2.5494,2.9123,5.1453,4.2615,7.7878Z" style="fill:#e0e0e0;"></path><path d="M88.3776,264.0563c2.8937-.3163,5.7781-.521,8.6718-.7164s5.7688-.3443,8.6625-.4559c2.8937-.1117,5.778-.1861,8.6624-.2791,2.8844-.0931,5.7781-.0745,8.6718-.121l-1.1444,2.1679-4.9128-7.3971c-1.5818-2.5029-3.2194-4.9592-4.7639-7.49-1.5446-2.5309-3.1077-5.0431-4.6522-7.5832-1.5446-2.5401-2.9961-5.1268-4.3918-7.7506,1.9168,2.2796,3.7218,4.6522,5.5827,6.969,1.8609,2.3169,3.5636,4.736,5.2943,7.1366,1.7306,2.4006,3.4333,4.829,5.1547,7.2296l5.0151,7.3319,1.4887,2.1772h-11.305c-2.8843,0-5.778-.0744-8.6717-.1861-2.8937-.1116-5.7781-.214-8.6718-.3535-2.8937-.1396-5.7781-.3908-8.6904-.6793Z" style="fill:#e0e0e0;"></path><path d="M155.8723,275.8544c-2.8565-.6885-5.6478-1.5073-8.4577-2.3168l-4.1778-1.2747-4.1684-1.284c-2.7665-.9119-5.5237-1.8423-8.2716-2.7914-2.7356-.9956-5.499-1.9167-8.2159-2.9681l1.8609-1.1538c-.2698,2.5123-.5025,5.0244-.8281,7.5367-.3257,2.5122-.6048,5.0244-.9305,7.5273-.3256,2.5029-.735,5.0058-1.1258,7.5087s-.856,4.9965-1.3771,7.4901c0-2.5494,0-5.0802,.0931-7.611,.093-2.5309,.1768-5.0617,.3349-7.5925,.1582-2.5308,.3071-5.0523,.4932-7.5739,.1861-2.5215,.4187-5.0337,.6327-7.5552l.1489-1.7493,1.7027,.5862c2.7448,.9305,5.4524,2.0284,8.1879,3.0333s5.4338,2.1028,8.1321,3.1914l4.0382,1.6655,4.0195,1.7214c2.6146,1.1258,5.285,2.3075,7.9088,3.6101Z" style="fill:#e0e0e0;"></path></g><g><path d="M150.9636,90.4929c2.1651,.9463,4.1778,2.2085,5.9724,3.7455,1.787,1.5487,3.3441,3.3443,4.6243,5.3325,.033,.0518,.0177,.1206-.0341,.1536-.0518,.0329-.1206,.0177-.1536-.0342h0c-1.1993-2.0224-2.7111-3.8423-4.4793-5.3922-1.7762-1.5563-3.7748-2.8389-5.9297-3.8052Z" style="fill:#e0e0e0;"></path><path d="M163.2241,102.6936c.969,2.172,1.6267,4.4698,1.9538,6.8256,.0069,.1789-.1326,.3295-.3115,.3364-.1556,.006-.2934-.0994-.3284-.2511h0c-.1819-2.3255-.726-4.6083-1.6126-6.7659-.0362-.0848,.0016-.1831,.0854-.2218,.0802-.0322,.1719,.0008,.2133,.0768Z" style="fill:#e0e0e0;"></path><path d="M162.7804,123.5372c-.5435,1.0864-1.1681,2.1302-1.8685,3.1227-.2742,.3297-.7638,.3746-1.0934,.1004-.2944-.2449-.3663-.6679-.1693-.9963h0c.7038-.8973,1.3425-1.844,1.9111-2.8326,.1767-.3298,.5874-.454,.9172-.2773,.3299,.1767,.454,.5874,.2773,.9172h0l.0256-.0341Z" style="fill:#e0e0e0;"></path><path d="M155.8354,131.9071c-1.9515,1.5037-4.1246,2.6953-6.4417,3.5322-2.3189,.8321-4.7486,1.3152-7.2095,1.4334-.673,.0337-1.2459-.4845-1.2796-1.1575l-.0002-.0029c-.0335-.6682,.481-1.2372,1.1493-1.2707l.0111-.0005h0c2.244-.0328,4.4703-.4039,6.6037-1.1007,2.1436-.6957,4.1775-1.6925,6.0407-2.9606,.422-.3008,1.0081-.2025,1.3089,.2195l.0135,.0194c.283,.4144,.1973,.977-.1962,1.2884Z" style="fill:#e0e0e0;"></path><path d="M138.4557,136.7362c-2.4682-.2856-4.8806-.9354-7.1583-1.9283-.6479-.2827-.9439-1.0371-.6612-1.685s1.0371-.944,1.6851-.6613h0c2.0339,.9166,4.1937,1.5234,6.4075,1.8003,.6809,.0801,1.1679,.697,1.0878,1.3779s-.697,1.1679-1.3779,1.0878l.017,.0086Z" style="fill:#e0e0e0;"></path><path d="M120.3338,125.1156c-.6372-1.057-1.1934-2.1607-1.6637-3.3018-.184-.5893,.1445-1.2161,.7338-1.4001,.515-.1608,1.0713,.0693,1.3224,.5469,.4589,1.0217,.9922,2.0083,1.5955,2.952,.3487,.5443,.1901,1.2681-.3541,1.6168s-1.2681,.1902-1.6168-.354h0l-.0171-.0598Z" style="fill:#e0e0e0;"></path><path d="M116.9552,114.6725c-.1941-2.4225-.0303-4.8604,.4863-7.2351,.2657-1.185,.6194-2.3486,1.058-3.4811,.2132-.5716,.4607-1.1262,.7081-1.7064l.8532-1.604c.1475-.295,.5062-.4147,.8012-.2672,.2898,.1449,.4113,.4943,.2738,.7877h0l-.7167,1.5613c-.2133,.529-.418,1.0665-.5887,1.6126-.3695,1.0826-.6548,2.1922-.8532,3.3189-.3764,2.2396-.4166,4.5229-.1194,6.7744h0c.0683,.5254-.3022,1.0067-.8276,1.075s-1.0067-.3022-1.075-.8276v-.0085Z" style="fill:#e0e0e0;"></path><path d="M122.0658,97.6341c1.4814-1.8878,3.2388-3.5417,5.2131-4.9058,.146-.1061,.3504-.0736,.4564,.0725,.106,.146,.0736,.3504-.0725,.4564-1.8369,1.4109-3.4505,3.0906-4.7864,4.9827-.1603,.2356-.4811,.2967-.7167,.1365s-.2968-.4811-.1365-.7167h0l.0426-.0256Z" style="fill:#e0e0e0;"></path><path d="M140.6314,88.4111c1.18-.0328,2.3608,.0242,3.5322,.1706h0c-1.1694-.1351-2.3474-.1807-3.5237-.1365-.0299,.0003-.0554-.0216-.0597-.0512,0-.033,.0267-.0597,.0597-.0597h0l-.0085,.0768Z" style="fill:#e0e0e0;"></path><path d="M108.2696,113.8193c2.7132-.3498,5.4264-.5802,8.1481-.8532,2.7217-.273,5.4348-.4095,8.1565-.5631s5.4349-.273,8.1566-.401l8.1565-.2645-.9385,2.1159-5.2813-6.2283c-1.7064-2.1074-3.481-4.1892-5.1703-6.3222-1.6894-2.133-3.4128-4.266-5.051-6.4246-1.6381-2.1586-3.2933-4.3513-4.8547-6.5952,1.988,1.877,3.8992,3.8223,5.8103,5.7676,1.9112,1.9453,3.7711,3.9418,5.6055,5.9724s3.6688,4.0271,5.4946,6.0406l5.3837,6.143,1.8173,2.0733h-2.7558l-8.1651,.1195h-8.1651c-2.7217,0-5.4434-.0939-8.1737-.1707-2.7302-.0768-5.4434-.1962-8.1736-.4095Z" style="fill:#e0e0e0;"></path><path d="M163.2326,89.5202c-1.6467,2.1586-3.4128,4.266-5.1192,6.3308-1.7064,2.0647-3.5152,4.1294-5.3069,6.1515s-3.6175,4.0271-5.4263,6.0406l-5.5458,5.9212-.3583-2.0135c2.2524,1.1518,4.5134,2.2695,6.7487,3.4554,2.2354,1.186,4.4708,2.3378,6.6806,3.5664s4.4195,2.4572,6.6123,3.7114c2.1927,1.2542,4.3683,2.5596,6.5099,3.9247-2.3805-.8532-4.7182-1.8599-7.056-2.8326-2.3377-.9726-4.6414-1.9965-6.9365-3.0544-2.2951-1.058-4.5902-2.1074-6.8767-3.1825-2.2866-1.075-4.5391-2.2097-6.8256-3.3104l-1.5614-.819,1.203-1.2628,5.6141-5.8615c1.9111-1.9111,3.7882-3.8564,5.7335-5.7505,1.9452-1.8941,3.882-3.7711,5.8529-5.6311,1.9709-1.86,3.9844-3.6773,6.0577-5.3837Z" style="fill:#e0e0e0;"></path><path d="M148.404,143.9457c-.8532-2.5084-1.7064-5.0424-2.4743-7.5764-.7678-2.534-1.5186-5.1192-2.2268-7.6361-.7082-2.517-1.3907-5.1192-2.0818-7.6788-.6911-2.5596-1.2969-5.1192-1.9453-7.6788l2.1842,.5631-5.5629,5.9724c-1.8941,1.9368-3.754,3.9247-5.6823,5.8359-1.9282,1.9111-3.8393,3.8394-5.7932,5.7249-1.9538,1.8856-3.9332,3.7541-5.9723,5.5543,1.621-2.1927,3.3445-4.2659,5.0509-6.416s3.4725-4.1807,5.2471-6.2283c1.7747-2.0477,3.5749-4.0783,5.3666-6.126l5.4776-6.0236,1.6296-1.7917,.546,2.3634c.5973,2.5596,1.2286,5.1192,1.8003,7.7385,.5716,2.6193,1.1518,5.1703,1.6637,7.7726,.5119,2.6023,1.0324,5.2045,1.5102,7.8153s.9129,5.1789,1.2627,7.8153Z" style="fill:#e0e0e0;"></path><path d="M144.6841,81.2357c0,2.6876-.1536,5.3581-.2901,8.0286l-.256,4.0015-.3071,4.0015c-.2219,2.6619-.4778,5.3154-.7508,7.9774-.2731,2.6619-.5546,5.3068-.9044,7.9518l-1.4249-1.3993c2.2951-.2901,4.5902-.6143,6.9024-.8532,2.3122-.2389,4.6073-.5204,6.9194-.7252,2.3122-.2048,4.6244-.4095,6.9365-.5802,2.3122-.1706,4.6414-.2986,6.9706-.3583-2.2609,.5716-4.5304,1.0579-6.8255,1.5272s-4.5561,.9129-6.8256,1.3054-4.5732,.7935-6.8256,1.1603c-2.2524,.3669-4.5817,.6911-6.8768,1.0239l-1.5954,.2389,.1706-1.6382c.2645-2.6534,.6484-5.2983,.9641-7.9432s.7338-5.2899,1.1348-7.9348l.6313-3.9588,.6911-3.9503c.4522-2.6279,.9471-5.2557,1.5614-7.875Z" style="fill:#e0e0e0;"></path></g><g><path d="M314.79509,188.6902c.315,1.3319,.5263,2.6863,.632,4.0509,.1134,1.3367,.1782,2.6816,.1782,4.0508s-.0648,2.6816-.1782,4.0508c-.1023,1.365-.3136,2.7196-.632,4.0508-.3183-1.3312-.5296-2.6858-.6319-4.0508-.1215-1.3449-.1863-2.6897-.17819-4.0508,.00809-1.3611,.06479-2.6898,.17819-4.0508,.1057-1.3646,.317-2.719,.6319-4.0509Z" style="fill:#e0e0e0;"></path><path d="M306.969,196.7433c1.28489-.3169,2.59369-.5282,3.913-.632,1.30439-.1215,2.60879-.1782,3.91309-.1782,1.3044,0,2.6088,.0567,3.9131,.1782,1.3199,.0998,2.6289,.3112,3.9131,.632-1.2857,.3129-2.5942,.5242-3.9131,.6319-1.3043,.1134-2.6087,.1782-3.9131,.1782-1.3043,0-2.6087-.0648-3.91309-.1782-1.31891-.1077-2.62731-.319-3.913-.6319Z" style="fill:#e0e0e0;"></path></g><g><path d="M365.22989,271.081c.1742,.7366,.291,1.4855,.3495,2.2401,.0627,.7393,.0985,1.483,.0985,2.2401,0,.7572-.0358,1.483-.0985,2.2401-.0566,.7549-.1735,1.504-.3495,2.2402-.176-.7362-.29289-1.4853-.3494-2.2402-.0672-.7437-.1031-1.4874-.0986-2.2401,.0045-.7526,.0358-1.4874,.0986-2.2401,.0584-.7546,.1752-1.5035,.3494-2.2401Z" style="fill:#e0e0e0;"></path><path d="M360.902,275.5344c.71059-.1753,1.43429-.2921,2.164-.3495,.72129-.0672,1.44259-.0986,2.16389-.0986s1.4426,.0314,2.1639,.0986c.7299,.0552,1.4538,.1721,2.164,.3495-.711,.173-1.4346,.2899-2.164,.3494-.7213,.0627-1.4426,.0986-2.1639,.0986s-1.4426-.0359-2.16389-.0986c-.72941-.0595-1.45291-.1764-2.164-.3494Z" style="fill:#e0e0e0;"></path></g><g><path d="M430.45239,182.6125c.1742,.7365,.291,1.4855,.3495,2.2401,.0627,.7392,.0985,1.4829,.0985,2.2401s-.0358,1.4829-.0985,2.2401c-.0566,.7548-.1735,1.5039-.3495,2.2401-.176-.7362-.2929-1.4853-.3495-2.2401-.0672-.7437-.103-1.4874-.0985-2.2401s.0358-1.4874,.0985-2.2401c.0585-.7546,.1753-1.5036,.3495-2.2401Z" style="fill:#e0e0e0;"></path><path d="M426.12449,187.0658c.7106-.1752,1.4343-.2921,2.164-.3494,.7213-.0672,1.4426-.0986,2.1639-.0986s1.44261,.0314,2.1639,.0986c.7299,.0551,1.4538,.172,2.164,.3494-.711,.1731-1.4346,.2899-2.164,.3495-.72129,.0627-1.4426,.0985-2.1639,.0985s-1.4426-.0358-2.1639-.0985c-.7294-.0596-1.453-.1764-2.164-.3495Z" style="fill:#e0e0e0;"></path></g><g><path d="M198.918,124.6268c.23429,.9817,.39009,1.9805,.466,2.9868,.08959,.9917,.13739,1.9833,.13139,2.9869-.006,1.0035-.0418,1.9832-.13139,2.9868-.07291,1.0067-.22881,2.0057-.466,2.9868-.23131-.9823-.387-1.9808-.46591-2.9868-.0836-.9917-.1314-1.9833-.1314-2.9868,0-1.0036,.0478-1.9773,.1374-2.9869,.0738-1.0062,.2276-2.0049,.45991-2.9868Z" style="fill:#e0e0e0;"></path><path d="M193.1475,130.5646c.9477-.2316,1.9126-.3854,2.8853-.46,.9617-.0896,1.9235-.1374,2.8852-.1374,.96179,0,1.92359,.0478,2.88529,.1315,.9725,.0794,1.9372,.2351,2.8853,.4659-.9469,.2365-1.9121,.3924-2.8853,.466-.9617,.0896-1.9235,.1373-2.88529,.1314-.96171-.006-1.9235-.0418-2.8852-.1314-.9728-.0765-1.9378-.2324-2.8853-.466Z" style="fill:#e0e0e0;"></path></g><g><path d="M401.10839,263.1007c.4201,1.7754,.6983,3.5815,.8318,5.4011,.162,1.7932,.2484,3.5863,.2484,5.4011s-.0864,3.5755-.23759,5.4011c-.14261,1.8193-.42431,3.6249-.84261,5.4011-.4289-1.7741-.7107-3.5806-.8425-5.4011-.1621-1.7932-.2485-3.5863-.2377-5.4011,.01081-1.8148,.0756-3.5863,.2377-5.4011,.1372-1.8199,.4189-3.6259,.8425-5.4011Z" style="fill:#e0e0e0;"></path><path d="M390.67349,273.8489c1.7122-.4277,3.4576-.7096,5.2174-.8426,1.7392-.162,3.4783-.2484,5.2175-.2376,1.7391,.0108,3.4783,.0756,5.2174,.2268,1.7595,.1419,3.5045,.4273,5.2175,.8534-1.7144,.4173-3.4589,.699-5.2175,.8426-1.7391,.1512-3.4783,.2376-5.2174,.2376-1.7392,0-3.4783-.0864-5.2175-.2484-1.75889-.1348-3.5038-.413-5.2174-.8318Z" style="fill:#e0e0e0;"></path></g><g><path d="M179.6933,245.54c.4192,1.7761,.7008,3.5818,.8426,5.4012,.1512,1.7931,.2376,3.5755,.2376,5.4011,0,1.8255-.0864,3.5755-.2376,5.4011-.1356,1.82-.4173,3.6262-.8426,5.4011-.4252-1.7749-.707-3.5811-.8426-5.4011-.162-1.7932-.2484-3.5756-.2376-5.4011,.0108-1.8256,.0864-3.5756,.2376-5.4011,.1418-1.8194,.4235-3.6251,.8426-5.4012Z" style="fill:#e0e0e0;"></path><path d="M169.2584,256.2774c1.7143-.4173,3.4589-.699,5.2174-.8425,1.7392-.1513,3.4784-.2377,5.2175-.2377,1.7392,0,3.4783,.0864,5.2175,.2377,1.7592,.1383,3.5041,.4201,5.2175,.8425-1.7134,.4225-3.4583,.7043-5.2175,.8426-1.7392,.162-3.4783,.2485-5.2175,.2377-1.7391-.0108-3.4783-.0864-5.2175-.2377-1.7585-.1435-3.5031-.4252-5.2174-.8426Z" style="fill:#e0e0e0;"></path></g><g><path d="M401.69719,104.9524c.447,1.8978,.7479,3.8269,.9002,5.7706,.16161,1.9158,.2539,3.8316,.2539,5.7705s-.09229,3.8317-.2539,5.7706c-.1523,1.9437-.4532,3.8728-.9002,5.7705-.45819-1.8954-.7593-3.8255-.90019-5.7705-.17311-1.9158-.26541-3.8317-.25391-5.7706,.0116-1.9389,.0808-3.8201,.25391-5.7705,.14659-1.9443,.44769-3.8739,.90019-5.7706Z" style="fill:#e0e0e0;"></path><path d="M390.54849,116.4243c1.8309-.4475,3.6952-.7447,5.5744-.8887,1.85811-.1731,3.7162-.2654,5.5743-.2654s3.7162,.0923,5.5743,.2539c1.8789,.1533,3.7428,.4543,5.5744,.9002-1.8294,.457-3.6941,.7581-5.5744,.9002-1.8581,.1731-3.7162,.2654-5.5743,.2539s-3.71619-.0808-5.5743-.2539c-1.8795-.1478-3.74389-.4489-5.5744-.9002Z" style="fill:#e0e0e0;"></path></g><g><path d="M369.26639,81.1758c.23061,.971,.3828,1.959,.4549,2.9544,.08871,.975,.1359,1.9558,.13,2.9544s-.04129,1.9558-.1241,2.9544c-.0775,.9952-.2316,1.9829-.4608,2.9544-.2341-.9708-.3902-1.9587-.4668-2.9544-.0828-.9809-.13-1.9558-.1241-2.9544s.0413-1.9617,.13-2.9544c.0712-.9959,.2253-1.9841,.4609-2.9544Z" style="fill:#e0e0e0;"></path><path d="M363.55849,87.0492c.9371-.2311,1.8916-.3853,2.8539-.4609,.9513-.0887,1.90261-.13,2.8539-.13,.9514,0,1.8968,.0413,2.8481,.13,.96261,.0727,1.9173,.2269,2.8539,.4609-.9377,.2282-1.892,.3823-2.8539,.4608-.9513,.0828-1.8967,.13-2.8481,.13-.95129,0-1.9026-.0472-2.8539-.13-.9619-.0785-1.9162-.2326-2.8539-.4608Z" style="fill:#e0e0e0;"></path></g><g><path d="M114.5305,162.5934c.4201,1.7754,.6982,3.5815,.8318,5.4011,.162,1.7931,.2484,3.5863,.2376,5.4011-.0108,1.8147-.0756,3.5863-.2268,5.4011-.1426,1.8192-.4243,3.6249-.8426,5.4011-.4271-1.7749-.7125-3.581-.8534-5.4011-.1512-1.7932-.2376-3.5864-.2268-5.4011,.0108-1.8148,.0756-3.5756,.2376-5.4011,.1319-1.8205,.4137-3.627,.8426-5.4011Z" style="fill:#e0e0e0;"></path><path d="M104.0955,173.3307c1.7137-.4188,3.4586-.6969,5.2175-.8317,1.7392-.1621,3.4783-.2485,5.2175-.2485s3.4675,.0864,5.2067,.2377c1.7585,.1435,3.5031,.4252,5.2174,.8425-1.713,.4261-3.4579,.7115-5.2174,.8534-1.7392,.1512-3.4784,.2377-5.2067,.2269-1.7284-.0108-3.4783-.0757-5.2175-.2377-1.7598-.133-3.5052-.4148-5.2175-.8426Z" style="fill:#e0e0e0;"></path></g><g><path d="M72.9499,195.9422c.2318,.9822,.3875,1.9807,.4659,2.9868,.0837,.9916,.1314,1.9773,.1314,2.9868,0,1.0096-.0477,1.9833-.1314,2.9868-.0779,1.0062-.2337,2.0048-.4659,2.9868-.2381-.9809-.394-1.9799-.466-2.9868-.0896-.9856-.1373-1.9772-.1314-2.9868,.006-1.0095,.0418-1.9772,.1314-2.9868,.0755-1.0064,.2313-2.0052,.466-2.9868Z" style="fill:#e0e0e0;"></path><path d="M67.1794,201.88c.948-.2308,1.9127-.3866,2.8852-.466,.9618-.0836,1.9235-.1314,2.8853-.1314,.9617,0,1.9235,.0478,2.8853,.1314,.9728,.0765,1.9377,.2324,2.8852,.466-.9475,.2336-1.9124,.3894-2.8852,.4659-.9618,.0896-1.9236,.1374-2.8853,.1314-.9618-.0059-1.9235-.0477-2.8853-.1314-.9725-.0794-1.9372-.2352-2.8852-.4659Z" style="fill:#e0e0e0;"></path></g><g><path d="M94.3894,74.6407c.3972,1.6833,.6642,3.3948,.7985,5.1191,.1434,1.6996,.2253,3.3889,.2253,5.1192s-.0819,3.3992-.2253,5.1192c-.1335,1.7245-.4005,3.436-.7985,5.1192-.4081-1.6812-.6753-3.3936-.7986-5.1192-.1536-1.6893-.2355-3.3889-.2253-5.1192,.0103-1.7303,.0717-3.3889,.2253-5.1192,.1292-1.7249,.3963-3.4368,.7986-5.1191Z" style="fill:#e0e0e0;"></path><path d="M84.4991,84.8176c1.6249-.3955,3.2784-.6625,4.9451-.7986,1.6484-.1433,3.2968-.2253,4.9452-.2253,1.6483,0,3.2967,.082,4.9451,.2253,1.6674,.1311,3.3212,.3982,4.9451,.7986-1.6239,.4004-3.2777,.6675-4.9451,.7986-1.6484,.1535-3.2968,.2355-4.9451,.2252-1.6484-.0102-3.2968-.0819-4.9452-.2252-1.6667-.1361-3.3202-.4031-4.9451-.7986Z" style="fill:#e0e0e0;"></path></g></g><rect x="28.192" y="306.2015" width="443.616" height="85.6497" style="fill:#e0e0e0;"></rect><g><rect x="194.5807" y="35.7931" width="110.55" height="41.4099" style="fill:#e0e0e0;"></rect><rect x="228.17569" y="40.0131" width="43.35" height="18.59" style="fill:#f5f5f5;"></rect><rect x="245.66069" y="63.4831" width="8.38" height="8.38" style="fill:#f5f5f5;"></rect><rect x="201.55069" y="47.1931" width="18.2" height="16.29" style="fill:#f5f5f5;"></rect><rect x="279.95069" y="47.1931" width="18.2001" height="16.29" style="fill:#f5f5f5;"></rect><rect x="279.95069" y="40.0131" width="18.2001" height="2.9" style="fill:#f5f5f5;"></rect><rect x="201.55069" y="40.0131" width="18.2" height="2.9" style="fill:#f5f5f5;"></rect><rect x="235.39069" y="66.2231" width="7.19" height="2.9" style="fill:#f5f5f5;"></rect><rect x="257.12069" y="66.2231" width="7.19" height="2.9" style="fill:#f5f5f5;"></rect></g></g><g id="freepik--Shadow--inject-2"><path d="M458.875,448.3939c0,3.3867-93.51651,6.1322-208.875,6.1322s-208.875-2.7455-208.875-6.1322,93.5165-6.1323,208.875-6.1323,208.875,2.7455,208.875,6.1323Z" style="fill:#f5f5f5;"></path></g><g id="freepik--Confetti--inject-2"><g><path d="M85.355,183.8294l3.1403-1.1817s-.8159,3.3303,3.6628,4.2894l-2.8486,2.0512s-3.8382-1.4328-3.9545-5.1589Z" style="fill:#407BFF;"></path><path d="M222.48169,87.3832l.9692,3.2123s-3.2683-1.0368-4.5246,3.3679l-1.8562-2.9795s1.6861-3.7337,5.4116-3.6007Z" style="fill:#407BFF;"></path><path d="M45.7481,270.6767l.273-2.3041s1.7854,1.5602,3.7987-.8849l.3535,2.4015s-2.1003,1.901-4.4252,.7875Z" style="fill:#407BFF;"></path><path d="M198.918,194.2383l.273-2.3041s1.78549,1.5602,3.79869-.8849l.3536,2.4015s-2.1004,1.901-4.42529,.7875Z" style="fill:#407BFF;"></path><path d="M138.9594,56.6196l.2732-2.3041s1.7853,1.5601,3.7984-.8849l.3538,2.4015s-2.1006,1.901-4.4254,.7875Z" style="fill:#407BFF;"></path><g><path d="M54.8797,94.7483l.3948-3.3321s2.5819,2.2562,5.4934-1.2797l.5113,3.4728s-3.0375,2.7493-6.3995,1.139Z" style="fill:#407BFF;"></path><path d="M54.8797,94.7483l.3948-3.3321s2.5819,2.2562,5.4934-1.2797l.5113,3.4728s-3.0375,2.7493-6.3995,1.139Z" style="fill:#fff; opacity:.7;"></path></g><g><path d="M129.6514,121.4327l2.9665-1.5678s-.3901,3.4066,4.1737,3.7941l-2.5676,2.3936s-3.988-.9382-4.5726-4.6199Z" style="fill:#407BFF;"></path><path d="M129.6514,121.4327l2.9665-1.5678s-.3901,3.4066,4.1737,3.7941l-2.5676,2.3936s-3.988-.9382-4.5726-4.6199Z" style="fill:#fff; opacity:.7;"></path></g><g><path d="M264.05689,82.76l2.9665-1.5679s-.3901,3.4066,4.1738,3.7941l-2.5677,2.3936s-3.9881-.9381-4.5726-4.6198Z" style="fill:#407BFF;"></path><path d="M264.05689,82.76l2.9665-1.5679s-.3901,3.4066,4.1738,3.7941l-2.5677,2.3936s-3.9881-.9381-4.5726-4.6198Z" style="fill:#fff; opacity:.7;"></path></g><path d="M374.24049,184.3166l.9693,3.2123s-3.2684-1.0369-4.5247,3.3677l-1.8562-2.9794s1.6862-3.7338,5.4116-3.6006Z" style="fill:#407BFF;"></path><path d="M410.27379,321.4695l-.298-3.342s2.9904,1.6778,5.1134-2.3808l1.2137,3.2938s-2.408,3.3145-6.0291,2.429Z" style="fill:#407BFF;"></path><path d="M433.09469,130.4501l-.298-3.3421s2.99031,1.6778,5.1134-2.3808l1.2137,3.2938s-2.408,3.3145-6.0291,2.4291Z" style="fill:#407BFF;"></path><path d="M117.3903,277.595l-.2979-3.3421s2.9904,1.6778,5.1135-2.3807l1.2137,3.2937s-2.408,3.3146-6.0293,2.4291Z" style="fill:#407BFF;"></path><path d="M58.4135,356.4244l-.298-3.3421s2.9904,1.6778,5.1135-2.3807l1.2137,3.2937s-2.408,3.3145-6.0292,2.4291Z" style="fill:#407BFF;"></path><path d="M139.5525,406.7267l-.298-3.3421s2.9904,1.6778,5.1135-2.3807l1.2137,3.2937s-2.408,3.3145-6.0292,2.4291Z" style="fill:#407BFF;"></path><path d="M406.53489,70.2352l.273-2.304s1.7855,1.5601,3.7986-.885l.3536,2.4014s-2.1003,1.9011-4.4252,.7876Z" style="fill:#407BFF;"></path><path d="M336.88019,98.59l.273-2.3041s1.7854,1.5602,3.7986-.8848l.3536,2.4014s-2.10039,1.901-4.4252,.7875Z" style="fill:#407BFF;"></path><g><path d="M443.78789,222.521l2.9665-1.5679s-.3901,3.4067,4.1737,3.7941l-2.5677,2.3936s-3.9879-.9381-4.5725-4.6198Z" style="fill:#407BFF;"></path><path d="M443.78789,222.521l2.9665-1.5679s-.3901,3.4067,4.1737,3.7941l-2.5677,2.3936s-3.9879-.9381-4.5725-4.6198Z" style="fill:#fff; opacity:.7;"></path></g><g><path d="M310.41409,280.732l2.9665-1.5679s-.3902,3.4067,4.1739,3.7941l-2.5678,2.3936s-3.9881-.9381-4.5726-4.6198Z" style="fill:#407BFF;"></path><path d="M310.41409,280.732l2.9665-1.5679s-.3902,3.4067,4.1739,3.7941l-2.5678,2.3936s-3.9881-.9381-4.5726-4.6198Z" style="fill:#fff; opacity:.7;"></path></g><g><path d="M447.11159,371.6137l2.9665-1.5678s-.39009,3.4066,4.1738,3.7941l-2.5677,2.3936s-3.988-.9381-4.5726-4.6199Z" style="fill:#407BFF;"></path><path d="M447.11159,371.6137l2.9665-1.5678s-.39009,3.4066,4.1738,3.7941l-2.5677,2.3936s-3.988-.9381-4.5726-4.6199Z" style="fill:#fff; opacity:.7;"></path></g><g><path d="M180.5237,319.0132l2.9665-1.5679s-.3901,3.4066,4.1738,3.7941l-2.5677,2.3936s-3.9881-.9382-4.5726-4.6198Z" style="fill:#407BFF;"></path><path d="M180.5237,319.0132l2.9665-1.5679s-.3901,3.4066,4.1738,3.7941l-2.5677,2.3936s-3.9881-.9382-4.5726-4.6198Z" style="fill:#fff; opacity:.7;"></path></g><g><path d="M341.46269,382.0208l.9569-3.2161s2.1597,2.6633,5.6311-.3248l-.088,3.5093s-3.4615,2.1913-6.5,.0316Z" style="fill:#407BFF;"></path><path d="M341.46269,382.0208l.9569-3.2161s2.1597,2.6633,5.6311-.3248l-.088,3.5093s-3.4615,2.1913-6.5,.0316Z" style="fill:#fff; opacity:.7;"></path></g><g><path d="M273.01229,58.7615l.9569-3.216s2.1596,2.6633,5.6311-.3248l-.088,3.5092s-3.4615,2.1914-6.5,.0316Z" style="fill:#407BFF;"></path><path d="M273.01229,58.7615l.9569-3.216s2.1596,2.6633,5.6311-.3248l-.088,3.5092s-3.4615,2.1914-6.5,.0316Z" style="fill:#fff; opacity:.7;"></path></g></g></g><g id="freepik--Lines--inject-2"><g><path d="M268.3047,87.11159l4.48433-17.10958,.64127-2.44672c.12247-.46728-.60075-.66662-.72321-.19938l-4.48433,17.10958-.64127,2.44672c-.12247,.46728,.60075,.66662,.72321,.19938h0Z" style="fill:#263238;"></path><path d="M277.58026,91.60267l6.31979-7.58464,.88861-1.06646c.3069-.36833-.22091-.90168-.53033-.53033l-6.31979,7.58464-.88861,1.06646c-.3069,.36833,.22091,.90168,.53033,.53033h0Z" style="fill:#263238;"></path><path d="M282.60918,98.1183c4.43007-1.00997,8.73169-2.5008,12.84188-4.4371,.43633-.20556,.05607-.85234-.37854-.6476-4.05134,1.90857-8.29665,3.36612-12.66272,4.3615-.47039,.10724-.2713,.83052,.19938,.72321h0Z" style="fill:#263238;"></path><path d="M259.3092,86.11381l-2.73959-9.44194-.39831-1.37276c-.13423-.46263-.85819-.26584-.72321,.19938l2.73959,9.44194,.39831,1.37276c.13423,.46263,.85819,.26584,.72321-.19938h0Z" style="fill:#263238;"></path><path d="M249.81376,89.8408c-3.60156-2.65883-6.90092-5.71002-9.8451-9.08176-.31806-.36424-.8467,.16802-.53033,.53033,2.98802,3.42194,6.34239,6.50112,9.9969,9.19904,.38864,.28691,.7631-.3637,.37854-.6476h0Z" style="fill:#263238;"></path></g></g><g id="freepik--Speech_Bubble--inject-2"><g><g><path d="M298.97819,128.4774c8.7593-8.9853,23.14381-9.1688,32.1291-.4095,8.9853,8.7592,9.1689,23.1439,.4095,32.1292-6.7621,6.9366-16.8693,8.6038-25.2646,4.9837l-6.189,2.8743-.3928-7.1995c-.0921-.0868-.1917-.1604-.2829-.2491-8.9853-8.759-9.1684-23.1438-.4093-32.1291Z" style="fill:#407BFF;"></path><path d="M329.74121,123.26904c-.05371,0-.10742-.01709-.15332-.05225-5.75293-4.4541-13.89453-5.74707-20.74414-3.29395-.12598,.04395-.27344-.02051-.31934-.15088-.04688-.13037,.02148-.27344,.15137-.31982,7.00488-2.50781,15.33301-1.18652,21.21875,3.36914,.10938,.08447,.12891,.2417,.04395,.35059-.04883,.06396-.12305,.09717-.19727,.09717Z" style="fill:#407BFF;"></path><path d="M302.62695,122.72998c-.07227,0-.14453-.03174-.19434-.09229-.08691-.10742-.07031-.26465,.03711-.35156,.89746-.72949,1.96094-1.27734,3.07422-1.58496,.13672-.03809,.26953,.04248,.30762,.1748,.03613,.13281-.04199,.27051-.1748,.30762-1.04688,.28906-2.04688,.8042-2.89258,1.49023-.0459,.03809-.10156,.05615-.15723,.05615Z" style="fill:#407BFF;"></path></g><path d="M314.82519,155.2708c-.8537,0-1.5671-.2759-2.1404-.8279-.5726-.5517-.859-1.2236-.859-2.0157,0-.7913,.2811-1.4529,.8434-1.984,.5627-.5311,1.2814-.7967,2.156-.7967,.8751,0,1.5937,.2656,2.1561,.7967,.5628,.5311,.8439,1.1927,.8439,1.984,0,.7921-.28619,1.464-.8596,2.0157-.5725,.552-1.2859,.8279-2.1404,.8279Zm1.9374-7.8427h-3.8745l-.9687-14.2797h5.8118l-.9686,14.2797Z" style="fill:#fff;"></path></g></g><g id="freepik--Character--inject-2"><g><g><path d="M136.8202,378.5302c-.1401,.0553-.2935,.0676-.4405,.0352l-10.7649-1.8681c-.4374-.076-.7303-.4922-.6543-.9295,.0761-.4374,.4923-.7303,.9296-.6543h0l10.7649,1.8682c.4359,.0739,.7293,.4872,.6554,.923l-.0012,.0065c-.0429,.278-.2286,.5129-.489,.619Z" style="fill:#263238;"></path><g style="opacity:.4;"><path d="M136.8202,378.5302c-.1401,.0553-.2935,.0676-.4405,.0352l-10.7649-1.8681c-.4374-.076-.7303-.4922-.6543-.9295,.0761-.4374,.4923-.7303,.9296-.6543h0l10.7649,1.8682c.4359,.0739,.7293,.4872,.6554,.923l-.0012,.0065c-.0429,.278-.2286,.5129-.489,.619Z" style="fill:#fff;"></path><path d="M175.323,329.808c-.1752,.0612-.3652,.0659-.5432,.0136-2.6252-.8845-4.9246-2.5363-6.6008-4.7418-.2451-.3683-.1516-.865,.2106-1.119,.3729-.246,.8743-.1461,1.1244,.2241,1.477,1.9047,3.4822,3.3321,5.7655,4.1042,.4306,.1,.6986,.5302,.5986,.9608-.0634,.2728-.2647,.4926-.5308,.5797l-.0243-.0216Z" style="fill:#fff;"></path><path d="M155.364,439.5517c-.2474,.102-.5293,.0736-.7514-.0755-.3618-.2397-.4609-.7274-.2212-1.0892l.0129-.0188c1.7751-2.6543,8.0043-4.3636,8.6989-4.5475,.4269-.1146,.866,.1386,.9806,.5656l.0032,.0125c.1194,.4174-.1222,.8524-.5395,.9717l-.0251,.0068c-1.7567,.4679-6.5724,2.0661-7.8423,3.9068-.0828,.1129-.1911,.2046-.3161,.2676Z" style="fill:#fff;"></path><path d="M207.51689,386.981c-.1331,.056-.2798,.071-.4216,.0433l-3.5567-.6614c-.4045-.0666-.6785-.4485-.6119-.8529l.00631-.0334c.07609-.411,.471-.6825,.88189-.6064l.0044,.0008,3.5568,.6614c.4174-.0222,.7738,.2981,.7961,.7155,.0205,.3856-.2525,.7248-.6336,.7872l-.0217-.0541Z" style="fill:#fff;"></path></g><path d="M157.7966,440.6945c-22.2729-2.6551-37.2078-31.4323-33.2954-64.1159,3.9125-32.6835,25.2178-57.1221,47.4906-54.4671,22.2729,2.6551,37.2077,31.4323,33.2872,64.1348-3.92051,32.7025-25.2177,57.1221-47.4824,54.4482Zm13.7877-115.6451c-20.9134-2.5094-40.9703,20.7398-44.6858,51.8396-3.7154,31.0998,10.3111,58.3907,31.2705,60.9757,20.9593,2.585,40.97839-20.7587,44.69929-51.845,3.7208-31.0862-10.3031-58.488-31.284-60.9703Z" style="fill:#263238;"></path><path d="M178.0004,325.4129c-20.8755-2.4931-40.8812,20.7669-44.602,51.8531-3.7208,31.0863,10.23,58.4233,31.1056,60.9164,20.8754,2.4931,40.86759-20.7614,44.583-51.8612,3.71539-31.0998-10.26511-58.3935-31.0866-60.9083Zm24.5999,58.8015l-22.5241-2.6955c.0807-1.1341,.0705-2.2728-.0304-3.4053l22.3161-10.8283c.7298,5.6212,.7962,11.3087,.1979,16.9454l.0405-.0163Zm-.6281-19.5479l-22.3161,10.8284c-.1917-.9023-.4522-1.7886-.7789-2.6512l18.7761-22.2192c2.0469,4.4742,3.4858,9.2023,4.2784,14.0582l.0405-.0162Zm-5.5003-16.3281l-18.8032,22.1516c-.404-.6796-.8789-1.3146-1.4166-1.8942l12.1153-30.3231c3.3136,2.8087,6.0519,6.2323,8.0639,10.0819l.0406-.0162Zm-19.4132-15.0552c3.4103,.4314,6.6668,1.6766,9.495,3.6304l-12.0829,30.2474c-.51-.3155-1.0612-.5592-1.6379-.724l3.9664-33.1754,.2594,.0216Zm-2.4702-.1401l-4.0151,33.0538c-.6505,.0287-1.2937,.1489-1.9107,.3571l-4.695-30.6494c3.251-1.762,6.8828-2.7043,10.5803-2.7452l.0405-.0163Zm-12.6664,3.9564l4.6815,30.4982c-.6127,.4067-1.1814,.8759-1.697,1.4003l-11.907-23.797c2.5066-3.1552,5.5057-5.8854,8.882-8.0853l.0405-.0162Zm-10.4869,10.1856l11.8232,23.7051c-.5582,.8206-1.0515,1.6837-1.4752,2.5812l-17.1967-13.6691c1.7401-4.4655,4.0269-8.6981,6.8082-12.601l.0405-.0162Zm-7.7806,15.1064l17.1535,13.6395c-.3183,1.0131-.5699,2.046-.7534,3.0919l-19.8539-2.369c.6555-4.884,1.7991-9.6901,3.4133-14.3462l.0405-.0162Zm-3.8208,16.9705l19.8593,2.3825c-.0797,1.1296-.0713,2.2636,.025,3.3918l-19.7948,9.6468c-.5645-5.1233-.5945-10.2915-.0895-15.4211Zm.3738,18.0507l19.9002-9.6576c.1923,.9021,.4527,1.7883,.7789,2.6511l-17.074,20.2838c-1.7252-4.2566-2.932-8.7053-3.5943-13.2502l-.0108-.0271Zm4.684,15.6203l17.1549-20.3163c.4129,.6755,.8919,1.3082,1.4301,1.8889l-11.5265,28.8176c-2.9302-3.0239-5.3269-6.5224-7.0883-10.347l.0298-.0432Zm8.8588,11.9897l11.5696-28.9446c.5076,.3124,1.0536,.5576,1.6244,.7294l-3.9474,33.0268c-3.4201-.8485-6.5959-2.481-9.2763-4.7683l.0297-.0433Zm11.6709,5.2679l-.281,.0811,3.9717-33.1619c.6492-.0347,1.2905-.1594,1.9053-.3707l5.0007,32.0792c-3.3777,1.3445-7.0407,1.8129-10.648,1.3615l.0513,.0108Zm12.7154-2.4241l-4.9332-32.1845c.6059-.4157,1.1738-.8843,1.697-1.4003l12.9722,25.9886c-2.7671,3.1154-6.0758,5.7038-9.7658,7.6395l.0298-.0433Zm11.3897-9.5749l-12.9777-26.002c.5593-.8238,1.0508-1.6916,1.4697-2.5948l19.3159,15.3606c-1.9881,4.7666-4.6256,9.2354-7.8377,13.2795l.0298-.0433Zm8.7912-15.7147l-19.3754-15.3525c.3224-1.012,.5741-2.0451,.7534-3.0919l22.5377,2.6901c-.7256,5.3958-2.0489,10.6942-3.9454,15.7975l.0297-.0432Z" style="fill:#263238;"></path><path d="M135.2849,377.5143c3.7208-31.0862,24.1211-54.3003,45.456-51.7559,21.335,2.5444,35.6805,29.9272,31.965,61.027-3.7154,31.0997-24.121,54.3003-45.4614,51.7424s-35.6804-29.9272-31.9596-61.0135Zm6.7837,.8122c-3.1973,26.7538,8.5204,50.2346,26.123,52.3446,17.6026,2.11,34.5332-17.944,37.7306-44.6979s-8.5204-50.2346-26.1229-52.3446c-17.6026-2.11-34.5333,17.944-37.7307,44.6979h0Z" style="fill:#263238;"></path><path d="M135.2849,377.5143c3.7208-31.0862,24.1211-54.3003,45.456-51.7559,21.335,2.5444,35.6805,29.9272,31.965,61.027-3.7154,31.0997-24.121,54.3003-45.4614,51.7424s-35.6804-29.9272-31.9596-61.0135Zm6.7837,.8122c-3.1973,26.7538,8.5204,50.2346,26.123,52.3446,17.6026,2.11,34.5332-17.944,37.7306-44.6979s-8.5204-50.2346-26.1229-52.3446c-17.6026-2.11-34.5333,17.944-37.7307,44.6979h0Z" style="fill:#263238;"></path><g style="opacity:.2;"><path d="M135.2849,377.5143c3.7208-31.0862,24.1211-54.3003,45.456-51.7559,21.335,2.5444,35.6805,29.9272,31.965,61.027-3.7154,31.0997-24.121,54.3003-45.4614,51.7424s-35.6804-29.9272-31.9596-61.0135Zm6.7837,.8122c-3.1973,26.7538,8.5204,50.2346,26.123,52.3446,17.6026,2.11,34.5332-17.944,37.7306-44.6979s-8.5204-50.2346-26.1229-52.3446c-17.6026-2.11-34.5333,17.944-37.7307,44.6979h0Z" style="fill:#fff;"></path><path d="M135.2849,377.5143c3.7208-31.0862,24.1211-54.3003,45.456-51.7559,21.335,2.5444,35.6805,29.9272,31.965,61.027-3.7154,31.0997-24.121,54.3003-45.4614,51.7424s-35.6804-29.9272-31.9596-61.0135Zm6.7837,.8122c-3.1973,26.7538,8.5204,50.2346,26.123,52.3446,17.6026,2.11,34.5332-17.944,37.7306-44.6979s-8.5204-50.2346-26.1229-52.3446c-17.6026-2.11-34.5333,17.944-37.7307,44.6979h0Z" style="fill:#fff;"></path></g><path d="M183.5235,320.0985c-5.5501-.6494-11.1741,.1284-16.3395,2.2599l.0378,.0946-.0217-.054,.0216,.054c-17.5657,7.0302-32.0285,28.2756-35.207,54.7241-4.1175,34.2863,12.3447,64.647,36.6418,67.4637,5.5499,.6315,11.1694-.1458,16.3396-2.2598,17.5656-7.0303,32.0421-28.2811,35.2017-54.7376,4.1148-34.3323-12.32579-64.6389-36.6743-67.5449Zm28.7717,66.6788c-2.728,22.6782-14.8643,42.0205-30.241,48.1747-3.9258,1.6273-8.2016,2.2272-12.4237,1.7429-9.108-1.0576-17.2523-7.4234-22.8974-17.8463-6.1047-11.3363-8.5534-25.7975-6.759-40.7812,2.7225-22.6918,14.8831-42.0124,30.2329-48.1558l-.0217-.0541c3.9301-1.6289,8.2102-2.2305,12.4371-1.7483,19.5891,2.3339,33.1695,29.1764,29.6728,58.6681Z" style="fill:#263238;"></path><path d="M279.69449,419.4976h-43.7819c-8.812-.008-15.9537-7.4316-15.9614-16.5916v-46.573c.0996-1.3302,1.2177-2.3248,2.4975-2.2213,1.1414,.0923,2.0481,1.0349,2.1369,2.2213v46.573c.0078,6.4994,5.0745,11.7662,11.327,11.7742h43.7819c6.8829-.0714,12.4372-5.8709,12.4751-13.0259v-45.2631c.0995-1.3303,1.2177-2.3248,2.4975-2.2213,1.1414,.0923,2.0481,1.0349,2.13691,2.2213v45.2631c0,9.8319-7.65111,17.8113-17.10951,17.8433Z" style="fill:#263238;"></path><path d="M191.9339,341.1823c-.1854-.0083-.3635-.0745-.5094-.1892-2.1085-1.7966-3.6295-4.1846-4.3662-6.855-.0907-.433,.1806-.8594,.6113-.9606,.4376-.0899,.866,.1892,.9606,.6259,.6635,2.3171,1.9948,4.3874,3.8277,5.9526,.3626,.2528,.4516,.7518,.1987,1.1144-.1601,.2297-.4287,.359-.7081,.341l-.0146-.0291Z" style="fill:#263238;"></path><path d="M132.6262,435.6526c-.2676,.0027-.5188-.1283-.6695-.3493-.2469-.357-.1577-.8466,.1993-1.0934l.019-.0127c2.6342-1.8047,9.0526-1.077,9.7657-.9897,.439,.0523,.7525,.4505,.7003,.8895l-.0017,.0129c-.0442,.4318-.4301,.7459-.8619,.7016l-.0259-.003c-1.8047-.2183-6.8695-.524-8.7324,.7131-.1188,.074-.2535,.1189-.3929,.131Z" style="fill:#263238;"></path><path d="M137.0215,434.9831c-4.3662,0-7.9029,4.3662-7.9029,9.6784s3.5367,9.6785,7.9029,9.6785,7.9028-4.3662,7.9028-9.6785-3.5512-9.6784-7.9028-9.6784Z" style="fill:#263238;"></path><path d="M135.9299,445.1273v-10.9446h7.8447l-4.1188,11.6432c-.2632,.7709-.9902,1.2868-1.8047,1.2808h0c-1.0611,.0004-1.9216-.8593-1.9221-1.9203l.0009-.0591Z" style="fill:#263238;"></path><path d="M237.51719,314.33s-45.3504-2.2995-57.1683,42.1195h59.6716l-2.5033-42.1195Z" style="fill:#407BFF;"></path><path d="M237.51719,314.33s-45.3504-2.2995-57.1683,42.1195h59.6716l-2.5033-42.1195Z" style="isolation:isolate; opacity:.4;"></path><path d="M216.28419,356.3912s4.6573-6.0545,4.6573-16.5916v-33.2851c-.0031-4.0198,2.7964-7.498,6.724-8.354,13.0986-2.9108,41.8429-7.7864,56.6443,.4221,1.199,.6759,1.9721,1.9151,2.05221,3.2892l3.18729,55.9749-73.2651-1.4555Z" style="fill:#407BFF;"></path><path d="M216.28419,356.3912s4.6573-6.0545,4.6573-16.5916v-33.2851c-.0031-4.0198,2.7964-7.498,6.724-8.354,13.0986-2.9108,41.8429-7.7864,56.6443,.4221,1.199,.6759,1.9721,1.9151,2.05221,3.2892l3.18729,55.9749-73.2651-1.4555Z" style="isolation:isolate; opacity:.4;"></path><path d="M180.3489,356.3912s-.8296-5.8216,3.5366-6.4183,96.4206-.8296,100.2483,0,4.5991,3.4056,4.5991,6.4183h-108.384Z" style="fill:#407BFF;"></path><path d="M180.3489,356.3912s-.8296-5.8216,3.5366-6.4183,96.4206-.8296,100.2483,0,4.5991,3.4056,4.5991,6.4183h-108.384Z" style="isolation:isolate; opacity:.3;"></path><rect x="168.7784" y="384.0148" width="132.4565" height="7.5827" style="fill:#263238;"></rect><rect x="168.7784" y="384.0148" width="132.4565" height="7.5827" style="fill:#fff; isolation:isolate; opacity:.2;"></rect><rect x="168.7784" y="384.0148" width="132.4565" height="7.5827" style="isolation:isolate; opacity:.2;"></rect><path d="M155.3014,434.2845h-24.4508c-1.3303,.1035-2.4926-.891-2.5961-2.2213-.1035-1.3303,.891-2.4926,2.2213-2.596,.1247-.0098,.25-.0098,.3748,0h24.4508c1.6695,.0299,3.2534-.7377,4.2643-2.0667,9.824-13.579,12.6911-48.6397,13.4625-63.0919,.3094-5.7863,5.0918-10.3193,10.8864-10.3188h107.4235c1.3303-.1035,2.4926,.891,2.5961,2.2213s-.891,2.4926-2.2213,2.5961c-.1247,.0097-.25,.0097-.3748,0h-107.3652c-3.2546,.0048-5.929,2.5701-6.0691,5.8216-.9897,18.4691-4.177,51.565-14.3794,65.6533-1.9423,2.5735-4.9994,4.0614-8.223,4.0024Z" style="fill:#263238;"></path><path d="M155.3014,434.2845h-24.4508c-1.3303,.1035-2.4926-.891-2.5961-2.2213-.1035-1.3303,.891-2.4926,2.2213-2.596,.1247-.0098,.25-.0098,.3748,0h24.4508c1.6695,.0299,3.2534-.7377,4.2643-2.0667,9.824-13.579,12.6911-48.6397,13.4625-63.0919,.3094-5.7863,5.0918-10.3193,10.8864-10.3188h107.4235c1.3303-.1035,2.4926,.891,2.5961,2.2213s-.891,2.4926-2.2213,2.5961c-.1247,.0097-.25,.0097-.3748,0h-107.3652c-3.2546,.0048-5.929,2.5701-6.0691,5.8216-.9897,18.4691-4.177,51.565-14.3794,65.6533-1.9423,2.5735-4.9994,4.0614-8.223,4.0024Z" style="fill:#fff; isolation:isolate; opacity:.4;"></path><g><path d="M202.68309,298.7728c.0284-.0872,.0498-.1762,.079-.263-.0792,.1122-.0972,.1996-.079,.263Z" style="fill:#263238;"></path><path d="M267.94139,290.8181s-22.0957-2.2351-41.5542-1.8368v5.1879l-22.9406,4.1037c-.2442,.4185-.7052,.4792-.7635,.2801-.8256,2.4706-1.337,5.0312-1.5074,7.6257-.2614,3.3164-.2321,6.6486,.08731,9.9602,1.208,13.3894,7.05879,20.5038,10.18779,23.3496,.6056,.5827,1.2631,1.1112,1.9649,1.5794l31.0658,.6973c10.0421-.0285,19.2912,1.2805,24.4288-2.2341,11.5558-7.9254-.9689-48.713-.9689-48.713Z" style="fill:#263238;"></path></g><path d="M200.99939,298.6413c-13.7709,3.2741-43.3883,8.3058-48.7489,19.6026-7.3823,15.5572-2.7401,99.8888-2.7401,99.8888l13.5192-1.0438s11.7623-67.2105,10.6707-74.6185c12.9235-5.2836,26.7094-2.7473,37.7507-1.8558,2.02289,.1747,4.06049,.3057,6.12719,.4221l8.809-46.7478s-10.2299,2.2718-25.3878,4.3524Zm-27.85,43.7272c.1089,.0202,.2376,.0439,.3758,.0695l-.3758-.0695Zm-.6673-.1235l.1943,.036-.1943-.036Zm.4473,.0828l.0174,.0032-.0174-.0032Z" style="fill:#263238;"></path><path d="M288.17939,314.33c-9.3655,.4512-37.3532,4.5118-47.18939,36.1814-.40661,1.327,.15579,2.8002,1.25619,3.2905,.2316,.1032,.4763,.157,.7232,.1588h50.5203l-2.0155-36.0795c-.1163-2.0663-1.5791-3.6429-3.2948-3.5512Z" style="fill:#407BFF;"></path><path d="M288.17939,314.33c-9.3293,.4512-37.4136,4.4972-47.2256,36.1959-.4066,1.327,.1558,2.8003,1.25621,3.2906,.23159,.1032,.47629,.1569,.72309,.1587h50.5204l-2.01549-36.0795c-.116-2.0509-1.55471-3.6251-3.25861-3.5657Z" style="isolation:isolate; opacity:.3;"></path><path d="M201.29219,434.9831c-4.36619,0-7.9029,4.3662-7.9029,9.6784s3.5512,9.6785,7.9029,9.6785,7.90281-4.3662,7.90281-9.6785-3.53661-9.6784-7.90281-9.6784Z" style="fill:#263238;"></path><path d="M201.29219,450.8762c-2.4014,0-4.439-2.8381-4.439-6.2146s2.0376-6.2291,4.439-6.2291,4.3662,2.9108,4.3662,6.2291-1.9502,6.2146-4.3662,6.2146Z" style="fill:#fff; isolation:isolate; opacity:.2;"></path><path d="M200.21519,445.1273v-10.9446h7.83l-4.10419,11.6432c-.27061,.7653-.993,1.278-1.80471,1.2808h0c-1.061,.0004-1.9215-.8593-1.922-1.9203l.0009-.0591Z" style="fill:#263238;"></path><path d="M200.21519,445.1273v-10.9446h7.83l-4.10419,11.6432c-.27061,.7653-.993,1.278-1.80471,1.2808h0c-1.061,.0004-1.9215-.8593-1.922-1.9203l.0009-.0591Z" style="fill:#fff; isolation:isolate; opacity:.6;"></path><path d="M218.39709,434.2845h-70.0062c-1.2798-.1034-2.2365-1.2658-2.137-2.596,.0888-1.1865,.9956-2.1291,2.137-2.2213h70.0062c1.6061,.0299,3.1298-.7377,4.1023-2.0667,9.4508-13.579,12.2091-48.6397,12.9512-63.0919,.2976-5.7863,4.89841-10.3193,10.4729-10.3188h53.8768c1.27971-.1035,2.3979,.891,2.4975,2.2213,.0995,1.3303-.8572,2.4926-2.137,2.5961-.12,.0097-.2405,.0097-.3605,0h-53.8348c-3.1338-.0027-5.7108,2.5668-5.83849,5.8216-.95211,18.4691-4.01841,51.565-13.83331,65.6533-1.8656,2.5693-4.8003,4.0568-7.8966,4.0024Z" style="fill:#263238;"></path><path d="M218.39709,434.2845h-70.0062c-1.2798-.1034-2.2365-1.2658-2.137-2.596,.0888-1.1865,.9956-2.1291,2.137-2.2213h70.0062c1.6061,.0299,3.1298-.7377,4.1023-2.0667,9.4508-13.579,12.2091-48.6397,12.9512-63.0919,.2976-5.7863,4.89841-10.3193,10.4729-10.3188h53.8768c1.27971-.1035,2.3979,.891,2.4975,2.2213,.0995,1.3303-.8572,2.4926-2.137,2.5961-.12,.0097-.2405,.0097-.3605,0h-53.8348c-3.1338-.0027-5.7108,2.5668-5.83849,5.8216-.95211,18.4691-4.01841,51.565-13.83331,65.6533-1.8656,2.5693-4.8003,4.0568-7.8966,4.0024Z" style="fill:#fff; isolation:isolate; opacity:.4;"></path><g><path d="M241.35979,383.8596c-.0565,34.5907,19.845,62.7772,44.349,62.7652,24.5039-.012,44.479-28.066,44.54821-62.6496,.06929-34.5836-19.83931-62.7574-44.335-62.7907-24.49571-.0333-44.52671,28.1228-44.56221,62.6751Zm11.8791-19.0978c.2633-.9345,.5846-1.8538,.927-2.8114l-1.5221-.9172c1.6516-5.2336,4.0048-10.2192,6.9953-14.8208l1.50091,2.1671c.551-.7934,1.13339-1.553,1.71449-2.2801l-1.5437-2.2403c2.89421-3.9732,6.5348-7.3444,10.7183-9.9252l.9074,3.2193c.7664-.4595,1.5641-.8853,2.3536-1.2658l-.9004-3.2321c3.55931-1.7838,7.4819-2.7233,11.4631-2.7454,.0889-.0073,.17821-.0083,.26721-.0029l-.046,3.1117c.39849-.0306,.81549-.0344,1.21279-.0324,.4603-.0098,.9207,.0098,1.3786,.0586l-.017-2.9968c4.23561,.5302,8.2903,2.0368,11.8444,4.4012l-.5077,1.7134c.7913,.4337,1.5826,.8675,2.3738,1.3012l.4188-1.4302c3.5716,2.8451,6.6607,6.2477,9.1484,10.0768l-.056,.102c7.6486,9.6033,12.454,23.6063,12.4335,39.1465-.02359,28.2022-15.9868,51.2688-35.792,52.2464-.4704,.0409-.92,.0434-1.3893,.0517-.4692,.0084-.82-.0179-1.216-.0524l-.0062,.1626-.27409,.0157c-4.192-.0258-8.31671-1.0573-12.02741-3.0078l.1872-.6443c-.7912-.4337-1.56979-.8604-2.31779-1.4032l-.20241,.7023c-3.9609-2.5659-7.4161-5.8383-10.1935-9.6538l.4684-.6727c-.5641-.7573-1.1142-1.5402-1.6236-2.3672l-.4951,.6913c-3.1275-4.8161-5.5484-10.0556-7.1891-15.5587l.7059-.4097c-.2838-.9356-.5001-1.9338-.7584-2.8555l-.7396,.4411c-1.4941-5.8224-2.2893-11.8021-2.3687-17.8126l1.0419,.0068c-.0026-.964,.0215-1.9467,.0584-2.9223l-1.10119,.0105c.14929-6.2398,1.066-12.4376,2.72949-18.4535l1.4384,.8881Z" style="fill:#263238;"></path><path d="M287.84659,440.7263c-21.5441-.0586-38.9494-25.5324-38.8997-56.8405,.0498-31.3081,17.5813-56.7514,39.0814-56.7336s38.9424,25.5451,38.89271,56.8532c-.04971,31.3082-17.58131,56.7514-39.07441,56.7209Zm.1898-105.686c-17.7286-.0251-32.1887,21.8737-32.2363,48.8179s14.33091,48.9166,32.0314,48.9928c17.7006,.0761,32.2014-21.8668,32.2363-48.818s-14.32379-48.9294-32.0314-48.9927Z" style="fill:#263238;"></path><path d="M287.84659,440.7263c-21.5441-.0586-38.9494-25.5324-38.8997-56.8405,.0498-31.3081,17.5813-56.7514,39.0814-56.7336s38.9424,25.5451,38.89271,56.8532c-.04971,31.3082-17.58131,56.7514-39.07441,56.7209Zm.1898-105.686c-17.7286-.0251-32.1887,21.8737-32.2363,48.8179s14.33091,48.9166,32.0314,48.9928c17.7006,.0761,32.2014-21.8668,32.2363-48.818s-14.32379-48.9294-32.0314-48.9927Z" style="fill:#263238;"></path><g style="opacity:.2;"><path d="M287.84659,440.7263c-21.5441-.0586-38.9494-25.5324-38.8997-56.8405,.0498-31.3081,17.5813-56.7514,39.0814-56.7336s38.9424,25.5451,38.89271,56.8532c-.04971,31.3082-17.58131,56.7514-39.07441,56.7209Zm.1898-105.686c-17.7286-.0251-32.1887,21.8737-32.2363,48.8179s14.33091,48.9166,32.0314,48.9928c17.7006,.0761,32.2014-21.8668,32.2363-48.818s-14.32379-48.9294-32.0314-48.9927Z" style="fill:#fff;"></path><path d="M287.84659,440.7263c-21.5441-.0586-38.9494-25.5324-38.8997-56.8405,.0498-31.3081,17.5813-56.7514,39.0814-56.7336s38.9424,25.5451,38.89271,56.8532c-.04971,31.3082-17.58131,56.7514-39.07441,56.7209Zm.1898-105.686c-17.7286-.0251-32.1887,21.8737-32.2363,48.8179s14.33091,48.9166,32.0314,48.9928c17.7006,.0761,32.2014-21.8668,32.2363-48.818s-14.32379-48.9294-32.0314-48.9927Z" style="fill:#fff;"></path></g><path d="M252.63359,383.8818c-.0439,31.3279,16.9896,56.8137,38.0262,56.8596,21.0366,.0459,38.1524-25.4262,38.2021-56.7343,.0497-31.308-16.9966-56.8009-38.0204-56.8398-21.0238-.0389-38.1581,25.4064-38.2079,56.7145Zm8.9558-18.0945l20.8498,13.4369c-.2299,1.1132-.377,2.2419-.44019,3.3768l-22.68491-.0365c.0996-5.6621,.8633-11.2931,2.2753-16.7772Zm6.7189-15.9515l16.0149,24.3465c-.4283,.817-.7935,1.6655-1.0925,2.5381l-20.84969-13.4369c1.35979-4.7296,3.35369-9.2532,5.92729-13.4477h0Zm10.57571-11.1487l8.38839,31.5684c-.6125,.5027-1.1651,1.0741-1.6471,1.7029l-15.9326-24.2848c2.4578-3.5583,5.5785-6.6094,9.19131-8.9865Zm12.141-3.6186l-.05761,33.4116c-.5911,.0994-1.167,.2746-1.7132,.5215l-8.3525-31.4823c3.0461-1.6018,6.43431-2.4436,9.8759-2.4536l.24741,.0028Zm12.38149,4.1479l-8.3517,29.8611c-.588-.2796-1.2119-.4763-1.85379-.5846l.05839-33.2618c3.6818,.4827,7.1884,1.8633,10.211,4.0203l-.0639-.035Zm9.7944,10.5637l-14.6605,22.2039c-.4488-.5826-.9568-1.117-1.516-1.5945l8.3201-29.7124c3.1072,2.5948,5.7734,5.676,7.8947,9.124l-.0383-.021Zm6.607,15.6213l-18.7177,11.4988c-.3125-.942-.69819-1.8582-1.1535-2.7401l14.5917-22.1088c2.3251,4.217,4.1117,8.7091,5.3178,13.3711l-.0383-.021Zm2.3245,17.2572l-19.94939-.0309c-.05621-1.0604-.18171-2.1161-.37561-3.1601l18.6711-11.4746c1.06051,4.8255,1.62751,9.7463,1.6922,14.6865l-.0383-.0209Zm-1.8828,17.9385l-18.5413-11.9558c.2275-1.1111,.3681-2.2382,.4205-3.3711l20.0539,.0217c-.09769,5.1606-.7328,10.2971-1.8948,15.3261l-.0383-.0209Zm-5.7895,15.3157l-14.528-22.154c.4385-.8113,.8082-1.658,1.1052-2.5311l18.5796,11.9768c-1.2035,4.4274-2.93489,8.6941-5.1568,12.7083Zm-9.6115,11.6605l-7.948-29.9494c.6042-.5116,1.1559-1.082,1.6471-1.7029l14.5836,22.2342c-2.20329,3.589-5.0047,6.7743-8.2827,9.4181Zm-11.7142,5.0807l.0584-33.2618c.5873-.1018,1.1589-.2794,1.7004-.5284l7.9999,30.1272c-2.92509,1.9608-6.2659,3.2148-9.7587,3.663Zm-12.7798-2.5736l8.7381-31.2925c.5849,.2837,1.2064,.4848,1.8467,.5973l-.0506,33.3989-.2416,.017c-3.6044-.0321-7.14319-.9675-10.2926-2.7208v.0001Zm-10.7492-9.9419l16.0713-24.2023c.4572,.5752,.9645,1.1088,1.516,1.5944l-8.787,31.3818c-3.4404-2.3678-6.4223-5.3406-8.8003-8.7739h0Zm-7.5606-16.2436l21.0379-12.9157c.3071,.9471,.6905,1.8678,1.1466,2.7529l-16.0412,24.2686c-2.6866-4.3971-4.7538-9.1438-6.1432-14.1057l-.0001-.0001Zm-2.7072-18.6785l22.6849,.0365c.0561,1.0634,.1859,2.1217,.3883,3.1672l-21.0576,12.9215c-1.2718-5.283-1.9479-10.6918-2.0156-16.1252h0Z" style="fill:#263238;"></path><path d="M252.63359,383.8818c-.0439,31.3279,16.9896,56.8137,38.0262,56.8596,21.0366,.0459,38.1524-25.4262,38.2021-56.7343,.0497-31.308-16.9966-56.8009-38.0204-56.8398-21.0238-.0389-38.1581,25.4064-38.2079,56.7145Zm8.9558-18.0945l20.8498,13.4369c-.2299,1.1132-.377,2.2419-.44019,3.3768l-22.68491-.0365c.0996-5.6621,.8633-11.2931,2.2753-16.7772Zm6.7189-15.9515l16.0149,24.3465c-.4283,.817-.7935,1.6655-1.0925,2.5381l-20.84969-13.4369c1.35979-4.7296,3.35369-9.2532,5.92729-13.4477h0Zm10.57571-11.1487l8.38839,31.5684c-.6125,.5027-1.1651,1.0741-1.6471,1.7029l-15.9326-24.2848c2.4578-3.5583,5.5785-6.6094,9.19131-8.9865Zm12.141-3.6186l-.05761,33.4116c-.5911,.0994-1.167,.2746-1.7132,.5215l-8.3525-31.4823c3.0461-1.6018,6.43431-2.4436,9.8759-2.4536l.24741,.0028Zm12.38149,4.1479l-8.3517,29.8611c-.588-.2796-1.2119-.4763-1.85379-.5846l.05839-33.2618c3.6818,.4827,7.1884,1.8633,10.211,4.0203l-.0639-.035Zm9.7944,10.5637l-14.6605,22.2039c-.4488-.5826-.9568-1.117-1.516-1.5945l8.3201-29.7124c3.1072,2.5948,5.7734,5.676,7.8947,9.124l-.0383-.021Zm6.607,15.6213l-18.7177,11.4988c-.3125-.942-.69819-1.8582-1.1535-2.7401l14.5917-22.1088c2.3251,4.217,4.1117,8.7091,5.3178,13.3711l-.0383-.021Zm2.3245,17.2572l-19.94939-.0309c-.05621-1.0604-.18171-2.1161-.37561-3.1601l18.6711-11.4746c1.06051,4.8255,1.62751,9.7463,1.6922,14.6865l-.0383-.0209Zm-1.8828,17.9385l-18.5413-11.9558c.2275-1.1111,.3681-2.2382,.4205-3.3711l20.0539,.0217c-.09769,5.1606-.7328,10.2971-1.8948,15.3261l-.0383-.0209Zm-5.7895,15.3157l-14.528-22.154c.4385-.8113,.8082-1.658,1.1052-2.5311l18.5796,11.9768c-1.2035,4.4274-2.93489,8.6941-5.1568,12.7083Zm-9.6115,11.6605l-7.948-29.9494c.6042-.5116,1.1559-1.082,1.6471-1.7029l14.5836,22.2342c-2.20329,3.589-5.0047,6.7743-8.2827,9.4181Zm-11.7142,5.0807l.0584-33.2618c.5873-.1018,1.1589-.2794,1.7004-.5284l7.9999,30.1272c-2.92509,1.9608-6.2659,3.2148-9.7587,3.663Zm-12.7798-2.5736l8.7381-31.2925c.5849,.2837,1.2064,.4848,1.8467,.5973l-.0506,33.3989-.2416,.017c-3.6044-.0321-7.14319-.9675-10.2926-2.7208v.0001Zm-10.7492-9.9419l16.0713-24.2023c.4572,.5752,.9645,1.1088,1.516,1.5944l-8.787,31.3818c-3.4404-2.3678-6.4223-5.3406-8.8003-8.7739h0Zm-7.5606-16.2436l21.0379-12.9157c.3071,.9471,.6905,1.8678,1.1466,2.7529l-16.0412,24.2686c-2.6866-4.3971-4.7538-9.1438-6.1432-14.1057l-.0001-.0001Zm-2.7072-18.6785l22.6849,.0365c.0561,1.0634,.1859,2.1217,.3883,3.1672l-21.0576,12.9215c-1.2718-5.283-1.9479-10.6918-2.0156-16.1252h0Z" style="fill:#fff; isolation:isolate; opacity:.2;"></path><path d="M294.38719,373.9895c4.0642,.0037,7.3917,4.6823,7.3635,10.4261-.0281,5.7438-3.3308,10.4063-7.3695,10.4166-4.0387,.0102-7.3846-4.6952-7.3635-10.4262,.0212-5.731,3.2925-10.4273,7.3695-10.4165Z" style="fill:#fff; isolation:isolate; opacity:.4;"></path><path d="M325.27459,384.8291c.13241,.0717,.2831,.1024,.433,.088l10.9116-.5582c.4433-.0228,.7842-.4007,.7614-.844-.0229-.4433-.4007-.7842-.844-.7614h0l-10.91159,.5582c-.44161,.0209-.78261,.3958-.76171,.8374l.0003,.0066c.0092,.281,.1652,.5367,.411,.6734Z" style="fill:#263238;"></path><path d="M299.51739,443.1734c.2325,.1336,.5171,.1395,.7549,.0155,.3901-.1994,.5474-.6753,.353-1.0679-1.45529-2.8558-7.4206-5.2957-8.1007-5.5689-.4128-.1668-.8825,.0328-1.0492,.4456-.1667,.4127,.0328,.8825,.44561,1.0492,1.68749,.676,6.27569,2.8425,7.31469,4.8227,.0687,.1221,.1651,.2261,.2817,.3038Z" style="fill:#263238;"></path><path d="M254.07459,384.7049c.12541,.0716,.2692,.1042,.4133,.0938l3.6105-.2283c.41761-.0193,.7404-.3734,.7212-.7909l-.0005-.0091c-.03009-.4232-.3964-.7426-.8197-.7149l-3.6106,.2283c-.4096,.0174-.7275,.3635-.7101,.7731l.0022,.0339c.0117,.2604,.1619,.4947,.3937,.6141Z" style="fill:#263238;"></path><g style="opacity:.4;"><path d="M325.27459,384.8291c.13241,.0717,.2831,.1024,.433,.088l10.9116-.5582c.4433-.0228,.7842-.4007,.7614-.844-.0229-.4433-.4007-.7842-.844-.7614h0l-10.91159,.5582c-.44161,.0209-.78261,.3958-.76171,.8374l.0003,.0066c.0092,.281,.1652,.5367,.411,.6734Z" style="fill:#fff;"></path><path d="M292.91919,331.8248c.1665,.0818,.3546,.1094,.5376,.0789,2.7151-.555,5.1986-1.919,7.1237-3.9124,.29351-.3307,.2633-.8366-.0673-1.1301l-.007-.0061c-.3405-.2891-.8503-.2503-1.1431,.0871-1.6956,1.7129-3.8582,2.8885-6.2178,3.38-.4395,.0474-.7574,.4422-.7099,.8818,.03,.2783,.2033,.5208,.457,.6393l.0268-.0185Z" style="fill:#fff;"></path><path d="M299.51739,443.1734c.2325,.1336,.5171,.1395,.7549,.0155,.3901-.1994,.5474-.6753,.353-1.0679-1.45529-2.8558-7.4206-5.2957-8.1007-5.5689-.4128-.1668-.8825,.0328-1.0492,.4456-.1667,.4127,.0328,.8825,.44561,1.0492,1.68749,.676,6.27569,2.8425,7.31469,4.8227,.0687,.1221,.1651,.2261,.2817,.3038Z" style="fill:#fff;"></path><path d="M254.07459,384.7049c.12541,.0716,.2692,.1042,.4133,.0938l3.6105-.2283c.41761-.0193,.7404-.3734,.7212-.7909l-.0005-.0091c-.03009-.4232-.3964-.7426-.8197-.7149l-3.6106,.2283c-.4096,.0174-.7275,.3635-.7101,.7731l.0022,.0339c.0117,.2604,.1619,.4947,.3937,.6141Z" style="fill:#fff;"></path></g><path d="M256.38469,384.245c.0589-32.9296,18.3295-59.6607,40.7682-59.6595,22.4386,.0011,40.632,26.853,40.5859,59.7896s-18.3295,59.6607-40.7739,59.6398c-22.4445-.021-40.6671-26.7892-40.5802-59.7699Zm2.4555,.0016c-.0497,31.3081,17.0035,56.7882,38.1307,56.8505,21.1272,.0623,38.2627-25.4155,38.3125-56.7236,.0497-31.3081-17.0036-56.7881-38.1308-56.8505-21.1271-.0623-38.2557,25.4027-38.2741,56.7446l-.0383-.021Z" style="fill:#263238;"></path><path d="M256.38469,384.245c.0589-32.9296,18.3295-59.6607,40.7682-59.6595,22.4386,.0011,40.632,26.853,40.5859,59.7896s-18.3295,59.6607-40.7739,59.6398c-22.4445-.021-40.6671-26.7892-40.5802-59.7699Zm2.4555,.0016c-.0497,31.3081,17.0035,56.7882,38.1307,56.8505,21.1272,.0623,38.2627-25.4155,38.3125-56.7236,.0497-31.3081-17.0036-56.7881-38.1308-56.8505-21.1271-.0623-38.2557,25.4027-38.2741,56.7446l-.0383-.021Z" style="fill:#fff; isolation:isolate; opacity:.6;"></path></g><path d="M240.02049,297.6565l-14.8593,3.1384v-4.7309l-3.8466,6.4965s-10.3058,1.227-20.1389,3.6182c-6.3354,1.5406-21.6921,5.9644-24.627,11.3223-2.9349,5.358-2.8484,24.9694-2.8484,24.9694l3.0828-1.2574s35.4673-28.1986,45.6514-36.1546l17.586-7.4019Z" style="isolation:isolate; opacity:.4;"></path><path d="M243.82239,309.8037c-2.3858-2.8259-5.6233-4.8021-9.2272-5.6324,0,0-1.2807,.0582-3.4638,.2038-9.9551,.6694-44.0906,3.6696-52.1892,15.5161-5.8077,8.4955-3.804,99.3299-3.804,99.3299h16.3955s11.8139-70.6163,10.7224-78.0243l38.6327-.4512s12.9323-18.8475,2.9336-30.9419Z" style="fill:#263238;"></path><g><g><path d="M149.6007,410.0725c1.9963-.4559,3.2264,.0286,3.3844,1.8279,.9433-.0057,1.8335,.5081,2.4194,1.3329,2.5265,3.5579,4.2867,2.1967,6.7861-1.1778,1.655-.2209,2.1737,1.8522,2.3286,2.4092l3.5402,12.3164c.306,1.0285-.2049,2.1056-1.1415,2.4058-.1666,.0534-.3402,.0797-.5155,.0777-5.0623,.0306-7.4573,.0452-13.7578,.0834l-19.269,.1164c-5.2529,.032-6.5393-5.7221-4.3939-6.268,9.6493-2.3986,16.432-5.5559,19.3335-8.6542,.5391-.5427,.7366-2.7958,1.2855-4.4697Z" style="fill:#407BFF;"></path><path d="M133.0121,427.8904c3.5679,.8917,8.5628-2.6218,13.1119-2.6549,4.5488-.0332,4.5488,1.9665,12.4873,2.5771,7.9384,.6106,9.0038-2.5771,9.0038-2.5771l.0004,.001,.4439,1.5445c.306,1.0286-.2048,2.1057-1.1416,2.4059-.1664,.0534-.3402,.0797-.5154,.0777-5.0622,.0306-7.4573,.0452-13.7578,.0833l-19.2689,.1165c-2.8023,.017-4.465-1.6124-5.0909-3.2195,.5818,.3015,2.0644,.9798,4.7273,1.6455Z" style="fill:#fff;"></path><path d="M160.5723,422.6563c-2.62693,.33129-5.24047-.33029-7.43983-1.7919-.40313-.2679-.77911,.3814-.37854,.6476,2.29454,1.52487,5.076,2.24014,7.81837,1.8943,.47245-.05958,.47841-.81033,0-.75h0Z" style="fill:#fff;"></path></g><path d="M147.6593,418.69053c-.51799-.74158-1.03601-1.48312-1.554-2.2247-.11208-.16046-.33336-.2504-.51307-.13453-.15944,.10279-.25466,.34108-.13453,.51307,.51799,.74158,1.03601,1.48312,1.554,2.2247,.11208,.16046,.33336,.2504,.51307,.13453,.15944-.10279,.25466-.34108,.13453-.51307h0Z"></path><path d="M145.19066,420.07333c-.26223-.30571-.48885-.6232-.71102-.99988-.219-.37132-.40747-.76606-.54574-1.12904-.06961-.18274-.25583-.32841-.46129-.26191-.17827,.05769-.33668,.26503-.26191,.46129,.34267,.89959,.82227,1.7285,1.44964,2.45988,.12818,.14943,.40048,.14146,.53033,0,.14607-.15912,.13672-.37094,0-.53033h0Z"></path><path d="M142.57236,421.44413c-.26223-.30571-.48885-.6232-.71102-.99988-.219-.37132-.40747-.76606-.54574-1.12904-.06961-.18274-.25583-.32841-.46129-.26191-.17827,.05769-.33668,.26503-.26191,.46129,.34266,.89959,.82227,1.7285,1.44964,2.45988,.12818,.14943,.40048,.14146,.53033,0,.14607-.15912,.13672-.37094,0-.53033h0Z"></path><g style="isolation:isolate; opacity:.4;"><path d="M149.6007,410.0725c1.9963-.4559,3.2264,.0286,3.3844,1.8279,.9433-.0057,1.8335,.5081,2.4194,1.3329,2.5265,3.5579,4.2867,2.1967,6.7861-1.1778,1.655-.2209,2.1737,1.8522,2.3286,2.4092l3.5402,12.3164c.306,1.0285-.2049,2.1056-1.1415,2.4058-.1666,.0534-.3402,.0797-.5155,.0777-5.0623,.0306-7.4573,.0452-13.7578,.0834l-19.269,.1164c-5.2529,.032-6.5393-5.7221-4.3939-6.268,9.6493-2.3986,16.432-5.5559,19.3335-8.6542,.5391-.5427,.7366-2.7958,1.2855-4.4697Z"></path></g></g><g><g><path d="M175.8137,409.2053c2.3723-.4749,3.834,.0297,4.0217,1.9039,1.1209-.006,2.1788,.5293,2.875,1.3883,3.0024,3.706,5.0941,2.2882,8.0642-1.2268,1.9666-.23,2.583,1.9294,2.767,2.5096l4.2069,12.8288c.3637,1.0714-.2434,2.1933-1.3565,2.506-.1979,.0557-.4043,.083-.6125,.081-6.0156,.0318-8.8617,.047-16.3487,.0868l-22.8976,.1213c-6.2422,.0333-7.7709-5.9603-5.2215-6.5289,11.4665-2.4984,19.5265-5.7871,22.9745-9.0144,.6405-.5652,.8753-2.9121,1.5275-4.6556Z" style="fill:#407BFF;"></path><path d="M156.1012,427.7646c4.2398,.9289,10.1753-2.7308,15.5811-2.7654,5.4054-.0345,5.4054,2.0485,14.8388,2.6844,9.4334,.636,10.6994-2.6844,10.6994-2.6844l.0005,.0011,.5276,1.6088c.3636,1.0714-.2435,2.1933-1.3566,2.506-.1979,.0557-.4043,.083-.6125,.081-6.0155,.0318-8.8617,.047-16.3487,.0867l-22.8976,.1213c-3.3299,.0178-5.3058-1.6795-6.0495-3.3535,.6913,.3141,2.4531,1.0207,5.6175,1.714Z" style="fill:#fff;"></path><path d="M188.8515,422.3283c-3.08283,.34024-6.19496-.30717-8.87663-1.8686-.41794-.24335-.79592,.40458-.37854,.6476,2.78616,1.62227,6.04903,2.32485,9.25517,1.971,.47451-.05237,.47985-.80296,0-.75h0Z" style="fill:#fff;"></path></g><path d="M173.38706,418.11393c-.6155-.77249-1.2311-1.5449-1.8467-2.3173-.12282-.15411-.40384-.13779-.53033,0-.15015,.16356-.13103,.36592,0,.53033,.6156,.7724,1.2312,1.54481,1.8467,2.3173,.1228,.15413,.40386,.13777,.53033,0,.15016-.16358,.13101-.3659,0-.53033h0Z"></path><path d="M170.52326,419.63333c-.6551-.66926-1.16622-1.43199-1.54936-2.314-.07845-.1806-.35684-.23526-.51307-.13453-.18734,.12078-.21847,.31985-.13453,.51307,.39771,.91555,.96858,1.75266,1.66664,2.4658,.13745,.14042,.39433,.14816,.53033,0,.13863-.15102,.14666-.3805,0-.53033h0Z"></path><path d="M167.41176,421.06113c-.65508-.66923-1.16614-1.43192-1.54926-2.3139-.07845-.1806-.35684-.23526-.51307-.13453-.18734,.12078-.21847,.31985-.13453,.51307,.39769,.91552,.96851,1.75258,1.66654,2.4657,.13745,.14042,.39433,.14816,.53033,0,.13863-.15102,.14666-.3805,0-.53033h0Z"></path></g><path d="M202.78939,342.9344c.2694-3.13053,.5387-6.26106,.808-9.3916,.04136-.48082-.70888-.47806-.75,0-.2693,3.13054-.5386,6.26107-.808,9.3916-.04138,.48082,.70886,.47805,.75,0h0Z" style="isolation:isolate; opacity:.4;"></path></g><g><g><path d="M220.75289,207.5158c.6072,4.6185,.6394,9.3483,.0956,14.0579,0,0,25.4488,1.8936,31.6478-3.8355,6.1989-5.7291,8.6549-37.0996-5.1431-38.9936s-29.9589,9.8161-26.6003,28.7712Z" style="fill:#263238;"></path><path d="M231.323,182.4202c-6.36791,4.3379-8.14141,10.5033-8.01691,14.9545,.8504,6.0043,2.9752,10.2405,4.6525,16.068l15.61441-35.3326c-3.71821,.7737-5.40121,.0249-12.25,4.3101Z" style="fill:#263238;"></path><path d="M251.77059,179.6144c12.202,4.3066,16.8966,11.9984,16.2422,20.7856-.6543,8.7871-11.07879,18.4727-12.7921,18.8819l-5.365,.9843s7.7851-11.9074,6.069-15.7438c-1.7162-3.8364-3.3843-4.1631-3.3843-4.1631l-.7698-20.7449Z" style="fill:#263238;"></path><path d="M239.49569,179.2941c6.21731-2.9623,12.3772,.4075,15.9717,2.7557,3.9401,3.2806,6.2892,8.0893,6.455,13.2138,.04461,4.792,.09861,10.6005-2.7823,13.1253-1.614,1.4616-3.76809,2.1774-5.9358,1.9722l-23.9028-21.6484c2.5421-3.9551,6.0506-7.1968,10.1942-9.4186Z" style="fill:#263238;"></path><g><path d="M239.18269,244.0886c1.8395,1.8631,3.4978,1.22,5.9202,.2026,14.42311-5.3389,10.07511-12.2868,10.07511-12.2868-2.77561-3.1958-2.93171-7.0477-1.98571-12.9306,.018-.1714,.0238-.3439,.0174-.5161-.017-.7838-.2758-1.5429-.7413-2.1735-1.2255-1.7575-3.6439-2.1887-5.4016-.963l-.0049,.0034-6.4611,1.9117h0c-.01679,.0892-.0339,.1783-.0529,.2786,.0122,3.2128,.1268,5.7058,.1229,7.6681-.0446,.234,0,.485-.0089,.7144h0c-.0446,.2338-.0243,.4918-.0222,.7232-.1305,2.6889-4.6402,6.6777-6.4846,7.6317-1.1176,.6535-1.2144,3.4561,5.0276,9.7363Z" style="fill:#ffb573;"></path><path d="M240.66169,224.1228c.004-1.9626,.2034-3.3714,.1911-6.5841,.0336-.0932,.05221-.1909,.05521-.29l6.41159-1.9555c1.7741-1.2013,4.1851-.7424,5.394,1.0263,.434,.639,.67241,1.3905,.6856,2.1628-3.2375,3.9437-7.91019,7.305-12.8208,8.6898l.0833-3.0493Z" style="isolation:isolate; opacity:.2;"></path><path d="M257.89759,196.6421c-.1455,11.0815,.03841,15.7588-5.169,21.824-7.842,9.1086-21.1374,6.8214-24.2938-4.0222-2.7613-9.7639-2.1143-26.2122,8.283-31.3934,10.3978-5.1813,21.31621,2.497,21.1798,13.5916Z" style="fill:#ffb573;"></path><path d="M263.17249,206.0857c-1.0982,2.4023-3.09649,4.0334-5.0058,4.7076-2.8718,1.0137-4.83469-3.5722-4.1078-6.6131,.6549-2.7375,3.3797-4.765,6.2964-4.4554,2.8734,.305,4.0732,3.6145,2.8172,6.3609Z" style="fill:#ffb573;"></path><path d="M256.90137,206.32764c-.13477,0-.24609-.10742-.25-.24316-.03027-1.13086,.39746-2.25,1.17383-3.07178s1.86914-1.3125,2.99902-1.34668h.00781c.13477,0,.24609,.10693,.25,.24268,.00391,.1377-.10449,.25293-.24219,.25732-.99902,.02979-1.96484,.46387-2.65137,1.19043-.68555,.72559-1.06348,1.71533-1.03711,2.71436,.00391,.13818-.10547,.25293-.24316,.25684h-.00684Z" style="opacity:.2;"></path><g><g><path d="M243.78889,201.5461c.056,1.181-.4902,2.206-1.2197,2.2896-.7291,.0837-1.3654-.8054-1.4211-1.9861-.056-1.1805,.48991-2.2058,1.2193-2.2894,.7292-.0839,1.3655,.8052,1.4215,1.9859Z" style="fill:#263238;"></path><path d="M232.82829,202.5424c.0516,1.1443-.4959,2.14-1.2229,2.2237-.727,.0835-1.3582-.7762-1.4102-1.9209-.0516-1.1443,.49581-2.1399,1.223-2.2234,.727-.084,1.3583,.7764,1.4101,1.9206Z" style="fill:#263238;"></path><path d="M245.72259,197.2336c-.1401,.0291-.28759,.0014-.407-.0896-1.86059-1.4241-3.7358-.6866-3.7573-.6778-.2779,.1098-.5821-.0245-.6749-.3099-.0921-.285,.0607-.6079,.34161-.7227,.09809-.0391,2.45109-.9674,4.75989,.8009,.23,.1761,.267,.523,.0825,.7743-.0893,.1208-.2137,.1976-.3448,.2248Z" style="fill:#263238;"></path><path d="M228.61929,197.3128c-.1155-.027-.2165-.1015-.2771-.2187-.125-.2423-.0313-.5735,.2085-.7396,2.4057-1.6662,4.39-.7579,4.474-.7172,.2358,.1119,.3194,.4221,.1862,.6939-.1324,.271-.431,.4001-.6668,.2898-.0772-.0368-1.6278-.7154-3.5405,.61-.1239,.0855-.2624,.1107-.3843,.0818Z" style="fill:#263238;"></path><path d="M235.758,201.7207s-1.34731,4.3225-3.06491,7.0993c-.3003,.4853-.0258,1.1268,.5256,1.273,1.4195,.3761,2.9824-.2318,2.9824-.2318l-.44309-8.1405Z" style="fill:#e88b3f;"></path></g><path d="M242.79019,199.5692l-2.6065-.3627s1.57331,1.7706,2.6065,.3627Z" style="fill:#263238;"></path><path d="M231.683,200.6233l-2.60681-.3628s1.5731,1.7705,2.60681,.3628Z" style="fill:#263238;"></path></g></g><g><path d="M236.95279,212.8965c.9287,1.0219,2.1818,3.091,2.1818,3.091,.2081-.0796,.416-.1594,.6192-.2498,2.7929-1.1524,3.7078-2.6097,3.875-3.8758,.0889-.6928-.0549-1.3333-.237-1.8291-.2046-.5753-.4817-.9388-.4817-.9388-1.1153,1.4954-3.6363,2.7703-5.0113,3.3947-.5729,.2675-.946,.4078-.946,.4078Z" style="fill:#263238;"></path><path d="M237.89879,212.4887l.667,.8947c2.6278-1.0916,4.3315-2.213,4.826-3.3506-.2046-.5753-.4817-.9388-.4817-.9388-1.1153,1.4954-3.6363,2.7703-5.0113,3.3947Z" style="fill:#fff;"></path><path d="M239.75379,215.7377c2.7929-1.1524,3.7078-2.6097,3.875-3.8758-.9364,.4293-2.018,1.0514-2.8475,1.8943-.6369,.6419-.9146,1.3422-1.0275,1.9815Z" style="fill:#fd504e;"></path></g><path d="M254.36719,199.3784s-6.3979-7.1727-6.6514-13.3569c0,0-22.693-4.8133-20.4224,14.713,0,0-5.0522-16.8573,13.4241-19.7888,18.4763-2.9315,22.5194,21.1966,14.2116,29.6972-.0334-.0868,3.3961-6.7702-.5619-11.2645Z" style="fill:#263238;"></path><path d="M232.32739,183.4439c-2.4135,2.3596-4.0126,5.4265-4.5656,8.7562,.0224,2.4106,3.3205,4.1225,3.3205,4.1225l3.9589-5.2941,.043,4.6178c6.5569-.7814,10.3191-4.3015,12.5186-9.353l-3.7204-6.5006s-9.3945,1.7432-11.555,3.6512Z" style="fill:#263238;"></path></g><path d="M227.26929,236.858l-8.0308,14.6437c-7.8702-12.9493-21.8118-57.2792-18.6922-64.2115,3.1195-6.9322,27.6691-25.2745,27.6691-25.2745l6.59261,2.1085s-21.63111,24.7059-22.01941,30.016c-.3882,5.3101,8.8741,28.7878,14.4198,34.5277l.0609,8.1901Z" style="fill:#ffb573;"></path><g><path d="M276.54319,117.6811c.7903-2.2183,2.246-4.6446,4.6169-5.4349l.0704-.0189c2.4016-.6223,4.853,.82,5.4753,3.2216,.6151,2.1923,.3411,4.5386-.7625,6.5302-1.14629,1.9965-2.8079,3.6485-4.811,4.7832-2.0609,1.2323-4.3232,2.0912-6.6827,2.5372-1.19659,.2496-2.4113,.4026-3.6325,.4575-1.34,.0203-2.6758,.1548-3.9929,.4021-1.465,.3111-2.7916,1.0837-3.785,2.2045-1.1277,1.2537-1.3391,3.0835-.5269,4.5614,.4712,.6992,1.1893,1.1945,2.0104,1.3864,.83531,.2295,1.7301,.0381,2.3985-.513,.6402-.5447,.9325-1.3951,.7626-2.2183-.14079-.7732-.7956-1.3476-1.5806-1.3864,.3166,.1396,.5696,.3926,.7092,.7092,.309,.7006-.0086,1.519-.7092,1.828-.82319,.3468-1.776,.0331-2.23219-.7349-.37261-.8682-.162-1.8767,.52689-2.5233,.7554-.7424,1.7257-1.2276,2.7729-1.3865,1.1991-.1603,2.4103-.2114,3.6186-.1525,1.3319,.006,2.6623-.0913,3.9791-.2911,2.6886-.3593,5.2904-1.2,7.6809-2.4818,2.5049-1.3208,4.61461-3.2823,6.1143-5.6844,1.5591-2.5619,2.0566-5.6312,1.3864-8.5544l-.305-1.0676-.1664-.5268-.2495-.5546c-.1624-.3777-.3671-.7358-.6101-1.0675-.2239-.3538-.4892-.6796-.7903-.9705-1.1571-1.1896-2.6621-1.9809-4.298-2.26-1.628-.303-3.3101-.0897-4.8109,.6101-1.6741,.7549-2.9351,2.2032-3.4523,3.9652l1.2756,4.6308Z" style="fill:#407BFF;"></path><path d="M237.14029,110.2913c.0693-2.3569-.4159-5.1437-2.3431-6.7243-.03419-.0259-.0689-.0514-.1039-.0763-2.0138-1.4357-4.81029-.967-6.246,1.0468-1.36129,1.8291-1.9534,4.118-1.6499,6.3777,.3545,2.2721,1.312,4.4076,2.7729,6.1836,1.4799,1.8947,3.2821,3.5139,5.324,4.7832,1.0265,.6587,2.1018,1.2381,3.2165,1.7331,1.2515,.4909,2.4539,1.099,3.5909,1.8162,1.2739,.8014,2.2485,2,2.7729,3.4107,.601,1.573,.139,3.354-1.1507,4.4366-.6822,.5011-1.5315,.7197-2.37089,.6101-.87551-.0922-1.64881-.6112-2.06581-1.3865-.4009-.7395-.3636-1.6393,.0971-2.3431,.4128-.6471,1.21471-.9278,1.941-.6794-.3516,.0084-.6868,.1501-.9378,.3963-.5466,.5363-.5551,1.4141-.0189,1.9607,.649,.6175,1.6529,.6648,2.357,.1109,.6531-.6768,.8188-1.6873,.4159-2.5372-.4448-.9844-1.193-1.8006-2.1351-2.3292-1.0621-.5576-2.1709-1.0215-3.3136-1.3865-1.2482-.4748-2.4579-1.0449-3.6186-1.7053-2.3788-1.3042-4.5019-3.0281-6.2668-5.0883-1.8623-2.1251-3.12139-4.7103-3.6463-7.4868-.56209-2.9506,.0605-6.0039,1.733-8.4989l.6655-.8873,.3466-.4437,.4437-.4159c.5936-.5707,1.2776-1.0392,2.0242-1.3865,1.5092-.6904,3.1984-.8845,4.8248-.5546,1.6333,.3014,3.1313,1.1062,4.2842,2.3015,1.27991,1.3097,1.9275,3.111,1.7746,4.9358l-2.7174,3.8266Z" style="fill:#407BFF;"></path><g style="opacity:.2;"><path d="M276.54319,117.6811c.7903-2.2183,2.246-4.6446,4.6169-5.4349l.0704-.0189c2.4016-.6223,4.853,.82,5.4753,3.2216,.6151,2.1923,.3411,4.5386-.7625,6.5302-1.14629,1.9965-2.8079,3.6485-4.811,4.7832-2.0609,1.2323-4.3232,2.0912-6.6827,2.5372-1.19659,.2496-2.4113,.4026-3.6325,.4575-1.34,.0203-2.6758,.1548-3.9929,.4021-1.465,.3111-2.7916,1.0837-3.785,2.2045-1.1277,1.2537-1.3391,3.0835-.5269,4.5614,.4712,.6992,1.1893,1.1945,2.0104,1.3864,.83531,.2295,1.7301,.0381,2.3985-.513,.6402-.5447,.9325-1.3951,.7626-2.2183-.14079-.7732-.7956-1.3476-1.5806-1.3864,.3166,.1396,.5696,.3926,.7092,.7092,.309,.7006-.0086,1.519-.7092,1.828-.82319,.3468-1.776,.0331-2.23219-.7349-.37261-.8682-.162-1.8767,.52689-2.5233,.7554-.7424,1.7257-1.2276,2.7729-1.3865,1.1991-.1603,2.4103-.2114,3.6186-.1525,1.3319,.006,2.6623-.0913,3.9791-.2911,2.6886-.3593,5.2904-1.2,7.6809-2.4818,2.5049-1.3208,4.61461-3.2823,6.1143-5.6844,1.5591-2.5619,2.0566-5.6312,1.3864-8.5544l-.305-1.0676-.1664-.5268-.2495-.5546c-.1624-.3777-.3671-.7358-.6101-1.0675-.2239-.3538-.4892-.6796-.7903-.9705-1.1571-1.1896-2.6621-1.9809-4.298-2.26-1.628-.303-3.3101-.0897-4.8109,.6101-1.6741,.7549-2.9351,2.2032-3.4523,3.9652l1.2756,4.6308Z"></path><path d="M237.14029,110.2913c.0693-2.3569-.4159-5.1437-2.3431-6.7243-.03419-.0259-.0689-.0514-.1039-.0763-2.0138-1.4357-4.81029-.967-6.246,1.0468-1.36129,1.8291-1.9534,4.118-1.6499,6.3777,.3545,2.2721,1.312,4.4076,2.7729,6.1836,1.4799,1.8947,3.2821,3.5139,5.324,4.7832,1.0265,.6587,2.1018,1.2381,3.2165,1.7331,1.2515,.4909,2.4539,1.099,3.5909,1.8162,1.2739,.8014,2.2485,2,2.7729,3.4107,.601,1.573,.139,3.354-1.1507,4.4366-.6822,.5011-1.5315,.7197-2.37089,.6101-.87551-.0922-1.64881-.6112-2.06581-1.3865-.4009-.7395-.3636-1.6393,.0971-2.3431,.4128-.6471,1.21471-.9278,1.941-.6794-.3516,.0084-.6868,.1501-.9378,.3963-.5466,.5363-.5551,1.4141-.0189,1.9607,.649,.6175,1.6529,.6648,2.357,.1109,.6531-.6768,.8188-1.6873,.4159-2.5372-.4448-.9844-1.193-1.8006-2.1351-2.3292-1.0621-.5576-2.1709-1.0215-3.3136-1.3865-1.2482-.4748-2.4579-1.0449-3.6186-1.7053-2.3788-1.3042-4.5019-3.0281-6.2668-5.0883-1.8623-2.1251-3.12139-4.7103-3.6463-7.4868-.56209-2.9506,.0605-6.0039,1.733-8.4989l.6655-.8873,.3466-.4437,.4437-.4159c.5936-.5707,1.2776-1.0392,2.0242-1.3865,1.5092-.6904,3.1984-.8845,4.8248-.5546,1.6333,.3014,3.1313,1.1062,4.2842,2.3015,1.27991,1.3097,1.9275,3.111,1.7746,4.9358l-2.7174,3.8266Z"></path></g><path d="M255.02539,139.0047l-1.8578,9.0396c-.4682,2.202,.7555,4.4128,2.87,5.1853,1.8751,.6715,3.4421,2.002,4.4088,3.7434l1.1508,2.1629-25.5384-4.7555,1.844-1.5944c1.5249-1.2856,3.4688-1.9665,5.4626-1.9133,2.2503,.0425,4.189-1.577,4.54761-3.7989l1.51119-9.109c.3634-2.1738-.5198-4.3683-2.2876-5.6844-6.655-4.7833-10.68959-14.128-9.9547-24.6095l1.5944-11.2788,40.5206,6.2842-1.8942,12.4814c-3.09169,10.0795-10.2181,17.3445-18.13469,19.4103-2.13371,.5673-3.77121,2.2797-4.24261,4.4367Z" style="fill:#407BFF;"></path><polygon points="232.32929 161.0076 262.70639 166.6643 263.34419 157.2919 235.10219 152.0373 232.32929 161.0076" style="fill:#263238;"></polygon><polygon points="238.77629 162.1999 256.25939 165.4581 256.89719 156.0995 241.54919 153.2296 238.77629 162.1999" style="fill:#fff; isolation:isolate; opacity:.2;"></polygon><rect x="246.57159" y="154.48428" width="3.63241" height="9.33083" transform="translate(46.45058 374.19966) rotate(-79.45009)" style="fill:#fff;"></rect></g><path d="M224.47389,224.6566c9.2923,5.3873,14.0126,5.4411,24.7535,5.505,7.0847-.0693,17.8975-8.288,17.8975-8.288l6.6816,13.5053c-1.2339,10.1488-6.0896,30.4156-5.3132,57.7287l-42.298,.6566c-2.5448-13.6837-5.9514-26.6451-7.316-38.5425-1.257-10.9588,3.1948-18.6991,5.5946-30.5651Z" style="fill:#407BFF;"></path><path d="M270.85829,248.5713s21.771-36.094,18.4851-52.2322c-3.2858-16.1383-20.21839-34.1149-20.21839-34.1149l-4.92911,4.886s11.611,22.9878,14.06511,32.7623c2.454,9.7745-14.96121,25.3854-14.96121,25.3854-4.4782,7.7087,7.5585,23.3134,7.5585,23.3134Z" style="fill:#ffb573;"></path><path d="M234.77279,229.6019l5.5315-2.1323s1.5622,1.9139,3.0063,2.9159c0,0-4.4294,1.7276-5.8451,5.8757l-2.6927-6.6593Z" style="fill:#263238;"></path><path d="M252.67349,224.9303l-9.3629,5.4552c3.3799,1.4799,4.0019,5.6009,4.49441,6.6187l10.09389-9.6255-5.2254-2.4484Z" style="fill:#263238;"></path><path d="M219.23849,251.5017s-12.3108-19.1341-14.9726-25.5807l12.8535-16.3127,8.9607,17.9801-6.8416,23.9133Z" style="fill:#407BFF;"></path><path d="M260.03639,227.4696s-.4321-3.608,.7957-4.177c1.22791-.5689,2.8361-1.1419,2.8361-1.1419l9.95081-12.0303,13.65639,13.4826-17.0606,29.0178s-6.3211-4.2949-8.281-12.6393-1.8974-12.5119-1.8974-12.5119Z" style="fill:#407BFF;"></path><path d="M242.15479,96.9161s-4.2535,24.6686,7.7009,34.9171c0,0-6.738-12.4249-2.019-34.036l-5.6819-.8811Z" style="fill:#fff; opacity:.4;"></path><g style="isolation:isolate; opacity:.4;"><path d="M257.45789,266.7189c-7.8676-.2014-13.8021-.7595-18.4115-8.9,0,0-.4217,7.5098,6.7262,9.8006,7.1479,2.2907,11.6853-.9006,11.6853-.9006Z"></path></g><polygon points="271.20719 212.8068 285.177 227.1721 287.27539 223.603 273.619 210.1204 271.20719 212.8068" style="fill:#263238;"></polygon><polygon points="204.26589 225.921 205.94249 229.3835 218.96909 213.4427 217.11939 209.6083 204.26589 225.921" style="fill:#263238;"></polygon><path d="M260.08289,226.74487c1.26309,2.94109,2.52619,5.88218,3.7892,8.8233,.1899,.44221,.83619,.06062,.6476-.37854-1.26301-2.94112-2.52611-5.88221-3.7892-8.8233-.18991-.44221-.8362-.06061-.6476,.37854h0Z" style="fill:#263238;"></path><path d="M218.93919,252.3214c-.313-6.38262,.79086-12.73772,3.2306-18.64351,.18412-.44568-.54121-.63994-.72321-.19938-2.46264,5.9612-3.5733,12.40115-3.2574,18.84289,.02356,.48041,.7737,.48325,.75,0h0Z" style="fill:#263238;"></path><path d="M224.154,223.7235c-1.18511-2.7196-2.55841-5.0498-3.71381-7.4519-1.082,.4302-1.141,2.6441-.1127,4.7102,1.0282,2.0661,2.74451,3.172,3.82651,2.7417Z" style="fill:#fff;"></path><path d="M271.663,282.2579c.4254-7.45586,.85079-14.91173,1.27609-22.3676,.02751-.48221-.72258-.48063-.75,0-.4253,7.45587-.8507,14.91174-1.27609,22.3676-.02751,.48221,.72258,.48063,.75,0h0Z" style="fill:#407BFF;"></path><path d="M273.55349,256.3423c.0619-.8107,.1237-1.6214,.18551-2.4321,.01495-.19606-.18316-.38359-.375-.375-.21595,.00967-.35899,.16498-.375,.375-.06181,.8107-.12361,1.6214-.18551,2.4321-.01497,.19606,.18317,.38359,.375,.375,.21597-.00967,.35896-.16498,.375-.375h0Z" style="fill:#407BFF;"></path></g><path d="M268.91729,162.8103s.2205-7.5791-1.0271-9.0311c-1.2475-1.4517-8.6991-5.7546-9.5641-4.8791-.86509,.8753,.0775,1.7866,.0775,1.7866l-3.1601,.6754s-.4412,.5841,.2397,1.3022c0,0-1.0135,1.4767-.2837,2.1299,.7299,.653,4.5643,1.9183,4.5643,1.9183l-3.8544-.1593s-.8797,.3548,1.2144,1.6307c2.0941,1.2757,3.5107,.8168,3.5107,.8168,0,0,1.6187,7.2357,3.8252,8.9022,2.2066,1.6665,4.2875,2.015,4.2875,2.015l.1701-7.1076Z" style="fill:#ffb573;"></path><path d="M227.82459,159.5567s-.22059-7.5791,1.027-9.031c1.2476-1.4517,8.6992-5.7546,9.5642-4.8791,.8651,.8753-.0776,1.7865-.0776,1.7865l3.1602,.6754s.4411,.5842-.2398,1.3022c0,0,1.0135,1.4768,.2837,2.1299-.7298,.653-4.5642,1.9184-4.5642,1.9184l3.8544-.1594s.8796,.3549-1.2144,1.6307c-2.09409,1.2757-3.5107,.8169-3.5107,.8169,0,0,.9072,6.7105-1.29939,8.377-2.20651,1.6665-6.81331,2.5401-6.81331,2.5401l-.1701-7.1076Z" style="fill:#ffb573;"></path></g></g></svg>
