<svg width="381" height="253" viewBox="0 0 381 253" fill="none" xmlns="http://www.w3.org/2000/svg">
<path d="M32.9881 189.29C31.1415 193.42 29.3986 197.849 27.4276 201.63C25.913 204.517 24.4191 207.9 22.3028 209.691C22.116 206.656 22.946 205.611 23.2987 204.069C23.7967 201.929 24.2116 199.64 24.6473 197.401C24.8963 196.804 25.1245 196.207 25.3735 195.61C25.581 195.46 25.8092 195.311 26.0167 195.212C26.1827 194.813 26.3487 194.465 26.5146 194.067C26.7014 193.719 26.8881 193.37 27.0541 193.022C27.1786 192.525 27.3031 192.027 27.4483 191.48L27.5728 191.281L27.5106 191.629C27.3861 192.126 27.2616 192.624 27.1371 193.122C26.9504 193.47 26.7844 193.818 26.5977 194.216C26.4317 194.565 26.2657 194.963 26.0997 195.311C25.8507 195.411 25.6018 195.51 25.3735 195.61C25.1245 196.207 24.8963 196.754 24.6473 197.351C23.5269 200.287 22.4065 203.223 21.2031 206.357C19.481 201.879 21.3069 199.889 21.8878 196.406C21.0372 197.55 20.4147 198.396 19.3981 199.74C20.3317 196.057 21.0579 193.122 21.7841 190.186C23.6307 185.608 25.4565 180.931 26.4939 174.91L26.4109 175.059C26.6184 174.562 26.8051 174.114 27.0126 173.616L26.9296 173.815C29.9381 165.754 32.9673 157.693 35.9343 149.583C37.3244 145.751 38.6108 141.721 39.9387 137.79L39.8557 137.989L40.4574 136.595L40.3744 136.844C41.723 133.162 43.0924 129.53 44.441 125.848L44.358 126.096C44.5448 125.649 44.7523 125.151 44.939 124.703L44.856 124.902C45.0635 124.454 45.2502 123.957 45.4577 123.509L45.3747 123.758C45.7067 123.21 46.0801 122.762 46.3498 122.116C51.4124 109.974 56.4542 97.7835 61.5168 85.6423C61.6827 85.2443 61.7657 84.6471 61.8902 84.1993L61.7865 84.3984L62.3674 82.9553L62.2844 83.1544L62.8654 81.7113L62.7616 81.9104C63.6953 80.5669 64.629 79.1736 65.5626 77.8301C65.5626 77.0837 65.5626 76.3871 65.5626 75.6407L65.7494 75.7402L65.6249 75.5909C65.6249 76.3871 65.6041 77.1833 65.5834 77.9794C65.1477 77.6808 64.712 77.3325 64.2763 77.034L64.3177 77.1334C64.6082 76.2378 64.8157 75.1432 65.1684 74.4466C69.567 66.1368 74.3391 59.4193 79.6299 55.0903C85.0451 50.6119 90.5019 50.1144 95.9379 54.8415C97.0998 55.8367 98.3032 56.6328 99.4651 57.7275C102.868 60.8623 105.71 65.7884 108.034 72.5059C113.076 87.0853 115.524 104.252 116.458 122.663C117.205 137.242 117.433 151.921 117.993 166.55C118.367 176.403 118.761 186.305 119.383 196.107C119.777 202.427 121.147 204.367 123.782 203.223C125.94 202.277 128.097 200.984 130.235 199.74C131.376 199.043 132.475 198.098 133.596 197.252C133.803 197.102 134.011 196.953 134.197 196.754C133.99 196.903 133.782 197.053 133.575 197.202C134.529 196.207 135.505 195.211 136.459 194.216L136.417 194.067C136.521 194.664 136.646 195.212 136.749 195.759C136.604 195.709 136.48 195.659 136.334 195.61C136.459 195.659 136.583 195.759 136.708 195.809C136.978 195.212 137.227 194.664 137.496 194.067L137.413 194.216C137.974 193.967 138.555 193.719 139.115 193.42L139.011 193.072L139.094 193.52C138.534 193.271 137.974 193.022 137.413 192.823L137.496 192.972C139.654 190.086 141.791 187.151 143.97 184.314C146.439 181.13 148.929 178.144 151.398 175.059L151.356 174.91C151.211 175.756 151.066 176.602 150.92 177.448C149.966 177.298 149.489 178.144 149.759 180.533C149.178 179.687 148.804 179.886 148.721 181.627C148.161 181.578 147.621 181.528 147.061 181.478C146.605 183.369 145.194 183.12 145.256 186.155C144.924 186.553 144.592 186.902 144.281 187.3C143.949 187.797 143.617 188.245 143.285 188.743C143.078 188.743 142.87 188.643 142.663 188.643C142.87 188.693 143.078 188.743 143.264 188.793L144.26 187.399C144.592 187.051 144.903 186.653 145.235 186.305C145.63 185.658 146.107 185.16 146.418 184.314C146.709 183.568 146.812 182.423 147.02 181.528C147.58 181.627 148.14 181.677 148.7 181.727C149.053 181.379 149.385 180.981 149.738 180.632C150.111 179.537 150.485 178.493 150.858 177.398C152.207 175.408 153.555 173.367 154.904 171.377L154.8 171.576C155.34 170.73 155.858 169.884 156.398 168.989L156.294 169.188C158.888 166.948 161.004 163.067 162.871 158.29L162.788 158.489C164.801 155.106 166.855 151.921 168.785 148.339C170.05 146 171.15 143.064 172.332 140.427L172.249 140.626C173.287 138.835 174.428 137.242 175.362 135.152C177.229 131.072 178.993 126.743 180.798 122.514L180.715 122.713C181.441 121.469 182.229 120.474 182.873 119.031C189.948 102.66 197.002 86.1896 204.056 69.7194C204.99 67.53 205.82 65.1417 206.712 62.803L206.608 63.0019C206.795 62.5043 207.003 62.0566 207.189 61.559L207.106 61.7579C207.293 61.2603 207.501 60.8126 207.687 60.315L207.584 60.514C208.766 58.1255 209.949 55.7371 211.131 53.3487C211.277 52.9506 211.443 52.5526 211.588 52.1545C211.712 51.6569 211.837 51.1593 211.961 50.7114C212.107 50.1641 212.252 49.567 212.397 49.0197C213.04 48.7211 213.683 48.4226 214.306 48.1738C214.347 47.4772 214.389 46.7307 214.43 46.0341C214.679 45.835 214.928 45.5863 215.157 45.3375C215.24 44.7404 215.323 44.1931 215.406 43.6458H215.572L215.447 43.5461C215.364 44.2428 215.281 44.8896 215.177 45.5863C214.928 45.7853 214.7 45.9843 214.451 46.1834C214.389 46.88 214.327 47.5767 214.264 48.2733C213.642 48.6216 213.02 48.9202 212.418 49.2685C212.293 49.8656 212.148 50.4129 212.003 50.9105C211.878 51.4081 211.754 51.9056 211.65 52.4032C211.484 52.8013 211.339 53.1995 211.173 53.5975C210.8 53.498 210.447 53.3985 210.073 53.299L210.115 53.3985C212.231 48.7709 214.264 43.8447 216.464 39.5157C221.775 29.0165 227.377 19.4629 233.415 11.5015C234.764 9.71017 236.216 7.91872 237.855 7.32161C238.789 6.9733 239.577 4.78399 240.511 3.83857C244.494 -0.191905 248.623 -1.0379 252.856 1.25101C254.723 2.24619 256.653 2.79361 258.416 4.43565C264.413 9.9589 267.67 21.3538 269.288 35.5848C270.575 46.8801 270.243 58.5237 269.641 69.9683C269.019 81.6119 268.168 93.156 267.504 104.8C266.757 117.588 266.01 130.425 266.799 143.412C267.006 146.945 267.317 150.478 267.753 153.862C268.956 163.366 270.658 166.749 274.787 166.65C279.248 166.501 283.708 165.257 288.024 162.271C296.406 156.499 304.457 148.687 312.216 139.282C313.046 138.287 314.063 138.188 315.204 137.541C316.428 134.108 318.047 131.122 320.204 129.928C320.744 129.629 321.429 129.032 321.698 128.037C322.985 123.161 325.101 121.319 327.113 119.13L327.051 118.981C327.259 118.981 327.466 118.981 327.674 118.981L327.57 119.13C327.923 118.682 328.275 118.234 328.649 117.836L328.587 117.986C328.773 117.538 328.96 117.09 329.147 116.642L329.085 116.791C329.852 115.945 331.222 116.095 330.35 112.462L330.288 112.661C331.595 111.567 332.321 107.387 334.085 108.432C334.189 108.482 334.417 106.69 334.707 106.242C334.956 105.894 335.371 106.342 335.724 106.392C335.724 106.292 335.682 106.243 335.662 106.143C335.662 106.243 335.641 106.392 335.62 106.491C336.284 105.098 336.927 103.705 337.591 102.312L337.529 102.411C337.716 101.963 337.903 101.515 338.089 101.018L338.006 101.217C338.193 100.769 338.38 100.271 338.587 99.8237L338.504 100.023C339.023 99.1767 339.562 98.3308 340.081 97.4352L339.998 97.6343C340.185 97.1864 340.372 96.7386 340.579 96.241L340.517 96.4399C341.43 94.6486 342.343 92.8574 343.276 91.1158L343.318 91.1655C344.542 89.3742 345.891 87.9311 346.388 84.2987L346.492 84.448C346.679 84.0002 346.866 83.5026 347.073 83.0548L346.99 82.806C348.858 80.8654 350.372 77.8799 351.389 73.6006L351.472 73.7002C351.659 73.2524 351.866 72.7546 352.053 72.3068L352.011 72.1575C352.468 71.0131 352.903 69.8688 353.36 68.7243L353.464 68.9232C353.65 68.4754 353.858 67.9778 354.045 67.53L353.962 67.7291C354.148 67.2812 354.356 66.7837 354.543 66.3358L354.46 66.5349C354.646 66.0871 354.854 65.5895 355.04 65.1417L354.957 65.3406C355.144 64.8928 355.352 64.3952 355.538 63.9473L355.455 63.6986C355.767 63.002 356.057 62.3054 356.368 61.559L356.451 61.7579C356.638 61.3101 356.846 60.8125 357.032 60.3647L356.949 60.5638C357.136 60.1159 357.344 59.6184 357.53 59.1705L357.468 58.9714C357.904 58.1255 358.339 57.2299 358.775 56.384H358.837C360.227 52.5526 361.638 48.6714 363.028 44.8399L362.925 44.9892C363.111 44.5414 363.298 44.0438 363.506 43.5959L363.423 43.3472C364.875 42.0037 365.643 39.1674 366.286 36.0326H366.244C367.904 33.1964 368.734 28.9669 369.958 24.8369C369.357 24.2398 369.004 23.8914 368.672 23.5431C369.647 21.8015 370.602 20.06 371.701 18.1194C371.701 20.6073 371.701 22.7967 371.701 24.9861L371.556 24.8369L371.639 25.0856C372.075 21.3039 373.527 21.9011 374.813 20.8064C375 23.7919 374.129 25.633 373.776 27.8224C373.735 28.8176 373.693 29.8128 373.652 30.7582L373.486 30.6586L373.61 30.9075C373.631 29.8128 373.672 28.7679 373.693 27.6732C374.274 26.8273 374.896 26.1305 375.415 25.0856C376.162 23.5928 376.826 21.8016 377.511 20.1595C379.005 21.503 379.005 23.2446 378.154 25.633C373.029 40.1626 368.174 55.3391 362.717 69.1223C357.157 83.2041 351.14 96.3404 345.081 109.178C341.015 117.787 336.471 125.151 332.155 133.162C331.595 134.207 331.159 135.6 330.661 136.844C329.728 136.546 329.126 137.043 329.458 139.73C328.981 139.88 328.504 140.029 328.047 140.178C327.487 140.875 326.927 141.522 326.367 142.218C326.18 142.815 325.993 143.412 325.806 144.01C325.889 144.109 325.972 144.209 326.055 144.308C326.159 143.611 326.242 142.915 326.367 142.218C327.134 142.467 327.923 142.865 328.006 140.128C328.483 140.029 328.96 139.88 329.437 139.73C329.831 138.735 330.226 137.74 330.62 136.745C333.193 132.913 335.765 129.132 338.317 125.25C340.164 122.464 341.969 119.528 343.795 116.592C344.044 116.194 344.293 115.697 344.5 115.199C345.683 112.263 346.762 108.93 348.069 106.342C355.684 91.2651 362.531 74.347 368.983 56.4835C372.033 48.0742 374.959 39.4162 377.988 31.0069C378.59 29.3151 379.44 28.1707 380.187 26.7277C381.411 29.763 381.121 32.2012 380.187 33.9925C375.996 42.3022 372.988 53.1497 369.419 62.803C362.842 80.5172 355.87 97.2362 348.339 112.562C338.4 132.714 327.798 150.627 316.055 164.361C307.631 174.263 299.021 183.021 289.767 187.499C287.007 188.842 284.206 189.937 281.405 190.186C272.484 191.032 265.658 180.931 260.076 165.257C254.122 148.488 253.333 128.236 253.665 107.437C253.748 102.71 254.391 97.9824 254.288 93.3051C254.039 80.9649 254.972 68.9233 255.366 56.7324C255.491 52.9507 255.491 49.169 255.532 45.3873C255.532 43.9941 255.387 42.4017 255.615 41.2573C256.694 35.9828 255.719 31.206 255.138 26.3794C254.599 22.0006 254.267 21.6522 252.441 22.4484C249.225 23.8416 246.3 27.1257 243.436 30.8078C237.191 38.819 231.817 49.8159 226.236 60.0165C225.572 61.2107 224.908 62.3551 224.244 63.5493L224.327 63.1015L224.224 63.4497C220.323 72.058 216.381 80.5171 212.542 89.2746C206.359 103.356 200.259 117.737 194.056 131.819C185.383 151.523 176.482 170.581 166.772 187.35C157.166 203.919 146.895 217.603 135.65 226.609C131.791 229.694 127.828 232.133 123.699 229.694C122.516 228.998 121.313 227.903 120.275 226.46C112.516 215.513 108.283 198.794 106.997 177.796C105.752 157.345 104.922 136.745 103.739 116.294C103.054 104.65 101.851 93.3052 99.7348 82.5573C98.7181 77.3326 97.3073 75.1929 94.9005 75.4915C90.1492 75.989 85.792 79.5717 81.6009 84.5476C75.8952 91.3646 70.9571 100.868 66.6 111.815C59.0477 130.823 51.5991 150.08 44.4203 169.884C39.2955 184.066 33.6728 196.903 28.1123 210.04C26.9711 212.777 26.6391 212.826 24.3569 212.876C25.1038 210.786 25.6432 209.194 26.2449 207.751C28.1538 203.073 30.1041 198.496 31.9507 193.719C32.3864 192.574 32.5316 190.733 32.8013 189.24C32.9673 188.842 33.1333 188.444 33.2993 188.046C35.0214 187.698 35.3119 186.952 35.7476 182.025C36.37 181.379 36.9717 180.781 37.5734 180.135C37.5319 180.085 37.5111 179.985 37.4697 179.886C37.4697 180.035 37.5111 180.184 37.5319 180.334C36.5982 178.94 36.0588 179.836 35.7891 182.175C34.5027 183.07 33.7143 185.16 33.3408 188.196C33.1748 188.594 33.0088 188.992 32.8428 189.439L32.9881 189.29ZM365.581 43.7452C365.352 43.8945 365.103 44.0437 364.875 44.193C364.751 44.7901 364.626 45.3375 364.502 45.9346L364.377 46.1834L364.439 45.8352C364.585 45.238 364.709 44.6907 364.875 44.1434C365.103 43.9443 365.332 43.795 365.539 43.5959C365.767 43.1979 365.995 42.7998 366.224 42.352C366.846 40.3616 367.469 38.421 368.091 36.4306C368.568 34.7388 369.025 32.9973 369.502 31.3055C370.498 31.0567 370.664 29.3649 370.477 27.1755C370.166 28.6186 369.875 30.0615 369.585 31.5045C369.108 33.1964 368.63 34.9379 368.153 36.6297C367.095 37.7742 366.369 39.5655 366.286 42.5012C366.058 42.9491 365.829 43.3472 365.601 43.795L365.581 43.7452ZM360.456 56.5333C360.248 56.8816 360.041 57.2299 359.833 57.5782L359.896 57.9266C359.896 57.9266 359.813 57.6778 359.833 57.6778C360.02 57.2797 360.207 56.8816 360.414 56.4835C360.663 56.0357 360.891 55.6377 361.14 55.1899C361.431 54.4435 361.742 53.7468 362.033 53.0005C362.24 52.6521 362.468 52.2541 362.676 51.9058C362.863 51.3584 363.049 50.7613 363.236 50.214C363.132 50.1145 363.049 50.0149 362.945 49.8656C362.883 50.5622 362.821 51.3086 362.738 52.0052C362.531 52.4033 362.302 52.7517 362.095 53.1497C361.784 53.8961 361.493 54.5928 361.182 55.3391C360.933 55.7372 360.705 56.1352 360.456 56.5333ZM207.252 67.0822L206.754 69.0229C206.546 69.2717 206.318 69.5204 206.11 69.7692L205.841 71.8093C205.529 71.8093 205.218 71.8093 204.907 71.8093C204.907 72.6055 204.907 73.4015 204.907 74.1977C204.637 74.8445 204.388 75.4417 204.098 76.0885C203.87 76.6856 203.621 77.233 203.392 77.8301C202.625 78.4272 201.857 79.0741 201.089 79.6712C200.861 80.2185 200.633 80.766 200.405 81.3133C200.363 81.9104 200.301 82.5573 200.259 83.1544C199.969 83.2539 199.699 83.3036 199.409 83.4031C199.139 84.249 198.89 85.1447 198.641 86.0403C198.434 86.3886 198.205 86.7867 197.998 87.135C197.915 87.7321 197.832 88.3293 197.749 88.9264C197.562 89.225 197.355 89.5235 197.168 89.8221C197.023 90.2699 196.878 90.7177 196.712 91.2153C196.525 91.5636 196.338 91.9118 196.131 92.2104C195.985 92.6582 195.84 93.1062 195.695 93.554C195.55 93.9521 195.384 94.3999 195.238 94.798C195.093 95.2458 194.948 95.6439 194.782 96.0917C194.616 96.4898 194.45 96.8878 194.284 97.2859C194.118 97.684 193.952 98.082 193.786 98.4801C193.62 98.8781 193.454 99.2762 193.288 99.6742C193.122 100.072 192.956 100.47 192.79 100.869C192.645 101.316 192.5 101.764 192.354 102.212C192.168 102.56 191.981 102.909 191.815 103.307C191.69 103.804 191.566 104.352 191.442 104.849C191.234 105.198 191.047 105.496 190.84 105.844C190.695 106.292 190.549 106.74 190.404 107.188C190.238 107.586 190.072 107.984 189.906 108.382C189.761 108.83 189.636 109.328 189.491 109.775C188.392 108.93 187.956 111.318 187.313 112.512C186.192 114.652 185.155 117.04 184.097 119.329C183.951 119.827 183.806 120.275 183.64 120.772C183.516 121.27 183.412 121.817 183.287 122.315C183.122 122.713 182.935 123.061 182.769 123.459C182.665 124.007 182.541 124.554 182.437 125.101C182.25 125.449 182.063 125.798 181.877 126.146C181.794 126.693 181.69 127.241 181.607 127.838C181.109 128.087 180.528 127.987 180.155 128.584C179.449 129.779 178.889 131.371 178.266 132.864C178.121 133.361 177.976 133.809 177.831 134.307C177.686 134.754 177.54 135.202 177.395 135.65C177.25 136.098 177.105 136.546 176.959 136.993C176.026 138.337 175.092 139.681 174.179 141.024C174.075 141.571 173.972 142.119 173.868 142.666C173.702 143.064 173.536 143.462 173.37 143.86C173.287 144.457 173.204 145.104 173.121 145.701C172.457 146.099 171.814 146.448 171.171 146.896C171.046 147.443 170.901 147.99 170.776 148.488C170.693 149.035 170.59 149.583 170.507 150.13C169.76 151.125 169.013 152.07 168.287 153.066C168.162 153.613 168.038 154.16 167.934 154.757C167.311 155.205 166.689 155.653 166.087 156.151C166.004 156.798 165.921 157.445 165.838 158.091C165.776 158.688 165.714 159.335 165.631 159.932C165.133 159.932 164.635 159.883 164.158 159.932C164.075 160.53 163.992 161.127 163.909 161.724C163.826 162.371 163.743 163.017 163.66 163.664C163.183 163.664 162.705 163.615 162.249 163.664L161.958 165.754C161.44 166.351 160.9 166.899 160.382 167.496C160.278 168.192 160.174 168.939 160.07 169.636C159.614 169.486 159.178 169.387 158.722 169.287C158.618 169.984 158.514 170.73 158.431 171.377C158.41 171.377 158.369 171.377 158.348 171.327C158.348 171.427 158.348 171.477 158.348 171.576C158.473 170.78 158.597 169.984 158.722 169.188C159.157 169.287 159.593 169.387 160.008 169.436C160.091 168.74 160.195 167.993 160.278 167.297C160.817 166.7 161.336 166.152 161.875 165.555C161.979 164.859 162.083 164.112 162.166 163.416C162.643 163.465 163.12 163.565 163.577 163.565C163.66 162.918 163.743 162.271 163.826 161.624C163.909 161.027 163.971 160.38 164.054 159.783C164.552 159.783 165.029 159.783 165.506 159.783C165.589 159.186 165.652 158.589 165.735 157.992C165.818 157.345 165.921 156.698 166.004 156.051C166.813 157.046 167.374 156.3 167.83 154.608C167.955 154.061 168.058 153.464 168.183 152.916C168.93 151.971 169.656 150.976 170.403 149.981C170.507 149.433 170.59 148.886 170.693 148.388C170.818 147.841 170.942 147.244 171.067 146.697C171.71 146.298 172.374 145.95 172.996 145.502C173.079 144.905 173.183 144.308 173.266 143.761C173.432 143.363 173.598 142.965 173.764 142.616C173.868 142.019 173.951 141.472 174.055 140.875C175.569 141.82 175.963 138.387 176.835 136.844C176.98 136.396 177.125 135.949 177.271 135.501C177.416 135.053 177.561 134.605 177.706 134.157C177.851 133.66 177.976 133.162 178.121 132.664C179.74 132.963 180.217 128.783 181.482 127.689C181.565 127.141 181.669 126.544 181.752 125.997C181.939 125.648 182.126 125.3 182.312 124.952C182.416 124.405 182.541 123.907 182.665 123.36C182.831 123.011 183.018 122.613 183.184 122.265C183.308 121.767 183.412 121.22 183.536 120.772C183.682 120.275 183.827 119.777 183.972 119.279C184.532 118.831 185.196 118.732 185.611 117.886C186.918 115.299 188.122 112.462 189.346 109.676C189.491 109.228 189.636 108.78 189.761 108.283C189.927 107.885 190.093 107.486 190.259 107.039C190.404 106.591 190.549 106.193 190.695 105.745C190.902 105.397 191.089 105.098 191.276 104.75C191.4 104.252 191.545 103.754 191.67 103.257C191.856 102.909 192.043 102.56 192.209 102.212C192.354 101.764 192.5 101.316 192.645 100.869C192.811 100.47 192.977 100.072 193.143 99.6742C193.309 99.2762 193.475 98.8781 193.641 98.4801C193.807 98.082 193.973 97.684 194.139 97.2859C194.305 96.8878 194.471 96.4898 194.637 96.0917C194.782 95.6439 194.927 95.2458 195.093 94.8478C195.238 94.4497 195.404 94.0019 195.55 93.6038C195.695 93.156 195.84 92.708 195.985 92.2602C196.172 91.9119 196.359 91.5636 196.546 91.2153C196.691 90.7675 196.836 90.2699 197.002 89.8221C197.189 89.5235 197.375 89.225 197.583 88.9264C197.666 88.3293 197.749 87.7818 197.853 87.2345C198.06 86.7867 198.247 86.3389 198.454 85.8911C199.471 86.5877 199.596 85.4432 199.284 83.5026C199.554 83.3533 199.824 83.2538 200.093 83.1046C200.156 82.5572 200.218 82.0099 200.28 81.4626C200.508 80.9152 200.757 80.318 200.986 79.7707C201.753 79.1735 202.521 78.5267 203.289 77.9296C203.517 77.3822 203.745 76.7852 203.994 76.2378C204.264 75.5909 204.534 74.9442 204.803 74.2973C204.803 73.5509 204.803 72.7546 204.803 72.0083C205.115 72.0083 205.446 71.9586 205.758 71.9088C205.82 71.2122 205.861 70.5155 205.944 69.8687C206.173 69.5701 206.401 69.3214 206.608 68.973C206.774 68.4257 206.94 67.9281 207.106 67.4305C207.127 67.331 207.148 67.2812 207.169 67.1816C207.169 67.2812 207.169 67.3808 207.189 67.4803C207.189 67.3808 207.169 67.331 207.148 67.2315L207.252 67.0822ZM23.7966 189.091C23.7966 189.091 23.9626 189.091 24.0249 189.091C23.9419 189.191 23.8381 189.24 23.7551 189.29C23.7966 189.34 23.8174 189.39 23.8589 189.439C23.8381 189.29 23.8174 189.191 23.7966 189.041V189.091ZM355.663 70.4658L355.538 70.3165H355.684C355.933 69.8189 356.202 69.3712 356.451 68.8736C356.514 68.2765 356.555 67.6295 356.617 67.0324C356.555 67.0324 356.493 67.0324 356.431 67.0324C356.431 67.6295 356.431 68.2266 356.431 68.774C356.182 69.3711 355.912 69.9682 355.663 70.5156V70.4658ZM30.1041 184.513C30.1871 183.867 30.2908 183.269 30.3738 182.623H30.4568C30.4568 182.623 30.3738 182.772 30.3738 182.822C30.3116 183.419 30.2286 183.966 30.1456 184.563C29.8966 185.011 29.6684 185.409 29.4194 185.857C29.3157 186.305 29.1912 186.753 29.0874 187.2C29.1912 186.703 29.2742 186.205 29.3779 185.708C29.6061 185.309 29.8551 184.911 30.0833 184.513H30.1041ZM26.5146 182.025L26.5769 181.727C26.5769 181.727 26.5769 181.976 26.5562 181.976L26.4524 182.175L26.5146 182.025ZM63.467 86.4881C63.467 86.4881 63.3011 86.4384 63.2389 86.3887C63.3426 86.3887 63.4463 86.3389 63.5293 86.3389C63.5086 86.2891 63.4878 86.1897 63.467 86.1399C63.467 86.2395 63.4671 86.3886 63.4878 86.4881H63.467ZM348.131 86.737C348.131 86.737 348.048 86.8862 348.007 86.9858C348.028 86.8862 348.069 86.737 348.09 86.5878C348.277 86.0404 348.463 85.5428 348.65 84.9954C349.916 84.0998 351.14 83.1045 350.974 79.0243C352.011 79.1238 352.011 77.6808 351.783 75.8895C352.634 75.1928 353.484 74.4962 354.314 73.7499C354.335 73.302 354.356 72.8543 354.397 72.4064C354.335 72.4064 354.231 72.5557 354.231 72.5557C354.273 73.0035 354.335 73.4513 354.397 73.8991C353.526 74.5958 352.675 75.2426 351.804 75.9393C351.555 76.9842 351.285 78.079 351.036 79.1239C350.268 81.1143 349.48 83.1046 348.712 85.1447C348.526 85.6921 348.339 86.1897 348.152 86.737H348.131ZM201.816 90.7675C201.608 91.3646 201.401 92.0114 201.193 92.6086C201.048 93.1061 200.882 93.6037 200.737 94.1013C200.467 94.2505 200.197 94.3999 199.927 94.4994C199.907 95.2458 199.886 95.9424 199.845 96.6888C199.533 96.6888 199.201 96.7385 198.89 96.7883C198.89 97.5844 198.89 98.4303 198.89 99.2264C198.558 99.2264 198.226 99.1767 197.894 99.127C197.894 99.9729 197.915 100.819 197.936 101.665C197.583 101.665 197.251 101.565 196.898 101.515C196.898 102.361 196.898 103.207 196.919 104.053C196.587 104.053 196.255 104.003 195.902 103.954C195.902 104.799 195.923 105.645 195.944 106.442C195.591 106.442 195.259 106.342 194.906 106.292C194.927 107.138 194.969 107.984 194.989 108.83L193.973 108.73C193.973 109.576 193.973 110.372 193.973 111.218C193.641 111.218 193.288 111.169 192.956 111.119C192.334 112.164 191.711 113.209 191.089 114.303C190.861 114.801 190.632 115.348 190.383 115.846C190.342 116.543 190.3 117.189 190.259 117.886C189.968 117.936 189.678 118.035 189.408 118.085C189.367 118.881 189.346 119.628 189.304 120.424C188.993 120.474 188.703 120.573 188.392 120.623C188.371 121.369 188.329 122.066 188.309 122.812H187.375C187.375 123.708 187.375 124.554 187.375 125.4C187.043 125.4 186.69 125.4 186.358 125.35C186.379 126.246 186.42 127.091 186.441 127.987C186.13 127.987 185.84 127.937 185.528 127.888C185.528 128.734 185.487 129.579 185.466 130.376C185.134 130.376 184.781 130.276 184.449 130.226L184.491 130.525L184.449 130.276C184.802 130.276 185.134 130.276 185.487 130.326C185.487 129.48 185.487 128.634 185.487 127.838C185.819 127.838 186.13 127.838 186.441 127.838C186.4 126.992 186.379 126.096 186.337 125.25C186.69 125.25 187.022 125.25 187.375 125.151C187.375 124.355 187.375 123.559 187.354 122.812C187.665 122.713 187.997 122.663 188.309 122.514C188.329 121.867 188.35 121.22 188.392 120.573C188.703 120.424 189.014 120.324 189.325 120.175C189.346 119.478 189.367 118.782 189.387 118.085C189.678 117.936 189.968 117.836 190.259 117.687C190.3 117.14 190.363 116.543 190.425 115.995C190.653 115.448 190.881 114.901 191.11 114.353C192.064 114.403 192.645 113.358 192.915 111.169C193.267 111.169 193.599 111.169 193.952 111.169C193.952 110.373 193.911 109.576 193.911 108.73C194.263 108.73 194.595 108.73 194.948 108.73C194.906 107.934 194.886 107.088 194.865 106.292C195.218 106.292 195.57 106.292 195.923 106.342C195.902 105.546 195.882 104.7 195.861 103.904C196.214 103.904 196.546 103.904 196.898 103.904C196.898 103.108 196.857 102.262 196.857 101.466C197.209 101.466 197.562 101.515 197.915 101.565C197.894 100.719 197.873 99.9231 197.853 99.0772C198.205 99.0772 198.537 99.0772 198.89 99.0772C198.89 98.281 198.869 97.5346 198.849 96.7385C199.181 96.639 199.513 96.5892 199.824 96.4399C199.824 95.7931 199.844 95.1463 199.865 94.4994C200.135 94.3004 200.405 94.0515 200.674 93.8027C200.799 93.3549 200.944 92.8574 201.069 92.3598C201.276 91.8622 201.484 91.3147 201.691 90.8171C201.691 90.8171 201.712 90.867 201.733 90.9168C201.733 90.8172 201.733 90.7177 201.753 90.6182L201.816 90.7675ZM60.2926 91.8622C60.1266 92.5091 59.9399 93.2057 59.7739 93.8525L59.0685 94.4496L58.8402 96.241C58.6327 96.5396 58.4253 96.7883 58.2178 97.0868C58.0933 97.5844 57.9688 98.1318 57.8651 98.6293C57.6991 99.0274 57.5538 99.4752 57.3879 99.8733C57.2219 100.271 57.0767 100.719 56.9107 101.117C56.7447 101.515 56.5787 101.914 56.4334 102.312C56.2675 102.71 56.1015 103.108 55.9355 103.506C55.7695 103.904 55.6243 104.352 55.4583 104.75C55.2716 105.098 55.1056 105.496 54.9188 105.844C54.7736 106.243 54.6076 106.69 54.4624 107.088C54.2964 107.487 54.1097 107.835 53.9437 108.233L53.4457 109.427C53.2797 109.825 53.1138 110.223 52.9478 110.621C52.7818 111.019 52.595 111.368 52.4291 111.766C52.2631 112.114 52.0763 112.512 51.9104 112.86C51.7444 113.259 51.5784 113.657 51.4124 114.055C51.2464 114.453 51.0804 114.851 50.9145 115.249C50.7277 115.597 50.541 115.946 50.3543 116.294C50.1883 116.692 50.0015 117.04 49.8355 117.438C49.6281 117.737 49.4206 118.035 49.2131 118.334C49.0264 118.732 48.8396 119.13 48.6529 119.478C48.4662 119.876 48.2794 120.225 48.0719 120.623C47.657 122.016 47.1798 123.31 46.8478 124.803C46.5781 126.047 46.4743 127.49 46.2876 128.883C46.0386 129.281 45.8104 129.679 45.5614 130.077C45.3125 130.226 45.0635 130.376 44.7937 130.475C44.6692 130.923 44.5448 131.42 44.4203 131.868C44.1506 132.067 43.8808 132.267 43.6111 132.466C43.5281 133.063 43.4659 133.66 43.3829 134.307C43.1132 134.456 42.8642 134.655 42.5944 134.804C42.3455 136.795 42.0758 138.735 41.806 140.725C41.5778 141.173 41.3288 141.621 41.1006 142.119C40.8308 142.218 40.5611 142.318 40.2914 142.417C40.1462 142.915 40.0217 143.363 39.8764 143.86C39.6067 144.059 39.337 144.209 39.0465 144.408C38.9843 145.055 38.922 145.701 38.8598 146.299C38.2581 147.742 37.2414 148.687 37.7809 151.473C37.5319 151.871 37.2622 152.22 37.0132 152.618L36.37 153.414C36.1625 153.663 35.9343 153.912 35.7268 154.16C35.6023 154.708 35.4779 155.255 35.3534 155.753C35.0836 155.952 34.8347 156.151 34.5649 156.4C34.1915 158.141 33.818 159.883 33.4653 161.624C33.3408 162.072 33.2163 162.57 33.0918 163.017C32.8636 163.266 32.6354 163.565 32.4279 163.814C32.2826 164.261 32.1374 164.709 31.9921 165.107C31.7224 165.555 31.432 165.953 31.1622 166.351C31.2037 166.401 31.266 166.451 31.3075 166.55C31.266 166.401 31.2245 166.302 31.183 166.152C31.432 165.754 31.7017 165.356 31.9507 164.958C32.0959 164.51 32.2204 164.062 32.3656 163.615C32.5939 163.366 32.8013 163.117 33.0296 162.868C33.154 162.42 33.2785 161.923 33.403 161.475C34.2952 160.48 34.9591 159.136 34.5649 156.449C34.8139 156.2 35.0421 155.902 35.2911 155.653C35.4156 155.156 35.5401 154.608 35.6853 154.111C35.8928 153.812 36.1003 153.563 36.3078 153.265C36.5152 152.966 36.7435 152.668 36.9509 152.369C37.2207 152.071 37.4904 151.772 37.7601 151.473C38.1128 149.682 38.4448 147.941 38.7975 146.149C38.8805 145.552 38.9635 144.955 39.0465 144.408C39.2955 144.159 39.5445 143.96 39.7935 143.711C39.9387 143.213 40.0632 142.766 40.2084 142.268C40.4781 142.169 40.7686 142.069 41.0176 141.87C41.2666 141.472 41.5156 141.074 41.7645 140.725C42.0135 138.735 42.2832 136.795 42.5322 134.804C42.7812 134.605 43.0094 134.406 43.2584 134.157C43.3621 133.61 43.4451 133.013 43.5696 132.466C43.8186 132.217 44.0676 131.968 44.3165 131.719C44.441 131.271 44.5863 130.774 44.7108 130.326C44.9597 130.177 45.2295 130.027 45.4784 129.828C45.7274 129.48 45.9972 129.181 46.2461 128.833C46.6818 127.291 47.1798 125.798 47.5532 124.106C47.8022 123.011 47.8645 121.718 48.0305 120.573C48.2172 120.175 48.3832 119.777 48.5906 119.379C48.7566 118.981 48.9434 118.583 49.1301 118.185C49.3376 117.836 49.5243 117.538 49.7318 117.189C49.8978 116.791 50.0845 116.393 50.2505 116.045C50.4372 115.697 50.624 115.348 50.8107 115C50.9767 114.602 51.1427 114.204 51.3087 113.806C51.4747 113.408 51.6406 113.01 51.8066 112.612C51.9726 112.263 52.1593 111.865 52.3253 111.517C52.4913 111.119 52.678 110.771 52.844 110.373C53.01 109.974 53.176 109.576 53.342 109.178C53.508 108.78 53.6739 108.382 53.8192 107.984C53.9852 107.586 54.1719 107.238 54.3379 106.84C54.5039 106.441 54.6491 105.994 54.8151 105.596C55.0018 105.247 55.1886 104.899 55.3546 104.501C55.5205 104.103 55.6658 103.705 55.8318 103.257C55.9977 102.859 56.1637 102.461 56.3297 102.063C56.4957 101.665 56.6617 101.267 56.8069 100.869C56.9729 100.47 57.1181 100.023 57.2841 99.6246C57.4501 99.2265 57.5953 98.8284 57.7613 98.3806C57.8858 97.883 58.0103 97.3853 58.1348 96.8878C58.3423 96.5892 58.5497 96.2907 58.7365 95.9921C58.8195 95.4448 58.9025 94.8975 58.9855 94.3501C59.2137 94.1014 59.4419 93.8526 59.6702 93.6038C59.8154 93.0067 59.9814 92.4593 60.1266 91.8622C60.1889 91.912 60.2303 91.9617 60.2926 92.0115C60.2511 92.0115 60.2096 92.0612 60.1681 92.1109C60.1889 91.9617 60.2096 91.8622 60.2511 91.7129L60.2926 91.8622ZM152.954 179.239L153.078 179.139L152.995 179.388C152.829 180.035 152.663 180.682 152.497 181.329C152.165 181.528 151.833 181.677 151.501 181.876C151.356 182.523 151.211 183.17 151.066 183.817C150.983 183.767 150.9 183.668 150.837 183.618C150.9 183.618 150.962 183.618 151.024 183.568C151.169 182.971 151.294 182.324 151.439 181.727C151.792 181.528 152.124 181.379 152.456 181.13C152.622 180.483 152.767 179.836 152.933 179.189L152.954 179.239ZM342.156 98.5797L342.094 98.4303C342.301 97.9824 342.509 97.5347 342.716 97.0868C343.069 96.9376 343.401 96.7386 343.733 96.5396C343.878 95.8927 344.023 95.1959 344.148 94.5491C344.438 93.8524 344.749 93.1559 345.04 92.4593L345.6 91.0162C345.849 90.867 346.098 90.7176 346.368 90.5186C346.326 90.3693 346.306 90.1704 346.264 90.0211C346.057 90.3695 345.849 90.7675 345.662 91.1158C345.476 91.6134 345.289 92.0612 345.123 92.5587C344.812 93.2554 344.521 93.952 344.21 94.6983C344.044 95.395 343.899 96.0917 343.733 96.7883C343.422 96.9376 343.09 97.0868 342.778 97.2361C342.571 97.6839 342.363 98.1319 342.156 98.5797ZM32.3241 176.701C32.3241 176.701 32.4486 176.701 32.5109 176.701C32.4694 176.751 32.4279 176.801 32.3864 176.9L31.5565 177.846C31.515 178.642 31.4942 179.438 31.4527 180.234C31.5772 180.234 31.7017 180.184 31.8054 180.135C31.7224 179.388 31.6187 178.642 31.5357 177.846C31.7847 177.448 32.0544 177.049 32.3034 176.651L32.3241 176.701ZM54.5039 119.329C54.2756 119.578 54.0474 119.827 53.8399 120.075C53.6947 120.523 53.5702 121.021 53.425 121.469C53.259 121.767 53.1138 122.066 52.9478 122.364C52.7195 122.763 52.512 123.161 52.2838 123.509C52.0971 123.857 51.9311 124.255 51.7444 124.604C51.5369 124.952 51.3502 125.25 51.1427 125.599C51.0182 126.146 50.9145 126.644 50.79 127.191C50.541 127.39 50.2713 127.639 50.0015 127.838C49.96 128.534 49.9393 129.231 49.8978 129.978L49.8148 129.878C49.8148 129.878 49.9393 129.828 49.9185 129.828C49.794 129.48 49.6696 129.082 49.5243 128.734C49.6696 128.485 49.8355 128.186 49.9808 127.937C50.2297 127.689 50.458 127.39 50.707 127.141C50.8315 126.644 50.9352 126.146 51.0804 125.648C51.2672 125.3 51.4539 124.902 51.6614 124.554C51.8274 124.156 52.0141 123.807 52.2008 123.409C52.4291 123.011 52.6366 122.613 52.8648 122.215C53.0308 121.917 53.176 121.618 53.342 121.27C53.4872 120.822 53.6324 120.374 53.7777 119.926C54.0059 119.677 54.2342 119.379 54.4416 119.08C54.6906 118.782 54.9603 118.483 55.2093 118.185C56.8277 113.955 58.446 109.726 60.0644 105.546L59.9399 105.397C59.9399 105.397 60.0229 105.645 60.0436 105.745C57.9066 107.735 56.6409 112.064 55.1886 115.946C55.0433 116.344 55.1886 117.389 55.2093 118.135C54.9811 118.533 54.7321 118.881 54.5039 119.279V119.329ZM29.7929 170.68C30.0833 170.581 30.3531 170.481 30.6435 170.332L30.7058 170.133C30.7058 170.133 30.7058 170.432 30.7058 170.382C30.3946 170.531 30.0833 170.68 29.7721 170.83C29.7721 170.929 29.7929 170.979 29.8136 171.078V170.68H29.7929ZM55.3546 129.579C55.1886 129.928 55.0018 130.326 54.8359 130.674C54.6699 131.072 54.5039 131.47 54.3379 131.918C54.1512 132.266 53.9437 132.615 53.7569 132.913C53.5702 133.262 53.3835 133.66 53.1967 134.008C53.0515 134.506 52.9063 134.953 52.761 135.451C52.5121 135.75 52.2838 135.998 52.0348 136.297L52.1179 136.745C52.1179 136.745 52.0763 136.496 52.0556 136.396C52.2838 136.048 52.4913 135.7 52.7195 135.302C52.8648 134.804 53.01 134.356 53.1553 133.908C53.342 133.51 53.5287 133.112 53.7154 132.764C53.9022 132.416 54.1096 132.067 54.2964 131.719C54.4624 131.321 54.6284 130.923 54.7943 130.525C54.9603 130.127 55.1471 129.778 55.3131 129.38C55.5205 128.982 55.7073 128.584 55.9147 128.236C56.1222 127.937 56.3505 127.689 56.5164 127.291C62.0354 113.756 67.5544 100.271 73.6544 88.2795C73.7166 88.18 73.7374 87.9312 73.7581 87.7321C73.8619 87.0853 73.9656 86.4384 74.0693 85.7418L74.2976 85.9409C74.2976 85.9409 74.1523 85.9409 74.1108 85.9409C74.0071 86.5877 73.9034 87.2345 73.7996 87.8814C72.866 88.9761 71.8286 89.7225 71.0194 91.2153C65.4174 101.217 60.8113 113.756 56.2052 126.246C56.0185 126.743 56.0185 127.689 55.9355 128.385C55.728 128.783 55.5413 129.181 55.3338 129.579H55.3546ZM48.5699 134.506C48.3002 134.804 48.0512 135.152 47.7815 135.451C47.6777 136.048 47.574 136.695 47.4703 137.292C47.159 137.292 46.8478 137.342 46.5366 137.392C46.5159 138.138 46.4951 138.884 46.4744 139.631C46.1631 139.631 45.8519 139.73 45.5407 139.73C45.5199 140.477 45.4784 141.173 45.4577 141.92C45.3954 141.92 45.3124 141.92 45.2502 142.019C45.2087 142.019 45.2087 142.218 45.188 142.318C45.2917 142.119 45.3955 141.969 45.4992 141.77C45.2295 141.074 44.7315 140.327 45.5407 139.78C45.8726 139.681 46.1839 139.581 46.5158 139.481C46.5158 138.785 46.5159 138.138 46.5366 137.491C46.8478 137.392 47.159 137.242 47.4703 137.093C47.5533 136.496 47.6363 135.949 47.74 135.401C48.0305 135.053 48.3209 134.655 48.6114 134.307C48.5907 134.307 48.5492 134.207 48.5284 134.157C48.5284 134.257 48.5699 134.406 48.5906 134.506H48.5699ZM181.586 136.197C181.545 136.944 181.503 137.64 181.462 138.387C181.213 138.536 180.964 138.685 180.715 138.835C180.652 139.531 180.569 140.178 180.507 140.875C180.238 141.024 179.989 141.124 179.719 141.273C179.719 141.273 179.657 141.173 179.677 141.173C179.947 141.024 180.217 140.875 180.466 140.676C180.528 140.029 180.59 139.382 180.652 138.735C180.922 138.586 181.171 138.387 181.42 138.188C181.462 137.491 181.503 136.844 181.565 136.197C181.731 135.65 181.897 135.103 182.063 134.555C182.437 133.859 182.79 133.162 183.163 132.466C183.225 132.565 183.287 132.615 183.35 132.714C183.308 132.714 183.246 132.764 183.205 132.814C183.225 132.664 183.246 132.515 183.267 132.366C182.873 133.112 182.478 133.859 182.105 134.705C181.939 135.202 181.773 135.7 181.607 136.247L181.586 136.197ZM35.8928 167.148L36.453 166.152C36.619 165.754 36.785 165.406 36.9509 165.008C37.2207 164.809 37.5112 164.61 37.7809 164.411C37.7809 163.664 37.7809 162.868 37.7809 162.122C37.8846 161.375 38.0091 160.629 38.1129 159.883C38.1959 160.032 38.2996 160.132 38.3826 160.281C38.2996 160.082 38.2166 159.883 38.1543 159.733C38.0299 160.579 37.9054 161.375 37.7809 162.271C37.7809 162.968 37.7809 163.664 37.7809 164.361C37.5319 164.61 37.2622 164.908 37.0132 165.157C36.8472 165.505 36.6812 165.903 36.4945 166.252C36.3078 166.6 36.121 166.948 35.955 167.346C35.7268 167.794 35.4778 168.192 35.2496 168.64C35.2289 168.64 35.2081 168.64 35.2081 168.64C35.4571 168.143 35.6853 167.645 35.9343 167.098L35.8928 167.148ZM49.8563 143.86C49.6073 144.159 49.3583 144.457 49.1301 144.706C49.1301 144.706 49.1094 144.706 49.1301 144.756C49.3791 144.457 49.6281 144.109 49.8771 143.811L49.96 143.611L49.8771 143.86H49.8563ZM178.37 143.213C178.163 143.81 177.976 144.457 177.768 145.055C177.52 145.303 177.25 145.502 177.001 145.751C177.001 146.597 177.042 147.393 177.063 148.239L176.026 147.791C176.067 148.737 176.088 149.732 176.129 150.677C176.067 150.677 176.005 150.777 175.943 150.777C175.984 150.578 176.046 150.379 176.088 150.18C176.088 150.329 176.109 150.478 176.129 150.628C176.088 149.682 176.046 148.687 176.046 147.791C176.399 147.941 176.731 148.04 177.084 148.14C177.063 147.343 177.042 146.547 177.022 145.701C177.271 145.452 177.499 145.154 177.748 144.905C177.934 144.358 178.121 143.761 178.287 143.263C178.349 143.313 178.391 143.412 178.453 143.462C178.412 143.462 178.37 143.512 178.308 143.562C178.329 143.462 178.37 143.313 178.391 143.213H178.37ZM168.37 163.764L168.847 162.52C169.096 162.52 169.324 162.52 169.552 162.57L169.449 162.868L169.531 162.669C169.324 162.669 169.117 162.669 168.909 162.669C168.722 163.067 168.536 163.465 168.349 163.863V164.112L168.39 163.714L168.37 163.764ZM42.9264 148.239C42.7397 148.836 42.5529 149.483 42.3662 150.08H42.221C42.221 150.08 42.3455 149.931 42.3247 149.881C42.5115 149.384 42.6775 148.886 42.8434 148.388C42.8642 148.388 42.8849 148.438 42.9264 148.488C42.9264 148.388 42.9264 148.289 42.9264 148.239ZM174.407 151.672C174.241 152.469 174.096 153.265 173.93 154.061C173.619 154.111 173.328 154.16 173.017 154.21V154.608C173.017 154.608 173.017 154.409 173.017 154.31C173.328 154.16 173.64 154.061 173.93 153.862C174.055 153.165 174.179 152.469 174.283 151.822C174.345 151.822 174.387 151.921 174.449 151.921L174.324 152.021C174.324 152.021 174.366 151.772 174.407 151.672ZM171.233 158.042C171.233 158.042 171.357 158.241 171.399 158.29C171.337 158.29 171.254 158.29 171.191 158.241C171.212 158.29 171.254 158.34 171.274 158.39L171.233 158.042ZM155.444 175.656C155.962 175.059 156.481 174.462 157 173.815V173.566L156.958 173.915C156.439 174.512 155.941 175.159 155.444 175.806L155.402 176.104L155.444 175.606V175.656ZM225.178 53.1497C224.327 54.2444 223.414 55.1401 222.667 56.5333C214.949 71.0132 207.895 87.2346 200.986 103.854C192.728 123.708 184.2 142.815 175.196 160.729C165.714 179.537 155.568 196.008 144.468 208.945C142.663 211.035 140.837 213.125 139.011 215.215L139.198 216.309C140.09 215.513 140.982 214.817 141.853 213.921C152.228 203.173 161.958 189.788 170.776 172.77C175.009 164.61 179.179 156.25 183.205 147.543C188.724 135.6 194.056 123.26 199.471 111.019C202.459 104.252 205.363 97.2858 208.393 90.6679C212.791 81.0146 217.273 71.66 221.672 62.0565C222.916 59.3197 223.975 56.0854 225.136 53.0501C227.253 52.3037 228.103 47.7758 229.971 45.0888C229.265 44.4917 228.933 43.9941 228.871 44.1434C227.626 47.1289 226.402 50.1641 225.178 53.1994V53.1497ZM38.7975 175.557C38.6108 175.308 38.4448 174.96 38.2374 174.81C38.1959 174.81 37.9884 175.557 38.0091 175.656C38.1336 176.054 38.3203 176.353 38.4863 176.651C38.5693 176.353 38.6523 176.054 38.7768 175.557H38.7975ZM236.714 32.2011C236.672 32.4499 236.61 32.7485 236.569 32.9973C236.631 33.047 236.735 33.1465 236.735 33.1465C236.797 32.8977 236.838 32.5992 236.88 32.3504C236.818 32.3006 236.776 32.2509 236.714 32.2011ZM357.883 63.4001L357.987 63.7484L358.07 63.3503H357.883V63.4001ZM239.39 11.601C239.453 11.8995 239.515 12.3474 239.598 12.3971C239.722 12.4469 239.847 12.198 239.992 12.0488C239.888 11.6507 239.805 11.3023 239.702 10.9043C239.598 11.1531 239.494 11.4019 239.39 11.601ZM133.72 204.566L133.928 204.367C133.928 204.367 133.762 204.069 133.658 203.969C133.658 203.969 133.575 204.168 133.533 204.318C133.596 204.417 133.658 204.467 133.72 204.566ZM164.925 172.074V171.626L164.739 171.825L164.925 172.074ZM319.54 152.618L319.457 152.867H319.582L319.54 152.618ZM154.178 178.094L154.261 177.846H154.136L154.178 178.094ZM369.834 42.0036L369.917 41.7549H369.792L369.834 42.0036ZM240.739 11.8497L240.864 12.0488V11.7502L240.739 11.8497Z" fill="#272727"/>
<path d="M15.3531 228.799C16.1207 229.097 16.6809 229.595 17.2204 229.545C21.3493 229.097 25.4781 228.401 29.607 228.102C39.0474 227.405 48.4878 227.007 57.8452 231.038C59.3183 231.685 60.7084 232.381 61.9118 234.919C62.6795 236.511 63.8622 237.009 64.8581 238.004C65.7918 238.999 65.854 240.442 65.0033 242.433C65.356 242.93 65.6673 243.428 65.9785 243.876C66.9329 245.269 66.7047 247.16 66.02 248.105C65.2731 249.15 64.3186 249.797 63.4679 249.697C50.8738 248.155 38.3005 248.453 25.7064 250.941C21.9924 251.688 18.2785 251.937 14.5439 252.036C12.9463 252.036 11.4524 251.688 10.166 247.906C9.21161 245.07 7.55175 243.428 6.4936 240.293C4.60552 234.67 3.42287 228.55 3.63035 221.186C3.96232 210.487 4.33578 199.839 4.66775 189.141C5.16571 173.367 4.35653 157.892 2.42695 142.815C2.19872 140.974 1.74229 139.232 1.34807 137.491C1.20284 136.794 0.891608 136.346 0.725623 135.65C-0.477769 130.326 -0.291028 128.833 2.09501 125.001C2.92493 126.644 3.79634 128.385 4.70926 130.077C4.99973 130.624 5.4147 131.42 5.68442 131.271C7.11605 130.475 7.88372 132.814 8.56841 134.854C9.48133 137.64 10.2905 140.725 10.913 143.96C14.0252 160.579 16.2245 177.845 16.5772 196.107C16.7224 203.372 16.2452 210.736 15.9755 218.051C15.851 221.584 15.5605 225.067 15.3531 228.799Z" fill="#272727"/>
<path d="M36.5164 145.054C37.0143 143.263 37.4085 141.273 37.9895 139.631C44.6081 121.369 51.455 103.655 58.8828 87.2841C59.4638 85.9904 60.2107 85.1446 60.8746 84.0996L60.8332 84C60.5012 85.045 60.2107 86.2393 59.8372 87.1847C55.4179 97.8829 50.9778 108.581 46.5792 119.329C46.0812 120.523 45.77 122.165 45.3758 123.608L45.4588 123.359C45.2513 123.807 45.0646 124.305 44.8571 124.753L44.9401 124.554C44.7534 125.001 44.5459 125.499 44.3591 125.947L44.4421 125.698C43.0935 129.38 41.7241 133.013 40.3755 136.695L40.4585 136.446C40.251 136.894 40.0643 137.391 39.8568 137.839L39.9398 137.64C38.7571 140.029 37.5745 142.467 36.3919 144.855L36.4748 144.955L36.5164 145.054Z" fill="#272727"/>
<path d="M191.338 96.0917C191.587 95.1463 191.794 94.0018 192.126 93.2056C195.902 84.2988 199.72 75.4417 203.538 66.6344C203.87 65.888 204.368 65.5396 204.782 65.042L204.741 64.9426C204.533 65.7387 204.368 66.684 204.098 67.3309C200.446 75.9392 196.774 84.5476 193.081 93.0564C192.562 94.2506 191.898 94.9969 191.296 95.9921L191.338 96.0917Z" fill="#272727"/>
<path d="M175.403 131.918C175.673 130.972 175.88 129.878 176.212 129.131C180.051 120.523 183.931 111.915 187.81 103.356C188.08 102.759 188.495 102.461 188.848 102.062L188.806 101.963C186.752 106.989 184.678 112.014 182.623 117.139C181.96 118.781 181.42 120.672 180.818 122.414L180.901 122.215C180.071 123.608 179.221 125.001 178.412 126.395C177.395 128.186 176.378 129.977 175.362 131.769L175.403 131.868V131.918Z" fill="#272727"/>
<path d="M168.93 145.054C171.088 140.676 173.246 136.297 175.404 131.918L175.362 131.818C174.74 133.51 174.096 135.152 173.474 136.844C173.08 137.939 172.727 139.133 172.354 140.327L172.437 140.128C171.254 141.72 170.071 143.313 168.889 144.955L168.93 145.054Z" fill="#272727"/>
<path d="M31.4945 158.191C32.8223 154.608 34.1502 151.075 35.4573 147.492L35.4159 147.343C34.3992 151.573 33.2788 155.603 31.4322 158.091L31.4945 158.191Z" fill="#272727"/>
<path d="M205.779 62.6536C206.796 58.9715 207.999 55.8366 209.783 54.3936L209.721 54.1945C209.057 56.2346 208.372 58.2748 207.708 60.3149L207.812 60.1159C207.625 60.6134 207.418 61.0613 207.231 61.5589L207.314 61.3598C207.128 61.8574 206.92 62.3053 206.733 62.8029L206.837 62.6038C206.484 62.6038 206.132 62.6038 205.758 62.6038L205.8 62.7033L205.779 62.6536Z" fill="#272727"/>
<path d="M160.464 160.579C161.792 158.191 163.12 155.802 164.427 153.414L164.386 153.314C163.888 154.956 163.369 156.598 162.871 158.24L162.954 158.041C162.103 158.837 161.253 159.634 160.402 160.43L160.444 160.529L160.464 160.579Z" fill="#272727"/>
<path d="M60.8736 84.1496C61.6412 80.6664 62.8031 78.278 64.3593 76.9843L64.3177 76.8848C63.8198 78.5268 63.3011 80.1688 62.8031 81.8109L62.9069 81.612C62.7202 82.1095 62.5127 82.5573 62.3259 83.0549L62.4089 82.8559C62.2222 83.3535 62.0147 83.8012 61.828 84.2988L61.9317 84.0999C61.579 84.0999 61.2263 84.0999 60.8528 84.0999L60.8943 84.1994L60.8736 84.1496Z" fill="#272727"/>
<path d="M155.485 168.939C156.647 166.949 157.809 164.958 158.971 162.968L158.93 162.819C158.1 164.859 157.249 166.899 156.419 168.939L156.523 168.74C156.17 168.74 155.817 168.74 155.465 168.74L155.506 168.84L155.485 168.939Z" fill="#272727"/>
<path d="M164.448 153.414C165.112 152.27 165.776 151.075 166.44 149.931L166.398 149.732C165.734 150.926 165.07 152.12 164.406 153.315L164.448 153.414Z" fill="#272727"/>
<path d="M166.958 148.587C167.622 147.393 168.265 146.249 168.929 145.055L168.888 144.955C168.224 146.149 167.56 147.344 166.896 148.488L166.958 148.587Z" fill="#272727"/>
<path d="M154.033 171.327C154.199 169.437 154.697 168.69 155.506 168.939L155.464 168.839C155.298 169.685 155.112 170.531 154.946 171.377L155.049 171.178C154.697 171.178 154.344 171.178 153.991 171.178L154.053 171.327H154.033Z" fill="#272727"/>
<path d="M26.2662 175.059L27.0132 171.377L26.9509 171.228C26.9509 172.074 26.9509 172.92 26.9509 173.765L27.0339 173.566C26.8264 174.064 26.6397 174.512 26.4322 175.009L26.5152 174.86C26.3907 174.761 26.287 174.86 26.204 175.109H26.2662V175.059Z" fill="#272727"/>
<path d="M151.501 174.91C151.999 174.114 152.477 173.317 152.975 172.521V172.372C152.456 173.168 151.958 173.964 151.46 174.76L151.501 174.91Z" fill="#272727"/>
<path d="M158.971 163.017C159.469 162.221 159.967 161.425 160.465 160.579L160.423 160.479C159.925 161.276 159.427 162.072 158.929 162.868L158.971 163.017Z" fill="#272727"/>
<path d="M190.362 98.4799C190.694 97.6838 191.026 96.8877 191.358 96.0916L191.317 95.992C190.985 96.7881 190.653 97.5843 190.321 98.3805L190.383 98.4799H190.362Z" fill="#272727"/>
<path d="M30.5192 160.529L31.5151 158.191L31.4529 158.091C31.1209 158.887 30.789 159.683 30.457 160.48L30.5192 160.529Z" fill="#272727"/>
<path d="M29.0249 165.356C29.3568 164.61 29.6888 163.913 30.0415 163.167L29.9793 162.918C29.6473 163.714 29.2946 164.46 28.9626 165.257L29.0249 165.356Z" fill="#272727"/>
<path d="M368.817 23.3442C368.838 24.6379 368.859 25.882 368.9 27.1757H368.942C368.9 25.882 368.859 24.6379 368.817 23.3442Z" fill="#272727"/>
<path d="M27.0121 171.377C27.1781 170.581 27.3233 169.835 27.4893 169.038L27.4686 168.839C27.3026 169.636 27.1366 170.432 26.9706 171.178L27.0328 171.327L27.0121 171.377Z" fill="#272727"/>
<path d="M136.542 194.067C136.895 193.669 137.227 193.271 137.58 192.823L137.497 192.673C137.497 193.121 137.497 193.569 137.497 194.017L137.58 193.868C137.227 193.868 136.853 193.868 136.501 193.868L136.542 194.017V194.067Z" fill="#272727"/>
<path d="M152.975 172.571C153.328 172.173 153.68 171.775 154.033 171.377L153.971 171.228C153.639 171.626 153.286 172.024 152.954 172.422L152.975 172.571Z" fill="#272727"/>
<path d="M327.799 117.587C328.131 117.189 328.442 116.841 328.774 116.443L328.733 116.294C328.733 116.741 328.733 117.189 328.733 117.687L328.795 117.538C328.442 117.538 328.069 117.538 327.716 117.488L327.799 117.587Z" fill="#272727"/>
<path d="M337.757 102.013C337.757 101.664 337.736 101.266 337.716 100.918L337.674 100.719C337.674 101.167 337.674 101.615 337.674 102.112L337.736 102.013H337.757Z" fill="#272727"/>
<path d="M339.272 97.2362C339.584 96.8879 339.895 96.4898 340.185 96.1415L340.165 95.9922C340.165 96.44 340.165 96.8878 340.165 97.3854L340.248 97.1864C339.895 97.1864 339.542 97.1864 339.189 97.1864L339.272 97.2362Z" fill="#272727"/>
<path d="M24.523 179.538C24.6682 178.841 24.8134 178.194 24.9587 177.497L24.9172 177.398C24.772 178.045 24.606 178.741 24.4607 179.388L24.523 179.538Z" fill="#272727"/>
<path d="M21.9503 186.504C21.9088 187.698 21.8673 188.892 21.8258 190.086C21.9088 188.842 21.9711 187.599 22.0541 186.355L21.9711 186.504H21.9503Z" fill="#272727"/>
<path d="M30.0414 163.167C30.2073 162.271 30.3526 161.425 30.5186 160.529L30.4563 160.48C30.3111 161.276 30.1451 162.122 29.9999 162.918L30.0621 163.167H30.0414Z" fill="#272727"/>
<path d="M358.942 56.1351C358.962 55.8863 358.983 55.5879 359.004 55.3391C358.962 55.4884 358.921 55.5878 358.921 55.7371C358.921 55.8864 358.983 56.0357 359.004 56.1849H358.942V56.1351Z" fill="#272727"/>
<path d="M166.44 149.931C166.627 149.483 166.793 149.035 166.979 148.587L166.917 148.488C166.751 148.886 166.585 149.334 166.419 149.732L166.461 149.931H166.44Z" fill="#272727"/>
<path d="M35.4782 147.492C35.6442 147.094 35.8102 146.696 35.9762 146.298L35.9347 146.099L35.4367 147.293L35.4782 147.443V147.492Z" fill="#272727"/>
<path d="M35.9756 146.298C36.1624 145.9 36.3284 145.453 36.5151 145.054L36.4321 144.955C36.2661 145.353 36.1001 145.751 35.9342 146.149L35.9756 146.348V146.298Z" fill="#272727"/>
<path d="M28.5484 166.501C28.7144 166.103 28.8803 165.704 29.0256 165.306L28.9633 165.207C28.7973 165.605 28.6314 166.003 28.4654 166.401H28.5484V166.501Z" fill="#272727"/>
<path d="M28.0921 167.794C28.2373 167.346 28.4033 166.948 28.5486 166.5L28.4655 166.451C28.3203 166.898 28.1543 167.297 28.0091 167.744H28.0921V167.794Z" fill="#272727"/>
<path d="M27.49 169.038C27.6975 168.64 27.8842 168.192 28.0917 167.794H28.0087C27.822 168.143 27.656 168.541 27.4693 168.889V169.088L27.49 169.038Z" fill="#272727"/>
<path d="M327.258 118.881C327.445 118.433 327.611 118.035 327.798 117.587L327.715 117.488C327.715 117.936 327.715 118.384 327.715 118.881L327.818 118.732C327.611 118.732 327.404 118.732 327.196 118.732L327.258 118.881Z" fill="#272727"/>
<path d="M25.6019 175.955C25.8093 175.656 26.0376 175.358 26.2658 175.059C26.2658 175.059 26.2036 175.059 26.2243 175.059C26.0168 175.358 25.7886 175.607 25.5811 175.855L25.6226 175.955H25.6019Z" fill="#272727"/>
<path d="M328.773 116.443C328.898 115.846 329.002 115.249 329.126 114.652L329.043 114.801C329.105 115.348 329.188 115.896 329.251 116.493L329.313 116.343C329.126 116.343 328.919 116.343 328.732 116.343L328.773 116.493V116.443Z" fill="#272727"/>
<path d="M329.106 114.652C329.106 114.652 329.106 114.901 329.126 115C329.085 114.95 329.064 114.851 329.023 114.801L329.106 114.652Z" fill="#272727"/>
<path d="M24.959 177.497C25.1664 177 25.3739 176.452 25.6021 175.955L25.5607 175.855C25.3532 176.353 25.1457 176.9 24.9175 177.398L24.959 177.497Z" fill="#272727"/>
<path d="M330.517 112.114C330.517 112.114 330.537 112.413 330.558 112.562C330.537 112.462 330.496 112.363 330.475 112.313L330.517 112.164V112.114Z" fill="#272727"/>
<path d="M188.848 102.063C189.014 101.664 189.18 101.266 189.346 100.868L189.304 100.769C189.138 101.167 188.972 101.565 188.806 101.963L188.848 102.063Z" fill="#272727"/>
<path d="M337.716 100.918C337.882 100.52 338.048 100.122 338.235 99.7239L338.193 99.5248C338.193 99.9726 338.193 100.47 338.193 100.918L338.276 100.719C338.089 100.719 337.882 100.719 337.695 100.719L337.737 100.918H337.716Z" fill="#272727"/>
<path d="M189.346 100.868C189.512 100.47 189.678 100.072 189.844 99.6741L189.802 99.5248C189.636 99.9229 189.47 100.321 189.304 100.719L189.346 100.819V100.868Z" fill="#272727"/>
<path d="M338.235 99.724C338.401 99.3259 338.546 98.9777 338.712 98.5796L338.692 98.3806C338.692 98.8284 338.692 99.2762 338.692 99.724L338.775 99.5249C338.588 99.5249 338.401 99.5249 338.194 99.5249L338.235 99.724Z" fill="#272727"/>
<path d="M189.843 99.724C190.009 99.3259 190.175 98.9279 190.362 98.48L190.3 98.3806C190.134 98.7786 189.968 99.1767 189.802 99.5747L189.843 99.724Z" fill="#272727"/>
<path d="M338.712 98.5798C338.899 98.132 339.085 97.684 339.293 97.2362L339.21 97.1864C339.044 97.5845 338.857 98.0323 338.691 98.4304L338.712 98.6295V98.5798Z" fill="#272727"/>
<path d="M340.703 95.1464C340.662 95.4948 340.662 95.843 340.703 96.1913L340.766 95.9923C340.579 95.9923 340.392 95.9923 340.185 95.9923L340.205 96.1415C340.371 95.843 340.558 95.5943 340.724 95.2957V95.1464H340.703Z" fill="#272727"/>
<path d="M340.724 95.2953C340.911 94.5987 341.077 93.902 341.264 93.2054L341.201 93.3546C341.035 93.9518 340.869 94.5489 340.703 95.146L340.724 95.2953Z" fill="#272727"/>
<path d="M341.264 93.1558C341.264 93.1558 341.264 93.4046 341.264 93.5042C341.264 93.4544 341.222 93.4046 341.201 93.3051L341.264 93.1061V93.1558Z" fill="#272727"/>
<path d="M24.4612 179.438C24.3367 179.936 24.233 180.483 24.1085 180.98L24.1708 181.08C24.2952 180.582 24.4197 180.085 24.5235 179.587L24.4612 179.438Z" fill="#272727"/>
<path d="M343.63 88.7271C343.567 89.4735 343.526 90.1701 343.464 90.9165L343.422 90.8667C343.505 90.1203 343.588 89.374 343.692 88.5778L343.63 88.7271Z" fill="#272727"/>
<path d="M343.692 88.5283C343.692 88.5283 343.692 88.7274 343.713 88.7772C343.671 88.7772 343.651 88.7273 343.63 88.6776L343.692 88.5283Z" fill="#272727"/>
<path d="M24.1089 180.931C23.8184 181.08 23.5279 181.179 23.2374 181.329L23.1959 181.478C23.5279 181.329 23.8391 181.179 24.1711 181.03L24.1296 180.931H24.1089Z" fill="#272727"/>
<path d="M346.555 84.05C346.617 83.5524 346.659 83.1045 346.721 82.6069L346.659 82.806C346.659 83.2538 346.659 83.7514 346.659 84.1992L346.555 84.05Z" fill="#272727"/>
<path d="M23.2362 181.328C23.2362 181.328 23.2777 181.577 23.2985 181.727C23.257 181.627 23.2362 181.577 23.1947 181.478L23.2362 181.328Z" fill="#272727"/>
<path d="M346.721 82.6067C346.804 82.9053 346.866 83.1541 346.949 83.4527C347.012 83.1541 347.095 82.9053 347.157 82.6067L347.24 82.8556C347.053 82.8556 346.846 82.8556 346.659 82.8556L346.721 82.6565V82.6067Z" fill="#272727"/>
<path d="M22.0124 186.354C22.0124 186.354 22.0124 186.553 22.0124 186.653C21.9917 186.653 21.9709 186.603 21.9502 186.553L22.0332 186.404L22.0124 186.354Z" fill="#272727"/>
<path d="M351.555 73.3516C351.617 73.053 351.721 72.8041 351.762 72.5056C351.762 72.4061 351.7 72.1572 351.658 72.008C351.658 72.4558 351.658 72.9534 351.658 73.4012L351.575 73.3018L351.555 73.3516Z" fill="#272727"/>
<path d="M351.638 72.058C351.825 72.058 351.991 72.058 352.178 71.9585L352.219 72.1078C352.032 72.1078 351.825 72.1078 351.638 72.1078V72.058Z" fill="#272727"/>
<path d="M353.526 68.4755C353.526 68.4755 353.734 68.1272 353.817 67.9282C353.817 67.9282 353.734 67.6296 353.692 67.4804L353.63 67.2813C353.63 67.7291 353.63 68.2267 353.63 68.6745L353.526 68.4755Z" fill="#272727"/>
<path d="M353.692 67.4802C353.858 67.0821 354.003 66.6839 354.169 66.2859L354.128 66.0868C354.128 66.5346 354.128 67.0324 354.128 67.4802L354.211 67.2811C354.024 67.2811 353.837 67.2811 353.63 67.2811L353.692 67.4802Z" fill="#272727"/>
<path d="M354.148 66.2861L354.646 65.0919L354.605 64.8928C354.605 65.3407 354.605 65.8382 354.605 66.2861L354.688 66.087C354.501 66.087 354.293 66.087 354.107 66.087L354.148 66.2861Z" fill="#272727"/>
<path d="M354.647 65.0919C354.834 64.5445 355 63.9971 355.186 63.4995L355.124 63.7484C355.124 64.1962 355.124 64.6938 355.124 65.1417L355.207 64.9426C355.02 64.9426 354.813 64.9426 354.626 64.9426L354.668 65.1417L354.647 65.0919Z" fill="#272727"/>
<path d="M204.783 65.0421C204.949 64.644 205.115 64.2459 205.26 63.7981L205.219 63.6986C205.053 64.0967 204.887 64.4947 204.721 64.8928L204.762 64.9924L204.783 65.0421Z" fill="#272727"/>
<path d="M355.186 63.4994C355.289 63.7482 355.393 64.0467 355.497 64.2955C355.538 64.0467 355.58 63.7482 355.621 63.4994L355.704 63.7483C355.518 63.7483 355.31 63.7483 355.123 63.7483L355.186 63.4994Z" fill="#272727"/>
<path d="M205.259 63.7983C205.425 63.4002 205.591 63.0022 205.757 62.6041L205.716 62.5046C205.55 62.9027 205.384 63.3007 205.218 63.6988L205.259 63.7983Z" fill="#272727"/>
<path d="M356.513 61.3598C356.513 61.3598 356.7 60.9618 356.783 60.7627C356.783 60.7627 356.7 60.5139 356.638 60.3646L356.596 60.1657C356.596 60.6135 356.596 61.1111 356.596 61.5589L356.513 61.3598Z" fill="#272727"/>
<path d="M356.639 60.3151C356.805 59.8175 356.97 59.32 357.136 58.7726L357.095 58.9219C357.095 59.3697 357.095 59.8673 357.095 60.3151L357.178 60.116C356.991 60.116 356.784 60.116 356.597 60.116L356.639 60.3151Z" fill="#272727"/>
<path d="M357.157 58.822C357.323 58.822 357.469 58.8221 357.635 58.7723L357.697 58.9713C357.51 58.9713 357.303 58.9713 357.116 58.9713L357.157 58.822Z" fill="#272727"/>
<path d="M209.783 54.3438C209.949 53.9457 210.094 53.4979 210.26 53.0998L210.219 53.0003C210.053 53.3984 209.887 53.7964 209.721 54.1945L209.783 54.3936V54.3438Z" fill="#272727"/>
<path d="M360.227 51.0598L360.082 51.1593L360.186 51.2091L360.227 51.0598Z" fill="#272727"/>
<path d="M360.186 51.2091C360.227 50.4627 360.269 49.7661 360.331 49.0197V49.1193C359.439 49.5671 359.895 50.3135 360.248 51.0598L360.207 51.2091H360.186Z" fill="#272727"/>
<path d="M361.286 49.0693C360.954 49.0693 360.643 49.0693 360.311 49.0693V48.9699C360.622 48.9699 360.933 49.0196 361.244 49.0693H361.265H361.286Z" fill="#272727"/>
<path d="M361.265 49.1193C361.265 48.3231 361.286 47.4771 361.307 46.681V46.7806C361.307 47.5767 361.307 48.3231 361.307 49.1193H361.286H361.265Z" fill="#272727"/>
<path d="M362.241 46.7306C362.303 45.9344 362.344 45.1881 362.427 44.3919L362.365 44.3421C362.324 45.1382 362.303 45.9344 362.282 46.6808H362.241V46.7306Z" fill="#272727"/>
<path d="M363.174 44.6405C362.904 44.541 362.655 44.4415 362.385 44.342C362.385 44.342 362.448 44.3918 362.427 44.3918C362.655 43.9937 362.904 43.5956 363.132 43.2473L363.07 43.4464C363.07 43.8942 363.07 44.342 363.07 44.8396L363.174 44.6903V44.6405Z" fill="#272727"/>
<path d="M363.132 43.2477C363.215 43.4965 363.298 43.7454 363.381 43.9942C363.443 43.7454 363.506 43.4468 363.568 43.198L363.651 43.4468C363.464 43.4468 363.277 43.4468 363.07 43.4468L363.132 43.2477Z" fill="#272727"/>
<path d="M364.211 40.3115H364.087L364.17 40.4608L364.211 40.3115Z" fill="#272727"/>
<path d="M364.273 38.3711C363.443 38.8687 363.858 39.6151 364.19 40.3615L364.149 40.5107C364.19 39.7644 364.232 39.0179 364.273 38.2715V38.3711Z" fill="#272727"/>
<path d="M365.27 38.4208C364.938 38.4208 364.606 38.4209 364.274 38.3712V38.2716C364.606 38.3213 364.917 38.3711 365.249 38.4208H365.27Z" fill="#272727"/>
<path d="M365.27 38.4208C365.27 37.5749 365.311 36.729 365.332 35.9329L365.311 35.9827C365.311 36.7788 365.311 37.575 365.311 38.3712L365.27 38.4208Z" fill="#272727"/>
<path d="M366.432 35.8834C366.059 35.8834 365.665 35.9829 365.291 36.0327C365.291 36.0327 365.312 35.9828 365.291 35.9828C365.644 35.9828 366.017 35.8833 366.37 35.8336L366.411 35.8834H366.432Z" fill="#272727"/>
<path d="M366.245 32.4003C366.245 32.4003 366.225 32.6492 366.204 32.7985C366.287 32.699 366.349 32.5993 366.432 32.4998C366.37 32.4998 366.328 32.4003 366.266 32.3505H366.245V32.4003Z" fill="#272727"/>
<path d="M366.265 32.4C366.556 32.201 366.867 32.002 367.158 31.8527L367.22 31.7035C366.888 31.9523 366.577 32.201 366.245 32.4498L366.265 32.4Z" fill="#272727"/>
<path d="M367.158 31.8029C367.158 31.8029 367.199 31.7034 367.22 31.6536L367.158 31.8029Z" fill="#272727"/>
<path d="M367.759 27.5735C367.759 27.5735 367.718 27.8223 367.697 27.9218C367.78 27.8721 367.842 27.7725 367.925 27.7227C367.884 27.673 367.821 27.6232 367.801 27.5735H367.78H367.759Z" fill="#272727"/>
<path d="M368.901 27.2251C368.527 27.3246 368.154 27.4739 367.76 27.5734C368.133 27.4241 368.507 27.3246 368.901 27.2251Z" fill="#272727"/>
</svg>
