<svg width="403" height="378" viewBox="0 0 403 378" fill="none" xmlns="http://www.w3.org/2000/svg">
<g clip-path="url(#clip0_2_11)">
<path d="M358.255 22.6587C389.451 46.2506 398.117 97.275 401.583 144.459C405.049 192.191 403.316 236.083 383.096 271.197C362.877 305.762 324.749 331.548 279.688 351.848C234.628 372.148 183.212 387.51 149.128 371.051C114.466 354.043 97.1351 304.664 69.9832 260.224C42.8313 216.332 5.85853 176.829 0.659233 132.389C-4.54006 87.3993 21.4564 37.4722 63.0508 15.5262C104.645 -5.87111 161.26 0.712673 216.719 1.80997C272.178 3.45592 326.482 -0.933269 358.255 22.6587Z" fill="url(#paint0_linear_2_11)"/>
</g>
<defs>
<linearGradient id="paint0_linear_2_11" x1="0" y1="378" x2="377.226" y2="-24.175" gradientUnits="userSpaceOnUse">
<stop stop-color="#9895B1"/>
<stop offset="0.574653" stop-color="#5D2FC0"/>
</linearGradient>
<clipPath id="clip0_2_11">
<rect width="403" height="378" fill="white"/>
</clipPath>
</defs>
</svg>
