<svg width="271" height="280" viewBox="0 0 271 280" fill="none" xmlns="http://www.w3.org/2000/svg">
<path d="M202.098 263.797C200.082 264.228 199.743 266.221 198.95 267.602C198.089 269.142 197.387 270.456 195.236 270.093C195.055 271.543 194.942 272.675 194.783 273.83C194.579 275.483 194.353 275.642 192.767 275.551C191.794 275.483 190.82 275.551 189.597 275.551C188.963 274.645 188.283 273.173 186.426 274.124C186.2 274.238 185.588 273.649 184.954 273.286C184.365 275.347 183.822 277.182 183.278 279.061C181.738 278.79 181.625 277.884 181.761 276.978C181.987 275.574 181.761 274.396 180.991 273.128C180.493 272.29 180.447 271.044 180.515 269.98C180.991 262.506 181.534 255.033 182.055 247.559C182.123 246.563 181.987 245.566 182.146 244.593C182.395 243.007 182.78 241.445 183.12 239.882C183.12 240.652 183.12 241.422 183.12 242.215C183.301 242.215 183.482 242.169 183.663 242.147C183.482 241.399 183.278 240.652 183.097 239.927C183.142 239.112 183.346 238.274 183.188 237.504C182.237 232.771 182.35 228.015 182.689 223.236C182.825 221.153 182.055 220.451 180.017 220.406C178.975 220.383 177.911 220.179 176.869 220.089C176.258 220.043 175.533 219.862 175.012 220.089C172.815 221.13 170.619 220.791 168.377 220.383L168.399 220.406C167.539 219.092 166.678 217.756 165.817 216.442C166.837 214.2 167.222 211.596 169.486 210.101H169.441C169.645 210.079 169.849 210.079 170.052 210.079L170.007 210.124C170.007 209.92 170.007 209.716 170.007 209.512V209.558C170.007 209.354 170.007 209.173 170.007 208.969C170.664 208.697 171.411 208.539 171.977 208.131C174.786 206.025 177.594 203.873 180.334 201.676C181.104 201.065 182.327 200.635 182.146 198.959C180.9 199.412 179.791 199.819 178.681 200.25L178.726 200.295C179.202 199.865 179.632 199.389 180.153 199.027C182.463 197.441 183.731 195.471 182.78 192.572C182.667 192.233 182.689 191.848 182.735 191.485C183.55 186.095 182.304 180.683 182.939 175.27C183.097 173.934 182.825 172.575 182.757 171.216C182.554 166.913 183.618 162.769 184.297 158.579C184.66 156.269 184.75 153.914 185.158 151.626C185.384 150.336 185.634 148.818 186.449 147.912C187.694 146.554 189.302 145.353 191.001 144.629C191.975 144.221 193.628 144.538 194.579 145.149C197.138 146.803 199.924 147.731 202.823 148.433C203.434 148.569 204.091 148.886 204.657 148.773C207.171 148.32 209.051 149.475 210.681 151.106C214.418 154.774 218.313 158.33 220.963 162.973C221.257 163.494 221.778 163.901 222.435 164.581C223.681 163.833 224.926 163.154 226.104 162.361C230.384 159.485 234.506 156.36 238.922 153.733C242.297 151.717 245.829 149.905 250.087 149.951C252.646 149.973 255.228 149.113 257.81 148.773C258.648 148.66 259.576 148.818 260.414 149.045C262.067 149.475 263.675 150.019 265.306 150.517C265.917 150.698 266.574 150.766 267.118 151.06C271.353 153.393 272.077 155.726 269.518 158.738C269.179 159.145 268.952 159.666 268.59 160.074C266.687 162.339 264.785 164.603 262.543 167.253C262.769 166.03 262.905 165.26 263.064 164.49C263.019 164.128 262.996 163.788 262.973 163.426C262.973 163.199 262.973 162.95 262.973 162.724C264.581 161.501 265.419 159.825 266.144 157.583C264.355 159.259 264.015 159.847 262.996 162.769C262.996 162.973 262.996 163.199 262.996 163.403L263.109 164.513C262.543 164.671 261.977 164.807 261.411 164.966V165.011C261.048 164.082 260.663 164.196 260.278 165.011L260.324 164.966C259.939 165.169 259.576 165.351 259.191 165.554L259.237 165.509C259.599 165.713 259.961 165.894 260.324 166.098H260.278C260.165 167.253 259.644 168.136 258.625 168.725V168.77C258.67 168.34 258.693 167.91 258.738 167.162C258.127 167.434 257.606 167.502 257.447 167.774C255.613 170.786 252.986 173.345 252.148 176.946C251.989 177.331 251.808 177.739 251.65 178.124C251.287 178.667 250.925 179.188 250.54 179.731C250.359 180.026 250.2 180.32 250.019 180.637C250.087 180.66 250.178 180.705 250.246 180.728C250.336 180.388 250.404 180.049 250.495 179.709C250.857 179.165 251.242 178.644 251.604 178.101C251.763 177.716 251.944 177.308 252.125 176.923C252.782 176.493 253.416 176.063 254.073 175.632C254.209 175.723 254.345 175.814 254.481 175.904C253.326 177.965 252.239 180.071 250.993 182.109C247.936 187.16 244.471 192.006 242.364 197.577L242.387 197.555C242.387 198.823 242.387 200.114 242.364 201.382C242.183 201.767 242.025 202.175 241.844 202.56C241.459 202.356 241.051 202.152 240.666 201.926C240.575 202.039 240.485 202.152 240.394 202.288C240.87 202.877 241.368 203.488 241.844 204.077L241.889 204.213L241.821 204.1C241.821 203.579 241.821 203.058 241.821 202.537C242.002 202.152 242.161 201.744 242.342 201.359C243.157 201.835 243.972 202.311 244.878 202.831C244.38 204.1 243.927 205.209 243.474 206.319L243.429 206.274C243.927 206.568 244.176 207.633 245.059 206.817L245.082 206.84C245.059 206.432 245.014 206.047 244.992 205.64C245.173 205.572 245.354 205.481 245.535 205.413C246.056 206.274 246.667 207.066 247.098 207.972C247.845 209.558 248.819 210.894 250.449 211.664L250.427 211.641C250.563 212.049 250.54 212.706 250.834 212.864C252.397 213.77 252.986 215.31 253.394 216.873C254.481 221.085 256.609 224.641 259.463 227.879C260.89 229.487 261.977 231.389 263.154 233.201C263.449 233.677 263.494 234.311 263.698 234.968C262.339 235.375 261.637 234.628 260.89 234.016H260.844C261.682 233.858 262.203 233.473 261.637 232.59C260.98 231.525 260.233 230.483 259.237 229.034C258.965 230.551 258.806 231.48 258.648 232.409V232.363C257.312 232.363 255.975 232.363 254.639 232.295C252.488 232.205 250.336 232.046 248.524 231.933C247.188 232.771 246.124 233.541 244.992 234.175C242.795 235.375 240.575 236.508 238.356 237.685C237.224 238.297 236.272 237.866 235.299 237.346C233.238 236.236 231.177 235.104 229.071 234.084C227.87 233.496 226.579 233.111 225.515 232.68C223.862 233.518 223.817 235.941 221.642 235.624H221.665C221.461 235.194 221.257 234.764 220.827 233.835C218.427 237.006 217.272 240.494 215.097 243.302L215.075 243.166L215.143 243.279C213.92 245.249 212.561 247.129 211.497 249.19C210.047 252.021 208.802 254.988 207.533 257.751C207.465 257.547 207.329 257.094 207.126 256.346C205.767 257.343 205.337 258.724 204.612 259.879C203.887 261.012 203.276 262.212 202.596 263.367L202.642 263.322C202.438 263.526 202.257 263.707 202.053 263.911L202.075 263.865L202.098 263.797ZM180.357 212.185C180.357 212.366 180.357 212.57 180.357 212.751C180.606 212.751 180.832 212.774 181.082 212.796C181.014 212.592 180.946 212.411 180.9 212.207C180.9 212.004 180.9 211.8 180.9 211.596C181.172 211.483 181.444 211.369 181.693 211.256C181.648 211.188 181.602 211.12 181.58 211.075C181.376 211.256 181.149 211.46 180.946 211.641C180.764 211.822 180.583 212.004 180.379 212.162L180.357 212.185ZM222.775 209.467L222.729 209.512C222.548 209.512 222.39 209.512 222.209 209.512C221.152 210.614 220.993 211.634 221.733 212.57C222.843 211.641 222.435 210.531 222.186 209.467C222.39 209.467 222.594 209.467 222.775 209.467ZM245.58 209.512H245.603C245.784 209.829 245.943 210.192 246.124 210.554C246.328 210.735 246.509 210.939 246.713 211.12L246.758 211.256L246.667 211.166C246.486 210.984 246.282 210.781 246.101 210.599C245.92 210.237 245.762 209.897 245.58 209.535V209.512ZM247.754 213.317H247.777L247.845 213.408L247.754 213.317ZM246.622 214.834L246.645 214.857C246.645 215.061 246.645 215.287 246.645 215.491C246.645 215.491 246.622 215.514 246.645 215.514C246.645 215.287 246.645 215.038 246.645 214.812L246.622 214.834ZM206.446 175.791L206.378 175.723L206.469 175.768C206.469 175.768 206.582 175.881 206.627 175.949C206.559 175.904 206.514 175.859 206.446 175.791ZM222.163 196.513V196.332L222.186 196.468C222.186 196.989 222.186 197.509 222.186 198.03C221.62 197.215 221.076 196.354 220.465 195.607C219.627 194.588 218.721 193.637 217.838 192.64C217.77 191.689 217.407 190.987 216.411 190.761C215.55 192.527 215.686 193.093 217.339 194.746C217.543 196.943 218.63 198.687 220.306 200.114C220.216 199.593 220.102 199.095 220.012 198.574C220.714 199.14 221.393 199.706 222.48 200.589C222.367 199.389 222.299 198.71 222.231 198.053C222.412 197.487 222.571 196.943 222.752 196.377C222.82 196.241 222.888 196.128 222.979 195.992C222.911 196.128 222.865 196.264 222.797 196.4C222.594 196.422 222.39 196.445 222.163 196.468V196.513ZM243.429 160.572C243.316 160.663 243.18 160.731 243.067 160.821C243.18 160.731 243.293 160.64 243.406 160.549H243.429V160.572ZM200.513 232.25C200.671 232.658 200.852 233.043 201.011 233.45C201.011 234.537 200.92 235.67 202.528 236.009C203.298 234.56 203.955 233.043 203.457 231.412C203.004 229.917 202.211 228.536 201.6 227.132C201.396 229.193 201.192 231.344 200.988 233.496C200.83 233.088 200.649 232.68 200.49 232.295C200.445 232.159 200.399 232.024 200.399 231.978C200.399 232.001 200.467 232.137 200.535 232.25H200.513ZM261.932 161.184C261.773 161.365 261.614 161.546 261.796 161.342C261.66 161.591 261.796 161.365 261.886 161.161C262.226 161.093 262.543 161.025 262.883 160.98L262.181 160.391C262.09 160.663 262.022 160.934 261.932 161.206V161.184ZM217.883 166.528L217.86 166.551C217.657 166.098 217.453 165.645 217.249 165.192C217.136 165.283 217 165.373 216.887 165.464C217.226 165.826 217.566 166.166 217.883 166.528ZM217.362 160.006L217.317 160.051C217.09 159.304 216.887 158.534 215.799 158.579C215.732 159.847 216.479 160.029 217.339 160.006H217.362ZM209.775 153.574C208.847 152.646 207.918 151.717 206.99 150.811L207.035 150.766C207.262 152.351 207.986 153.438 209.753 153.529L209.821 153.348L209.775 153.552V153.574ZM234.189 175.768C235.593 174.84 236.907 173.843 237.224 171.329C234.778 173.345 232.762 174.998 230.384 176.946C231.267 177.195 231.652 177.286 232.037 177.399C231.569 178.984 231.969 180.011 233.238 180.479C234.347 179.075 234.8 177.535 234.189 175.768ZM214.078 193.206C213.874 191.485 212.674 191.667 211.746 192.278C210.342 193.184 208.892 194.18 208.802 196.219C208.779 196.921 208.303 197.577 208.032 198.257C207.669 197.011 207.556 195.879 205.925 196.422H205.948C205.608 196.4 205.087 196.173 204.997 196.286C203.276 198.325 202.415 202.378 205.246 204.462C206.152 204.1 207.103 203.737 208.054 203.352C207.896 204.304 207.443 204.915 206.944 205.481C206.446 206.093 205.925 206.681 205.404 207.27C204.884 208.629 204.476 209.988 205.359 211.392V207.248C205.45 207.497 205.608 207.769 205.608 208.018C205.518 211.596 207.714 212.909 210.817 213.385C211.451 213.476 212.063 213.634 212.674 213.793C214.033 214.11 215.165 213.951 215.935 212.592C216.139 212.207 216.547 211.936 216.841 211.618L216.796 211.664C217.747 210.056 218.585 208.38 219.649 206.885C220.555 205.64 220.623 204.304 220.057 203.126C218.947 200.816 217.543 198.642 216.275 196.422H216.298C216.252 194.928 215.097 194.112 214.124 193.184H214.101L214.078 193.206ZM196.097 205.708C195.87 206.364 194.058 206.296 195.304 207.633C195.553 207.882 195.349 208.765 195.1 209.218C194.783 209.784 194.194 210.214 193.651 210.803C194.942 211.868 195.961 211.596 197.048 210.984C197.523 209.105 197.41 207.406 196.119 205.708H196.097ZM204.748 230.484C204.974 230.551 205.201 230.597 205.427 230.665C206.084 229.532 206.741 228.423 207.352 227.29C207.737 226.566 208.099 225.75 207.058 225.229C206.084 224.731 204.974 225.184 204.793 226.339C204.589 227.698 204.748 229.102 204.748 230.484ZM194.172 230.936C195.938 224.98 195.961 223.916 194.33 222.987C193.356 225.456 194.104 227.902 194.172 230.936ZM200.671 206.749C200.83 206.749 200.988 206.795 201.124 206.795V205.345C200.966 205.345 200.807 205.345 200.671 205.345V206.727V206.749ZM197.365 243.143C197.093 243.46 196.912 243.596 196.844 243.777C196.799 243.891 196.934 244.072 197.002 244.23C197.184 244.14 197.501 244.094 197.546 243.958C197.614 243.8 197.478 243.551 197.365 243.143ZM200.513 224.799C200.354 224.844 200.218 224.89 200.06 224.935C200.173 225.252 200.286 225.569 200.422 225.886L200.762 225.773C200.694 225.456 200.603 225.139 200.535 224.822L200.513 224.799ZM196.187 225.207C196.323 225.207 196.459 225.207 196.595 225.207V223.712H196.119C196.142 224.233 196.164 224.731 196.187 225.229V225.207ZM191.159 231.004C191.024 231.004 190.91 231.004 190.774 231.027C190.797 231.389 190.82 231.752 190.842 232.091C190.978 232.091 191.092 232.091 191.227 232.069C191.205 231.706 191.182 231.344 191.159 231.004ZM225.9 205.504C225.56 205.323 225.357 205.119 225.13 205.096C224.994 205.096 224.745 205.436 224.768 205.594C224.768 205.776 225.017 205.957 225.175 206.138C225.334 206.002 225.515 205.844 225.923 205.504H225.9ZM196.572 235.239C196.572 235.239 196.368 235.058 196.278 234.968C196.232 235.036 196.119 235.126 196.142 235.149C196.232 235.262 196.323 235.353 196.414 235.443C196.459 235.375 196.504 235.33 196.595 235.239H196.572ZM220.691 208.878L220.737 208.72L220.578 208.765L220.691 208.878ZM189.031 194.112L189.212 194.226V193.999L189.031 194.112ZM240.87 162.271L241.028 162.203L240.892 162.112V162.293L240.87 162.271ZM183.21 245.181C183.21 245.181 183.21 245.34 183.233 245.431C183.324 245.363 183.414 245.295 183.459 245.204C183.459 245.181 183.392 245.091 183.346 245.023C183.301 245.091 183.256 245.136 183.21 245.204V245.181ZM214.124 156.677C213.988 156.609 213.874 156.541 213.739 156.473C213.716 156.541 213.648 156.677 213.671 156.699C213.784 156.79 213.92 156.835 214.056 156.903C214.056 156.835 214.101 156.745 214.124 156.677ZM200.649 210.735L200.762 210.871L200.83 210.713H200.649V210.735ZM184.456 237.21V236.802H184.252C184.252 236.938 184.252 237.074 184.252 237.21H184.479H184.456ZM220.442 214.404L220.578 214.314L220.442 214.246V214.404ZM220.646 164.966V164.807L220.533 164.852L220.646 164.966ZM190.956 160.799C190.956 160.934 190.956 161.048 190.933 161.184C190.978 161.116 191.092 161.07 191.092 161.002C191.092 160.934 191.024 160.866 190.956 160.799Z" fill="#272727"/>
<path d="M102.676 96.3455C101.091 98.5196 99.415 100.671 97.9203 102.913C95.3159 106.831 92.7341 110.749 90.3335 114.803C88.25 118.29 86.3929 121.914 84.5359 125.538C83.5847 127.372 82.8374 129.32 82.0221 131.222L81.9994 131.199C82.2259 131.675 82.4297 132.15 82.86 133.079C84.4226 130.565 85.8494 128.368 86.8459 125.945C88.1821 122.707 89.79 119.627 92.3265 117.135H92.3038C91.5112 120.759 89.5182 123.862 87.865 127.145C87.48 127.938 87.1856 128.776 86.8685 129.591C85.8268 131.267 84.6265 132.898 83.8112 134.687C83.4035 135.57 83.4262 136.838 83.7206 137.812C84.1962 139.443 85.0341 140.983 85.7588 142.545C87.4121 146.146 89.0653 149.747 90.7638 153.325C91.3073 154.435 92.0773 155.454 92.7115 156.519C94.1156 158.919 95.6782 161.275 96.7879 163.811C97.2635 164.898 96.72 166.415 96.6521 167.729C96.5162 167.321 96.4029 166.936 96.267 166.529C96.1538 166.597 96.0179 166.665 95.9047 166.733C96.1538 167.05 96.4256 167.367 96.6747 167.684C96.5841 167.684 96.4935 167.752 96.4256 167.729C95.4065 167.321 94.41 166.755 93.3456 166.551C92.3265 166.348 91.2168 166.551 90.1524 166.551H90.175C89.8126 165.872 89.4276 165.147 89.0653 164.422L89.0879 164.4C88.2273 166.37 87.4347 166.823 85.6456 165.962C83.0185 164.694 80.3462 163.902 77.4021 163.856C76.5188 163.856 75.6356 163.086 74.7976 162.588C73.7332 161.954 72.7141 161.229 71.695 160.55L71.7177 160.573C69.9059 158.58 69.8832 158.58 67.9809 160.097C67.5732 160.414 67.1882 160.776 66.8032 161.139C66.7353 161.003 66.6674 160.867 66.6221 160.731C66.4862 160.867 66.3503 161.003 66.2144 161.139C65.8521 162.248 65.4671 163.358 65.1047 164.468L65.0594 164.287L65.1274 164.445C63.8138 165.736 63.1118 167.299 62.4097 168.997C61.1868 172.055 59.375 174.885 57.9709 177.898C56.6121 180.819 55.4118 183.831 54.2794 186.843C53.9397 187.749 54.1209 188.881 54.053 190.444C54.9135 189.221 55.3891 188.542 55.9553 187.749C58.9674 190.172 58.2653 192.935 57.3821 196.151C56.748 195.358 56.3403 194.86 55.9327 194.339C56.8159 192.822 56.6121 191.372 55.7062 189.334C55.2306 191.463 55.525 192.912 55.978 194.362C55.3212 194.611 54.6418 194.86 53.8718 195.155C53.6 194.815 53.3056 194.407 52.9886 194C52.8527 194.09 52.6488 194.158 52.5809 194.294C52.3771 194.679 52.3318 195.358 52.06 195.472C49.6821 196.445 49.5688 198.529 49.365 200.613C49.1612 202.673 49.1612 202.628 46.9644 202.922C46.285 203.013 45.6283 203.398 44.9715 203.647C43.1824 204.372 42.118 204.191 40.9403 202.628C39.808 201.133 38.4265 200.114 36.6827 199.457C34.803 198.733 33.6933 196.536 34.0783 194.566C34.2745 193.599 33.9499 192.822 33.1044 192.233C33.6253 187.93 34.1009 183.74 34.6444 179.551C34.735 178.849 35.0974 178.192 35.3465 177.512H35.3012C35.3465 177.739 35.3918 177.988 35.4597 178.509C36.9318 175.814 38.2906 173.323 39.6494 170.832C39.6947 171.42 39.7627 172.009 39.808 172.598C39.9212 172.575 40.0344 172.553 40.1477 172.53C39.9665 171.987 39.808 171.42 39.6268 170.877C39.6268 170.379 39.6268 169.858 39.6268 169.36C39.7174 169.133 39.8306 168.907 39.7174 169.156C39.7853 168.907 39.7174 169.156 39.6494 169.405L39.038 169.246H39.0606C37.6565 167.684 37.9962 165.011 35.3465 163.585C35.5956 164.355 35.7089 164.649 35.7994 164.943L35.8447 164.921C34.1462 166.302 35.5956 167.729 35.7089 168.59C35.0068 170.605 34.4633 172.123 33.7838 174.093C33.7159 173.119 33.648 172.553 33.6253 171.987C33.3536 165.985 34.6218 160.12 35.12 154.186C35.2786 152.397 35.3691 150.585 35.3465 148.773C35.3465 147.052 34.8936 146.554 33.0591 146.395C30.4547 146.169 27.8277 146.146 25.2233 145.988C23.3889 145.875 21.4186 146.192 19.6747 144.538C20.3542 144.199 20.8524 143.927 21.5771 143.542C21.0789 143.202 20.7165 142.749 20.3089 142.681C16.0965 142.16 11.8842 141.775 7.85298 140.349C5.81475 139.624 3.77651 138.877 1.89681 137.858C-0.435837 136.612 -0.617013 134.913 1.35328 133.124C5.31651 129.546 9.30239 126.013 13.4242 122.616C20.7392 116.569 28.0994 110.59 35.5277 104.702C37.7244 102.958 38.6077 100.852 38.6303 98.1346C38.6303 95.9832 38.8568 93.809 38.9927 91.3405C39.6268 91.7255 40.0118 91.9746 40.3968 92.2011C41.4386 90.412 41.3027 83.3914 40.125 78.5449L40.1477 78.5675C38.8568 76.8917 38.9021 76.6652 40.6686 76.2576C41.0536 76.167 41.4159 75.9632 41.8009 75.8273H41.7783C42.7294 76.0764 42.9333 75.2837 43.3862 74.7402C45.0394 72.7246 46.0812 72.8152 47.4853 75.0346C49.2744 77.8655 51.8109 79.4281 55.1627 79.7678C55.8647 79.8358 56.6121 80.4473 57.133 81.0135C57.7218 81.6702 58.0615 82.5534 58.5597 83.3008C59.5335 84.7049 60.5527 84.9314 62.0474 84.1388C62.6135 83.8444 63.1344 83.482 63.6327 83.097C67.7091 80.1075 71.8988 77.2314 75.8394 74.0835C80.0518 70.7317 84.8529 68.3991 89.4276 65.6588C91.1262 64.6397 92.8926 63.7111 94.5912 62.692C96.6747 61.4238 98.8262 61.4238 101.227 62.1032C101 62.5335 100.842 62.8052 100.683 63.0996C100.796 63.2129 100.932 63.4167 101.046 63.4167C102.54 63.5525 103.809 64.0508 104.964 65.0699C106.119 66.0664 107.455 66.8817 108.746 67.6743C110.104 68.4896 111.214 69.4861 111.871 70.9355L111.848 70.9128C112.369 71.2525 112.845 71.6602 113.411 71.9093C115.245 72.7246 115.608 73.472 115.268 75.4649C114.385 80.6511 111.961 85.0899 108.949 89.2796C108.429 90.0043 107.976 90.797 107.387 91.4764C106.571 92.3823 105.62 93.1749 104.76 94.0581C104.012 94.8281 103.333 95.6434 102.631 96.4361L102.654 96.4134L102.676 96.3455ZM65.6935 95.8925L65.6709 95.8699H65.6935V95.8925ZM33.5574 122.503L33.5347 122.458L34.1915 122.503C34.5538 123.069 34.9841 123.499 35.5956 122.843C35.6862 122.752 35.3691 122.276 35.2333 121.982C35.3918 121.71 35.5277 121.461 35.6862 121.189C35.5956 121.121 35.505 121.031 35.3918 120.963C34.9841 121.303 34.5991 121.62 34.1915 121.959C33.9877 122.14 33.7838 122.299 33.58 122.48L33.5574 122.503ZM40.125 164.355L40.1477 164.377H40.125V164.355ZM17.3194 125.787L17.2968 125.764H17.3194V125.787ZM15.6889 126.896C15.5077 127.078 15.3265 127.259 15.1227 127.463C14.9415 127.644 14.7603 127.825 14.5792 128.029C12.6089 128.821 10.9556 130.044 9.71004 131.788L9.6421 132.015C9.6421 132.015 9.68739 131.856 9.71004 131.788C11.7709 131.086 13.2656 129.682 14.5792 128.006C14.7603 127.825 14.9415 127.644 15.1227 127.44C15.3039 127.259 15.485 127.078 15.6889 126.874L15.7115 126.896H15.6889ZM56.4535 176.901L56.363 176.992L56.4083 176.856H56.4309L56.4535 176.901ZM62.9759 141.617L62.8853 141.708L62.9306 141.572H62.9532L62.9759 141.617ZM27.103 124.79C27.103 124.79 27.0577 124.903 27.035 124.949C27.035 124.881 27.0577 124.813 27.0803 124.768C27.2615 124.586 27.4653 124.383 27.6465 124.201C30.3868 123.363 32.3118 121.393 34.35 119.513C35.0294 118.925 35.7315 118.336 36.4109 117.747C36.4562 117.702 36.5241 117.634 36.5694 117.588C36.5241 117.543 36.4562 117.475 36.4562 117.475C36.3883 117.498 36.343 117.566 36.2977 117.611C35.5503 118.132 34.803 118.63 34.033 119.151C31.9268 120.827 29.798 122.525 27.6918 124.201C27.5106 124.383 27.3068 124.586 27.1256 124.768L27.103 124.79ZM27.6692 117.181L27.5559 117.339L27.6239 117.158H27.6465L27.6692 117.181ZM78.7382 117.181C78.9194 116.796 79.0779 116.433 79.2591 116.048C79.3271 115.913 79.395 115.799 79.4629 115.663C79.395 115.799 79.3497 115.935 79.2818 116.071C79.1006 116.456 78.9421 116.818 78.7609 117.203L78.7382 117.181ZM68.9774 98.1799C68.9774 97.9987 68.9547 97.8176 68.9321 97.6364C70.7891 95.9605 72.5556 94.194 74.4806 92.5861C76.8359 90.6384 79.0553 88.2379 81.7956 87.1055C84.5812 85.9505 85.6229 83.9123 86.71 81.489C83.5168 83.3687 80.4368 85.407 77.6285 87.8528H77.6512C73.3029 89.642 70.4041 93.3108 66.8712 96.1417C66.5768 96.3681 66.4635 97.1381 66.5994 97.5458C66.8938 98.3837 67.6412 98.4063 68.3885 98.1572C68.5924 98.1572 68.7735 98.1572 68.9774 98.1572V98.1799ZM36.8186 185.054L37.7244 184.42L37.3847 184.125C37.2036 184.443 37.0224 184.782 36.8412 185.099C36.7506 185.371 36.6374 185.643 36.5468 185.937C36.6374 185.937 36.728 185.96 36.8186 185.983C36.8186 185.688 36.8186 185.371 36.8186 185.077V185.054ZM71.1515 85.7013C70.3815 85.8599 69.6341 86.0864 69.3397 87.2414C70.4721 87.0602 70.9024 86.4714 71.1288 85.6787H71.1515V85.7013ZM80.3462 113.965C80.935 113.331 81.705 112.765 82.1126 112.017C83.7659 109.073 85.2832 106.061 86.8685 103.094C87.6612 102.392 88.635 101.781 89.2238 100.943C91.6924 97.4099 94.0703 93.809 96.4256 90.1855C97.3315 88.804 98.1468 87.332 98.9847 85.9052C98.1015 86.0185 97.4673 86.3808 97.105 86.9243C93.7985 91.884 90.5373 96.8437 87.2762 101.849C87.0497 102.211 87.0271 102.687 86.8912 103.117C86.1665 103.842 85.4418 104.566 84.6944 105.314L84.7171 105.291C84.1735 106.288 83.6073 107.284 83.0865 108.303C82.1579 110.183 81.2521 112.108 80.3462 114.01L80.3009 113.965H80.3462ZM82.0221 108.031C81.7956 108.167 81.4785 108.258 81.3426 108.439C79.3723 111.519 77.4021 114.622 75.4771 117.747C75.3865 117.883 75.6129 118.177 75.7715 118.676C76.315 118.109 76.8132 117.724 77.1076 117.226C78.3532 115.165 79.5988 113.082 80.7538 110.953C81.2747 110.024 81.5918 108.983 81.9994 107.986C82.09 107.963 82.1806 107.941 82.2485 107.895C82.2938 107.873 82.2485 107.76 82.2485 107.692C82.1806 107.805 82.09 107.895 82.0221 108.009V108.031ZM74.39 100.943C75.4091 99.9011 76.4282 98.8367 77.7418 97.5005C74.0503 97.8176 69.8832 100.558 68.9094 103.049C70.4268 102.687 71.8988 102.347 73.3482 102.007C72.5782 102.868 71.8309 103.774 71.0609 104.612C69.77 106.016 69.7247 106.65 70.8797 108.756C71.3327 108.575 72.08 108.507 72.2385 108.167C73.235 106.061 74.0956 103.91 74.9562 101.735C75.0241 101.554 74.5938 101.192 74.4127 100.898L74.39 100.943ZM91.1941 106.288C91.7829 105.744 92.5076 105.268 92.9153 104.612C96.5841 98.6555 100.23 92.6993 103.831 86.6978C104.103 86.2675 104.148 85.6787 104.284 85.1805L104.375 85.022L104.329 85.2032C103.831 85.7014 103.197 86.1317 102.857 86.7205C98.962 93.2202 95.1121 99.7652 91.2394 106.288L91.1941 106.423L91.2168 106.242L91.1941 106.288ZM48.3006 128.097C47.9609 130.407 47.6212 132.717 47.3041 135.027C47.123 136.431 48.0741 137.223 49.0027 138.333C50.1803 135.185 49.9765 132.173 49.9086 129.274C49.8406 126.308 51.4032 123.431 50.3615 119.83C49.8406 121.506 49.6368 122.661 49.1386 123.68C48.4365 125.107 48.1874 126.579 48.278 128.119H48.3006V128.097ZM29.8206 134.596C30.7944 134.8 31.7909 134.415 32.7194 135.434C33.4215 136.204 35.4144 135.434 35.8674 134.234C36.4562 132.671 36.7053 130.95 37.045 129.297C37.0903 129.116 36.6147 128.844 36.3656 128.595V128.618C36.4562 128.051 36.8186 127.327 36.5694 126.987C36.3203 126.625 35.3691 126.353 34.9841 126.534C31.6324 128.21 28.1674 129.75 25.3818 132.354C25.0647 132.649 25.0647 133.26 24.8836 133.849C26.8312 134.37 28.4391 134.166 29.9339 133.147C30.5906 132.694 31.3153 132.332 32.0174 131.924H31.9947C31.2927 132.807 30.5906 133.713 29.8886 134.619H29.8659L29.8206 134.596ZM46.9871 148.434C46.8512 150.019 46.738 151.423 46.6021 152.827C47.4174 151.853 47.9383 150.857 48.3912 149.86C48.7988 148.932 48.3233 148.57 46.9871 148.434ZM42.4577 92.9711C42.4577 92.9711 42.6162 92.9711 42.7068 92.9711V89.0305C42.7068 89.0305 42.5483 89.0305 42.4577 89.0305V92.9711ZM25.88 144.493C26.0839 144.199 26.2424 143.972 26.4236 143.723C26.2197 143.61 25.9706 143.338 25.8121 143.383C25.563 143.474 25.3818 143.746 25.1553 143.95C25.3365 144.085 25.5403 144.221 25.88 144.47V144.493ZM37.8603 134.143C38.0415 134.143 38.2453 134.166 38.4265 134.189V132.49C38.268 132.49 38.1321 132.49 37.9736 132.49C37.9283 133.034 37.883 133.577 37.8603 134.143ZM58.9221 171.149L59.4883 171.352L59.7147 170.152C59.6015 170.13 59.4656 170.084 59.3524 170.062C59.2165 170.424 59.0806 170.786 58.9221 171.149ZM32.8553 144.085C33.0138 144.04 33.1497 143.995 33.3083 143.95C33.2177 143.814 33.1271 143.633 33.0138 143.587C32.9006 143.542 32.7194 143.655 32.5609 143.7C32.6515 143.836 32.7647 143.95 32.8553 144.085ZM36.4789 160.64C36.4789 160.64 36.5921 160.505 36.6374 160.437C36.5015 160.369 36.3656 160.278 36.2297 160.233C36.2071 160.233 36.1391 160.369 36.0712 160.437C36.2071 160.505 36.343 160.573 36.4789 160.64ZM38.0415 160.437C38.1774 160.459 38.2906 160.482 38.4265 160.505C38.4265 160.233 38.3812 159.961 38.3586 159.689C38.268 159.689 38.2 159.689 38.1094 159.689C38.0868 159.938 38.0641 160.165 38.0189 160.414L38.0415 160.437ZM35.4824 190.263C35.4824 190.263 35.505 190.104 35.4824 190.036C35.4597 189.991 35.3465 190.014 35.2786 189.991C35.2786 190.104 35.2786 190.24 35.2786 190.353C35.3465 190.308 35.4144 190.285 35.4824 190.24V190.263ZM39.5589 157.878C39.5589 157.878 39.5589 157.742 39.5589 157.651C39.4683 157.696 39.3777 157.764 39.2871 157.81C39.3324 157.855 39.355 157.923 39.4003 157.991C39.4456 157.945 39.5136 157.9 39.5589 157.878ZM58.6277 130.384L58.5824 130.565L58.7635 130.497L58.6277 130.361V130.384ZM38.6756 164.649C38.7662 164.536 38.8341 164.468 38.9021 164.377C38.8341 164.377 38.7662 164.355 38.6983 164.332C38.6983 164.4 38.6983 164.49 38.6756 164.626V164.649ZM39.2644 179.709V179.936L39.423 179.8L39.2644 179.709ZM56.2497 175.089H56.1138L56.2044 175.248L56.2724 175.089H56.2497ZM36.4789 109.435L36.4336 109.617L36.5921 109.571L36.4562 109.435H36.4789ZM39.3097 182.336L39.423 182.155H39.2418L39.3097 182.336ZM28.9147 115.981L28.9827 116.139L29.0733 115.981H28.9147Z" fill="#272727"/>
<path d="M203.706 77.9105C202.982 78.454 202.257 79.0202 201.532 79.5637L201.578 79.5184C201.374 79.7222 201.17 79.9261 200.989 80.1073C199.902 80.6281 198.837 81.1716 197.75 81.6925L197.773 81.7378C197.569 81.9416 197.388 82.1228 197.184 82.3266L197.139 82.304C195.576 82.5984 194.738 83.7987 193.923 84.999L193.946 85.0216C193.628 84.931 193.153 84.6593 192.994 84.7725C191.794 85.7011 190.684 86.7202 189.529 87.7166L189.552 87.694C188.397 87.694 188.057 88.4187 188.012 89.4152H187.853L187.989 89.3699C189.054 89.619 188.895 90.2758 188.533 91.0005C188.42 91.0911 188.329 91.2042 188.216 91.2948C188.306 91.1816 188.397 91.0684 188.488 90.9778C189.212 91.9063 189.235 92.8575 188.284 93.6049C182.939 97.7493 178.432 102.958 172.204 105.925C169.509 107.216 166.792 108.122 163.349 107.148C164.708 105.585 165.908 104.204 167.131 102.822C167.018 102.664 166.905 102.505 166.769 102.369C166.044 102.777 165.297 103.162 164.595 103.592C163.734 104.113 162.942 104.294 162.126 103.502C160.971 102.392 159.907 102.596 158.82 103.66C157.937 104.521 156.895 104.521 155.808 103.955C155.264 103.66 154.653 103.253 154.109 103.298C152.524 103.434 152.66 101.916 151.799 101.124C150.871 101.26 149.829 101.395 148.289 101.599C148.855 100.943 149.059 100.535 149.376 100.376C150.916 99.6516 151.663 98.2928 152.683 97.0245C156.804 91.929 157.348 85.5652 159.228 79.7222C161.424 72.9281 163.168 65.9981 165.093 59.1134C165.138 58.9322 165.184 58.7737 165.229 58.5926C166.09 55.5579 165.999 55.2181 162.874 54.6067C158.48 53.7461 154.404 52.1155 150.282 50.4622C147.859 49.4884 145.232 49.0581 142.741 48.2202C138.188 46.6802 137.6 45.4799 138.732 40.7013C138.8 40.4296 138.891 40.1805 138.958 39.9314L139.004 39.8861C139.91 39.2746 140.725 38.5046 141.699 38.1196C145.73 36.557 149.738 34.8811 153.883 33.7261C160.269 31.9143 166.769 30.4422 173.246 28.9475C174.967 28.5625 175.896 27.6793 176.485 26.1166C176.892 25.0296 177.572 24.0558 178.115 23.0367L178.138 23.0593C178.41 21.7685 178.5 20.3869 178.976 19.1867C180.561 15.2687 182.26 11.3961 183.958 7.52344C185.204 4.73785 187.242 2.58638 189.665 0.797266C190.752 0.00461905 192.111 -0.289751 193.243 0.344366C195.757 1.77113 198.384 2.88082 201.147 3.65082C204.499 4.60199 206.877 6.93463 209.119 9.44845C209.028 9.53904 208.938 9.60695 208.893 9.6296C208.915 9.58431 209.006 9.49377 209.074 9.40318C211.067 11.0338 212.697 12.9134 213.354 15.5178C213.558 16.2878 214.033 16.9899 214.373 17.7373C215.777 20.8399 217.702 22.3799 221.53 21.7458C224.949 21.1796 228.573 21.5193 232.083 21.8137C235.82 22.1081 239.262 23.3311 242.297 25.7996C243.724 26.9546 245.581 27.6793 247.347 28.3587C249.295 29.1287 251.129 30.012 252.669 31.4841C253.824 32.5938 255.228 33.4317 256.519 34.3829C257.742 35.2888 258.24 36.6023 257.516 37.9611C255.953 40.9278 254.096 43.6908 251.356 45.7743C247.687 48.5599 243.995 51.3455 240.327 54.1084C238.945 55.1502 237.586 56.1693 236.205 57.1884C235.843 57.4602 235.435 57.6867 235.118 58.0037C233.125 59.974 232.446 61.197 234.982 63.824C237.383 62.3973 239.806 60.9252 242.252 59.4531L242.229 59.4305C240.689 60.6534 239.194 61.9669 237.564 63.0766C235.435 64.5034 235.186 64.979 236.273 67.2664C237.201 69.2366 238.311 71.1164 239.172 73.0867C240.01 75.057 240.644 77.0952 241.323 78.9522C239.308 80.9678 236.998 79.3146 235.005 80.2884C235.299 80.8093 235.548 81.2169 235.956 81.8963C234.506 81.3981 233.329 81.0131 232.151 80.5602C228.981 79.3372 225.833 78.069 222.662 76.8461C222.413 76.7555 222.141 76.6875 221.869 76.6649C219.288 76.461 216.683 76.1893 214.101 76.0987C213.377 76.076 212.629 76.6196 211.882 76.8913L211.905 76.9366C211.837 76.529 211.769 76.1214 211.633 75.2155C210.07 76.2573 208.802 77.0952 207.511 77.9331L207.556 77.9784C207.353 77.4349 207.149 76.8914 206.945 76.3478L206.968 76.3252C206.243 76.8687 205.518 77.4122 204.793 77.9558C204.408 77.9784 204.023 77.9784 203.638 77.9784L203.706 77.9105ZM183.098 48.039L183.075 48.0164H183.098V48.039ZM173.858 58.9549L173.835 58.9323H173.858V58.9549ZM189.076 80.1752C188.895 80.3564 188.714 80.5375 188.533 80.7187C188.465 80.7187 188.397 80.7187 188.329 80.764C188.284 80.7866 188.284 80.8546 188.261 80.9225C188.352 80.8546 188.42 80.7866 188.51 80.7187C188.691 80.5375 188.873 80.3564 189.054 80.1752L189.076 80.1978V80.1752ZM186.359 82.3493C186.178 82.5305 185.996 82.7116 185.815 82.8928C184.819 83.4363 183.732 83.844 182.826 84.5234C181.037 85.8822 179.383 87.377 177.662 88.8037C177.119 89.2793 176.394 89.6643 177.028 90.6607C177.232 90.0266 177.436 89.3925 177.64 88.7584C178.41 88.6225 179.338 88.6905 179.95 88.3055C182.214 86.8561 184.547 85.4066 185.815 82.8475C185.996 82.6664 186.178 82.4852 186.359 82.2814L186.381 82.304L186.359 82.3493ZM158.073 88.8717H158.095C158.095 89.0528 158.095 89.2566 158.118 89.4604C157.869 89.9134 157.597 90.3663 157.348 90.7966C157.484 90.8419 157.62 90.8873 157.756 90.9325C157.869 90.4343 157.982 89.9361 158.095 89.4378C158.095 89.2567 158.095 89.0755 158.073 88.8717ZM185.272 89.9587C185.272 90.1398 185.249 90.3437 185.226 90.5248C185.068 90.8872 184.887 91.2269 184.728 91.5893L184.706 91.5667C184.864 91.227 185.045 90.9099 185.204 90.5702C185.204 90.3664 185.204 90.1625 185.226 89.9361L185.272 89.9813V89.9587ZM232.581 69.1914V69.3499V69.214L232.513 69.1008L232.604 69.1914H232.581ZM179.791 63.824L179.882 63.7108L179.836 63.8693H179.814L179.791 63.824ZM180.901 97.0019L180.788 97.0472L180.878 96.9793H180.901V97.0019ZM190.186 21.542C190.005 22.0628 189.801 22.5837 189.62 23.1046H189.597C189.778 22.5611 189.982 22.0402 190.163 21.5193L190.209 21.3834V21.542H190.186ZM184.706 44.8458H184.728C184.887 44.9364 185.068 45.0723 185.226 45.2082C185.272 45.1402 185.294 45.0949 185.34 45.0269C185.136 44.959 184.909 44.9137 184.706 44.8684V44.8458ZM180.969 94.3069C181.105 94.1031 181.218 93.8993 181.059 94.1711C181.15 93.854 181.082 94.0805 181.014 94.3296H180.856H180.991L180.969 94.3069ZM172.25 62.1481C171.933 62.2613 171.616 62.3972 171.276 62.5105C171.344 62.6463 171.434 62.7823 171.502 62.8955C171.751 62.6237 172.001 62.3746 172.25 62.1028C172.34 62.4425 172.408 62.7596 172.567 63.3258C173.133 62.4199 173.382 61.899 172.25 62.1481ZM180.335 74.1511C181.15 73.6981 181.693 73.1093 181.014 72.0222C180.81 72.747 180.584 73.4716 180.38 74.1963C180.244 74.2869 180.131 74.3775 179.995 74.4681C180.086 74.5134 180.199 74.5814 180.289 74.6266C180.289 74.4681 180.289 74.3096 180.312 74.1511H180.335ZM170.076 72.0675C168.875 73.1546 168.717 74.604 168.513 76.0534C168.694 76.0987 168.875 76.1667 169.056 76.212C169.373 74.8305 169.713 73.4263 170.03 72.0448C170.053 71.909 170.076 71.7731 170.098 71.6372C170.098 71.7731 170.076 71.9316 170.053 72.0675H170.076ZM177.141 73.1546C175.918 74.2643 175.941 75.7137 175.873 77.1178C176.054 77.1631 176.213 77.1857 176.394 77.231C176.643 75.8496 176.87 74.4907 177.119 73.1093L177.187 72.9961V73.1546H177.141ZM192.836 41.5393L192.813 41.5619C192.338 41.879 191.636 42.1055 191.432 42.5584C191.047 43.4417 190.911 44.4608 190.684 45.412C190.118 45.9329 189.575 46.4537 189.008 46.9746C189.235 45.5026 189.439 44.0305 189.665 42.5584C188.193 44.4834 187.242 47.8352 187.378 49.3752C187.944 48.5373 188.488 47.7219 189.031 46.9293C188.918 48.3787 187.989 49.7375 188.556 51.4134C190.594 49.2167 191.115 47.654 190.639 45.3893C192.111 44.5287 192.383 42.9887 192.836 41.5393ZM171.616 93.2198L171.638 93.1972C171.412 93.5822 171.185 93.9899 170.8 94.6693C173.903 93.1972 174.197 92.9255 174.854 91.1364C173.654 91.9064 172.635 92.5631 171.616 93.2198ZM190.118 66.5643L190.096 66.587C190.345 66.519 190.616 66.4284 190.866 66.3605C191.975 66.1114 193.04 65.7264 193.13 64.3902C193.221 62.9181 191.794 62.8728 190.933 62.3973C190.05 61.9217 188.963 61.5593 188.216 62.5558C186.381 64.9337 185.611 67.6966 185.476 70.7314C186.766 70.1199 187.831 69.3952 188.533 68.1949C189.076 67.6514 189.62 67.0852 190.163 66.5416L190.118 66.5643ZM203.706 47.5861C203.525 46.8387 203.344 46.114 203.163 45.3666H203.14C202.665 44.6419 202.121 43.9173 201.691 43.1473C201.17 42.1961 200.74 41.1996 200.219 40.271C198.996 38.029 197.343 37.9158 195.893 39.954C195.689 40.2484 195.508 40.5655 195.372 40.9052C194.24 43.736 193.108 46.5896 192.021 49.4431C191.636 50.4396 191.409 51.4814 191.024 52.8175C192.655 53.4743 194.104 54.1085 195.621 54.6293C197.411 55.2408 199.222 55.739 201.034 56.3052L200.853 56.3505L201.011 56.2599C201.442 56.3504 201.895 56.5317 202.325 56.509C205.02 56.3505 206.469 53.9499 205.382 51.504C204.816 50.1905 204.25 48.8769 203.684 47.5634L203.729 47.6087L203.706 47.5861ZM231.472 35.4473C230.543 35.1302 229.751 34.6093 229.003 34.6772C227.486 34.7678 225.991 35.1755 224.496 35.4926C223.296 35.7417 222.368 36.5343 222.685 37.7346C222.956 38.7537 223.862 39.6143 224.564 40.4975C224.655 40.6108 225.47 40.407 225.493 40.3164C225.674 38.7764 227.101 39.0934 227.961 38.6405C229.252 38.0063 230.634 37.5308 231.472 35.4699V35.4473ZM164.278 99.6969C165.863 99.4705 167.562 98.5419 168.49 97.2737C168.853 96.7981 168.875 96.0734 169.238 94.8958C166.746 96.2093 164.731 97.0019 164.278 99.6969ZM168.739 66.0661C168.558 65.9981 168.354 65.9528 168.173 65.8848C166.973 67.4928 166.361 70.8219 166.996 73.5396C167.652 70.7087 168.196 68.3987 168.739 66.0661ZM167.335 45.2761C167.245 45.5479 167.154 45.8423 167.063 46.114C167.539 46.2726 168.037 46.4537 168.513 46.6123C168.603 46.3178 168.694 46.0234 168.807 45.729C168.332 45.5931 167.833 45.4346 167.358 45.2987L167.335 45.2761ZM183.143 91.544C182.826 91.2496 182.599 90.9552 182.509 90.9778C182.237 91.091 181.988 91.3401 181.739 91.5213C181.875 91.7025 182.056 92.0196 182.169 91.997C182.463 91.9517 182.713 91.7478 183.143 91.5213V91.544ZM177.391 70.3463L177.979 70.6181C178.115 70.2105 178.274 69.8028 178.41 69.3952C178.274 69.3272 178.138 69.2819 178.002 69.214C177.798 69.599 177.594 69.984 177.391 70.369V70.3463ZM179.565 65.5678C179.044 65.8622 178.795 65.9529 178.795 66.0208C178.817 66.2926 178.931 66.5643 178.998 66.8361C179.134 66.519 179.293 66.1793 179.565 65.5452V65.5678ZM169.781 99.9687C169.668 100.105 169.555 100.218 169.441 100.354C169.555 100.422 169.691 100.512 169.826 100.535C169.872 100.535 170.008 100.399 169.985 100.354C169.94 100.218 169.849 100.105 169.781 99.9687ZM208.213 74.287C208.145 74.4002 208.055 74.5134 207.987 74.6493C208.055 74.6946 208.191 74.7625 208.191 74.7625C208.281 74.6493 208.349 74.5361 208.417 74.4228C208.349 74.3775 208.281 74.3548 208.213 74.3096V74.287ZM174.56 96.9793C174.56 96.9793 174.446 96.8434 174.378 96.8661C174.311 96.8661 174.243 96.934 174.175 96.9793C174.265 97.0472 174.356 97.1151 174.446 97.1831C174.469 97.1151 174.514 97.0472 174.537 96.9793H174.56ZM172.544 98.2702L172.725 98.3834V98.1569L172.544 98.2475V98.2702ZM182.418 68.7157V68.5119L182.26 68.5799L182.418 68.7157ZM176.281 69.0555L176.19 69.214H176.349L176.281 69.0555Z" fill="#272727"/>
<path d="M32.4939 196.444C32.0636 197.079 31.6333 197.735 30.9539 198.777C30.6142 197.079 31.3615 196.241 31.973 195.357L31.9503 195.312C32.1542 195.697 32.3353 196.082 32.5392 196.444H32.5165H32.4939Z" fill="#272727"/>
<path d="M89.066 130.678C89.7001 129.364 90.3116 128.051 90.9457 126.737L91.5119 127.054C90.6966 128.254 89.8586 129.432 89.0433 130.632L89.066 130.655V130.678Z" fill="#272727"/>
<path d="M93.4131 113.828L94.5228 113.352V113.307C93.9792 114.372 93.4357 115.413 92.8922 116.478L92.9148 116.5C92.0995 115.617 92.2354 114.734 92.8469 113.805C93.0507 113.783 93.2545 113.783 93.4584 113.783L93.4131 113.828Z" fill="#272727"/>
<path d="M205.947 263.276C206.604 262.347 207.261 261.441 207.917 260.513C208.008 261.985 207.147 262.732 205.924 263.23L205.97 263.276H205.947Z" fill="#272727"/>
<path d="M35.3241 177.489C34.9164 176.492 34.622 175.496 35.7317 174.545C35.5958 175.518 35.4373 176.492 35.3014 177.466L35.3467 177.489H35.3241Z" fill="#272727"/>
<path d="M201.575 82.8241C202.232 82.4618 202.889 82.1221 203.749 81.6465C203.417 82.6581 202.685 83.0582 201.552 82.8468H201.575V82.8241Z" fill="#272727"/>
<path d="M197.339 86.7423C197.022 86.9688 196.705 87.1952 196.411 87.4443C196.275 87.2858 196.116 87.1273 195.98 86.9688C196.297 86.7196 196.614 86.4705 196.932 86.2214C197.067 86.4026 197.203 86.5837 197.339 86.7649V86.7423Z" fill="#272727"/>
<path d="M178.703 200.159L177.299 202.265C177.14 202.129 177.004 201.993 176.846 201.88C177.48 201.314 178.114 200.77 178.748 200.204C178.748 200.204 178.703 200.159 178.726 200.159H178.703Z" fill="#272727"/>
<path d="M35.7771 164.875C36.0942 165.441 36.3886 166.03 36.7056 166.596C35.4374 166.37 35.9583 165.487 35.8224 164.852L35.7771 164.875Z" fill="#272727"/>
<path d="M256.517 172.529C257.037 171.646 257.581 170.763 258.102 169.88L258.079 169.857C257.536 170.74 257.015 171.624 256.471 172.507L256.517 172.552V172.529Z" fill="#272727"/>
<path d="M202.617 263.276C203.726 263.276 204.836 263.276 205.968 263.276L205.923 263.231C204.994 264.431 203.794 264.001 202.639 263.797V263.842C202.662 263.639 202.662 263.458 202.662 263.254L202.617 263.299V263.276Z" fill="#272727"/>
<path d="M204.837 80.1066C205.765 79.3819 206.671 78.6798 207.6 77.9551L207.554 77.9099C206.648 78.6346 205.72 79.3592 204.814 80.0839L204.837 80.1066Z" fill="#272727"/>
<path d="M109.72 94.2394C110.263 93.3562 110.829 92.4956 111.373 91.6123L111.35 91.5671C110.807 92.4503 110.24 93.3335 109.697 94.1941L109.72 94.2167V94.2394Z" fill="#272727"/>
<path d="M250.492 48.0384C250.787 47.8798 251.081 47.7213 251.375 47.5854L251.466 47.9251C251.126 47.9477 250.787 47.993 250.447 48.0157H250.469L250.492 48.0384Z" fill="#272727"/>
<path d="M33.7618 177.671H33.5578C33.5578 177.671 33.5578 177.512 33.5805 177.444C33.5805 177.422 33.7165 177.444 33.7845 177.444C33.7845 177.512 33.7845 177.603 33.7845 177.671H33.7618Z" fill="#272727"/>
<path d="M260.842 233.926C260.118 233.382 259.37 232.816 258.646 232.273V232.318C259.37 232.862 260.095 233.405 260.82 233.949H260.865L260.842 233.926Z" fill="#272727"/>
<path d="M256.474 172.485C256.179 172.892 255.862 173.277 255.568 173.685C255.5 173.617 255.432 173.572 255.364 173.504C255.749 173.187 256.134 172.847 256.519 172.53L256.474 172.485Z" fill="#272727"/>
<path d="M170.867 113.738L170.731 113.874L170.685 113.693L170.867 113.738Z" fill="#272727"/>
<path d="M166.156 219.499L166.314 219.658L166.11 219.703L166.156 219.499Z" fill="#272727"/>
<path d="M71.0829 161.591C70.7885 161.432 70.4715 161.274 70.1771 161.138C70.2224 161.047 70.245 160.934 70.2903 160.844C70.5621 160.934 70.8112 161.047 71.0829 161.138L71.0603 161.115C71.0603 161.296 71.0603 161.455 71.0603 161.636L71.0829 161.614V161.591Z" fill="#272727"/>
<path d="M34.6909 200.431C34.6909 200.431 34.5322 200.431 34.4868 200.408C34.4415 200.363 34.4415 200.272 34.4188 200.204C34.5322 200.204 34.6455 200.204 34.7589 200.227C34.7589 200.295 34.7135 200.363 34.7135 200.431H34.6909Z" fill="#272727"/>
<path d="M198.858 84.9983C199.04 84.8623 199.221 84.7263 199.017 84.885C199.244 84.7943 199.017 84.885 198.813 84.9757L198.835 84.9983H198.858Z" fill="#272727"/>
<path d="M211.926 76.8683C211.745 76.959 211.564 77.0271 211.813 76.9137C211.541 76.9591 211.768 76.9137 211.972 76.9137L211.949 76.8683H211.926Z" fill="#272727"/>
<path d="M202.618 79.5631C202.074 79.7442 201.531 79.9255 200.987 80.1066C201.191 79.9028 201.395 79.699 201.576 79.5178L201.531 79.5631C201.893 79.5631 202.278 79.5631 202.64 79.5631H202.618Z" fill="#272727"/>
<path d="M51.744 204.19L51.7893 204.394L51.608 204.326L51.744 204.19Z" fill="#272727"/>
<path d="M261.341 164.875C260.979 165.237 260.594 165.622 260.232 165.985H260.277C260.277 165.6 260.277 165.215 260.277 164.852L260.232 164.898C260.617 164.898 261.002 164.898 261.364 164.898V164.852L261.341 164.875Z" fill="#272727"/>
<path d="M31.9723 195.357C32.1535 195.357 32.3347 195.335 32.5158 195.312C32.312 195.312 32.1308 195.312 31.927 195.312V195.357H31.9723Z" fill="#272727"/>
<path d="M39.0166 169.178C38.9486 169.314 38.9033 169.428 38.8806 169.473C38.9033 169.428 38.9713 169.314 39.062 169.201L39.0393 169.178H39.0166Z" fill="#272727"/>
<path d="M202.618 263.797C202.527 263.933 202.437 264.092 202.369 264.227C202.278 264.092 202.188 263.933 202.097 263.797L202.074 263.842C202.278 263.842 202.459 263.842 202.663 263.842L202.641 263.797H202.618Z" fill="#272727"/>
<path d="M50.973 202.333C50.973 201.812 51.0183 201.291 51.041 200.77H51.0183C51.0183 201.291 50.973 201.79 50.973 202.31V202.356V202.333Z" fill="#272727"/>
<path d="M97.2194 112.72V112.334C97.2194 112.334 97.2874 112.447 97.2648 112.493C97.2648 112.561 97.2194 112.606 97.1741 112.674L97.1967 112.697L97.2194 112.72Z" fill="#272727"/>
<path d="M102.63 96.3676L102.698 96.5036L102.676 96.3449L102.63 96.3676Z" fill="#272727"/>
<path d="M94.5237 113.353L94.5464 113.194L94.501 113.308L94.5237 113.353Z" fill="#272727"/>
<path d="M111.351 91.6117C111.509 91.2267 111.668 90.8644 111.849 90.4794L111.827 90.4567C111.668 90.8417 111.509 91.204 111.351 91.589L111.374 91.6344L111.351 91.6117Z" fill="#272727"/>
<path d="M258.579 168.612C258.42 169.019 258.239 169.427 258.08 169.835L258.103 169.857C258.261 169.45 258.443 169.042 258.601 168.634L258.579 168.589V168.612Z" fill="#272727"/>
<path d="M93.911 121.96L94.0485 121.845L93.9339 121.937L93.911 121.96Z" fill="#272727"/>
<path d="M69.4532 168.159L69.4073 168.273L69.499 168.182L69.4532 168.159Z" fill="#272727"/>
<path d="M112.459 89.8684C112.618 89.5287 112.799 89.189 112.958 88.8493V88.8266C112.776 89.1663 112.595 89.5061 112.437 89.8458L112.459 89.8684Z" fill="#272727"/>
<path d="M190.796 88.3294L190.888 88.2149L190.75 88.3524L190.796 88.3294Z" fill="#272727"/>
<path d="M32.5155 195.312C32.5155 195.697 32.5155 196.059 32.5155 196.444H32.5381C32.5381 196.059 32.5381 195.674 32.5381 195.312H32.5155Z" fill="#272727"/>
<path d="M71.673 162.226L71.7876 162.272L71.6959 162.203L71.673 162.226Z" fill="#272727"/>
<path d="M242.862 198.574C242.703 198.189 242.522 197.827 242.363 197.442L242.341 197.464C242.522 197.827 242.681 198.212 242.862 198.574Z" fill="#272727"/>
<path d="M50.9508 202.311L50.9281 202.469L50.9734 202.333L50.9508 202.311Z" fill="#272727"/>
<path d="M204.836 77.9099C204.451 77.9099 204.089 77.9099 203.704 77.9099V77.9325C204.089 77.9325 204.474 77.9325 204.859 77.9325L204.836 77.9099Z" fill="#272727"/>
<path d="M71.6728 160.504C71.4689 160.708 71.2651 160.912 71.0613 161.116L71.0839 161.139C71.2877 160.935 71.4916 160.731 71.6954 160.527L71.6728 160.504Z" fill="#272727"/>
<path d="M71.0613 161.614C71.2651 161.818 71.4689 162.021 71.6728 162.225L71.6954 162.203C71.4916 161.999 71.2877 161.795 71.0839 161.591L71.0613 161.614Z" fill="#272727"/>
<path d="M93.9339 121.936L93.911 122.073V121.959L93.9339 121.936Z" fill="#272727"/>
<path d="M92.3044 117.09C92.5082 116.886 92.6894 116.705 92.8932 116.501L92.8706 116.478C92.6667 116.682 92.4856 116.863 92.2817 117.067L92.3044 117.09Z" fill="#272727"/>
<path d="M96.6525 113.285C96.8337 113.104 97.0375 112.9 97.2187 112.696L97.1961 112.673C96.9922 112.854 96.8111 113.058 96.6072 113.239L96.6299 113.262L96.6525 113.285Z" fill="#272727"/>
<path d="M111.849 90.4791C112.053 90.2753 112.257 90.0715 112.461 89.8676L112.438 89.845C112.234 90.0488 112.03 90.2526 111.826 90.4564L111.849 90.4791Z" fill="#272727"/>
<path d="M255.363 192.051L255.294 192.097L255.363 192.051Z" fill="#272727"/>
<path d="M190.751 88.3506C190.569 88.3506 190.366 88.3053 190.184 88.2827H190.162C190.366 88.328 190.592 88.328 190.796 88.3506H190.751Z" fill="#272727"/>
<path d="M190.184 88.2824C189.98 88.0786 189.776 87.8748 189.573 87.671L189.55 87.6936C189.754 87.8974 189.958 88.1013 190.161 88.3051L190.184 88.2824Z" fill="#272727"/>
<path d="M201.554 82.8243L201.463 82.8472L201.577 82.8243H201.554Z" fill="#272727"/>
<path d="M197.749 81.6924C197.545 81.8962 197.341 82.1 197.16 82.2812L197.206 82.3038C197.409 82.1 197.591 81.9189 197.794 81.715V81.6697L197.749 81.6924Z" fill="#272727"/>
<path d="M169.508 209.444C169.485 209.263 169.485 209.082 169.508 208.9C169.508 209.104 169.508 209.285 169.508 209.489L169.553 209.444H169.508Z" fill="#272727"/>
<path d="M169.487 210.033C169.487 209.829 169.487 209.648 169.487 209.444L169.441 209.49C169.645 209.49 169.826 209.49 170.03 209.49V209.444C170.03 209.648 170.03 209.852 170.03 210.056L170.076 210.011C169.872 210.011 169.668 210.011 169.464 210.011H169.509L169.487 210.033Z" fill="#272727"/>
<path d="M250.425 211.596C250.607 211.596 250.81 211.641 250.992 211.641L251.014 211.618C250.81 211.618 250.584 211.596 250.38 211.573H250.403L250.425 211.596Z" fill="#272727"/>
<path d="M242.838 58.9093C242.657 59.0905 242.476 59.2717 242.294 59.4528L242.317 59.4755C242.498 59.2943 242.679 59.1132 242.861 58.9093L242.838 58.8867V58.9093Z" fill="#272727"/>
<path d="M220.056 198.618C219.15 197.35 218.221 196.059 217.315 194.791C217.338 194.066 217.361 193.342 217.383 192.617L217.361 192.64C217.542 192.617 217.723 192.594 217.904 192.572C218.629 194.587 219.353 196.603 220.078 198.618H220.056Z" fill="#272727"/>
<path d="M234.189 175.746L233.6 176.334C233.804 176.131 234.007 175.927 234.189 175.746Z" fill="#272727"/>
<path d="M232.556 176.833C232.353 177.037 232.149 177.24 231.968 177.422C232.171 177.218 232.375 177.014 232.556 176.833Z" fill="#272727"/>
<path d="M216.75 192.074C216.954 192.278 217.135 192.459 217.339 192.663C217.339 192.663 217.361 192.64 217.384 192.64C217.18 192.436 216.976 192.255 216.795 192.051L216.773 192.074H216.75Z" fill="#272727"/>
<path d="M180.334 212.751C180.334 212.547 180.334 212.366 180.334 212.162C180.537 212.162 180.719 212.162 180.922 212.162C180.719 212.366 180.537 212.547 180.334 212.751Z" fill="#272727"/>
<path d="M31.9723 131.765C32.7196 130.927 33.467 130.067 34.2144 129.229L34.6673 129.704C33.7614 130.384 32.8555 131.063 31.927 131.742L31.9497 131.765H31.9723Z" fill="#272727"/>
<path d="M36.3204 128.436L36.2975 128.574V128.482L36.3204 128.436Z" fill="#272727"/>
<path d="M68.9553 98.0662C68.7515 98.0662 68.5477 98.0662 68.3665 98.0662C68.5703 97.8624 68.7515 97.6812 68.9553 97.4774C68.9553 97.6812 68.9553 97.885 68.9553 98.0662Z" fill="#272727"/>
<path d="M34.1231 122.525C34.1231 122.321 34.1231 122.14 34.1231 121.936C34.5081 121.936 34.8931 121.936 35.2781 121.936C34.8931 122.14 34.5081 122.321 34.1231 122.525Z" fill="#272727"/>
<path d="M188.531 68.1496L188.44 68.1038L188.508 68.1496H188.531Z" fill="#272727"/>
</svg>
