<svg width="836" height="788" viewBox="0 0 836 788" fill="none" xmlns="http://www.w3.org/2000/svg">
<path d="M174.851 71.6011C182.289 71.6011 197.163 23.258 193.445 15.8206C189.726 12.1019 159.977 0.945801 156.258 0.945801C148.82 4.6645 148.82 12.1019 159.977 15.8206C171.133 19.5393 171.133 19.5393 133.946 53.0076C48.4156 119.944 11.2286 183.162 0.0725098 272.411V313.316C3.79121 324.472 7.5099 313.316 11.2286 283.567C14.9473 238.942 18.666 220.349 33.5408 190.599C52.1343 145.975 85.6025 105.069 126.508 71.6011C137.664 60.445 152.539 49.2889 159.977 41.8515C171.133 30.6954 182.289 30.6954 178.57 38.1328C174.851 53.0076 171.133 71.6011 174.851 71.6011Z" fill="black"/>
<path d="M654.563 681.468C684.313 651.719 721.5 581.063 732.656 529.002C736.375 514.127 743.812 491.815 747.531 476.94C754.968 458.346 758.687 432.316 762.406 410.003C777.281 313.317 758.687 216.631 717.781 168.288C710.344 160.851 706.625 153.413 706.625 153.413C706.625 149.695 714.063 142.257 721.5 138.538C740.094 123.664 740.094 123.664 766.124 123.664C784.718 127.382 792.155 123.664 792.155 119.945C792.155 116.226 784.718 116.226 769.843 116.226C747.531 116.226 747.531 112.508 754.968 108.789C758.687 101.352 762.406 101.352 766.124 105.07C773.562 112.508 803.311 112.508 803.311 105.07C803.311 101.352 795.874 101.352 788.437 101.352C773.562 101.352 769.843 97.6328 777.28 86.4767C777.28 82.758 780.999 82.758 784.718 82.758C795.874 86.4767 833.061 93.9141 833.061 93.9141C840.498 90.1954 829.342 82.758 814.467 79.0393C807.03 79.0393 795.874 75.3206 788.437 71.6019C780.999 64.1646 780.999 64.1646 784.718 53.0085C792.155 34.415 792.155 38.1337 784.718 38.1337C780.999 38.1337 777.28 41.8524 777.28 45.5711C773.562 53.0085 773.562 53.0085 773.562 45.5711C773.562 41.8524 769.843 41.8524 766.124 41.8524C766.124 41.8524 762.406 53.0085 758.687 64.1646C758.687 75.3206 754.968 86.4767 754.968 90.1954C747.531 93.9141 747.531 90.1954 751.25 75.3206C751.25 60.4459 754.968 49.2898 754.968 45.5711C758.687 38.1337 754.968 34.415 751.25 38.1337C747.531 38.1337 740.094 71.6019 740.094 90.1954C740.094 97.6328 736.375 108.789 732.656 108.789C728.937 112.508 728.937 105.07 732.656 82.758C732.656 60.4459 732.656 56.7272 728.937 56.7272C725.219 56.7272 725.219 60.4459 721.5 75.3206C717.781 127.382 714.063 127.382 702.906 138.538L691.75 145.976L676.876 134.82C643.407 108.789 565.315 75.3206 502.097 64.1646C468.629 56.7272 371.942 45.5711 338.474 45.5711C308.725 45.5711 301.287 45.5711 278.975 60.4459C264.1 64.1645 241.788 82.758 230.632 93.9141C200.882 123.664 156.258 183.163 148.821 212.912C145.102 224.069 137.665 242.662 133.946 250.099C115.352 287.286 93.0402 391.41 96.7589 450.909C96.7589 551.314 126.508 651.719 178.57 703.78C215.757 740.967 278.975 774.436 331.037 781.873C349.63 781.873 364.505 785.592 364.505 785.592C371.942 793.029 446.316 781.873 494.659 770.717C554.159 755.842 621.095 718.655 654.563 681.468ZM642.962 677.452C634.818 686.116 626.301 693.628 617.339 700.062C611.947 704.115 605.477 708.391 598.3 712.705L672.116 638.888C662.968 653.689 653.262 666.482 642.962 677.452ZM685.727 614.978C684.946 616.503 684.127 617.952 683.346 619.44L579.297 723.489C566.839 730.145 553.601 736.467 541.106 741.785L701.271 581.621C696.25 593.484 691.082 604.641 685.727 614.978ZM707.035 567.601L527.31 747.363C516.154 751.602 506.299 754.578 499.085 755.693L718.674 536.103C714.806 547.148 710.977 557.635 707.035 567.601ZM754.67 379.286L617.414 516.544C620.017 512.081 622.471 507.582 624.777 502.971C628.533 494.715 631.656 487.203 634.334 479.765L755.935 358.165C755.675 365.193 755.265 372.22 754.67 379.286ZM598.783 224.069L565.315 257.537C546.721 279.849 528.128 302.161 520.69 309.599C502.097 339.348 490.941 346.786 483.503 335.629C479.785 331.911 476.066 331.911 468.629 331.911C464.91 335.629 461.191 331.911 461.191 328.192C457.473 320.755 450.035 320.755 450.035 328.192C450.035 328.192 438.879 328.192 427.723 328.192C401.692 324.473 386.817 331.911 371.942 357.942C338.474 402.566 342.193 454.628 383.099 484.377C394.255 491.815 442.598 495.533 457.472 484.377C461.191 484.377 464.91 480.659 468.629 480.659C483.503 476.94 502.097 462.065 513.253 443.472C516.972 436.034 516.972 424.878 516.972 402.566C516.972 391.41 520.69 391.41 535.565 383.973C546.721 380.254 554.159 376.535 554.159 369.098C554.159 361.66 550.44 361.66 531.846 365.379C516.972 369.098 513.253 365.379 505.816 361.66C498.378 354.223 498.378 350.504 505.816 346.786C509.534 343.067 520.69 328.192 531.846 317.036C550.44 287.286 606.22 235.225 613.658 235.225C621.095 238.943 628.533 261.255 635.97 291.005C639.689 313.317 643.407 328.192 639.689 372.816C635.97 443.472 632.251 458.346 609.939 510.408C595.064 540.158 539.284 588.501 505.816 607.094C490.941 610.813 472.347 618.25 442.598 625.688C420.285 629.407 394.255 629.406 357.068 618.25C282.694 603.376 238.069 566.189 208.32 491.815C200.882 469.503 200.882 462.065 200.882 410.003V354.223L226.913 305.88C256.663 242.662 271.538 227.787 305.006 198.038C312.443 190.6 338.474 179.444 353.349 175.725C416.567 164.569 446.316 164.569 476.066 172.007L520.69 186.882C531.846 190.6 554.159 201.756 572.752 209.194L598.783 224.069ZM475.211 461.878C464.389 468.795 451.746 474.41 440.627 476.604L506.894 410.337C506.002 418.891 503.473 430.195 499.792 437.298L475.211 461.878ZM411.175 337.227C415.637 336.855 421.327 337.415 429.694 338.567L361.418 406.842C362.683 397.248 365.807 387.319 370.455 377.948L411.175 337.227ZM436.871 339.682C444.271 341.17 448.399 342.249 450.407 346.005L363.426 432.984C361.604 427.666 360.749 421.829 360.824 415.73L436.871 339.682ZM451.894 352.772C452.155 357.458 451.597 364.152 450.667 373.895L429.322 395.239C424.562 395.611 423.447 397.098 421.327 403.234L371.534 453.028C369.266 448.863 367.257 444.216 365.546 439.121L451.894 352.772ZM437.689 395.09L449.18 383.6C446.502 394.05 445.535 395.016 437.689 395.09ZM420.434 412.346C420.806 419.039 421.81 424.58 423.706 428.931L383.842 468.796C380.458 465.821 377.372 462.251 374.62 458.123L420.434 412.346ZM426.868 434.062C429.025 436.665 431.665 438.6 435.123 439.753C436.796 440.311 438.396 440.645 439.92 440.868L402.064 478.725C397.156 477.386 392.618 475.229 388.49 472.44L426.868 434.062ZM449.775 439.306C451.708 438.191 453.345 436.518 454.758 434.324L482.016 407.065C482.537 406.805 482.983 406.507 483.541 406.247C494.697 402.528 505.853 398.809 505.853 398.809C506.559 398.809 507.006 399.925 507.192 401.747L429.88 479.059C422.405 480.509 415.488 480.807 409.092 479.989L449.775 439.306ZM505.816 383.973C498.378 387.691 483.503 395.129 472.347 398.847L457.472 406.285V380.254C461.191 372.816 461.191 369.098 464.91 376.535C464.91 380.254 468.629 380.254 494.659 380.254L520.69 376.535L505.816 383.973ZM468.629 361.66C468.629 357.942 468.629 357.942 468.629 354.223C468.629 346.786 476.066 346.786 479.785 350.504C483.503 354.223 472.347 365.379 468.629 361.66ZM490.941 372.816L487.222 369.098C487.222 365.379 487.222 365.379 490.941 365.379C494.659 365.379 494.659 365.379 494.659 369.098L490.941 372.816ZM624.07 228.604C623.884 228.158 623.735 227.75 623.624 227.341C623.066 225.481 623.215 224.03 624.814 224.03C636.416 213.506 647.052 204.21 656.423 196.215L624.07 228.604ZM756.27 349.611L638.313 467.569C640.544 459.722 642.367 451.504 643.854 442.17L756.233 329.79C756.345 336.335 756.382 342.917 756.27 349.611ZM755.972 321.721L645.192 432.501C646.048 425.807 646.792 418.482 647.461 410.376L754.819 303.016C755.377 309.152 755.712 315.436 755.972 321.721ZM754.039 295.541L648.13 401.449C648.576 394.942 649.023 387.913 649.432 380.29L751.733 277.99C752.663 283.716 753.406 289.554 754.039 295.541ZM750.58 270.886L649.878 371.589C650.213 365.081 650.51 358.164 650.808 350.764L747.122 254.45C748.424 259.805 749.576 265.271 750.58 270.886ZM745.485 247.83L650.77 342.546C650.696 335.741 650.51 329.345 650.213 323.246L740.949 232.51C742.585 237.456 744.109 242.586 745.485 247.83ZM736.375 220.35C737.193 222.358 737.9 224.476 738.681 226.522L649.803 315.4C649.394 308.929 648.837 302.866 648.13 297.177L732.47 212.838C733.846 215.441 735.185 217.97 736.375 220.35ZM729.459 207.594L647.163 289.888C646.271 283.901 645.229 278.323 644.039 273.154L721.984 195.21C724.587 199.301 727.116 203.466 729.459 207.594ZM718.711 190.228L642.329 266.647C640.841 261.292 639.131 256.383 637.272 251.846L710.456 178.663C713.133 182.085 715.922 186.026 718.711 190.228ZM706.811 173.977L634.705 246.083C632.809 242.178 630.764 238.533 628.533 235.186C628.086 234.74 627.641 234.22 627.194 233.699L696.175 164.718C698.704 165.313 702.46 168.771 706.811 173.977ZM680.594 157.132C680.594 157.132 665.72 172.007 647.126 186.882L636.379 196.438L678.698 154.12C679.888 155.458 680.594 156.537 680.594 157.132ZM674.681 149.88L609.716 214.846L596.068 208.636L664.009 140.696C668.211 144.042 671.855 147.165 674.681 149.88ZM659.323 137.088L590.379 206.032L576.731 199.823L647.647 128.906C651.701 131.546 655.642 134.336 659.323 137.088ZM632.251 119.945C635.635 121.656 639.131 123.626 642.589 125.708L571.042 197.257C566.579 195.212 561.968 193.203 557.245 191.158L629.983 118.42C630.727 118.94 631.433 119.387 632.251 119.945ZM624.926 115.222L551.444 188.703C546.796 186.769 542.073 184.872 537.276 182.976L612.84 107.413C615.74 109.607 619.757 111.987 624.926 115.222ZM607.448 104.549L531.289 180.708C526.455 178.886 521.62 177.101 516.748 175.353L592.536 99.5666C599.341 101.872 604.51 103.694 607.448 104.549ZM586.362 97.5202L510.65 173.234C505.63 171.524 500.647 169.85 495.701 168.288L571.191 92.7974C576.731 94.4337 581.788 96.0328 586.362 97.5202ZM564.757 90.9762L489.416 166.354C484.173 164.755 479.004 163.268 473.983 161.929L548.916 86.996C554.419 88.2232 559.737 89.6003 564.757 90.9762ZM542.371 85.2111L467.364 160.219C461.711 158.806 456.283 157.579 451.114 156.575L526.826 80.8606C531.697 82.1993 536.83 83.6493 542.371 85.2111ZM520.393 79.0757L444.159 155.309C437.503 154.231 431.442 153.598 426.124 153.45L504.625 74.9484C509.571 76.1756 514.777 77.551 520.393 79.0757ZM497.97 73.3868L417.571 153.786C408.795 154.715 400.985 157.094 397.973 157.094C397.973 157.094 396.151 157.689 393.064 158.396L481.458 70.0023C486.924 71.0063 492.354 72.1225 497.97 73.3868ZM474.318 68.8874L383.061 160.144C379.714 160.553 375.959 160.813 371.942 160.813C368.633 160.813 365.286 161.035 361.902 161.444L456.729 66.6177C463.014 67.3242 468.815 68.0693 474.318 68.8874ZM449.217 65.875L351.899 163.193C341.189 165.647 330.255 169.961 319.508 175.687L430.847 64.3498C437.503 64.8704 443.602 65.3544 449.217 65.875ZM235.615 103.917C245.135 95.0667 255.51 86.9592 266.369 79.9309L201.812 144.489C210.663 130.097 222.302 116.3 235.615 103.917ZM180.169 174.385L285.706 68.8492C292.102 65.614 298.535 62.7877 305.006 60.4077C310.77 58.1021 315.084 56.5029 318.877 55.536L160.051 214.361C167.414 195.842 174.405 181.637 180.169 174.385ZM154.92 227.787L155.328 227.377L328.359 54.3467C333.045 54.3467 338.177 55.2388 345.8 56.7635L144.358 258.205C147.928 247.384 151.424 237.196 154.92 227.787ZM140.602 270.216L353.796 57.0249C358.704 57.3224 364.914 57.879 372.129 58.5484L132.198 298.479C134.95 288.847 137.739 279.402 140.602 270.216ZM129.037 309.896L379.64 59.2928C385.256 59.8506 391.317 60.4447 397.713 61.1141L122.083 336.744C124.315 327.782 126.62 318.784 129.037 309.896ZM119.443 347.641L405.225 61.8585C411.063 62.4535 417.088 63.0866 423.261 63.6816L296.527 190.413C282.694 200.788 269.678 213.395 258.373 227.341C256.886 229.163 255.436 231.022 254.023 232.919L113.679 373.263C115.501 364.822 117.398 356.268 119.443 347.641ZM111.596 383.6L238.367 256.83C237.4 258.541 236.508 260.251 235.615 261.962C233.83 265.383 232.157 268.878 230.632 272.373C227.843 280.778 222.935 289.182 219.067 295.988L107.209 407.846C108.51 400.037 109.96 391.93 111.596 383.6ZM104.196 428.597C104.643 425.064 105.163 421.383 105.683 417.664L208.952 314.396C203.448 324.734 199.283 334.439 196.085 347.12L103.527 439.679C103.676 435.923 103.862 432.167 104.196 428.597ZM103.341 448.12L193.817 357.644C192.59 364.338 191.548 371.886 190.656 380.662L103.898 467.42C103.527 460.838 103.341 454.367 103.341 448.12ZM104.494 475.117L189.875 389.736C189.838 390.294 189.763 390.814 189.726 391.372C189.28 398.214 188.945 404.648 188.685 410.784L106.428 493.042C105.647 486.981 104.977 480.992 104.494 475.117ZM107.432 500.293L188.462 419.262C188.313 426.29 188.387 432.836 188.611 438.972L110.295 517.288C109.217 511.599 108.287 505.908 107.432 500.293ZM111.671 524.204L189.094 446.818C189.541 453.177 190.21 459.089 191.177 464.593L115.278 540.492C113.939 535.063 112.749 529.634 111.671 524.204ZM116.839 547.148L192.515 471.473C193.742 476.902 195.23 481.96 197.052 486.794L121.042 562.804C119.555 557.635 118.141 552.392 116.839 547.148ZM122.901 569.237L199.432 492.706C200.994 496.202 202.705 499.623 204.601 502.933C204.973 504.086 205.382 505.164 205.754 506.243L127.624 584.372C125.951 579.389 124.389 574.332 122.901 569.237ZM129.707 590.584L208.022 512.268C210.29 518.032 212.038 521.564 212.038 521.564C212.038 522.197 212.745 523.832 214.01 526.175L134.987 605.197C133.128 600.363 131.38 595.529 129.707 590.584ZM137.256 611.147L216.947 531.455C219.03 535.025 221.67 539.265 224.534 543.728L143.056 625.205C141.086 620.631 139.115 615.944 137.256 611.147ZM145.586 630.93L227.806 548.71C230.334 552.54 233.012 556.446 235.615 560.128C235.69 560.239 235.801 560.386 235.875 560.498L235.615 560.76L151.982 644.392C149.788 640.078 147.668 635.541 145.586 630.93ZM154.771 649.896L239.371 565.295C242.681 569.758 245.767 573.625 248.259 576.302L235.653 588.948L161.873 662.726C159.456 658.598 157.077 654.321 154.771 649.896ZM171.17 677.452C169.088 674.403 167.005 671.204 164.96 667.857L252.126 580.691C254.952 583.741 258.56 586.901 262.65 590.024L172.806 679.869C172.248 679.088 171.691 678.27 171.17 677.452ZM176.302 684.63L267.373 593.558C271.166 596.235 275.22 598.875 279.384 601.404L185.227 695.562C182.252 692.216 179.24 688.571 176.302 684.63ZM189.615 699.43L284.553 604.491C288.904 606.982 293.292 609.362 297.457 611.445L200.474 708.429C196.718 705.454 193.11 702.479 189.615 699.43ZM205.307 711.886L303.072 614.121C306.456 615.72 309.617 617.098 312.443 618.25C313.968 618.808 315.53 619.403 317.129 619.961L217.022 720.068C212.968 717.428 209.1 714.675 205.307 711.886ZM222.004 723.34L323.191 622.154C328.062 623.828 333.082 625.464 338.176 627.026L234.313 730.89C230.148 728.436 226.021 725.906 222.004 723.34ZM239.631 733.828L344.573 628.885C349.78 630.41 355.023 631.86 360.154 633.162L252.572 740.744C248.221 738.55 243.907 736.245 239.631 733.828ZM258.114 743.459L366.774 634.798C372.463 636.136 378.004 637.291 383.247 638.22L271.761 749.707C267.187 747.773 262.65 745.653 258.114 743.459ZM277.562 752.124L390.35 639.335C395.928 640.116 401.023 640.563 405.374 640.563C406.601 640.563 407.828 640.525 409.092 640.488L291.953 757.627C287.193 755.954 282.397 754.094 277.562 752.124ZM298.163 759.672L417.645 640.19C425.046 639.781 432.408 639.075 439.697 637.997L313.596 764.097C308.576 762.832 303.444 761.382 298.163 759.672ZM327.318 766.998C325.05 766.626 322.707 766.142 320.365 765.658L449.7 636.323C458.737 634.575 467.588 632.306 476.327 629.592L337.099 768.82C333.566 768.262 330.293 767.631 327.318 766.998ZM344.313 769.787L488.858 625.241C502.022 620.295 514.704 614.234 526.789 607.169L362.497 771.46C356.101 771.051 350.002 770.494 344.313 769.787ZM370.306 771.945L551.667 590.584C570.261 576.527 586.958 559.903 601.052 541.198L753.852 388.398C753.109 395.947 752.179 403.495 751.063 411.044L389.606 772.502C383.099 772.465 376.628 772.279 370.306 771.945ZM397.824 772.538L749.539 420.824C748.2 429.042 746.638 437.223 744.854 445.367L418.203 772.019C411.695 772.354 404.816 772.501 397.824 772.538ZM427.017 771.46L742.437 456.04C741.656 459.276 740.912 462.548 740.094 465.746C738.494 471.658 736.858 477.46 735.222 483.15L449.627 768.783C443.268 769.936 435.532 770.827 427.017 771.46ZM479.785 759.561C479.785 759.561 470.712 762.573 460.745 765.92L731.801 494.863C728.826 504.867 725.814 514.461 722.802 523.758L489.268 757.291C485.326 758.295 481.941 759.561 479.785 759.561Z" fill="black"/>
</svg>
