<svg width="803" height="457" viewBox="0 0 803 457" fill="none" xmlns="http://www.w3.org/2000/svg">
<path d="M644.96 262.78C645.88 264.16 646.8 265.55 647.72 266.93C648.73 268.46 650.24 269.4 651.92 268.81C655.88 267.42 659.86 266.63 664.09 266.84C665.22 266.9 666.41 266.05 667.57 265.62L668.12 265.07C670.39 263.96 672.9 263.18 674.88 261.69C685.73 253.52 698.13 248.09 709.98 241.71C711.46 240.91 713.04 240.21 714.65 239.77C721.59 237.89 728.1 235.48 733.8 230.67C736.91 228.04 741.13 226.68 744.56 224.16C746.51 222.73 749.14 222 751.57 221.47C762.74 219.06 773.68 216.05 784.08 211.19C787.89 209.41 791.98 208.2 796.02 207C797.57 206.54 799.36 206.69 801.01 206.88C801.56 206.94 802.07 207.93 802.44 208.59C802.59 208.86 802.47 209.5 802.23 209.74C801.35 210.62 800.48 211.6 799.42 212.18C795.75 214.18 792 216.02 788.36 217.88C789.37 221.79 792.37 222.47 795.17 223.28C796.76 223.74 798.48 223.76 800.1 224.15C801.39 224.46 802.4 227.29 801.69 228.47C798.66 233.52 795.78 238.62 791.45 242.81C784.16 249.85 777.49 257.52 769.06 263.31C764.53 266.42 760.2 269.81 755.65 272.87C745.84 279.47 735.94 285.92 726.08 292.46C723.27 294.33 720.43 296.17 717.72 298.18C703.41 308.74 688.13 317.73 672.47 326.09C669.45 327.7 666.28 328.78 662.82 328.87L662.9 328.99C662.84 328.08 662.77 327.18 662.71 326.27C663.07 326.23 663.46 326.25 663.77 326.12C664.01 326.02 664.15 325.7 664.34 325.49C663.84 325.8 663.34 326.12 662.84 326.43C661.09 327.27 659.34 328.12 657.58 328.96L657.76 328.81C647.74 331.27 638.8 336.03 630.51 342.01C628.02 343.8 625.62 345.07 622.49 345.27C620.45 345.4 618.37 346.22 616.46 347.08C611.84 349.16 607.37 351.45 602.05 351.56C600.12 351.6 598.13 353.01 596.33 354.06C584.22 361.18 571.17 366.07 557.9 370.44C553.06 372.03 548.24 373.54 544.13 376.74C542.47 378.03 540.51 378.92 538.68 379.98C534.92 382.16 530.93 383.46 526.55 382.74C522.55 382.08 519.02 383.23 515.61 385.1C513.39 386.32 511.25 387.73 508.96 388.8C507.07 389.68 505.03 390.32 502.99 390.79C498.49 391.83 493.87 392.43 489.45 393.73C486.25 394.67 482.99 396.01 480.3 397.94C472.77 403.34 463.99 405.19 455.27 406.08C447.08 406.91 439.73 409.82 432.12 412.24C429.31 414.77 426.02 414.72 422.55 414.21C421.33 414.03 420.03 414.51 418.77 414.5C416.53 414.49 414.61 413.7 413.55 411.58C412.41 409.31 411.38 406.99 410.32 404.69C409.26 402.38 408.3 400.02 407.16 397.76C405.02 393.54 402.27 389.8 398 387.49C391.8 384.13 387.67 378.91 384.4 372.82C383.08 370.35 382.86 368.01 384.33 365.63C385.57 363.61 385.52 361.68 384.31 359.69C383.65 358.61 382.96 357.53 382.42 356.39C381.27 353.95 381.19 351.31 382.44 349.02C386.5 341.66 388.56 333.16 394.84 327.06C399.77 318.67 404.85 310.36 409.57 301.84C411.18 298.93 412.14 295.57 412.97 292.31C415.63 281.89 420.73 272.68 426.61 263.82C434.57 251.83 442.42 239.78 450.41 227.81C458.15 216.19 465.99 204.63 473.82 193.08C474.76 191.69 475.83 190.33 477.07 189.2C481.51 185.17 485.03 180.44 487.86 175.19C489.09 172.92 490.62 170.97 492.78 169.48C493.39 169.06 494 168.03 493.94 167.35C493.48 162.6 497.08 160.79 500.08 158.52L500.15 158.59C499.74 158.49 499.3 158.47 498.93 158.29C496.26 157.01 495.43 155.25 496.74 153.63C497.79 152.33 498.75 150.88 500.02 149.84C508.6 142.81 514.94 133.91 521.01 124.79C522.39 122.72 523.66 120.44 524.35 118.07C526.58 110.41 528.52 102.66 530.57 94.9399L530.65 95.02C526.92 97.16 523.9 100.17 521.33 103.48C514.79 111.88 506.47 118.41 498.65 125.46C495.51 128.29 491.88 130.21 487.56 131.18C483.96 131.99 480.64 134.06 477.19 135.57L477.32 135.7C476.82 135.08 476.41 134.32 475.79 133.85C474.16 132.61 472.55 132.45 471.42 133.31C468.24 135.73 465.08 138.19 461.91 140.63L462.01 140.72C462.6 138.06 463.2 135.39 463.95 131.99C461.49 133.26 459.75 134.18 457.99 135.05C457.66 135.21 457.16 135.25 456.82 135.12C455.92 134.8 455.68 134.09 456.09 133.17C457.23 130.59 458.39 128.03 459.53 125.45L459.39 125.62C459.39 124.68 459.39 123.73 459.39 122.79L459.51 122.92C461.15 119.6 463.25 116.64 463.46 112.53C463.69 108.02 465.27 103.57 466.42 99.1298C466.54 98.6598 467.7 98.3701 468.43 98.1801C468.72 98.1001 469.2 98.4502 469.49 98.7202C470.81 99.9302 471.56 101.52 470.98 103.19C470.3 105.14 469.01 106.86 468.3 108.8C467.9 109.9 467.95 111.26 468.15 112.45C468.27 113.14 468.99 113.99 469.63 114.23C470.27 114.47 471.27 114.21 471.93 113.85C472.63 113.47 473.29 112.79 473.67 112.08C475.78 108.11 478.67 105.44 483.53 105.74C483.77 105.76 484.29 105.14 484.27 104.84C484.21 104.04 484.11 103.14 483.68 102.51C483.24 101.87 482.44 101.41 481.71 101.05C480.97 100.68 480.14 100.44 479.33 100.3C476.31 99.7897 475.44 97.4699 474.74 94.9799L474.66 95.04C475.55 94.15 476.44 93.2601 477.33 92.3701L477.27 92.4501C478.28 91.6801 479.52 91.0901 480.25 90.1201C486.31 82.0201 493.94 75.17 499.07 66.35C501.03 62.98 503.34 59.9198 506.98 58.3998C513.48 55.6898 518.3 50.8897 522.41 45.5497C527.77 38.5697 534.03 33.6201 542.92 31.9301C546.56 31.2401 549.97 29.1402 553.38 27.4702C557.18 25.6102 560.82 23.46 564.59 21.54C570.3 18.64 575.53 15.2102 579.48 9.99017C582.64 5.81017 587.19 3.43015 591.89 1.47015C595.69 -0.119848 599.38 0.499977 602.64 3.03998C603.97 4.07998 605.21 5.24011 606.41 6.43011C609.48 9.45011 613.02 11.7399 617.16 12.9199C622.63 14.4799 626.81 18.0299 631.06 21.4999C633.17 23.2199 633.37 25.9397 631.53 28.2597C629.97 30.2197 628.23 32.0498 626.64 33.8598C626.2 36.8598 628.32 38.5899 629.64 40.6699C631.08 42.9399 631.57 45.2898 630.71 47.8998C629.91 50.2998 629.24 52.7398 628.42 55.1298C628.02 56.2998 627.71 57.8799 626.83 58.4599C623.25 60.8099 622.66 64.7202 621.32 68.2202C619.03 74.2002 616.23 79.8001 611.6 84.3901C607.92 88.0301 605.53 92.48 604.31 97.54L604.4 97.4501C600.93 100.19 598.9 103.76 598.04 108.09C597.55 110.57 596.88 113.03 596.17 115.46C595.32 118.37 593.95 120.98 591.03 122.36C587.33 124.11 585.42 127.21 583.94 130.88C582.05 135.58 579.96 140.22 577.64 144.73C575.12 149.64 572.78 154.51 571.7 160.02C570.64 165.49 567.4 170.12 564.61 174.82C561.37 180.26 557.59 185.38 554.07 190.66C551.69 194.24 548.6 197.05 545.12 199.54C541.59 202.06 539.07 205.43 537.64 209.55C535.57 215.54 531.89 220.87 530.6 227.17L530.69 227.12C525.69 227.83 525.67 227.85 525.49 232.38L525.54 232.26C524.25 234.41 522.59 236.41 521.72 238.72C519.04 245.85 516.44 252.92 510.63 258.32C509.58 259.3 509.15 261.35 509.1 262.93C509 266.08 507.84 268.57 505.85 270.93C503.68 273.5 501.68 276.21 499.78 278.98C498.8 280.41 498.5 282.2 499.89 283.59C501.64 285.34 501.89 287.21 500.75 289.29C496.08 297.83 493.47 307.19 490.02 316.21L489.89 316.08C491.97 315.73 494.11 315.59 496.12 314.99C506.24 311.98 516.31 308.8 526.42 305.77C530.46 304.56 534.56 303.54 538.64 302.47C541.09 301.83 543.6 301.37 546.01 300.61C556.73 297.25 557.35 296.91 566.72 297.28C570.87 297.45 574.11 296.3 577.05 293.57C578.41 292.3 580.11 292.14 581.64 293.27C583.42 294.58 585.32 295 587.53 295.08C596.27 295.43 603.19 292.38 607.7 284.72C610.67 285.82 613.38 286.32 616.29 284.8C623.03 281.29 629.9 278.03 636.65 274.54C639.35 273.14 641.47 271.16 641.74 267.78C641.92 265.59 642.81 263.71 645.05 262.81C645.04 262.87 644.96 262.78 644.96 262.78ZM558.61 359.51C558.61 359.51 558.49 359.38 558.48 359.38L558.61 359.51ZM505.24 90.0297C504.39 90.8797 503.53 91.7198 502.68 92.5698C502.42 92.7898 502.1 92.9699 501.92 93.2299C501.79 93.4199 501.84 93.7302 501.81 93.9902C502.06 93.4802 502.31 92.9601 502.56 92.4501C503.41 91.6001 504.25 90.7401 505.1 89.8901L505.24 90.0297ZM540.79 117.95C540.68 118.32 540.58 118.68 540.47 119.05C540.55 118.66 540.64 118.27 540.72 117.88L540.79 117.95ZM512.85 82.3901C512.14 82.7201 511.39 82.9999 510.74 83.4199C510.59 83.5199 510.67 84.3698 510.75 84.3798C512.47 84.7098 512.31 83.1997 512.75 82.2797L512.85 82.3901ZM576.32 100.03C578.14 97.2897 579.98 94.5597 581.76 91.7997C581.9 91.5797 581.62 90.7697 581.55 90.7797C580.83 90.7997 579.89 90.66 579.43 91.06C576.63 93.46 576.45 96.8001 576.44 100.16L576.32 100.03ZM500.14 84.9399C497.28 86.6199 494.27 88.1098 491.62 90.0698C490.42 90.9598 489.58 92.7199 489.23 94.2299C489.01 95.1699 489.83 96.5299 490.52 97.4399C491.17 98.2999 493.27 97.9002 493.82 96.9702C496.15 93.0502 498.98 89.39 500.01 84.81C500.02 84.81 500.14 84.9399 500.14 84.9399ZM493.21 378.4C490.66 377.96 488.68 379.71 486.54 380.85C485.98 381.15 485.45 382.32 485.61 382.89C485.76 383.41 486.9 384.01 487.55 383.95C490.11 383.69 492.16 382.29 493.93 380.48C494.17 380.23 494.29 379.66 494.19 379.33C494.08 378.99 493.62 378.77 493.21 378.4ZM510.95 74.1899C510.51 75.1099 510.75 75.8599 511.72 75.9599C513.02 76.0899 513.92 75.3797 514.14 74.0497C514.19 73.7397 514 73.2697 513.76 73.0497C513 72.3297 511.77 72.8599 510.95 74.1899ZM519.98 66.2402C520.17 66.5702 520.38 67.2099 520.53 67.1899C522.11 67.0599 524.2 66.9998 522.72 64.6098C522.28 63.8998 520.35 65.0602 519.98 66.2402ZM507.02 376.84C507.34 377.77 507.95 378.04 508.76 377.51C509.04 377.33 509.28 376.93 509.33 376.59C509.46 375.67 508.93 375 508.11 375.24C507.63 375.39 507.37 376.28 507.02 376.84Z" fill="#353F44"/>
<path d="M210.22 308.55C210.94 310.02 211.78 311.45 212.34 312.98C212.65 313.83 211.99 314.64 211.06 314.57C209.05 314.42 207.05 314.05 205.04 313.86C204.85 313.84 204.48 314.46 204.4 314.83C204.32 315.21 204.37 315.75 204.6 316.02C207.21 319.2 209.72 322.48 212.55 325.46C215.42 328.49 218.93 330.67 223.11 331.55L222.94 331.45C226.3 333.92 229.67 336.37 233.01 338.88C234 339.62 234.9 340.5 235.81 341.35C236.85 342.32 237.09 344.96 236.11 345.97C232.94 349.26 229.85 352.66 226.44 355.68C224.95 357 222.82 357.77 220.85 358.37C216.86 359.58 212.8 360.57 208.73 361.52C207 361.92 205.65 362.75 204.61 364.11C203.05 366.14 201.05 366.15 199.03 365.17C197.19 364.27 195.45 363.13 193.77 361.95C192.4 360.98 192.51 359.63 194.06 357.61C194.31 357.29 194.71 357.09 195.04 356.83C195.9 357.69 196.77 358.56 197.63 359.42C198.73 359.65 199.82 359.99 200.92 360.02C201.12 360.03 201.39 358.79 201.53 358.1C201.55 358.02 200.79 357.59 200.58 357.7C199.54 358.23 198.56 358.89 197.56 359.5C196.7 358.64 195.83 357.77 194.97 356.91C194.13 353.41 192.43 350.99 188.31 351.5C187.51 351.6 186.7 351.57 185.9 351.6C184.69 351.64 183.49 351.68 182.28 351.72L182.4 351.84C181.54 349.92 180.49 348.14 178.56 347.1C176.73 346.12 174.97 344.9 173.01 344.31C165.29 341.97 159.28 336.71 152.61 332.6C151.27 331.77 150.43 330.13 149.36 328.87L149.26 328.97C153.46 328.67 157.5 329.41 161.48 330.73C165.02 331.9 168.61 332.89 172.18 333.95L172.1 334.03C173.66 331.58 175.22 329.13 176.92 326.46C175.44 322.78 171.63 321.49 168.83 319.16C166.16 316.93 162.79 316.4 159.41 316.14L159.51 316.24C158.96 315.16 158.6 313.91 157.82 313.01C154.63 309.32 151.32 305.73 148.04 302.11C145.54 299.34 142.55 297.28 139.07 295.94C138.21 295.07 137.35 294.21 136.5 293.34C136.13 293.23 135.77 293.13 135.4 293.02C135.8 293.1 136.19 293.17 136.59 293.25C137.46 294.11 138.33 294.96 139.2 295.82C139.77 298.66 140.41 301.5 140.81 304.36C140.86 304.74 139.77 305.59 139.12 305.68C138.38 305.79 137.46 305.46 136.79 305.04C134.27 303.49 132.15 301.56 130.53 298.98C129.69 297.65 128.1 296.79 126.82 295.77C126.51 295.52 126.06 295.42 125.67 295.27C114.66 290.97 104.89 284.6 95.9099 277.02C94.0599 275.46 92.87 273.12 91.05 270.73C87.86 269.89 84.2301 268.94 80.5901 267.98L80.73 267.84C81.12 268.59 81.3399 269.53 81.9299 270.05C89.5099 276.66 96.4401 284.06 105.37 289.03C106.82 289.84 107.97 291.26 107.99 293.11C108 293.91 107.76 294.78 107.4 295.51C106.98 296.38 105.98 296.67 105.33 295.99C102.74 293.29 98.61 295.07 95.99 292.65C93.81 290.65 91.78 288.47 89.49 286.6C87.54 285.01 85.5 283.29 83.2 282.43C78.32 280.6 74.3 277.62 70.46 274.26C67.04 271.27 62.9299 269.99 58.6499 271.04C50.4599 273.06 42.7001 271.04 34.8601 269.36C33.7101 269.11 32.1399 268.62 31.6599 267.76C29.8299 264.45 26.49 263.6 23.52 262.05C22.07 261.29 20.7501 260.16 19.6101 258.97C19.1501 258.49 18.94 257.2 19.26 256.64C20.07 255.22 21.0901 253.82 22.3101 252.75C25.2001 250.23 25.3601 248 22.3401 245.5C21.3801 244.71 20.18 243.91 19.74 242.85C18.59 240.08 16.2 239.23 13.74 238.74C9.60999 237.91 5.4 237.51 1.25 236.76C0.73 236.67 0.0700684 235.52 0.0700684 234.86C0.0700684 234.2 0.770029 233.49 1.28003 232.9C1.53003 232.61 2.01992 232.49 2.41992 232.38C3.23992 232.16 4.05989 231.87 4.88989 231.83C11.5399 231.5 17.0299 228.83 21.6299 223.6C16.4599 220.87 10.1901 220.58 5.83008 216.8C6.12008 214.28 8.0399 213.8 9.1499 212.61C10.8399 210.79 11.12 207.55 13.99 207.04C18.03 206.32 21.6299 203.11 26.1799 205.02C28.2299 205.88 30.3301 204.88 32.3401 204.26L32.24 204.36C32.32 201.5 33.37 198.76 32.51 195.76C31.11 190.86 31.3899 190.75 37.4299 191.55L37.3401 191.64C39.1901 190.38 41.1399 189.84 43.1899 191.1C45.3299 192.41 47.39 193.86 49.55 195.15C50.8 195.9 53.3299 195.03 53.9399 193.72C54.2899 192.96 54.68 192.17 54.79 191.36C55.6 185.55 59.06 185.78 63.01 186.4C65.91 186.86 68.7499 187.66 71.6299 188.26C73.6399 188.68 74.38 187.87 75.26 184.56C75.36 184.17 75.6201 183.82 75.8201 183.44C78.3501 182.46 80.74 183.75 83.2 183.95L83.1399 184.01C83.6299 181.93 84.5701 180.14 86.8401 179.68C92.4001 178.54 97.98 177.5 103.55 176.43L103.47 176.29C102.08 178.32 100.66 180.32 99.3201 182.38C98.3501 183.87 99.0801 185.35 101.12 186.03C101.89 186.29 102.73 186.35 103.54 186.5C104.89 188.15 106.31 189.75 108.48 190.29C110.63 190.83 112.85 190.56 114.58 189.32C122.1 183.91 129.94 178.96 137.57 173.72C137.91 173.48 138.21 173.16 138.48 172.84C143.18 167.32 148.84 162.91 154.61 158.6C155.57 157.89 156.15 156.64 156.8 155.57C156.98 155.28 156.94 154.56 156.72 154.37C156.13 153.87 155.31 153.15 154.71 153.25C153.51 153.45 151.93 153.82 151.33 154.69C146.37 161.86 138.99 166.1 132.08 170.9C127.56 174.03 122.95 177.04 118.43 180.18C113.86 183.36 109 185.81 103.42 186.59C104.67 183.96 106.84 182.29 109.21 180.71C112.52 178.5 115.69 176.08 118.92 173.75L118.73 173.9C122.98 171.89 126.85 169.43 129.66 165.48C131.14 163.4 132.58 161.43 133.14 158.83C133.48 157.28 134.29 155.53 135.45 154.5C143.32 147.48 150.63 139.82 159.33 133.74C162.09 131.81 164.76 129.62 167.03 127.15C172.25 121.46 178.84 117.58 184.99 113.13C185.98 112.42 187.29 112.03 188.51 111.78C190.7 111.34 192.01 114.43 194.29 113.5C196.21 112.71 197.97 111.52 199.84 110.59C200.13 110.45 200.87 110.62 201.01 110.87C201.4 111.56 202 112.53 201.78 113.1C200.88 115.45 199.93 117.83 198.59 119.94C196.78 122.78 194.59 125.38 192.57 128.09C191.71 128.95 190.85 129.81 189.99 130.68C183.63 131.73 178.14 134.33 173.84 139.33C172.23 141.21 170.09 142.63 168.24 144.31C167.31 145.15 166.61 146.18 167.02 147.54C167.27 148.35 169.31 148.53 170.43 147.83C177.88 143.17 185.06 138.2 189.86 130.56C190.72 129.7 191.58 128.84 192.44 127.98C197.6 126.79 200.8 123 203.89 119.17C206.2 116.31 208.21 113.21 210.36 110.22L210.23 110.35C214.02 109.72 217.46 108.15 220.44 105.84C229.55 98.7698 240.28 95.3599 251.08 92.1499C255.87 90.7299 260.52 89.1502 265.08 86.4102C263.65 83.9102 262.44 81.7799 261.23 79.6499L261.12 79.79C266 78.74 270.89 77.7002 275.74 76.6602C278.59 79.0802 279.47 82.5399 279.63 85.6099C279.84 89.4799 280.48 93.03 282.14 96.46C283.54 99.36 283.11 102.23 281.68 104.9C280.51 107.09 278.97 109.1 277.57 111.17C275.47 114.28 273.34 117.38 271.23 120.48L271.42 120.33C268.82 121.46 266.24 122.66 263.59 123.65C263.01 123.87 261.89 123.58 261.51 123.12C261.09 122.62 260.96 121.55 261.19 120.9C261.87 118.99 262.8 117.17 263.62 115.32L263.7 115.4C263.3 115.53 262.86 115.6 262.51 115.81C261.44 116.45 260.09 116.92 259.4 117.85C255.11 123.61 247.94 126.49 244.42 133.02C243.22 135.24 241.91 137.46 240.25 139.33C238.91 140.85 237.12 142.21 235.25 142.97C232.54 144.07 229.61 144.64 226.73 145.27C224.56 145.75 222.81 146.74 221.61 148.61C220.22 150.78 218.3 152.32 216.23 153.84C214.25 155.29 212.97 157.79 210.9 159C208.83 160.21 206.15 160.38 203.81 160.99C202.93 162.82 201.95 164.26 201.51 165.85C200.07 171.09 196.29 174.42 192.16 177.39C190.89 178.3 189.02 178.39 187.42 178.86L187.54 178.97C186.59 178.97 185.65 178.97 184.7 178.97L184.8 178.87C182.63 180.14 180.94 181.88 179.68 184.05L179.8 183.93C177.75 184.28 175.71 184.64 173.28 185.06C172.88 185.86 172.13 186.89 171.83 188.03C170.79 192.09 168.57 194.79 164.23 195.52C163.6 195.63 163 196.46 162.58 197.08C162.16 197.7 164.02 198.76 165.58 198.73C167.27 198.7 168.97 198.79 170.63 198.57C185.28 196.67 199.89 194.52 214.46 192.01C231.55 189.06 248.3 184.74 265.06 180.44C275.3 177.81 285.37 174.66 294.63 169.35C297.19 167.88 299.91 166.68 302.62 165.5C315.06 160.1 326.46 152.81 338.16 146.06C339.99 145.01 341.79 143.89 343.67 142.94C345.91 141.81 347.62 142.26 348.86 144.66C349.55 145.99 351.01 145.83 352.13 145.15C355.02 143.4 357.82 141.51 360.68 139.71C361.98 138.89 363.98 139.03 363.97 139.92C363.96 141.06 363.27 142.2 362.87 143.34C362 144.2 361.14 145.07 360.28 145.93L360.2 145.84C361.06 144.97 361.92 144.11 362.78 143.24C366.41 143.07 369.24 141.74 370.95 138.26C373.25 133.57 376.53 129.82 381.73 128.2C382.07 128.1 382.58 128.24 382.88 128.45C383.18 128.65 383.56 129.15 383.49 129.4C382.97 131.41 382.28 133.38 381.79 135.4C381.4 136.98 383.46 138.54 385.06 138.14C388.43 137.3 391.26 135.51 393.96 133.44C397.65 130.62 401.3 127.72 405.02 124.94C406.36 123.94 407.79 122.54 409.3 122.38C413.96 121.87 416.77 118.74 419.87 115.88C423.28 112.72 426.7 109.57 430.19 106.5C432.17 104.76 433.51 102.7 434.01 100.11L433.91 100.19C437.38 101.06 440.38 102.35 439.9 106.81C439.86 107.22 439.88 107.66 439.98 108.05C440.08 108.43 440.25 109.05 440.49 109.1C441.22 109.25 442.33 109.52 442.71 109.14C450.75 101.17 459.38 93.8598 467.81 86.3198C471.34 83.1598 475.14 80.7598 479.8 79.8198L479.7 79.7202C476.54 85.2402 472.01 89.3399 466.76 92.8599C461.2 96.5899 456.32 101.05 454.25 107.77L454.39 107.63C453.85 109.2 453.22 110.74 452.77 112.33C451.9 115.48 451.78 115.61 448.44 115.31C447.61 115.24 446.79 114.9 445.96 114.89C443.81 114.86 442.15 116.87 442.29 119.19C442.42 121.37 444.09 123.68 445.82 123.92C447.06 124.09 448.35 124.29 449.57 124.13C452.21 123.78 454.59 124.47 456.91 125.57L456.81 125.45C455.86 127.73 454.24 129.41 452.17 130.7C449.48 132.38 446.8 134.08 444.12 135.76L444.25 135.63C442.22 137.72 440.35 140 438.12 141.83C436.06 143.51 433.83 143.66 431.29 141.9C428.78 140.15 426.49 141.19 425.47 143.89C425.18 144.66 425.02 145.49 424.83 146.3C424.73 146.71 424.7 147.13 424.61 147.53C423.94 150.8 421.6 152.38 418.7 153.39L418.83 153.52C418.78 151.79 418.73 150.07 418.67 148.34L418.78 148.45C417.13 148.1 415.34 147.76 414.08 149.08C412.09 151.17 410.27 153.44 408.52 155.74C407.37 157.25 407.67 158.78 408.97 160.2C409.49 160.77 409.73 161.62 410.09 162.33C408.18 165.98 406.27 169.63 404.34 173.27C404.15 173.63 403.87 174.01 403.53 174.2C402.83 174.58 401.96 175.23 401.34 175.07C400.25 174.79 399.14 174.13 398.33 173.34C397.83 172.85 397.68 171.8 397.71 171.02C397.79 169.37 398.09 167.73 398.3 166.09C399 165.89 399.74 165.78 400.39 165.48C401.34 165.03 401.41 164.42 400.61 164.05C400.39 163.95 399.87 164.21 399.66 164.45C399.19 165 398.84 165.64 398.43 166.25C393.23 165.9 388.56 166.62 384.61 170.72C383.01 172.38 380.12 172.83 377.8 173.78C372.36 176 366.85 177.99 362.07 181.62C359.76 183.37 356.83 184.28 354.31 185.78C351.07 187.71 347.96 189.86 344.79 191.91C341.1 194.29 338.71 197.64 337.41 201.8L337.34 201.73C337.74 201.87 338.16 201.98 338.53 202.17C341.08 203.46 342.43 205.42 341.56 208.32C340.72 211.15 339.67 213.92 338.71 216.7C336.57 218.75 334.53 220.9 332.28 222.8C331.02 223.86 329.45 225.1 327.95 225.21C323.9 225.51 320.86 227.73 317.54 229.58C310.5 233.49 303.26 236.94 295.48 239.2C290.62 240.61 285.85 242.31 281.03 243.82C280.75 243.91 280.21 243.56 279.97 243.27C279.75 242.99 279.55 242.33 279.7 242.17C281.95 239.71 284.26 237.31 286.56 234.89L286.4 234.77C287.29 234.78 288.18 234.8 289.08 234.81L289.05 234.83C292.62 233.59 296.19 232.36 299.76 231.11C302.23 230.25 304.22 228.66 305.58 226.49C306.17 225.56 306.53 223.98 306.14 223.04C305.45 221.39 304.85 220.06 306.12 218.44C306.93 217.41 307.15 216.06 306.13 215.06C304.57 213.53 302.59 212.58 300.41 213.22C298.84 213.69 297.37 214.63 295.98 215.56C293.19 217.43 290.55 219.56 287.71 221.35C285.59 222.69 283.24 223.68 281 224.83L238.59 236.9C235.66 236.94 232.72 237.05 229.79 236.99C226.5 236.92 224.37 235.02 222.9 232.23L222.99 232.32C215.79 238.94 206.44 240.36 197.51 242.67C193.86 243.62 190 244.12 186.22 244.18C170.99 244.42 156.05 247.76 140.86 248.38C140.05 248.41 139.22 248.77 138.47 249.12C138.14 249.27 137.8 249.76 137.76 250.13C137.65 251.13 138.21 251.78 139.24 251.84C140.07 251.88 140.92 251.72 141.76 251.7C145.15 251.62 146.42 252.3 145.96 254.72C145.15 258.99 147.27 262.06 149.18 265.33L149.31 265.21C148.44 266.08 147.57 266.95 146.7 267.82L146.66 267.86C145.78 267.88 144.91 267.91 144.03 267.93C142.36 267.07 140.7 266.22 139.03 265.36C138.16 264.52 137.29 263.69 136.42 262.85C136.43 261.96 136.44 261.08 136.46 260.2L136.53 260.27C136.52 261.11 136.52 261.95 136.51 262.79C137.38 263.63 138.24 264.46 139.11 265.3C140.78 266.14 142.45 266.98 144.13 267.82C144.99 268.69 145.84 269.57 146.7 270.44L146.63 270.36C147.26 270.99 147.89 271.63 148.53 272.26C149.02 272.65 149.51 273.04 150 273.42C151.48 274.13 152.96 274.84 154.43 275.56L154.26 275.39C155.3 276.71 156.21 278.16 157.39 279.34C160.13 282.06 163.07 284.31 167.31 284.26C168.91 284.24 170.52 285.2 172.12 285.72L172.03 285.63C171.32 288.23 171.77 290.53 173.9 292.32C178.02 295.79 182.54 298.64 187.39 301L187.27 300.88C188.91 302.79 190.45 304.79 192.21 306.58C193.76 308.16 195.76 308.98 197.91 307.91C200.23 306.75 202.63 306.17 205.18 306.08L205.07 305.97C206.8 306.85 208.53 307.73 210.26 308.61L210.22 308.55ZM339.9 171.23C340.75 170.38 341.6 169.53 342.46 168.69C344.13 167.85 345.81 167.01 347.48 166.18C348.34 165.32 349.2 164.45 350.07 163.59L350.19 163.71C349.33 164.57 348.47 165.44 347.61 166.3C345.92 167.12 344.23 167.95 342.55 168.77C341.7 169.62 340.86 170.48 340.01 171.33L339.9 171.23ZM370.46 158.62C369.61 159.48 368.76 160.33 367.91 161.19L367.83 161.11C368.69 160.26 369.54 159.41 370.4 158.56L370.46 158.62ZM156.92 184.07C155.75 184.52 154.47 184.8 153.43 185.45C150.72 187.14 150.25 188.48 150.97 191.84C151.14 192.65 151.56 193.41 151.87 194.2C151.63 194.42 151.34 194.6 151.17 194.86C151.04 195.05 151.06 195.33 151.01 195.58C151.25 195.08 151.49 194.58 151.73 194.07C152.52 193.87 153.33 193.74 154.08 193.45C156.17 192.64 157.38 191.13 157.28 188.82C157.21 187.2 156.98 185.59 156.83 183.97C157.69 183.11 158.56 182.26 159.42 181.4C164.23 181.34 168.43 179.77 172.31 176.85C176.71 173.54 180.91 170.05 184.82 166.19L184.9 166.27C182.37 165.45 180.09 166 178.01 167.55C171.83 172.18 165.67 176.84 159.5 181.48C158.64 182.35 157.78 183.21 156.92 184.07ZM311.93 196.64C314.62 193.53 316.83 190.03 321.14 188.6C324.31 187.55 326.87 185.29 328.8 182.47C329 182.18 329.05 181.41 328.88 181.29C328.26 180.85 327.32 180.13 326.83 180.32C320.6 182.83 315.38 186.92 310.41 191.32C309.43 192.19 309.84 193.66 310.57 194.77C311.02 195.46 311.56 196.1 312.06 196.76L311.93 196.64ZM319.65 166.3C308.7 168.28 299.35 173.69 290.44 180.01C289.82 180.45 289.44 181.32 289.09 182.05C288.94 182.37 289.04 182.91 289.2 183.27C289.37 183.62 289.73 183.95 290.08 184.12C290.43 184.29 290.96 184.41 291.29 184.27C301.72 179.84 311.29 174.05 319.51 166.16L319.65 166.3ZM299.31 196.8C298.52 197.07 297.6 197.16 296.96 197.63C290.47 202.44 283.12 205.33 275.42 207.47C274.63 207.69 273.89 208.11 273.12 208.43C272.04 208.88 271.2 210.53 271.52 211.54C272.01 213.04 274.06 214.72 275.18 214.53C275.99 214.39 276.88 214.41 277.6 214.07C285.12 210.43 292.62 206.73 300.12 203.03C300.47 202.86 300.85 202.49 300.94 202.14C301.14 201.37 301.46 200.44 301.2 199.79C300.74 198.66 299.87 197.69 299.17 196.65C299.17 196.66 299.31 196.8 299.31 196.8ZM317.07 205.89C316.59 208.95 316.16 210.97 316.03 213.01C315.99 213.64 316.64 214.6 317.23 214.92C317.83 215.24 318.97 215.24 319.5 214.86C322.51 212.73 325.44 210.49 328.29 208.17C328.71 207.83 328.65 206.79 328.64 206.08C328.64 205.86 328.03 205.47 327.7 205.48C324.45 205.56 321.19 205.72 317.07 205.89ZM433.3 129.37C433.63 129.86 434.01 130.45 434.04 130.44C435.06 129.87 436.17 129.38 436.97 128.58C437.41 128.14 437.31 127.16 437.46 126.43C436.74 126.47 435.78 126.24 435.36 126.61C434.51 127.38 433.94 128.47 433.3 129.37ZM228.86 223.25C228.54 223.22 228.17 223.09 227.85 223.16C226.7 223.42 226.69 223.8 227.83 224.12C228.14 224.21 228.54 224.12 228.84 223.99C228.94 223.96 228.86 223.52 228.86 223.25ZM226.74 343.39L227.17 342.62L226.48 342.49L226.74 343.39Z" fill="#353F44"/>
<path d="M774.72 206.83C768.63 205.53 763 207.53 757.42 209.43C753.42 210.78 749.57 212.64 745.2 212.25C744.86 212.22 744.43 211.78 744.29 211.43C744.15 211.08 744.22 210.57 744.36 210.19C744.5 209.82 744.79 209.43 745.12 209.21C757.08 201.22 770.01 199.34 783.82 203.15C784.92 203.45 784.77 204.91 783.45 206.25C783.17 206.54 782.72 206.66 782.34 206.86L782.42 206.95C779.81 204.92 777.19 204.63 774.57 206.93L774.72 206.83Z" fill="#353F44"/>
<path d="M363.35 193.48C363.77 193.44 364.19 193.4 364.6 193.36C365.87 193.25 367.19 193.28 367.65 194.7C367.88 195.41 367.8 196.5 367.39 197.09C364.76 200.88 362.05 204.6 359.23 208.25C358.92 208.65 357.79 208.45 357.05 208.43C356.98 208.43 356.74 207.58 356.9 207.3C358.45 204.62 357.24 202.82 355.54 200.61C353.46 197.9 355.19 194.34 358.32 193.87C359.15 193.75 359.99 193.66 360.82 193.6C361.66 193.54 362.51 193.52 363.35 193.48Z" fill="#353F44"/>
<path d="M420.88 165.79C423.08 162.15 426.14 159.2 429.54 156.86C434.42 153.5 438.44 149.38 442.2 144.91C442.72 144.29 443.51 143.89 444.17 143.38L444.05 143.23C443.91 145.3 444.13 147.48 443.52 149.4C442.93 151.29 441.88 153.43 440.37 154.57C435.06 158.54 429.48 162.14 423.96 165.82C423.3 166.26 422.4 166.36 421.61 166.62L420.88 165.79Z" fill="#353F44"/>
<path d="M103.54 176.45C104.56 175.15 105.4 173.66 106.62 172.6C110.05 169.62 113.67 166.88 117.13 163.94C119.11 162.26 121.33 161.37 123.89 161.21L123.76 161.08C121.66 165.2 119.01 169.1 118.7 173.92L118.89 173.77C116.52 174.22 114.07 174.44 111.79 175.18C109.04 176.07 106.3 176.45 103.45 176.31L103.54 176.45Z" fill="#353F44"/>
<path d="M149.22 265.39C153.7 266.79 157.18 269.7 160.55 272.81C161.57 273.75 162.06 275.59 161.31 276.03C160.68 276.4 159.82 276.72 159.13 276.61C157.5 276.36 155.91 275.85 154.3 275.44L154.47 275.61C152.99 274.9 151.51 274.19 150.04 273.47C149.55 273.08 149.06 272.7 148.57 272.31C147.94 271.68 147.3 271.04 146.67 270.4C146.67 270.4 146.74 270.48 146.73 270.48C146.72 269.62 146.7 268.77 146.69 267.91L146.73 267.87C147.6 267 148.47 266.13 149.34 265.26L149.22 265.39Z" fill="#353F44"/>
<path d="M405.25 117.69C405.15 118.09 405.19 118.65 404.94 118.87C401.77 121.58 398.65 124.38 394.42 125.36C394.12 125.43 393.61 125.15 393.39 124.88C393.18 124.62 393.11 124.14 393.16 123.78C393.22 123.39 393.4 122.95 393.67 122.68C396.72 119.7 400.25 117.57 404.49 116.78C404.68 116.75 404.99 117.37 405.25 117.69Z" fill="#353F44"/>
<path d="M277.14 235.07C277.17 235.48 277.36 235.97 277.21 236.28C275.82 239.13 273.38 240.41 270.33 240.61C270.04 240.63 269.58 240.21 269.44 239.88C269.3 239.55 269.33 239 269.52 238.71C270.91 236.64 272.55 234.77 275.06 234.13C275.63 234 276.44 234.74 277.14 235.07Z" fill="#353F44"/>
<path d="M383.11 186.53C382.02 188.85 380.43 190.7 378.17 191.97C377.06 192.6 375.26 192.42 374.76 191.46C374.09 190.19 374.56 189.02 375.34 188.01C377.52 185.18 380.3 185.48 383.21 186.59C383.2 186.6 383.11 186.53 383.11 186.53Z" fill="#353F44"/>
<path d="M169.23 252.63C169.55 252.85 169.96 253.01 170.13 253.3C170.3 253.6 170.41 254.13 170.25 254.39C168.37 257.62 165.37 258.18 162 257.65C161.74 257.61 161.44 257.09 161.37 256.75C161.3 256.4 161.38 255.89 161.6 255.64C163.63 253.36 166.5 253.15 169.23 252.63Z" fill="#353F44"/>
<path d="M149.34 328.87C146.11 328.05 143.02 326.93 141.14 323.94C140.82 323.43 140.87 322.23 141.25 321.86C141.71 321.42 142.84 321.21 143.42 321.47C144.49 321.95 145.61 322.67 146.27 323.61C147.44 325.28 148.27 327.18 149.24 328.98C149.24 328.97 149.34 328.87 149.34 328.87Z" fill="#353F44"/>
<path d="M286.59 234.92C286.71 230.99 287.75 227.65 292.05 226.44C292.35 226.36 292.84 226.54 293.09 226.76C293.33 226.98 293.59 227.55 293.48 227.74C292.05 230.14 290.55 232.49 289.07 234.86L289.1 234.84C288.21 234.83 287.32 234.81 286.42 234.8L286.59 234.92Z" fill="#353F44"/>
<path d="M402.5 187.28C401.72 186 400.84 185.15 400.72 184.2C400.57 183 401.42 181.97 402.72 181.68C404.25 181.34 405.88 183.22 405.21 184.8C404.83 185.69 403.67 186.25 402.5 187.28Z" fill="#353F44"/>
<path d="M421.61 166.61C419.76 168.3 417.97 170.07 416.03 171.66C415.2 172.34 414.34 171.92 414.13 170.92C414.06 170.57 414.26 170.06 414.51 169.76C416.2 167.76 418.44 166.61 420.87 165.8C420.88 165.79 421.61 166.61 421.61 166.61Z" fill="#353F44"/>
<path d="M261.23 79.6701C259.64 79.7401 258.03 79.9502 256.45 79.7902C255.9 79.7302 255.38 78.8001 255 78.1701C254.88 77.9701 255.17 77.2501 255.43 77.1501C256.12 76.8701 257.15 76.4104 257.59 76.7004C258.88 77.5604 259.96 78.76 261.12 79.82C261.12 79.81 261.23 79.6701 261.23 79.6701Z" fill="#353F44"/>
<path d="M772.17 212C773.02 210.27 773.87 208.55 774.72 206.82L774.58 206.91C777.2 206.92 779.81 206.92 782.43 206.93L782.35 206.84C779.34 209.35 776.09 211.38 772.1 211.91L772.17 212Z" fill="#353F44"/>
<path d="M731.52 219.64C731.92 217.99 732.59 216.46 734.29 215.85C734.96 215.61 736.01 215.65 736.54 216.03C737.25 216.55 736.96 217.47 736.03 217.86C734.52 218.48 732.95 218.97 731.41 219.52L731.52 219.64Z" fill="#353F44"/>
<path d="M390.65 179.17C390.86 178.84 391 178.36 391.3 178.19C392.29 177.63 393.73 178.96 393.55 180.28C393.5 180.64 393.2 181.08 392.89 181.26C391.86 181.86 390.6 180.65 390.65 179.17Z" fill="#353F44"/>
<path d="M194.1 254.7C193.69 254.18 192.92 253.65 192.93 253.14C192.96 251.96 194.46 251.3 195.56 251.88C195.86 252.04 196.14 252.43 196.23 252.77C196.57 253.9 195.45 254.88 194.1 254.7Z" fill="#353F44"/>
<path d="M149.53 313.51C149.73 313.26 149.92 313.01 150.12 312.76C150.61 313.16 151.11 313.56 151.57 314C151.59 314.02 151.2 314.47 151.01 314.72C150.51 314.32 150.02 313.91 149.53 313.51Z" fill="#353F44"/>
<path d="M223.11 331.55C222.72 330.4 222.27 329.27 221.96 328.1C221.88 327.81 222.14 327.2 222.4 327.08C223.25 326.7 224.11 327.14 224.03 328.11C223.93 329.24 223.32 330.33 222.93 331.44C222.94 331.45 223.11 331.55 223.11 331.55Z" fill="#353F44"/>
<path d="M271.23 120.5C271.93 120.93 272.78 121.23 273.3 121.82C273.94 122.55 273.68 123.42 272.82 123.91C272.52 124.08 271.95 124.09 271.68 123.91C271.39 123.72 271.14 123.22 271.15 122.85C271.15 122.02 271.32 121.19 271.42 120.36C271.41 120.35 271.23 120.5 271.23 120.5Z" fill="#353F44"/>
<path d="M239.22 330.19C238.75 329.66 238.28 329.12 237.81 328.59C238.29 328.17 238.95 327.32 239.23 327.43C239.81 327.66 240.44 328.33 240.59 328.94C240.8 329.79 240.14 330.26 239.22 330.19Z" fill="#353F44"/>
<path d="M451.71 145.82C450.86 147.56 450.01 149.3 449.17 151.03L449.32 150.88C447.18 148.76 446.87 146.04 446.83 143.23L446.72 143.37C447.55 143.37 448.39 143.37 449.22 143.37L449.14 143.27C450.05 144.18 450.96 145.09 451.87 145.99L451.71 145.82Z" fill="#353F44"/>
<path d="M345.64 203.69C345.95 203.04 346.26 202.39 346.58 201.75C347.21 202.09 348.21 202.31 348.37 202.8C348.52 203.28 347.82 204.03 347.49 204.67C346.87 204.34 346.26 204.01 345.64 203.69Z" fill="#353F44"/>
<path d="M200.17 102.69C201.15 101.47 202.1 100.23 203.13 99.0603C203.32 98.8503 203.97 98.7904 204.24 98.9504C205.09 99.4404 205.25 100.39 204.4 100.87C203.06 101.62 201.52 102.04 200.07 102.59L200.17 102.69Z" fill="#353F44"/>
<path d="M449.17 151.03C449.9 151.24 450.65 151.39 451.34 151.7C451.6 151.82 451.91 152.35 451.84 152.59C451.59 153.5 450.87 153.7 450.21 152.94C449.74 152.4 449.6 151.58 449.32 150.88L449.17 151.03Z" fill="#353F44"/>
<path d="M183.76 358.42L182.84 358.11L183.58 357.63L183.76 358.42Z" fill="#353F44"/>
<path d="M383.26 181.35C382.26 181.03 380.77 181.24 381.14 179.45C381.16 179.34 382.04 179.22 382.11 179.34C382.51 180.01 382.79 180.75 383.11 181.46C383.1 181.47 383.26 181.35 383.26 181.35Z" fill="#353F44"/>
<path d="M530.57 229.76C530.49 230.17 530.48 230.62 530.31 231C529.11 233.77 529.1 233.76 525.52 232.3L525.47 232.42C527.21 231.55 528.95 230.68 530.69 229.81C530.68 229.82 530.57 229.76 530.57 229.76Z" fill="#353F44"/>
<path d="M93.02 302.57C93.33 302.46 93.7299 302.18 93.9399 302.29C94.1699 302.4 94.2301 302.86 94.3701 303.17C94.0501 303.28 93.6699 303.54 93.4399 303.44C93.2199 303.34 93.16 302.87 93.02 302.57Z" fill="#353F44"/>
<path d="M451.8 143.36C455.31 143.06 455.31 143.06 456.76 145.98L456.86 145.85C455.14 145.84 453.43 145.83 451.71 145.82L451.85 145.99C451.85 145.08 451.86 144.17 451.86 143.25L451.8 143.36Z" fill="#353F44"/>
<path d="M668.06 162.04L668.69 162.48L667.97 162.74L668.06 162.04Z" fill="#353F44"/>
<path d="M723.87 138.32C723.3 138.64 722.73 138.95 722.16 139.27C722.3 138.98 722.37 138.57 722.6 138.43C722.91 138.24 723.35 138.25 723.74 138.17L723.87 138.32Z" fill="#353F44"/>
<path d="M383.1 181.47C384.52 183.15 384.97 184.84 383.11 186.53L383.2 186.6C383.22 184.85 383.24 183.1 383.25 181.35C383.26 181.35 383.1 181.47 383.1 181.47Z" fill="#353F44"/>
<path d="M662.81 328.88C661.1 329.71 659.38 330.54 657.67 331.37L657.8 331.5C657.78 330.61 657.77 329.72 657.75 328.83L657.57 328.98C659.34 328.99 661.12 329 662.89 329.01L662.81 328.88Z" fill="#353F44"/>
<path d="M461.89 140.68C461.08 142.41 460.26 144.13 459.45 145.86L459.54 145.97C460.36 144.24 461.18 142.5 461.99 140.77C461.98 140.77 461.89 140.68 461.89 140.68Z" fill="#353F44"/>
<path d="M530.57 227.22C530.57 228.07 530.57 228.91 530.56 229.76L530.67 229.82C530.66 228.94 530.66 228.05 530.65 227.17L530.57 227.22Z" fill="#353F44"/>
<path d="M418.7 153.42L418.83 153.55C418.82 153.55 418.7 153.42 418.7 153.42Z" fill="#353F44"/>
<path d="M456.76 145.98C457.68 145.98 458.6 145.98 459.53 145.97L459.44 145.86C458.58 145.86 457.72 145.85 456.86 145.85L456.76 145.98Z" fill="#353F44"/>
<path d="M449.21 143.37C450.07 143.37 450.94 143.36 451.8 143.36L451.87 143.26C450.96 143.26 450.04 143.27 449.13 143.27L449.21 143.37Z" fill="#353F44"/>
<path d="M446.82 143.23C445.9 143.23 444.98 143.23 444.05 143.23L444.17 143.38C445.01 143.38 445.86 143.37 446.7 143.37C446.71 143.37 446.82 143.23 446.82 143.23Z" fill="#353F44"/>
<path d="M456.91 125.59C457.77 124.72 458.62 123.85 459.48 122.97L459.36 122.84C459.36 123.79 459.36 124.73 459.36 125.67C459.36 125.67 459.49 125.5 459.5 125.5C458.6 125.49 457.71 125.48 456.81 125.46C456.81 125.47 456.91 125.59 456.91 125.59Z" fill="#353F44"/>
<path d="M220.35 100.06C219.51 100.92 218.67 101.78 217.83 102.64L217.91 102.72C218.77 101.88 219.63 101.04 220.49 100.2C220.5 100.2 220.35 100.06 220.35 100.06Z" fill="#353F44"/>
<path d="M433.91 97.52C433.91 98.41 433.91 99.3102 433.91 100.2L434.01 100.12C434.02 99.3001 434.03 98.4699 434.04 97.6499L433.91 97.52Z" fill="#353F44"/>
<path d="M220.5 100.2L220.35 100.05C220.35 100.06 220.5 100.2 220.5 100.2Z" fill="#353F44"/>
<path d="M434.04 97.6602L433.91 97.5298C433.91 97.5198 434.04 97.6602 434.04 97.6602Z" fill="#353F44"/>
<path d="M474.7 95.0498C474.69 94.1998 474.68 93.3598 474.67 92.5098L474.62 92.4199C474.62 93.3199 474.63 94.2099 474.63 95.1099L474.7 95.0498Z" fill="#353F44"/>
<path d="M474.67 92.52C475.53 92.52 476.38 92.52 477.24 92.52L477.3 92.4399C476.41 92.4399 475.51 92.4302 474.62 92.4302L474.67 92.52Z" fill="#353F44"/>
<path d="M72.9299 176.41L73.02 176.32C73.02 176.33 72.9299 176.41 72.9299 176.41Z" fill="#353F44"/>
<path d="M187.43 178.87C186.56 178.87 185.68 178.87 184.81 178.87L184.71 178.97C185.66 178.97 186.6 178.97 187.55 178.97L187.43 178.87Z" fill="#353F44"/>
<path d="M365.09 455.71L365.81 455.57L365.68 456.29L365.09 455.71Z" fill="#353F44"/>
<path d="M182.27 351.72L182.39 351.84C182.38 351.84 182.27 351.72 182.27 351.72Z" fill="#353F44"/>
<path d="M657.67 331.38L657.8 331.51C657.8 331.5 657.67 331.38 657.67 331.38Z" fill="#353F44"/>
<path d="M205.23 306.12L205.12 306.01C205.12 306 205.23 306.12 205.23 306.12Z" fill="#353F44"/>
<path d="M172.17 285.76L172.08 285.67C172.09 285.67 172.17 285.76 172.17 285.76Z" fill="#353F44"/>
<path d="M667.56 265.63L667.38 264.91L668.11 265.09L667.56 265.63Z" fill="#353F44"/>
</svg>
