<svg width="563" height="321" viewBox="0 0 563 321" fill="none" xmlns="http://www.w3.org/2000/svg">
<path d="M375.73 129.05C375.7 132.8 375.19 136.41 372.72 139.45L372.77 139.52C372.51 138.87 372.25 138.21 371.99 137.56C371.72 138.21 371.45 138.86 371.18 139.52L371.22 139.46C369.34 142.13 368.54 145.17 368.25 148.37L368.31 148.32C367.74 149.64 367.03 150.92 366.62 152.29C364.17 160.37 361.79 168.46 359.39 176.55C359.32 176.74 359.25 176.94 359.18 177.13C359.23 176.92 359.28 176.71 359.33 176.5C360.31 177.77 360.6 179.22 359.96 180.67C358.67 183.59 357.41 186.55 355.83 189.33C354.08 192.4 352.89 195.47 353.01 199.11C353.07 201.01 352.47 203.02 351.82 204.86C348.26 214.86 345.44 225.08 342.53 235.28C339.48 245.98 337.63 256.91 336.23 267.92C335.64 272.61 336.06 277.27 337.05 281.89C337.59 284.41 338.73 286.54 340.64 288.2C345.44 292.39 350.9 294.99 357.42 294.82C359.39 294.77 361.37 294.67 363.32 294.39C371.13 293.26 378.92 292.02 386.43 289.45C388.27 288.82 390.26 288.38 392.2 288.34C394.73 288.29 397.1 287.75 399.39 286.84C402.83 285.48 406.27 284.12 409.6 282.52C415.37 279.74 421.09 276.82 426.78 273.86C436.88 268.61 446.38 262.46 455.18 255.23C457.84 253.04 460.61 250.95 463.43 248.96C473.75 241.68 483.16 233.37 491.65 224.03C495.47 219.84 499.11 215.49 502.83 211.2C504.47 209.31 505.74 207.22 506.17 204.71C506.92 204.66 507.13 204.49 506.73 204.3C506.65 204.27 506.4 204.61 506.23 204.78C502.22 205.06 498.74 206.76 495.31 208.68C491.27 210.94 487.18 213.1 483.07 215.24C481.78 215.91 480.36 216.33 479.02 216.91C477.19 217.69 475.31 218 473.31 217.77C471.87 217.6 470.4 217.67 468.94 217.6C468 217.56 467.06 216.33 467.56 215.49C468.8 213.37 468.47 211.28 467.89 209.12C467.76 208.65 467.7 208.16 467.6 207.69L467.68 207.77C465.95 205.58 465.86 203.44 467.32 200.95C468.66 198.65 468.29 197.96 465.98 196C465.6 195.68 465.18 195.42 464.8 195.1C464.61 194.95 464.37 194.76 464.31 194.55C464.19 194.1 463.99 193.52 464.17 193.17C465.41 190.74 466.99 188.52 468.96 186.63C474.49 181.32 480.18 176.19 486.58 171.93C490.71 169.18 495.08 167.17 500.06 166.09C505.31 164.95 510.38 162.93 514.55 159.13C516.91 156.98 519.59 155.21 521.91 152.98C523.13 151.8 524.75 151.02 526.23 150.14C528.14 149.01 530.04 147.92 531.81 146.52C533.31 145.32 535.21 144.53 537.04 143.86C538.5 143.33 539.56 142.48 540.62 141.4C543.23 138.72 545.34 135.7 547.09 132.41C547.67 131.32 548.16 130.18 548.71 129.08C549.57 127.36 550.9 126.42 552.89 126.79C554.41 127.07 555.84 126.99 557.1 126C558.06 125.24 559.15 124.07 560.31 124.91C561.2 125.56 561.76 126.92 562.06 128.07C562.49 129.72 562.76 131.48 562.72 133.18C562.62 137.63 562.8 142.06 562.85 146.51C562.93 152.92 562.48 159.35 562.19 165.76C561.97 170.7 561.43 175.59 559.87 180.33C559.5 181.46 559.33 182.8 559.55 183.96C560.35 188.18 559.74 192.36 559.24 196.49C558.49 202.62 557.35 208.69 556.32 214.78C555.74 218.19 554.72 221.44 553.51 224.71C551.37 230.49 549.93 236.53 549.6 242.74C549.4 246.49 547.13 249.05 544.84 251.61C544.65 251.82 543.77 251.74 543.52 251.49C542.83 250.81 542.39 249.89 541.71 249.2C540.27 247.71 537.44 248.37 536.86 250.37C536.24 252.5 535.86 254.7 535.27 256.84C534.95 258.01 534.48 259.16 533.93 260.25C533.79 260.53 533.1 260.59 532.65 260.64C532.49 260.66 532.24 260.4 532.13 260.22C531.35 258.85 531.52 257.35 531.67 255.89C531.88 253.93 532.31 251.99 532.47 250.03C532.63 248.05 532.5 246.08 531.26 244.35C529.42 241.78 529.23 238.87 529.52 235.86C529.72 233.9 529.91 231.93 529.97 229.96C530.06 227.1 531.23 224.72 532.95 222.53L532.87 222.61C533.48 221.86 534.29 220.74 533.66 220.1C531.63 218.06 532.29 215.84 532.72 213.55C532.81 213.09 532.81 212.61 532.85 212.14L532.93 212.22C532.55 211.9 532.18 211.58 531.79 211.28C531.16 210.79 530.46 210.63 529.76 211.09C529.36 211.36 529 211.72 528.71 212.11C521.01 222.71 512.07 232.25 503.04 241.69C500.15 244.72 497.15 247.67 494.04 250.46C483.21 260.17 472.22 269.7 460.38 278.19C452.56 283.81 444.23 288.61 435.84 293.31C431.11 295.96 426.44 298.73 421.56 301.1C411.37 306.05 401.27 311.22 390.19 314.06C386.35 315.04 382.55 315.99 378.57 316.1C376.06 316.17 373.69 316.59 371.78 318.5C370.5 319.78 368.8 320.16 367.03 320.27C359.29 320.75 351.8 319.29 344.47 317.04C342.88 316.55 341.5 315.35 340.03 314.48L340.11 314.56C336.81 312.41 333.56 310.18 330.19 308.15C327.95 306.8 326.27 305.06 325.66 302.55C324.94 299.61 323.54 297.06 321.9 294.56C320.96 293.12 320.3 291.5 319.56 289.94C318.72 288.16 318.05 286.28 317.09 284.57C315.02 280.87 313.8 276.86 312.56 272.84C311.67 269.94 311.48 267.01 311.99 264.05C312.96 258.44 314.29 252.94 316.69 247.74C318.13 244.61 319.67 241.52 320.29 238.05C320.54 236.64 321.35 235.28 322.08 234C325.3 228.31 326.47 221.98 327.8 215.71C328.51 212.33 329.09 208.92 329.86 205.55C330.42 203.12 331 200.78 329.67 198.37C329.41 197.9 329.74 196.9 330.1 196.35C330.98 195.03 331.52 193.8 330.63 192.25C330.11 191.33 330.2 190.25 331.08 189.59C333.44 187.83 334.24 185.25 334.89 182.6C335.26 181.08 335.05 179.65 333.71 178.6C332.6 177.73 332.37 176.48 332.68 175.26C333.28 172.87 333.8 170.41 334.85 168.21C337.74 162.11 339.63 155.81 340.12 149.05C340.37 145.61 341.04 142.2 341.46 138.77C341.74 136.53 341.59 134.31 340.42 132.3C338.15 128.37 338.35 124.34 339.55 120.12C341.31 113.94 343.09 107.78 345.77 101.92C346.39 100.55 346.88 99.19 346.93 97.67C347.21 90 347.29 82.35 344.99 74.91C344.31 72.71 344.25 70.5399 344.87 68.3499C346.25 63.4299 345.8 58.5399 344.51 53.7099C343.68 50.6199 342.65 47.58 341.63 44.54C340.8 42.08 339.17 40.31 336.77 39.25C336.14 38.97 335.59 38.4999 335 38.1099C335.45 37.4299 335.83 36.87 336.21 36.3C335.13 34.84 333.45 34.3 331.9 33.67C328.24 32.17 324.55 32.31 321.3 34.64C317.08 37.65 312.81 40.6499 308.99 44.1199C298.74 53.4199 289.08 63.3099 280.09 73.8599C274.65 80.2499 269.02 86.49 263.31 92.64C260.76 95.39 258.67 98.3699 256.86 101.62C253.25 108.09 249.62 114.55 245.83 120.92C239.14 132.17 232.21 143.3 224.61 153.96C219.74 160.79 215.01 167.72 210.29 174.65C208.37 177.47 206.42 180.37 203.64 182.5C203.12 182.51 202.6 182.52 202.07 182.53L202.14 182.46C200.76 183.93 199.7 185.59 199.35 187.59C199 189.61 198 191.23 196.79 192.84C193.1 197.78 189.71 202.94 185.48 207.47C184.81 208.19 184.18 208.97 183.65 209.8C179.92 215.68 175.13 220.68 170.37 225.67C166.11 230.13 161.67 234.42 157.31 238.79C156.09 240.01 154.73 241.14 153.71 242.51C150.71 246.52 146.85 249.58 142.92 252.58C138.02 256.32 133.11 260.05 128.2 263.78C121.3 269.02 113.97 273.55 106.24 277.46C102.5 279.35 98.83 281.41 95.04 283.21C87 287.01 78.79 290.33 69.93 291.75C64.29 292.66 58.5999 292.33 52.9399 292.3C51.5099 292.29 50.02 291.78 48.66 291.25C43.84 289.35 39.06 287.34 34.27 285.37C33.59 285.09 32.87 284.83 32.27 284.42C28.63 281.88 24.66 279.67 21.48 276.64C14.07 269.6 8.18994 261.41 4.94994 251.56C4.09994 248.98 3.37998 246.36 2.48998 243.8C0.419978 237.85 -0.0500414 231.73 0.719959 225.53C1.71996 217.44 3.00993 209.4 6.18993 201.8C6.28993 201.57 6.36993 201.34 6.43993 201.1C6.95993 199.45 7.70993 197.84 7.93993 196.15C8.91993 189.04 12.12 182.47 12.98 175.33C13.26 172.99 13.07 170.94 11.64 169.04C9.42 166.1 9.05993 162.77 9.43993 159.2C10.2099 151.98 12.33 145.15 15.68 138.79C18.66 133.12 21.37 127.29 25.04 121.99C26.16 120.38 27.07 118.59 27.9 116.81C29.49 113.41 31.69 110.46 34.22 107.73C36.73 105.02 39.36 102.41 41.27 99.1899C42.02 97.9299 43.1499 96.9299 44.5799 96.3399C45.2099 96.0799 46.2699 96.52 46.3299 97.25C46.4099 98.22 46.3799 99.2 46.4399 100.18C46.4499 100.39 46.64 100.77 46.76 100.78C47.19 100.79 47.78 100.83 48.04 100.58C48.75 99.9099 49.3199 99.0899 49.9399 98.3299C51.3799 96.5899 53.05 95.13 55.22 94.42C58.12 93.47 60.37 91.61 62.5 89.5C66.54 85.52 70.96 81.92 74.3 77.27C74.72 76.68 75.24 76.0099 75.87 75.7299C79.48 74.1599 81.32 70.84 83.68 68.04C84.79 66.72 85.8699 65.37 87.0699 64.14C87.7399 63.45 88.6499 62.99 89.4499 62.42L89.39 62.3599C89.78 63.4399 89.68 64.91 91.53 64.77C91.82 64.75 92.39 65.3499 92.41 65.6999C92.46 66.4099 92.3199 67.1699 92.0799 67.8599C90.4099 72.7699 88.55 77.6 86.28 82.28C80.35 94.5 74.55 106.78 68.55 118.96C62.97 130.28 58.47 142.03 54.38 153.95C53.82 155.58 53.31 157.24 52.93 158.93C48.94 176.75 44.64 194.52 41.39 212.49C39.59 222.45 38.58 232.54 39.22 242.71C39.28 243.69 39.34 244.69 39.5 245.66C40.36 250.86 42.8399 253.76 48.0699 254.34C52.9699 254.88 57.8199 255.62 62.6899 256.31C68.8799 257.18 74.9499 255.82 80.8299 253.84C81.7399 253.53 82.54 252.87 83.37 252.34C83.54 252.23 83.7199 251.78 83.6999 251.76C83.3499 251.52 82.97 251.13 82.61 251.14C80.89 251.2 79.1799 251.42 77.4599 251.47C77.1599 251.48 76.81 250.94 76.56 250.59C76.49 250.49 76.65 250.05 76.81 249.98C80.59 248.2 84.3799 246.41 88.1899 244.68C92.7099 242.63 96.9899 240.22 100.83 237.05C102.73 235.48 104.71 233.98 106.75 232.61C111.29 229.56 115.33 225.91 118.97 221.88C124.75 215.46 130.37 208.9 135.98 202.32C140.64 196.86 145.71 191.94 151.51 187.6C156.81 183.64 162.33 179.79 166.7 174.67C167.49 173.74 168.53 173.02 169.46 172.21L169.58 172.11C172.36 171.71 174.7 170.63 176.44 168.26C178.79 165.07 181.46 162.22 185.34 160.73C186.38 160.33 187.25 159.18 187.94 158.2C190.06 155.19 191.95 152.03 194.7 149.48C195.57 148.67 195.98 147.39 196.68 146.39C197.52 145.18 198.26 143.81 199.36 142.89C202.1 140.61 203.72 137.64 205.39 134.6C206.69 132.25 208.36 130.08 210.06 127.99C210.79 127.09 211.99 126.08 213.04 126.01C215.09 125.87 216.13 124.87 216.95 123.22C217.72 121.68 218.82 120.27 219.39 118.67C220.4 115.82 221.44 113.21 224.63 111.98C225.62 111.6 226.34 110.25 226.96 109.21C228.6 106.46 230 103.59 231.04 100.54C231.43 99.41 233.26 98.6399 234.83 98.8599C235.23 98.9099 235.87 99.37 235.9 99.68C236.1 102.12 236.18 104.56 236.29 107C235.72 106.54 235.18 106.04 234.58 105.63C233.92 105.17 232.93 105.58 232.95 106.32C232.97 107.03 233.21 107.74 233.35 108.44C231.6 108.9 230.5 110.07 229.83 111.68C229.46 112.55 229.18 113.46 228.87 114.35C228.38 115.36 227.89 116.37 227.4 117.38C226.63 118.28 226.04 119.26 226.21 120.51C226.29 121.07 226.62 121.36 227.15 121.25C227.33 121.21 227.59 120.93 227.58 120.76C227.53 119.61 227.42 118.47 227.33 117.32C227.81 116.31 228.3 115.3 228.78 114.28C229.49 114.08 230.19 113.75 230.91 113.69C233.31 113.51 234.29 111.98 234.75 109.89C235.25 108.9 235.74 107.91 236.24 106.91C237.55 105.14 238.91 103.41 240.16 101.61C242.14 98.7399 243.46 95.6099 243.64 92.0799L243.68 92.1199C243.17 92.1 242.66 92.08 242.15 92.06L242.2 92.14C241.9 88.37 242.62 84.76 244.04 81.3C244.59 79.95 245.18 78.4299 246.21 77.4899C248.33 75.5399 249.31 73.1599 250.04 70.4899C250.96 67.1299 252.47 64.0999 255.05 61.5799C256.24 60.4299 257.07 58.7799 257.7 57.1999C260.05 51.2499 262.49 45.3199 264.34 39.1899C265.5 35.3499 267.88 32.78 271.67 31.5C272.6 31.19 273.56 30.9499 274.52 30.7199C276.03 30.3599 277.18 29.47 278.14 28.31C279.08 27.17 280.02 26.02 280.94 24.87C283.58 21.56 286.64 18.7899 290.39 16.7099C294.5 14.4299 298.32 11.73 301.58 8.28999C303.48 6.28999 305.67 4.73993 308.47 4.21993C308.94 4.12993 309.45 3.94999 309.83 3.65999C313.87 0.659989 318.68 0.879975 323.3 0.519975C326.56 0.269975 329.69 1.29001 332.48 2.93001C335.51 4.71001 338.65 5.74996 342.15 6.25996C346.8 6.93996 351.07 9.03995 355.43 10.7399C356.81 11.2799 358.07 12.29 359.47 12.53C362.71 13.06 364.7 14.9599 366.31 17.6099C367.12 18.9499 368.44 19.59 370.13 19.01C370.9 18.75 371.73 19.1 371.86 19.89C372.4 23.22 374.45 25.7299 376.43 28.2199C377.84 29.9999 378.85 31.9 379.53 34.04C380.2 36.15 381.04 38.2199 381.66 40.3399C382.21 42.2199 382.79 44.1399 382.98 46.0699C383.5 51.2499 384.69 56.2399 386.57 61.0999C387.97 64.7099 388.01 68.32 386.07 71.8C384.73 74.22 384.21 76.8999 383.8 79.5699C383.17 83.6899 382.74 87.8499 382.21 92.0799C383.87 91.8599 383.53 90.2299 384.28 89.4499C384.58 89.1399 385.02 88.9699 385.4 88.7399C385.5 88.9599 385.7 89.2 385.68 89.41C385.19 94.1 384.15 98.6299 381.92 102.84C381.23 104.14 380.73 105.54 380.14 106.89C380.01 107.04 379.85 107.17 379.76 107.34C379.7 107.46 379.73 107.63 379.72 107.78C379.83 107.46 379.95 107.14 380.06 106.82C380.68 107.88 381.33 108.98 381.09 110.25C379.83 116.72 378.76 123.25 375.63 129.18C375.42 128.54 375.22 127.9 375.01 127.26C374.74 127.9 374.48 128.53 374.21 129.17C373.97 129.54 373.68 129.89 373.49 130.29C373.2 130.88 373.37 131.19 373.87 131.04C373.99 131 374.06 130.65 374.08 130.44C374.13 130 374.13 129.55 374.15 129.1C374.69 129.05 375.21 129.05 375.73 129.05ZM276.29 57.8599C276.79 57.3699 277.28 56.87 277.78 56.38L277.82 56.42C277.32 56.92 276.83 57.41 276.33 57.91L276.29 57.8599ZM172.49 215.14C171.99 215.64 171.5 216.14 171 216.64C170.51 217.13 170.01 217.63 169.52 218.12L169.48 218.08C169.97 217.59 170.47 217.09 170.96 216.6C171.46 216.1 171.96 215.61 172.46 215.11C172.47 215.11 172.49 215.14 172.49 215.14ZM231.83 132.09C231.74 132.27 231.64 132.46 231.55 132.64C231.63 132.44 231.71 132.24 231.79 132.05L231.83 132.09ZM222.92 145.43C222.43 146.43 221.95 147.43 221.46 148.43C220.95 148.92 220.42 149.4 219.94 149.92C219.47 150.44 219.56 150.81 220.15 150.82C220.32 150.82 220.56 150.56 220.65 150.37C220.93 149.72 221.16 149.05 221.41 148.38C221.9 147.38 222.39 146.39 222.88 145.39L222.92 145.43ZM532.93 227.02C532.79 227.16 532.63 227.28 532.53 227.45C532.45 227.57 532.45 227.74 532.42 227.88C532.58 227.58 532.73 227.28 532.89 226.98L532.93 227.02ZM90.89 249.26C90.7 249.31 90.5 249.32 90.34 249.41C90.21 249.47 90.13 249.63 90.03 249.74C90.3 249.56 90.57 249.38 90.84 249.2C91.0399 249.07 91.23 248.95 91.43 248.82C91.25 248.96 91.07 249.11 90.89 249.26ZM181.36 204.71C183.18 205.35 184.81 204.99 185.95 203.44C188.84 199.5 191.64 195.5 194.47 191.51C194.6 191.32 194.64 191.05 194.66 190.81C194.67 190.58 194.65 190.18 194.55 190.15C194.15 190.01 193.53 189.77 193.31 189.96C192.19 190.89 191.02 191.82 190.15 192.96C187.17 196.84 184.32 200.81 181.41 204.75L181.36 204.71ZM541.28 210.04C541.13 209.63 541.04 209.18 540.82 208.81C540.53 208.32 539.65 209.07 539.55 209.97C539.5 210.41 539.54 210.88 539.63 211.32C539.75 211.86 540.15 212.07 540.65 211.89C540.83 211.82 541.02 211.59 541.07 211.39C541.2 210.95 541.22 210.49 541.28 210.04ZM540.98 223.96C541.93 222.75 541.67 221.38 541.54 220.04C541.52 219.87 541.28 219.62 541.1 219.58C540.95 219.54 540.61 219.73 540.58 219.86C540.29 221.25 540.24 222.63 540.98 223.96ZM537.93 233.28C538.07 233.46 538.18 233.76 538.35 233.8C538.89 233.92 539.48 233.1 539.45 232.24C539.44 232.06 539.07 231.73 539.05 231.75C538.68 232 538.29 232.25 538 232.58C537.86 232.72 537.94 233.04 537.93 233.28ZM541.18 196.91C540.97 196.96 540.63 196.96 540.58 197.08C540.3 197.78 540.21 198.5 540.76 199.12C540.82 199.19 541.28 199.06 541.3 198.96C541.42 198.49 541.5 198 541.51 197.51C541.52 197.31 541.3 197.11 541.18 196.91ZM558.76 131.15L558.88 131.62L559.13 131.27L558.76 131.15ZM555.75 201.04L556.08 201.3L556.09 200.79L555.75 201.04ZM55.6899 260.25L56.14 260.49L56.2099 260.13L55.6899 260.25Z" fill="#353F44"/>
<path d="M157.93 173.88C154.48 178.01 150.12 181.01 145.58 183.77C144.7 184.3 143.73 184.2 142.78 183.92L142.85 183.99C144.3 182.05 145.66 180.03 147.23 178.18C149.86 175.08 153.15 173.19 157.36 173.3C157.56 173.5 157.74 173.69 157.93 173.88Z" fill="#353F44"/>
<path d="M157.37 173.31C158.66 171.56 159.9 169.76 161.27 168.07C162.21 166.92 163.55 166.29 164.97 165.85C165.53 165.68 165.97 165.79 166.21 166.32C166.3 166.52 166.29 166.86 166.17 167.02C164.04 170.04 161.56 172.65 157.94 173.88C157.74 173.69 157.56 173.5 157.37 173.31Z" fill="#353F44"/>
<path d="M242.17 91.98C241.79 93.11 241.47 94.27 240.99 95.35C240.71 96 240.13 96.48 239.32 96.47C238.59 96.46 238.12 95.36 238.36 94.13C238.5 93.43 238.71 92.7401 238.92 92.0501C238.99 91.8301 239.14 91.6301 239.24 91.4101C239.53 90.7901 240.28 90.6501 241.11 91.1401C241.52 91.3801 241.85 91.7501 242.22 92.0601L242.17 91.98Z" fill="#353F44"/>
<path d="M175.69 154.73C175.83 154.88 176.14 155.07 176.12 155.21C175.77 157.26 174.6 158.78 172.96 159.98C172.8 160.1 172.46 160.06 172.25 159.98C171.7 159.78 171.47 159.33 171.68 158.78C172.32 157.11 173.66 155.99 174.95 154.85C175.1 154.72 175.41 154.77 175.69 154.73Z" fill="#353F44"/>
<path d="M183.88 145.48C184.11 145.55 184.38 145.56 184.52 145.7C184.66 145.84 184.81 146.17 184.74 146.3C184.29 147.13 183.82 147.95 183.29 148.73C182.96 149.21 182.48 149.25 182.12 148.89C181.98 148.75 181.91 148.44 181.95 148.24C182.19 147.06 182.62 145.96 183.88 145.48Z" fill="#353F44"/>
<path d="M332.14 182.64C332.33 182.73 332.67 182.78 332.7 182.91C332.94 184.06 332.61 184.95 331.83 185.4C331.1 185.83 330.96 184.46 331.62 183.08C331.71 182.89 331.96 182.78 332.14 182.64Z" fill="#353F44"/>
<path d="M294.17 3.06004C294.88 2.07004 295.81 1.39996 297 1.09996C297.62 0.939961 297.96 1.16 297.89 1.76C297.87 1.96 297.66 2.25002 297.49 2.29002C296.37 2.56002 295.24 2.75998 294.11 2.98998L294.17 3.06004Z" fill="#353F44"/>
<path d="M291.09 4.44995C290.68 5.00995 290.33 5.64999 289.82 6.10999C289.59 6.31999 289.04 6.16004 288.63 6.17004C288.63 5.95004 288.56 5.71003 288.64 5.53003C288.72 5.33003 288.91 5.09003 289.1 5.03003C289.77 4.82003 290.46 4.69002 291.15 4.52002C291.15 4.53002 291.09 4.44995 291.09 4.44995Z" fill="#353F44"/>
<path d="M141.29 185.43C141.07 185.86 140.88 186.31 140.61 186.7C140.49 186.87 140.17 187.08 140.02 187.03C139.46 186.83 139.45 186.42 140.02 186.06C140.42 185.81 140.91 185.68 141.36 185.5L141.29 185.43Z" fill="#353F44"/>
<path d="M188.96 139.84C188.78 140.46 188.41 140.66 187.95 140.33C187.82 140.24 187.8 139.89 187.84 139.68C187.97 139.04 188.36 138.86 188.85 139.2C188.97 139.29 188.93 139.62 188.96 139.84Z" fill="#353F44"/>
<path d="M199.07 123.28C199.25 123.21 199.44 123.06 199.59 123.09C199.72 123.12 199.92 123.36 199.91 123.49C199.84 124.03 199.52 124.15 199.11 123.8C199.02 123.72 199.08 123.45 199.07 123.28Z" fill="#353F44"/>
<path d="M294.11 2.98998C293.1 3.47998 292.09 3.95995 291.08 4.44995L291.15 4.53003C292.16 4.04003 293.16 3.55004 294.17 3.06004L294.11 2.98998Z" fill="#353F44"/>
<path d="M448.32 253.66C447.34 254.15 446.36 254.65 445.39 255.14L445.44 255.19C446.43 254.71 447.42 254.22 448.41 253.74L448.32 253.66Z" fill="#353F44"/>
<path d="M169.54 170.64C170.31 169.71 171.33 169.28 172.51 169.19L172.44 169.12C171.7 170.1 170.66 170.5 169.48 170.6C169.48 170.59 169.54 170.64 169.54 170.64Z" fill="#353F44"/>
<path d="M368.25 148.37C368.38 148.54 368.51 148.71 368.64 148.88C368.53 148.69 368.42 148.5 368.31 148.32L368.25 148.37Z" fill="#353F44"/>
<path d="M194.76 130.59C194.93 130.45 195.1 130.31 195.26 130.18C195.08 130.3 194.89 130.42 194.71 130.55L194.76 130.59Z" fill="#353F44"/>
<path d="M204.41 115.55L204.56 116.01L204.13 115.94L204.41 115.55Z" fill="#353F44"/>
<path d="M532.96 222.51L532.88 222.59C532.89 222.59 532.96 222.51 532.96 222.51Z" fill="#353F44"/>
<path d="M141.36 185.5C141.86 185 142.36 184.5 142.86 184L142.79 183.93C142.29 184.43 141.79 184.93 141.29 185.43L141.36 185.5Z" fill="#353F44"/>
<path d="M203.63 182.49C203.12 182.9 202.63 182.86 202.13 182.46L202.06 182.53C202.59 182.51 203.11 182.5 203.63 182.49Z" fill="#353F44"/>
<path d="M169.46 172.14C169.37 171.79 169.23 171.44 169.2 171.09C169.19 170.95 169.42 170.79 169.54 170.63L169.49 170.59C169.56 171.07 169.6 171.55 169.59 172.04C169.58 172.04 169.46 172.14 169.46 172.14Z" fill="#353F44"/>
<path d="M194.71 130.55L194.76 130.6C194.76 130.59 194.71 130.55 194.71 130.55Z" fill="#353F44"/>
<path d="M372.72 139.45C372.22 139.45 371.72 139.45 371.23 139.46L371.19 139.52C371.72 139.52 372.25 139.52 372.78 139.52L372.72 139.45Z" fill="#353F44"/>
<path d="M233.25 108.26C233.77 108.79 234.29 109.31 234.82 109.84C234.3 109.82 233.79 109.79 233.27 109.77L233.34 109.84C233.31 109.31 233.28 108.78 233.25 108.26Z" fill="#353F44"/>
</svg>
