<svg width="972" height="783" viewBox="0 0 972 783" fill="none" xmlns="http://www.w3.org/2000/svg">
<path d="M636.84 58.9466C636.84 52.7506 636.84 52.7506 633.741 58.9466C630.642 65.1425 621.317 74.4648 615.119 83.7587C605.821 93.0526 602.693 102.374 602.693 102.374C602.693 102.374 602.693 102.374 605.792 102.374C612.019 102.374 636.84 68.2405 636.84 58.9466Z" fill="black"/>
<path d="M9.99455 732.115C13.0937 732.115 16.1933 732.115 16.1933 735.213C19.2924 741.409 22.391 741.409 34.8159 729.017L47.2411 716.597L44.141 729.017C41.0419 741.438 44.1411 741.437 53.4384 735.213C56.5376 729.017 62.7361 729.017 65.8637 729.017C68.9628 729.017 72.0624 725.919 72.0624 722.821C72.0624 719.723 62.7652 716.625 56.5385 722.821C50.3403 725.919 50.3403 722.821 56.5385 707.303C59.6376 701.107 53.4389 694.882 50.3398 698.009C47.2407 701.107 41.0421 707.303 37.9145 716.625C31.7163 722.821 25.4907 729.046 25.4907 729.046C22.3916 729.046 28.5885 716.625 34.7867 701.135C44.0841 676.323 47.2121 663.903 40.9854 663.903C37.8863 663.903 28.5611 682.519 22.3629 704.233C16.1646 722.849 16.1646 722.849 13.0655 713.527V704.233L9.9654 713.527C3.7956 728.988 3.79632 732.115 9.99455 732.115Z" fill="black"/>
<path d="M75.1603 43.4278C68.962 49.6237 65.8624 71.3383 68.9615 74.4363C72.0607 77.5343 75.1601 74.4365 81.3868 68.2406C87.585 62.0446 90.6845 62.0444 93.812 65.1423H103.109C103.109 65.1423 109.308 62.0441 112.407 62.0441C127.931 62.0441 131.029 62.0446 131.029 58.9466C131.029 55.8486 127.931 55.8484 124.832 55.8484C121.733 55.8484 118.633 49.6521 118.633 43.4278C118.633 34.1339 118.634 34.1343 115.535 40.3302C106.237 52.7505 100.01 58.9464 96.9107 55.8484C93.8116 52.7504 96.9116 18.6161 100.011 15.5181C100.011 12.4202 103.11 18.6161 100.011 24.8121C100.011 34.106 100.01 34.106 103.109 34.106C103.109 31.0081 106.208 24.8116 106.208 18.5872C109.307 9.2933 106.209 9.29324 103.109 9.29324C96.9112 9.29324 90.6842 21.7142 90.6842 34.106C90.6842 46.5263 81.3865 65.1139 78.2589 65.1139C75.1598 65.1139 75.1598 55.8196 78.2589 43.3993C84.4572 34.1338 78.2594 34.1339 75.1603 43.4278Z" fill="black"/>
<path d="M196.196 31.0364C202.394 18.6161 202.394 12.4197 196.196 9.32176C186.899 6.2238 171.375 31.0364 177.574 40.3303C183.772 43.4283 189.97 40.3303 196.196 31.0364ZM186.871 21.7139C189.97 15.518 196.168 15.5178 196.168 18.6157C196.168 21.7137 193.069 24.8117 189.97 27.9097C186.871 34.134 183.772 31.0363 186.871 21.7139Z" fill="black"/>
<path d="M255.166 80.6605C267.591 68.2402 264.464 58.9466 252.067 58.9466H236.543C230.345 65.1426 230.344 77.5628 233.443 83.7588C236.542 89.9547 248.939 89.9545 255.166 80.6605ZM239.642 68.2406C242.741 62.0447 258.265 62.0447 255.166 68.2406C255.166 74.4365 242.741 83.7585 239.642 80.6605V68.2406Z" fill="black"/>
<path d="M202.395 65.1424C208.594 49.6241 236.543 18.6159 245.841 12.4199C252.039 6.224 252.038 0 248.939 0C242.741 0 183.773 77.5626 183.773 80.6605C180.674 86.8565 193.098 77.5627 202.395 65.1424Z" fill="black"/>
<path d="M630.643 105.473C636.841 105.473 639.94 102.375 639.94 96.1787C639.94 89.9827 627.515 89.983 627.515 99.2769C624.444 102.375 627.544 105.473 630.643 105.473Z" fill="black"/>
<path d="M602.72 58.9466C599.621 58.9466 587.197 74.4644 590.296 77.5623C593.396 80.6603 608.919 65.1421 605.82 62.0442C605.82 58.9462 602.72 58.9466 602.72 58.9466Z" fill="black"/>
<path d="M888.209 716.597C888.209 707.303 878.912 701.079 872.685 704.177C866.487 707.275 863.389 719.695 869.587 725.891C875.813 735.213 888.209 728.989 888.209 716.597ZM878.912 710.401C882.011 713.499 882.011 716.597 878.912 719.695C875.813 722.793 875.813 719.695 875.813 716.597C875.813 710.401 875.813 707.275 878.912 710.401Z" fill="black"/>
<path d="M810.647 738.311C813.746 741.409 819.943 741.409 823.071 735.213C823.071 735.213 835.497 722.793 850.992 713.499C872.714 697.98 882.011 685.589 894.436 670.071C906.861 648.357 906.862 648.356 900.635 645.258C894.437 642.16 891.338 645.258 891.338 654.552C888.238 666.972 872.714 685.56 844.794 707.274C816.845 725.891 807.519 735.213 810.647 738.311Z" fill="black"/>
<path d="M767.202 738.31C776.499 735.212 788.924 722.793 788.924 719.695C788.924 713.499 785.825 713.498 776.499 722.792C764.074 735.212 760.975 728.988 764.074 707.274V688.658C764.074 688.658 757.877 697.952 751.65 710.372C733.027 744.507 726.829 732.086 742.353 691.756C745.452 679.336 751.65 666.943 751.65 663.846C751.65 651.425 742.353 666.943 736.126 688.658C729.928 697.952 723.7 713.47 717.502 719.666L708.205 728.96L711.305 719.666C711.305 713.47 714.403 707.246 714.403 704.148C717.503 697.952 711.304 697.952 708.205 704.148C705.106 707.246 702.007 716.568 702.007 722.764C698.908 738.282 705.106 741.38 720.63 728.96L729.927 719.666V738.283C736.126 744.478 745.452 738.282 751.65 725.862L754.749 716.568V725.862C757.876 735.213 760.975 741.408 767.202 738.31Z" fill="black"/>
<path d="M841.667 694.883C847.865 694.883 847.865 691.785 847.865 682.462C847.865 673.14 847.865 670.042 841.667 670.042C838.568 670.042 835.469 670.042 835.469 670.042C835.469 673.14 832.369 673.14 832.369 673.14C826.171 670.042 826.171 688.658 832.369 691.756C832.369 694.883 838.568 694.883 841.667 694.883ZM841.667 679.364C841.667 679.364 844.767 679.364 844.767 682.462C844.767 685.56 841.667 688.658 841.667 688.658C838.568 688.658 838.568 685.56 838.568 682.462C838.568 679.364 838.568 679.364 841.667 679.364Z" fill="black"/>
<path d="M115.507 688.687C109.308 691.784 103.082 704.205 106.209 710.401C109.308 719.695 118.635 716.597 124.833 707.303C127.932 698.009 127.932 694.883 124.833 691.785C121.706 688.687 118.606 685.56 115.507 688.687ZM118.607 704.177C115.508 707.275 115.507 710.372 115.507 707.274C115.507 704.176 118.606 694.854 121.705 697.98C121.705 697.98 121.706 701.079 118.607 704.177Z" fill="black"/>
<path d="M180.673 682.462C177.574 682.462 165.15 691.756 149.654 707.274C137.229 719.695 121.733 735.185 115.506 738.283C109.308 741.381 106.209 747.576 106.209 747.576C106.209 759.996 115.507 750.675 158.951 710.344C168.249 701.05 177.574 694.826 177.574 694.826C183.772 694.883 183.772 685.56 180.673 682.462Z" fill="black"/>
<path d="M155.852 741.409C155.852 738.311 152.753 738.311 152.753 738.311C146.555 738.311 146.555 747.605 149.654 750.731C155.853 756.927 168.277 747.634 165.178 735.213C165.178 722.793 155.88 722.793 146.554 729.018C140.356 735.213 140.357 735.213 149.654 732.115C162.079 729.017 165.178 732.115 158.952 741.409C155.853 747.605 155.852 747.605 155.852 741.409Z" fill="black"/>
<path d="M826.142 775.544C826.142 772.446 823.043 769.348 816.845 769.348C785.825 766.25 677.186 763.152 636.869 763.152H590.325L584.128 747.633C581.029 738.339 574.831 729.017 574.831 722.821C574.831 716.625 571.731 710.401 568.632 710.401C565.533 704.205 565.533 704.205 608.977 666.973C618.274 657.679 630.699 645.258 633.798 639.063C639.997 632.867 652.421 620.446 658.62 611.152C674.144 595.634 674.144 592.536 671.045 586.34C667.946 577.046 664.847 515.002 667.946 515.002C674.145 511.904 674.145 508.806 667.946 505.708C664.847 502.61 664.847 502.61 658.649 505.708C655.55 508.806 649.351 508.805 640.025 508.805L630.727 505.708L636.926 487.092C643.124 468.475 646.224 459.182 646.224 431.243V378.521L643.125 359.904L658.649 341.288C667.946 331.994 680.371 322.672 683.47 322.672C689.668 319.574 692.767 319.574 736.211 325.77C748.636 325.77 782.755 328.868 810.675 328.868C854.12 328.868 891.366 328.868 922.386 335.064C931.683 335.064 934.811 331.966 934.811 325.77C937.91 322.672 885.168 319.574 810.675 319.574C764.132 319.574 736.212 316.476 714.461 313.378L680.313 307.182L677.215 313.378C674.115 322.672 646.195 347.512 639.968 347.512C639.968 347.512 630.671 331.994 624.444 316.504C596.524 257.558 562.377 214.129 528.23 198.611C522.031 195.513 518.932 192.415 518.932 189.317C518.932 186.219 515.833 186.219 512.734 189.317C506.535 192.415 503.437 192.415 500.31 189.317C494.111 186.219 491.012 186.219 487.885 186.219C481.686 186.219 478.587 183.121 478.587 183.121C478.587 176.925 534.457 130.399 540.655 130.399C543.754 130.399 562.377 133.497 584.099 136.595C630.642 145.889 633.742 145.889 633.742 136.595C633.742 133.497 630.642 130.399 624.444 133.497C618.246 133.497 605.822 133.497 593.425 130.399C581 127.301 565.505 124.203 562.405 124.203C556.207 121.105 546.88 121.105 543.781 118.007C540.682 114.909 534.485 118.007 506.536 145.917L472.388 180.052H450.666C438.241 176.954 425.845 173.856 422.746 173.856C419.647 170.758 407.221 164.562 391.726 158.338C366.904 149.044 357.579 145.917 332.758 145.917C311.036 142.819 292.413 145.917 276.889 149.015L255.166 152.113L242.741 130.399C236.543 117.979 230.316 105.587 230.316 102.489C230.316 99.3906 227.217 96.2931 214.792 99.391C205.494 99.391 180.645 102.489 155.824 102.489C84.459 105.587 81.36 105.587 81.36 111.783C81.36 111.783 84.4583 114.881 87.5574 114.881C90.6565 114.881 118.606 111.783 146.527 111.783C174.447 111.783 205.495 108.685 211.693 108.685C220.99 108.685 220.991 108.685 233.416 130.399C239.614 142.819 245.841 152.113 245.841 155.211C245.841 155.211 236.543 158.309 227.217 161.407C211.693 164.505 189.971 180.023 183.773 189.317C180.674 189.317 174.475 195.513 165.149 201.738C146.526 217.256 109.28 263.782 90.6852 291.692C72.0905 319.602 68.963 341.317 65.8639 387.872C62.7648 412.684 62.7652 434.398 62.7652 437.496C62.7652 437.496 65.8639 453.014 65.8639 468.504C65.8639 483.994 72.0625 505.736 78.2891 527.45C87.5865 555.36 90.7145 561.585 109.309 583.299C131.031 611.21 180.673 663.96 208.622 685.675L224.146 701.193L214.849 716.711C211.75 726.005 202.424 741.523 196.226 750.845L186.929 769.462L118.662 766.364C10.0509 763.266 0.725132 763.266 0.725132 769.462C-2.37399 772.56 3.82469 772.559 31.7452 772.559C103.11 772.559 158.98 775.658 171.405 778.756C183.83 781.854 183.83 781.853 193.127 775.657C196.227 769.462 205.551 753.943 214.849 738.425C221.047 722.906 227.273 707.417 230.373 707.417C230.373 707.417 236.571 710.515 242.798 713.613C248.996 716.711 264.521 722.906 273.818 729.131C286.243 732.229 301.738 738.425 307.964 738.425C326.587 747.719 329.687 747.719 329.687 726.005C329.687 716.711 332.787 704.29 335.886 698.094C338.985 691.899 342.083 679.479 342.083 667.087C345.182 620.56 351.38 586.426 357.607 570.907L360.707 552.291V574.005C360.707 586.426 357.607 614.336 357.607 639.148C354.508 691.87 354.509 707.389 351.41 710.487C351.41 713.585 351.409 716.683 354.508 719.781C357.607 719.781 360.707 729.074 360.707 741.495V763.208L373.131 760.111C379.329 760.111 397.953 757.013 413.477 757.013C425.902 757.013 444.496 753.915 450.723 750.817C456.921 747.719 472.446 744.621 484.871 741.523C497.295 738.425 519.018 732.229 531.414 722.907C543.839 716.711 556.235 713.613 559.334 713.613C562.434 713.613 571.759 732.229 577.957 753.943C581.056 766.363 584.156 775.657 584.156 775.657C587.255 775.657 596.581 775.657 608.977 772.559C624.501 769.461 643.125 769.461 655.521 772.559C671.045 772.559 711.39 775.657 748.608 775.657C782.755 778.755 816.874 781.853 819.973 781.853C826.143 784.838 829.242 781.74 826.142 775.544ZM575.626 681.923L557.799 664.102C560.273 661.317 563.627 658.048 567.58 655.234L585.919 673.567C581.853 676.864 578.469 679.621 575.626 681.923ZM361.901 600.239C362.072 593.304 362.299 587.164 362.555 582.247L475.715 695.366C473.213 696.219 470.995 697.1 469.261 697.952C467.64 698.776 465.138 699.573 462.096 700.397L361.901 600.239ZM455.869 701.932C451.149 702.983 445.805 704.035 440.374 705.086L361.503 626.273C361.559 619.906 361.645 613.682 361.73 607.856L455.869 701.932ZM363.095 575.028C363.294 572.953 363.522 571.504 363.778 570.793C364.944 569.628 366.137 565.763 367.132 560.42L495.874 689.113C491.382 690.563 486.321 692.041 481.601 693.491L363.095 575.028ZM368.184 553.74C368.895 548.511 369.436 542.599 369.72 536.63L513.957 680.814C509.607 683.088 505.285 685.191 501.39 686.896L368.184 553.74ZM369.948 529.099C369.948 528.502 369.975 527.933 369.975 527.365C370.658 522.505 371.368 517.503 372.051 512.557L530.533 670.98C527.121 673.311 523.14 675.726 518.96 678.057L369.948 529.099ZM373.018 505.793C373.246 504.145 373.502 502.525 373.729 500.933C374.326 496.897 374.922 493.117 375.548 489.678L534.655 648.698C538.266 655.178 540.683 659.896 540.683 660.749C540.683 662.482 538.466 664.926 535.025 667.683L373.018 505.793ZM571.617 500.905L634.822 564.086C632.547 568.151 630.273 572.158 628.084 575.995L545.744 493.686C550.038 494.624 553.591 495.476 556.15 496.329C559.618 497.181 565.021 498.801 571.418 500.706L571.617 500.905ZM582.479 504.031C591.008 506.56 600.192 509.261 608.494 511.392L644.148 547.033C642.101 550.927 639.855 554.991 637.58 559.112L582.479 504.031ZM545.232 500.905L625.212 580.855C622.767 584.834 620.436 588.472 617.848 592.167L512.449 486.807C521.092 488.74 529.083 490.332 535.992 491.696L545.232 500.905ZM614.579 596.629C612.162 599.812 609.404 603.166 606.163 606.86L480.18 480.924C487.6 482.09 494.537 483.141 500.337 483.965C501.02 484.135 501.674 484.306 502.356 484.449L614.579 596.629ZM602.466 610.897C599.793 613.796 596.78 616.95 593.339 620.418L448.79 475.922C456.097 477.059 463.632 478.253 470.939 479.418L602.466 610.897ZM589.501 624.34C586.402 627.438 583.274 630.536 580.033 633.52L417.429 470.977L419.647 471.517C425.419 472.341 432.27 473.393 439.634 474.529L589.501 624.34ZM575.882 637.13C572.498 639.972 568.944 642.615 565.106 645.003L510.487 590.405C507.843 586.483 505.881 584.664 503.919 583.839L382.344 462.308L382.371 462.194L407.051 468.361L575.882 637.13ZM498.29 585.971C498.204 588.643 499.655 593.105 503.408 598.704C506.479 601.773 515.577 616.154 524.022 630.337L376.799 483.17C377.623 479.276 378.448 476.292 379.273 474.643L380.808 468.532L498.29 585.971ZM543.754 676.267C543.754 676.267 543.838 676.437 543.952 676.664L542.758 675.471C543.412 675.329 543.754 675.556 543.754 676.267ZM546.711 653.018L542.133 648.442C538.608 643.241 533.888 633.577 525.131 617.32C523.425 613.91 521.889 610.897 520.468 608.14L560.187 647.845C559.874 648.016 559.59 648.186 559.278 648.357C552.994 652.108 549.781 654.354 546.711 653.018ZM590.298 670.071C590.269 670.099 590.24 670.099 590.212 670.127L572.129 652.051C575.456 649.636 578.896 646.822 582.45 643.724L599.452 660.72C596.637 663.648 593.624 666.746 590.298 670.071ZM603.234 656.741L586.516 640.029C589.615 637.13 592.771 634.061 595.927 630.792L612.19 647.049C609.346 650.176 606.39 653.387 603.234 656.741ZM615.914 643.014L599.737 626.841C602.694 623.658 605.651 620.389 608.551 617.007L624.813 633.264C621.743 636.561 618.814 639.773 615.914 643.014ZM628.538 629.229L612.076 612.772C614.919 609.362 617.678 605.923 620.379 602.427L637.637 619.679C634.367 623.061 631.353 626.216 628.538 629.229ZM643.068 614.222C642.528 614.762 642.015 615.274 641.503 615.785L623.733 598.022C626.434 594.384 629.022 590.746 631.495 587.136L650.83 606.463L643.068 614.222ZM661.691 595.606L654.696 602.597L634.566 582.475C637.125 578.524 639.513 574.659 641.617 570.879L661.691 590.945V595.606ZM661.691 564.598V583.186L644.347 565.848C646.28 562.153 647.929 558.601 649.265 555.275C649.607 554.479 649.92 553.797 650.233 553.087L661.691 564.541C661.691 564.569 661.691 564.569 661.691 564.598ZM661.577 556.668L652.735 547.829C658.535 536.489 661.037 539.444 661.577 556.668ZM655.464 521.169C655.464 521.794 655.265 522.675 654.981 523.727L652.422 521.169C654.157 521.169 655.464 521.169 655.464 521.169ZM644.603 521.084L652.906 529.383C651.399 532.908 649.294 537.228 646.848 541.974L618.701 513.865C620.748 514.291 622.681 514.689 624.444 515.002C630.159 517.816 638.462 520.629 644.603 521.084ZM624.444 493.23C615.147 505.651 618.246 505.651 574.801 490.133C559.277 487.035 531.357 480.839 509.635 477.712C388.599 455.998 376.202 452.901 373.103 440.48C373.103 437.382 370.004 431.186 373.103 431.186C373.103 431.186 388.628 431.186 404.123 434.284C422.746 440.48 447.568 443.578 466.191 443.578C481.715 443.578 497.21 446.676 503.436 446.676C509.663 446.676 556.179 455.97 584.128 459.096C599.652 462.194 630.671 471.517 630.671 474.615C630.671 474.615 633.771 477.713 633.771 480.811C633.742 480.839 627.543 487.035 624.444 493.23ZM515.834 201.652L528.258 207.848C537.555 214.044 553.079 226.464 565.504 238.856C584.127 257.472 590.326 266.767 608.949 303.999C636.87 359.848 636.87 356.721 618.247 369.141C608.949 372.239 596.524 378.436 590.325 381.562C577.9 387.758 577.901 390.856 584.128 393.982C587.227 397.08 599.651 390.884 618.275 375.366C627.572 369.17 633.798 362.945 633.798 366.072C639.997 372.268 643.096 434.312 639.997 449.83C636.898 456.026 636.898 459.124 630.7 459.124C624.501 459.124 621.402 456.027 618.275 456.027C615.175 452.929 503.465 434.313 469.317 431.215C447.595 431.215 422.774 428.116 413.448 428.116C401.023 425.019 388.627 421.921 382.428 421.921C370.003 418.823 370.004 418.822 370.004 409.5C373.104 403.304 376.203 397.08 379.302 393.982C382.401 387.786 385.499 384.688 385.499 381.562C385.499 378.464 385.5 375.366 391.698 372.268C394.797 366.072 397.897 362.974 397.897 359.847C397.897 359.847 400.996 350.554 407.194 344.329C425.817 319.517 466.162 266.766 475.459 248.178C481.658 238.884 494.082 226.464 503.379 217.171L515.834 201.652ZM134.13 598.704C109.309 570.794 96.8834 552.177 90.6852 536.659C84.487 518.043 90.6855 524.239 103.11 549.08C106.21 555.276 115.536 570.794 124.833 580.087C131.031 589.381 137.258 601.802 140.357 601.802C143.428 608.026 140.329 608.026 134.13 598.704ZM155.852 623.544C155.852 623.544 152.753 620.447 152.753 617.349C155.852 620.418 158.951 623.544 155.852 623.544ZM227.217 691.785L208.594 676.267C199.297 666.973 186.872 657.651 183.773 651.455C165.15 635.936 162.05 632.839 162.05 626.643C162.05 626.643 165.15 629.741 174.476 635.937C193.099 651.455 208.623 660.748 224.118 663.846C230.317 666.944 236.544 670.043 236.544 670.043C236.544 673.141 236.543 676.238 233.444 682.463L227.217 691.785ZM307.907 728.989C307.907 728.989 301.709 725.891 292.384 722.793C276.859 719.695 242.741 704.177 239.642 697.981C236.543 694.883 236.544 691.785 236.544 688.687C242.742 676.266 242.742 676.267 261.365 685.589C270.662 688.687 283.087 691.785 286.186 691.785C301.71 694.883 307.908 697.981 311.007 713.499C314.107 725.891 311.007 732.116 307.907 728.989ZM307.907 685.561C301.709 688.659 292.384 688.658 273.761 679.364C248.94 670.07 245.841 666.944 258.237 648.357C264.435 635.936 267.534 629.741 264.434 626.643C264.434 623.545 261.336 623.545 258.237 626.643C258.237 629.741 255.138 632.838 258.237 632.838C258.237 632.838 255.137 639.034 252.038 645.258C245.84 654.552 239.613 660.777 239.613 660.777C230.316 663.875 202.367 645.259 183.744 632.867C155.823 611.153 131.002 577.018 103.054 527.393C78.2322 483.965 72.0344 468.447 75.1335 415.724C75.1335 341.259 87.5577 304.056 134.101 248.207C158.923 220.297 199.268 186.163 214.792 176.869C217.891 173.771 227.217 170.673 236.514 167.575L252.038 164.477L267.562 183.093C273.76 192.387 283.086 204.807 283.086 204.807C292.383 214.101 304.808 235.815 307.907 242.04C311.007 251.333 314.106 251.334 317.205 245.138C317.205 242.04 301.682 217.227 286.186 198.611C279.988 192.415 264.464 164.476 264.464 161.378C264.464 158.28 314.107 152.085 335.829 155.183C357.551 155.183 394.797 167.603 404.094 176.897C407.193 176.897 410.293 176.897 410.293 176.897C419.59 170.701 422.717 204.807 416.49 220.325C413.391 223.423 410.293 235.844 407.194 245.138C397.897 282.37 394.768 294.762 391.669 300.986C388.57 304.084 382.372 319.603 379.245 338.219C376.146 353.737 369.947 372.353 366.82 378.549C363.721 384.745 360.621 397.165 360.621 409.557C357.522 431.271 351.324 477.798 341.998 521.226C338.899 539.842 332.701 561.556 332.701 570.85C332.701 580.144 326.503 595.663 323.404 608.083C320.304 620.503 317.205 642.217 314.106 657.707C314.106 670.071 311.007 682.463 307.907 685.561ZM354.451 545.981C348.253 570.794 335.828 632.839 332.729 660.749C332.729 673.169 329.631 691.757 326.531 701.079C326.531 710.373 323.432 719.695 320.333 719.695C317.234 722.793 314.135 697.981 317.234 697.981C320.333 694.883 320.333 688.687 320.333 679.364C320.333 670.07 326.531 642.132 332.758 614.222C335.857 589.41 345.183 552.177 348.282 536.659C348.282 518.043 354.481 499.426 354.481 493.23C357.58 490.133 360.678 477.712 360.678 471.517V452.9C363.777 446.704 363.777 446.704 366.877 455.998V474.615C360.65 514.945 357.551 533.561 354.451 545.981ZM361.446 633.946L433.863 706.337C432.214 706.649 430.537 706.99 428.944 707.303C424.68 707.559 420.728 707.843 416.975 708.099L361.475 652.62C361.446 646.424 361.446 640.142 361.446 633.946ZM361.503 660.379L409.753 708.61C403.128 709.122 397.384 709.577 392.493 710.003L361.787 679.308C361.673 673.453 361.559 667.058 361.503 660.379ZM361.986 687.237L385.358 710.6C376.373 711.367 370.971 711.822 367.701 711.595L363.038 706.934C362.583 703.04 362.242 696.048 361.986 687.237ZM388.599 747.605H377.311L366.592 736.89C364.915 728.363 364.601 724.953 371.283 722.935L395.564 747.207C393.034 747.435 390.646 747.605 388.599 747.605ZM402.559 746.44L377.71 721.599C381.861 720.974 387.348 720.434 394.484 719.724L419.39 744.621C414.415 744.934 408.387 745.729 402.559 746.44ZM426.612 744.109L401.592 719.099C407.563 718.587 413.25 718.047 418.652 717.507L442.621 741.466C436.963 742.66 431.559 743.541 426.612 744.109ZM448.989 740.102L425.703 716.825C431.645 716.171 437.19 715.489 442.279 714.75L463.859 736.322C458.826 737.714 453.822 738.993 448.989 740.102ZM469.914 734.588L448.989 713.67C454.874 712.675 459.992 711.567 464.285 710.316L484.131 730.154C479.382 731.717 474.634 733.224 469.914 734.588ZM489.931 728.222L470.057 708.355C470.882 708.014 471.678 707.673 472.388 707.303C475.146 705.939 479.127 704.546 483.506 703.182L503.636 723.305C499.172 724.953 494.565 726.63 489.931 728.222ZM509.236 721.116L489.448 701.335C493.172 700.227 496.955 699.089 500.31 697.981C501.362 697.64 502.441 697.242 503.55 696.816L522.4 715.659C518.221 717.478 513.814 719.297 509.236 721.116ZM527.747 713.244L509.038 694.542C513.246 692.666 517.453 690.42 521.149 688.005L540.2 707.047C536.503 709.037 532.324 711.14 527.747 713.244ZM549.952 701.079C548.531 702.102 546.91 703.153 545.118 704.233L525.642 684.765C526.58 683.997 527.433 683.23 528.201 682.463C531.897 681.24 535.081 679.507 537.612 678.086L554.103 694.57C555.411 698.322 554.018 699.061 549.952 701.079ZM556.179 685.561C553.08 679.365 553.079 673.141 553.079 670.043C553.079 670.043 553.507 669.389 554.331 668.337L571.361 685.362C560.273 694.144 560.643 692.268 556.179 685.561Z" fill="black"/>
<path d="M835.469 238.855C838.568 223.337 838.567 223.337 832.369 229.561C829.27 232.659 826.172 241.982 826.172 251.276C819.974 282.284 807.548 294.704 807.548 272.99C807.548 266.794 804.449 263.696 804.449 263.696C798.251 266.794 798.251 288.508 801.351 291.606C807.549 297.802 816.874 291.607 819.973 285.411C823.072 276.117 823.072 276.117 829.271 276.117C832.37 276.117 835.469 276.116 838.568 273.018C844.766 266.822 844.766 266.822 847.865 273.018C847.865 285.439 860.29 285.439 866.488 276.117C872.686 266.823 869.588 263.697 863.389 269.921C857.191 276.117 857.191 276.117 857.191 260.627C857.191 245.137 850.993 242.01 844.767 257.529C838.568 266.823 829.242 269.949 832.341 260.627C832.37 257.472 835.469 248.178 835.469 238.855Z" fill="black"/>
<path d="M965.802 282.313C965.802 279.215 962.702 279.215 959.603 279.215C956.504 279.215 950.306 276.117 950.306 273.019C950.306 273.019 947.208 273.019 941.01 276.117C931.712 282.313 931.711 285.411 937.91 291.635C937.91 294.733 944.108 297.831 950.335 297.831C959.604 297.802 965.802 291.606 965.802 282.313ZM953.377 285.411C956.476 285.411 956.477 285.411 956.477 288.509L953.377 291.607C950.278 291.607 947.179 288.509 947.179 288.509C947.179 285.411 947.178 285.411 953.377 285.411Z" fill="black"/>
<path d="M968.9 217.142C965.801 217.142 906.833 279.186 906.833 282.284C906.833 285.382 906.833 288.481 906.833 288.481C909.933 288.481 972 223.338 972 217.142H968.9Z" fill="black"/>
<path d="M909.932 241.982C913.031 248.178 919.23 248.178 922.357 241.982C931.654 235.786 925.456 226.464 909.932 226.464C906.833 223.366 903.734 238.856 909.932 241.982Z" fill="black"/>
</svg>
